<svg width="426" height="426" viewBox="0 0 426 426" fill="none" xmlns="http://www.w3.org/2000/svg">
<g clip-path="url(#clip0_37_10624)">
<path d="M137.766 307.866C141.62 307.27 143.249 309.435 142.752 313.169L139.455 337.602C138.938 341.475 137.051 344.653 131.569 345.487L123.187 346.759L121.359 360.345L111.626 361.835L118.519 310.806L137.786 307.866H137.766ZM127.04 318.274L124.339 338.336L129.205 337.602C130.02 337.482 130.198 337.184 130.298 336.39L132.721 318.374C132.801 317.738 132.642 317.42 131.966 317.519L127.02 318.274H127.04Z" fill="white"/>
<path d="M148.91 349.957L147.182 356.432L137.31 357.942L153.061 305.562L163.53 303.972L165.496 353.651L155.624 355.161V348.964L148.91 349.977V349.957ZM151.075 341.693L155.604 340.998L155.822 323.24L151.075 341.674V341.693Z" fill="white"/>
<path d="M196.205 328.603C195.907 330.848 194.04 333.351 191.2 333.788L194.139 349.261L184.009 350.811L181.466 335.277L180.175 335.476L177.99 351.725L168.178 353.214L175.07 302.185L193.663 299.344C198.251 298.649 199.94 300.933 199.383 304.946L196.185 328.603H196.205ZM183.671 309.634L181.288 327.233L186.075 326.498C186.81 326.379 187.068 326.081 187.167 325.286L189.253 309.793C189.332 309.157 189.134 308.779 188.439 308.879L183.651 309.614L183.671 309.634Z" fill="white"/>
<path d="M205.223 347.553C199.622 348.407 197.894 346.461 198.648 340.839L203.634 303.953C204.171 299.94 206.971 297.298 210.229 296.802L223.14 294.835L223.557 304.072L214.162 305.502C213.487 305.601 213.228 305.979 213.149 306.614L209.097 336.668C209.017 337.304 209.176 337.621 209.852 337.522L219.247 336.092L216.208 345.865L205.263 347.533L205.223 347.553Z" fill="white"/>
<path d="M228.206 294.08L247.255 291.18L247.672 300.417L236.985 302.046L235.357 314.163L243.461 312.931L242.269 321.731L234.165 322.962L232.675 334.086L242.944 332.516L239.965 342.269L221.313 345.11L228.206 294.08Z" fill="white"/>
<path d="M273.455 316.824C273.157 319.069 271.29 321.572 268.449 322.009L271.389 337.482L261.259 339.032L258.716 323.498L257.425 323.697L255.24 339.945L245.427 341.435L252.32 290.406L270.912 287.565C275.501 286.87 277.189 289.154 276.633 293.167L273.435 316.824H273.455ZM260.941 297.835L258.557 315.434L263.344 314.699C264.079 314.58 264.337 314.282 264.437 313.487L266.522 297.994C266.602 297.358 266.403 296.98 265.708 297.08L260.921 297.815L260.941 297.835Z" fill="white"/>
<path d="M301.244 325.822C300.727 329.696 298.721 333.311 293.239 334.145L281.877 335.873C276.394 336.708 275.302 333.569 275.818 329.696L280.844 292.531C281.38 288.519 283.764 285.599 288.352 284.903L300.509 283.056C305.097 282.361 306.786 284.645 306.23 288.658L301.204 325.822H301.244ZM291.272 293.206C290.597 293.306 290.339 293.683 290.259 294.319L286.048 325.425C285.949 326.2 286.048 326.458 286.862 326.339L290.577 325.783C291.391 325.664 291.57 325.366 291.669 324.571L295.881 293.465C295.96 292.829 295.801 292.511 295.126 292.61L291.272 293.206Z" fill="white"/>
<path d="M303.866 332.079L306.289 322.863L316.837 321.254C317.711 321.115 318.028 320.797 318.128 320.022L319.379 310.726C319.578 309.316 319.101 309.316 317.75 309.514L312.685 310.289C309.785 310.726 307.302 310.428 307.997 305.343L310.341 288.022C310.878 284.01 313.261 281.09 317.85 280.394L331.377 278.329L328.219 287.565L320.71 289.273C319.896 289.393 319.439 289.81 319.339 290.584L318.088 299.881C317.949 300.933 318.386 301.152 319.399 300.993L325.557 300.059C328.675 299.583 330.225 300.715 329.728 304.529L327.464 321.353C326.709 326.975 324.524 329.378 318.922 330.232L303.925 332.079H303.866Z" fill="white"/>
<path d="M89.8359 226.564V69.562C95.934 66.9599 103.423 64.04 112.123 61.12C135.443 53.2938 172.627 43.9579 216.486 43.9579C260.345 43.9579 295.424 53.8698 317.115 62.1728C324.505 64.9934 330.861 67.8339 336.145 70.4162C335.509 86.4461 333.542 143.673 333.542 229.583C333.542 245.593 330.583 260.551 325.617 274.396L338.032 272.548C344.726 257.571 348.102 242.276 348.102 226.882C348.102 139.323 350.546 89.5051 351.201 77.3684C346.454 74.4088 334.436 67.4565 316.499 60.5837C294.808 52.2807 259.749 42.3688 215.87 42.3688C171.992 42.3688 134.827 51.7047 111.507 59.5309C92.0805 66.0462 78.6725 72.6409 73.4087 75.3821V223.863C73.4087 243.766 78.9109 263.411 89.7763 282.42L101.257 280.712C94.2059 264.305 89.8359 246.229 89.8359 226.544V226.564Z" fill="white"/>
<path d="M284.062 338.773L283.705 338.833C283.327 339.21 282.95 339.608 282.592 339.985C283.089 339.588 283.566 339.191 284.062 338.773Z" fill="white"/>
<path d="M281.043 341.256L281.381 341.197C281.778 340.8 282.195 340.382 282.592 339.985C282.076 340.402 281.559 340.839 281.043 341.256Z" fill="white"/>
<path d="M215.87 42.3688C172.012 42.3688 134.827 51.7047 111.507 59.5309C92.0805 66.0462 78.6725 72.6409 73.4087 75.3821V223.863C73.4087 243.766 78.9109 263.411 89.7763 282.42L101.257 280.712C94.2059 264.305 89.8359 246.229 89.8359 226.544V69.562C95.934 66.9599 103.423 64.04 112.123 61.12C135.443 53.2938 172.627 43.9579 216.486 43.9579C260.345 43.9579 295.424 53.8698 317.115 62.1728C324.505 64.9934 330.861 67.8339 336.145 70.4162C335.509 86.4461 333.542 143.673 333.542 229.583C333.542 245.593 330.583 260.551 325.617 274.396L338.032 272.548C344.726 257.571 348.102 242.276 348.102 226.882C348.102 139.323 350.546 89.5051 351.201 77.3684C346.454 74.4088 334.436 67.4565 316.499 60.5837C294.808 52.2807 259.749 42.3688 215.87 42.3688Z" fill="white"/>
<path d="M180.89 284.089C179.977 283.592 179.023 283.116 178.109 282.639V287.565C178.328 287.684 178.566 287.803 178.805 287.923C183.413 290.425 187.406 293.246 190.882 296.424L196.324 295.61C191.875 291.021 186.69 287.227 180.91 284.089H180.89Z" fill="white"/>
<path d="M138.283 256.856C133.595 250.976 130.298 244.421 128.848 236.992C128.808 236.814 128.709 236.675 128.53 236.317C126.464 240.409 124.12 244.084 120.783 247.222C118.002 235.224 119.373 223.763 124.299 212.461C118.936 214.308 113.732 214.467 108.309 212.58C116.91 208.428 121.657 200.92 126.325 193.332C127.457 191.485 128.629 189.638 129.881 187.631C124.537 188.704 119.611 187.969 115.082 185.863C118.558 184.175 122.233 182.725 125.55 180.699C131.291 177.183 135.224 171.979 138.184 165.96C140.051 162.146 142.037 158.372 143.865 154.737C139.634 156.287 135.025 156.485 130.159 154.578C131.212 154.082 132.066 153.684 132.94 153.267C138.025 150.884 142.196 147.328 145.871 143.137C150.022 138.409 154.114 133.622 158.226 128.875C153.101 128.994 148.215 127.603 143.805 123.929C145.295 123.75 146.546 123.631 147.778 123.432C157.65 121.843 166.112 117.473 173.203 110.441C174.614 109.051 175.249 107.442 175.527 105.436C177.315 92.1271 182.738 80.4473 191.577 70.3764C195.033 66.4236 198.867 62.8084 203.793 60.7625C206.117 59.7891 208.68 59.3323 211.143 58.7165C212.374 58.3987 212.771 59.0145 212.811 60.246C213.069 70.6148 216.148 80.1891 221.055 89.2469C221.71 90.4585 222.346 90.7764 223.696 90.3394C228.285 88.8496 231.98 85.9495 235.555 82.8706C240.958 78.2424 245.606 72.919 249.956 67.3174C251.208 65.6886 251.744 65.7085 252.717 67.6154C254.743 71.5881 255.796 75.8588 256.452 80.2288C257.564 87.8365 256.889 95.3847 255.538 102.893C255.359 103.827 255.578 104.224 256.332 104.701C260.126 107.124 263.96 109.508 267.615 112.15C272.263 115.507 276.057 119.658 277.884 125.279C277.984 125.597 278.5 125.975 278.858 126.014C287.022 126.908 295.186 127.762 303.35 128.617C307.779 129.093 312.229 129.471 316.658 130.027C322.16 130.742 326.193 136.582 324.365 141.786C321.922 148.699 319.081 155.472 316.142 162.186C315.347 164.013 313.559 165.424 312.268 167.053C311.792 167.668 311.235 168.324 311.076 169.039C309.408 176.448 304.561 180.619 297.331 181.871C293.1 182.606 288.73 182.487 284.42 182.804C281.162 183.043 277.845 183.023 274.666 183.718C269.621 184.831 267.257 189.32 268.608 194.325C270.336 200.682 275.759 204.416 282.314 203.761C282.85 203.701 283.406 203.681 284.261 203.621C284.261 203.621 284.261 203.621 284.28 203.602H284.3C284.3 203.602 284.28 203.602 284.261 203.621C280.626 207.515 276.414 208.726 271.409 208.131C273.216 212.183 275.401 215.639 278.739 218.221C282.095 220.823 286.068 221.836 290.577 222.313C286.565 225.769 282.235 227.219 277.288 226.981C277.686 229.087 278.123 231.073 278.401 233.059C279.315 239.535 278.401 245.852 276.196 251.95C274.229 257.372 271.965 262.716 269.959 268.138C267.933 273.621 266.88 279.262 266.721 285.142L271.111 284.486C271.329 279.282 272.283 274.376 274.051 269.648C274.964 267.185 275.958 264.682 276.911 262.259C278.043 259.379 279.215 256.419 280.308 253.439C282.87 246.348 283.685 239.297 282.731 232.444C282.672 231.967 282.592 231.49 282.513 231.013C286.485 230.298 290.1 228.511 293.457 225.63L301.105 219.036L291.054 217.963C286.604 217.486 283.724 216.533 281.44 214.765C280.447 214.01 279.553 213.096 278.719 212.024C282.036 211.15 284.936 209.342 287.518 206.561L295.027 198.477L284.002 199.212L283.208 199.271C282.691 199.291 282.294 199.331 281.877 199.371C277.447 199.808 273.971 197.424 272.819 193.134C272.442 191.743 272.541 190.472 273.097 189.558C273.594 188.744 274.428 188.207 275.6 187.949C277.547 187.512 279.712 187.393 281.996 187.294C282.91 187.254 283.804 187.194 284.717 187.135C286.088 187.035 287.479 186.976 288.929 186.916C291.888 186.797 294.947 186.678 298.026 186.142C307.044 184.592 313.142 178.971 315.208 170.29C315.307 170.171 315.427 169.992 315.546 169.873L315.665 169.734C315.983 169.317 316.4 168.88 316.857 168.403C317.989 167.192 319.3 165.821 320.114 163.914C322.756 157.856 325.815 150.665 328.437 143.216C329.709 139.621 329.212 135.609 327.126 132.192C324.921 128.636 321.207 126.193 317.155 125.677C314.056 125.279 310.937 124.962 307.918 124.664C306.528 124.525 305.137 124.386 303.747 124.247L300.926 123.949C294.47 123.273 287.816 122.578 281.241 121.863C279.116 116.818 275.481 112.448 270.138 108.594C267.059 106.369 263.841 104.323 260.742 102.337C260.524 102.198 260.325 102.059 260.106 101.92C261.517 93.3388 261.735 86.2077 260.742 79.5733C259.928 73.9916 258.597 69.5422 256.591 65.6092C256.094 64.6359 254.763 62.0536 251.823 61.7556C248.903 61.4775 247.136 63.742 246.48 64.5961C241.594 70.8929 237.204 75.6403 232.675 79.5137C230.053 81.7583 227.232 84.0625 223.994 85.4926C219.605 76.9314 217.36 68.6086 217.141 60.107C217.082 57.9815 216.347 56.3726 214.937 55.3C214.162 54.7041 212.493 53.8102 210.03 54.4458C209.434 54.6047 208.839 54.7239 208.243 54.863C206.217 55.3397 204.131 55.8164 202.045 56.6904C195.927 59.2528 191.438 63.8016 188.22 67.4764C178.745 78.302 173.005 90.8757 171.137 104.84C170.959 106.191 170.601 106.786 170.065 107.323C163.53 113.818 156.001 117.672 147.043 119.102C146.308 119.221 145.553 119.3 144.679 119.4C144.222 119.459 143.745 119.519 143.229 119.579L133.218 120.83L140.965 127.286C143.606 129.491 146.507 131.08 149.645 132.073C147.301 134.794 144.917 137.555 142.534 140.257C138.839 144.468 135.085 147.427 131.053 149.295L119.015 154.936L128.53 158.65C131.033 159.624 133.555 160.18 136.078 160.299C135.462 161.531 134.827 162.782 134.211 164.033C131.291 170.012 127.696 174.243 123.226 176.965C121.161 178.216 118.896 179.249 116.493 180.361C115.38 180.858 114.248 181.394 113.136 181.93L104.853 185.963L113.215 189.836C115.996 191.127 118.876 191.942 121.776 192.299C117.823 198.735 113.553 205.171 106.362 208.647L96.8276 213.235L106.819 216.712C110.335 217.943 113.871 218.46 117.446 218.261C114.447 228.213 114.129 238.085 116.473 248.215L118.181 255.624L123.723 250.44C124.935 249.288 126.067 248.076 127.139 246.726C128.987 251.235 131.549 255.545 134.787 259.617C138.978 264.861 144.143 269.37 150.737 273.482L157.67 272.449C150.3 268.436 143.547 263.57 138.223 256.876L138.283 256.856Z" fill="white"/>
<path d="M115.956 307.548L111.566 308.184L139.872 303.992L115.956 307.548Z" fill="white"/>
<path d="M316.499 60.5837C294.808 52.2807 259.749 42.3688 215.87 42.3688C171.992 42.3688 134.827 51.7047 111.507 59.5309C92.0805 66.0462 78.6725 72.6409 73.4087 75.3821V223.863C73.4087 243.766 78.9109 263.411 89.7763 282.42L101.257 280.712C94.2059 264.305 89.8359 246.229 89.8359 226.544V71.5683C95.934 68.9661 103.423 66.0462 112.123 63.1262C135.443 55.3 172.627 45.9641 216.486 45.9641C260.345 45.9641 295.424 55.876 317.115 64.179C324.505 66.9996 330.861 69.8401 336.145 72.4224C335.509 88.4523 333.542 143.693 333.542 229.583C333.542 245.593 330.583 260.551 325.617 274.396L338.032 272.548C344.726 257.571 348.102 242.276 348.102 226.882C348.102 139.323 350.546 89.5051 351.201 77.3684C346.454 74.4088 334.436 67.4764 316.499 60.5837Z" fill="white"/>
<path d="M336.999 274.713L325.398 276.442L340.435 274.217L336.999 274.713Z" fill="white"/>
<path d="M182.758 163.696C186.572 154.539 193.603 148.103 201.251 141.687C190.107 145.222 184.148 152.572 182.758 163.696Z" fill="white"/>
<path d="M192.113 239.515C188.101 237.767 183.83 236.476 180.493 233.298C180.672 233.715 180.811 234.152 181.01 234.549C182.936 238.681 186.293 241.184 190.425 242.753C193.623 243.964 196.9 244.997 200.138 246.11C200.059 245.971 199.959 245.752 199.84 245.573C197.874 242.753 195.212 240.866 192.094 239.495L192.113 239.515Z" fill="white"/>
<path d="M181.466 201.337C176.798 209.998 176.699 224.558 187.505 233.377C186.035 229.822 185.817 226.306 185.836 222.73C190.107 229.206 195.45 234.112 203.217 235.88C202.065 234.271 200.873 232.742 199.801 231.133C198.768 229.563 197.854 227.915 196.9 226.286C203.237 230.795 210.308 233.675 217.34 236.655C214.539 234.152 211.679 231.748 208.68 229.484C200.059 222.989 192.312 215.738 186.989 206.204C186.909 206.065 186.909 205.866 186.869 205.687C186.651 205.807 186.432 205.926 186.214 206.065C187.465 210.951 188.697 215.858 189.869 220.466C184.545 215.599 181.029 209.541 181.466 201.357V201.337Z" fill="white"/>
<path d="M207.508 257.948C212.076 268.377 219.525 277.335 222.982 288.32C222.564 275.786 218.473 265.119 207.508 257.948Z" fill="white"/>
<path d="M208.958 245.097C220.042 254.433 223.538 267.245 225.504 281.09C225.624 280.653 225.683 280.474 225.703 280.295C226.537 273.621 226.736 266.927 225.187 260.332C223.061 251.354 217.42 246.169 208.958 245.077V245.097Z" fill="white"/>
<path d="M263.9 223.624C264.655 226.584 264.894 229.603 264.457 232.94C262.371 228.53 259.808 224.856 256.71 221.538C253.492 218.102 249.638 215.182 247.771 210.594C247.95 214.07 249.082 217.228 251.128 219.949C253.154 222.631 255.399 225.134 257.544 227.716C249.956 223.624 241.693 220.446 237.402 212.163C237.76 215.838 239.13 219.036 241.435 221.876C243.818 224.816 246.977 226.763 250.115 228.729C259.431 234.569 263.98 243.011 263.861 253.976C263.841 256.101 263.583 258.207 263.444 260.392C263.583 260.213 263.722 260.074 263.801 259.915C267.237 251.393 269.621 242.653 269.303 233.377C269.045 226.226 265.867 220.287 261.378 215.063C262.232 217.884 263.185 220.724 263.94 223.644L263.9 223.624Z" fill="white"/>
<path d="M317.333 138.35C317.89 138.33 318.783 137.873 318.843 137.496C318.942 136.939 318.565 136.165 318.168 135.708C317.85 135.35 317.155 135.152 316.638 135.152C314.314 135.092 311.99 135.052 309.666 135.152C307.62 135.251 306.11 137.178 306.15 139.105C308.176 138.846 310.103 138.489 312.07 138.37C313.818 138.25 315.585 138.449 317.333 138.37V138.35Z" fill="white"/>
<path d="M227.391 228.014C224.233 222.75 220.121 218.281 216.029 213.792C211.302 208.607 207.091 203.065 204.052 196.709C204.012 196.63 203.853 196.59 203.694 196.49C203.396 200.284 203.634 203.939 204.429 207.594C206.177 215.599 210.706 222.015 215.95 228.074C220.459 233.278 224.809 238.621 229.02 244.044C231.185 246.825 232.933 249.943 234.979 253.062C234.8 251.612 234.622 250.301 234.483 249.01C233.648 241.501 231.265 234.49 227.391 227.994V228.014ZM214.937 218.042C221.194 223.584 226.458 229.643 228.504 237.131C224.273 231.172 219.645 224.677 214.937 218.042Z" fill="white"/>
<path d="M214.937 218.042C221.194 223.584 226.457 229.643 228.503 237.131C226.477 229.643 221.194 223.584 214.937 218.042Z" fill="white"/>
<path d="M214.937 218.042C219.644 224.657 224.272 231.172 228.503 237.131C226.457 229.643 221.194 223.584 214.937 218.042Z" fill="white"/>
<path d="M303.37 167.51C302.952 167.629 302.555 167.788 302.198 168.006C298.463 170.231 294.391 170.986 290.101 171.184C285.651 171.383 281.202 171.681 276.812 172.316C274.17 172.694 271.628 173.826 269.025 174.621C269.065 174.78 269.105 174.919 269.145 175.078C269.363 175.078 269.582 175.078 269.8 175.078C273.018 174.938 276.216 174.66 279.434 174.68C284.36 174.72 289.286 175.078 294.212 175.078C297.132 175.078 299.973 174.263 302.337 172.475C303.449 171.641 304.363 170.39 304.998 169.138C305.555 168.046 304.601 167.212 303.37 167.549V167.51Z" fill="white"/>
<path d="M188.955 249.745C185.221 247.639 181.645 245.216 178.109 243.011C178.487 243.825 178.904 244.978 179.5 246.03C181.804 250.122 185.379 252.903 189.293 255.346C192.947 257.631 196.642 259.855 200.158 262.358C202.601 264.086 204.746 266.212 207.031 268.178C205.899 265.715 204.627 263.292 203.018 261.107C199.324 256.121 194.298 252.764 188.955 249.745Z" fill="white"/>
<path d="M161.523 159.068C165.059 150.745 170.542 144.13 176.183 137.516C168.734 140.098 162.099 149.732 161.523 159.068Z" fill="white"/>
<path d="M209.434 159.405C201.449 169.257 200.456 181.513 204.21 188.426C203.575 183.241 204.349 178.276 205.501 173.389C206.654 168.542 208.183 163.775 209.434 159.405Z" fill="white"/>
<path d="M251.108 262.497C251.347 256.618 251.029 250.817 249.003 245.216C246.858 239.336 243.004 234.768 237.919 230.835C239.568 234.192 241.177 237.29 242.607 240.449C246.222 248.493 247.096 256.955 246.262 265.656C245.447 274.177 242.686 281.964 238.833 289.293L244.831 288.399C245.825 286.175 246.758 283.91 247.553 281.566C249.638 275.389 250.85 269.032 251.128 262.477L251.108 262.497Z" fill="white"/>
<path d="M256.333 286.691L262.053 285.837C260.623 283.493 259.769 280.851 259.451 277.852C258.617 280.97 257.564 283.91 256.333 286.691Z" fill="white"/>
<path d="M194.656 140.813C195.788 140.316 196.762 139.859 197.755 139.442C198.629 139.085 199.721 139.025 200.377 138.469C202.602 136.582 204.687 134.556 206.832 132.55C201.648 133.483 197.497 136.046 194.636 140.793L194.656 140.813Z" fill="white"/>
<path d="M191.478 182.586C188.141 173.985 188.618 165.702 191.518 157.399C180.97 173.151 184.903 191.862 196.444 204.714C193.981 186.201 196.603 168.781 207.766 153.228C197.715 160.319 192.908 170.35 191.478 182.586Z" fill="white"/>
<path d="M237.045 272.191C236.826 267.503 236.151 262.934 234.244 258.624C234.125 258.346 233.946 258.068 234.006 257.829C234.284 263.788 234.562 269.728 234.84 275.687C234.641 275.707 234.423 275.746 234.224 275.786C232.874 271.793 231.523 267.821 230.172 263.828H229.735C231.145 273.144 231.086 282.103 229.338 290.723L234.761 289.909C236.33 284.149 237.323 278.289 237.045 272.211V272.191Z" fill="white"/>
<path d="M147.202 175.475C147.877 174.362 148.493 173.29 149.148 172.197C149.983 173.091 150.737 173.906 151.492 174.7C150.519 168.9 150.539 163.298 152.883 157.856C148.692 162.643 145.97 170.41 147.202 175.455V175.475Z" fill="white"/>
<path d="M169.806 136.244C174.872 132.192 180.414 128.875 186.194 125.915C171.157 126.988 159.299 137.277 157.153 151.341C160.292 145.064 164.682 140.356 169.806 136.244Z" fill="white"/>
<path d="M194.735 118.228C194.358 117.692 194.06 117.354 193.841 116.957C192.63 114.712 191.16 112.567 190.286 110.203C188.379 105.058 188.875 99.715 189.829 94.4512C191.08 87.5982 193.385 81.1028 197 75.104C196.9 75.0047 196.781 74.9252 196.682 74.8259C195.192 76.8123 193.603 78.7391 192.213 80.8049C187.505 87.8763 184.148 95.4245 184.823 104.224C185.32 110.779 188.319 115.586 194.755 118.248L194.735 118.228Z" fill="white"/>
<path d="M149.128 220.347C148.215 204.754 153.836 191.445 163.549 179.189C155.683 183.222 151.254 189.657 148.274 197.782C147.142 191.783 147.817 186.4 150.3 181.116C147.519 183.321 144.937 188.346 144.58 192.24C144.401 194.107 144.202 195.835 142.335 196.908C141.62 197.325 141.123 198.099 140.607 198.775C135.879 204.913 133.655 211.964 133.198 219.632C133.019 222.75 133.198 225.849 134.251 229.265C134.807 218.579 138.76 209.819 145.851 202.013C145.374 208.627 146.348 214.666 149.109 220.367L149.128 220.347Z" fill="white"/>
<path d="M199.96 279.977C194.596 275.309 188.558 271.595 182.579 267.821C175.428 263.312 169.052 257.988 164.185 250.996C160.292 245.415 157.273 239.436 155.942 232.702C155.882 232.424 155.743 232.185 155.564 231.768C155.266 240.31 157.968 247.699 162.934 254.373C156.2 250.837 150.201 246.487 146.189 239.853C142.137 233.198 141.104 225.889 141.859 218.221C140.528 220.525 139.932 223.048 139.733 225.63C138.899 236.555 143.011 245.673 150.221 253.559C155.386 259.2 161.841 263.113 168.337 266.986C170.045 268 171.753 269.013 173.481 270.026L178.05 269.35V272.767C181.983 275.131 185.876 277.574 189.631 280.176C195.133 284.01 199.622 288.777 202.681 294.617L211.004 293.385C208.203 288.419 204.528 283.95 199.94 279.938L199.96 279.977Z" fill="white"/>
<path d="M217.559 100.39C216.585 93.0607 211.917 87.2606 210.07 80.348C209.971 80.5069 209.871 80.6261 209.832 80.7453C209.693 81.5001 209.534 82.2351 209.474 82.9899C209.137 87.1811 209.216 91.3326 211.043 95.2457C212.354 98.0266 214.559 99.6554 217.559 100.41V100.39Z" fill="white"/>
<path d="M177.335 159.961C180.394 151.341 184.863 143.614 191.2 137.019C197.536 130.424 205.025 125.577 213.785 122.26C197.973 120.294 175.348 137.456 177.335 159.961Z" fill="white"/>
<path d="M254.565 126.61C255.021 127.087 255.419 127.584 255.915 128.14C257.783 124.386 256.253 120.214 252.459 118.367C248.288 116.321 243.878 116.46 239.508 117.493C232.754 119.082 227.51 122.876 223.855 128.875C228.702 124.962 234.264 122.797 240.442 122.181C245.765 121.644 250.651 122.618 254.565 126.63V126.61Z" fill="white"/>
<path d="M163.828 213.275C161.623 221.697 162.695 229.841 166.628 237.568C163.232 221.399 167.224 207.237 178.01 194.842C170.621 198.934 165.933 205.191 163.808 213.275H163.828Z" fill="white"/>
<path d="M223.101 153.247C226.438 150.328 230.232 148.381 234.423 147.924C233.092 149.136 231.483 150.308 230.232 151.778C227.212 155.353 226.378 159.624 226.954 164.192C227.093 165.285 226.895 165.94 225.862 166.457C225.027 166.874 224.213 167.43 223.518 168.046C219.029 172.058 216.764 177.124 216.625 183.122C216.565 185.844 217.062 188.505 218.512 190.949C218.611 184.751 220.181 179.11 224.253 174.283C222.544 184.989 225.921 193.908 233.45 201.437C232.436 195.319 232.576 189.399 235.535 183.798C238.535 178.117 243.381 174.879 249.837 173.171C245.646 171.78 241.892 171.86 238.257 173.528C234.582 175.217 232.099 178.117 230.331 181.831C230.311 179.05 230.251 176.289 230.788 173.628C232.377 165.841 236.866 160.359 244.434 157.637C247.612 156.485 250.87 156.426 254.008 157.578C251.843 159.961 249.758 162.285 247.533 164.729C252.3 166.437 257.365 166.338 262.947 164.649C265.172 163.974 267.396 163.1 269.661 162.901C274.746 162.464 279.891 162.405 284.996 162.166C288.69 162.007 292.405 162.087 295.96 160.815C300.211 159.286 303.747 156.902 305.574 152.532C305.991 151.559 306.031 150.923 304.998 150.169C303.826 149.314 302.853 148.143 301.919 147.01C298.96 143.415 297.49 139.502 299.476 134.893C299.516 134.774 299.456 134.615 299.397 134.178C287.22 133.086 274.984 132.013 262.728 130.921C264.437 133.185 267.158 134.079 274.845 135.251C270.495 136.701 266.185 138.31 261.795 139.581C257.842 140.733 254.247 140.058 251.585 136.562C251.267 136.145 250.87 135.807 250.493 135.43C246.023 130.881 240.66 129.133 234.383 130.345C230.371 131.119 227.073 133.165 224.332 136.204C228.225 133.88 232.397 133.344 236.687 134.476C241.157 135.668 243.779 138.906 245.328 143.276C227.212 137.376 215.87 151.003 214.579 163.298C216.923 159.365 219.764 156.128 223.021 153.287L223.101 153.247ZM299.456 154.141C298.185 155.81 296.814 156.426 295.305 156.525C292.802 156.704 290.279 156.843 287.776 156.724C281.817 156.446 275.858 156.028 269.899 155.671C269.343 155.631 268.807 155.512 268.251 155.413L268.211 155.115C275.024 154.717 281.817 154.36 288.631 153.903C291.034 153.744 293.418 153.287 295.821 153.208C296.953 153.188 298.086 153.764 299.476 154.121L299.456 154.141ZM263.881 150.784C265.629 150.526 267.357 150.188 269.105 149.99C276.454 149.195 283.804 148.46 291.133 147.666C292.484 147.527 293.835 147.149 295.205 147.11C296.119 147.09 297.112 147.328 297.967 147.686C298.523 147.904 298.721 148.242 298.682 148.56C298.642 148.877 298.364 149.175 297.947 149.314C296.457 149.871 294.888 150.447 293.318 150.486C283.605 150.765 273.872 150.904 264.159 151.102C264.079 151.102 264 151.043 263.92 151.023C263.92 150.943 263.9 150.864 263.881 150.804V150.784ZM241.415 151.599C242.19 151.639 243.004 151.758 243.878 151.917C239.051 153.267 235.178 155.671 232.059 159.385C232.556 154.102 235.972 151.301 241.415 151.599Z" fill="white"/>
<path d="M297.966 149.295C296.477 149.851 294.888 150.427 293.338 150.467C283.625 150.745 273.892 150.884 264.178 151.082C264.099 151.082 264.02 151.043 263.94 151.003C263.94 150.923 263.92 150.864 263.9 150.784C263.9 150.864 263.92 150.923 263.94 151.003C264.02 151.023 264.099 151.082 264.178 151.082C273.892 150.904 283.625 150.765 293.338 150.467C294.888 150.427 296.477 149.851 297.966 149.295C298.384 149.136 298.662 148.838 298.701 148.54C298.662 148.858 298.364 149.136 297.966 149.295Z" fill="white"/>
<path d="M287.776 156.724C281.817 156.445 275.858 156.028 269.899 155.671C269.343 155.631 268.807 155.512 268.25 155.413C268.807 155.512 269.363 155.631 269.899 155.671C275.858 156.048 281.817 156.465 287.776 156.724Z" fill="white"/>
<path d="M269.125 149.99C276.474 149.195 283.804 148.46 291.153 147.666C292.504 147.527 293.855 147.149 295.225 147.11C296.139 147.09 297.132 147.328 297.986 147.686C298.543 147.904 298.741 148.242 298.701 148.56C298.741 148.242 298.543 147.924 297.986 147.686C297.132 147.328 296.139 147.09 295.225 147.11C293.875 147.149 292.524 147.527 291.153 147.666C283.804 148.46 276.454 149.195 269.125 149.99Z" fill="white"/>
<path d="M263.881 150.765V150.784H263.901L263.881 150.765Z" fill="white"/>
<path d="M297.986 147.686C297.132 147.328 296.139 147.09 295.225 147.11C293.875 147.149 292.524 147.527 291.153 147.666C283.804 148.46 276.454 149.195 269.125 149.99C267.377 150.169 265.648 150.506 263.9 150.784C263.9 150.864 263.92 150.943 263.94 151.003C264.02 151.023 264.099 151.082 264.178 151.082C273.892 150.904 283.625 150.764 293.338 150.466C294.888 150.427 296.477 149.851 297.966 149.295C298.384 149.136 298.662 148.838 298.701 148.54C298.741 148.222 298.543 147.904 297.986 147.666V147.686Z" fill="white"/>
<path d="M268.191 155.115L268.231 155.413H268.251L268.191 155.115Z" fill="white"/>
<path d="M295.801 153.228C293.398 153.287 291.014 153.764 288.611 153.923C281.797 154.36 275.004 154.737 268.191 155.134C275.004 154.737 281.797 154.38 288.611 153.923C291.014 153.764 293.398 153.307 295.801 153.228C296.914 153.188 298.066 153.764 299.456 154.141C298.066 153.764 296.934 153.188 295.801 153.228Z" fill="white"/>
<path d="M288.611 153.923C281.797 154.36 275.004 154.737 268.191 155.134L268.231 155.432C268.787 155.512 269.323 155.651 269.879 155.691C275.838 156.068 281.797 156.485 287.757 156.743C290.259 156.863 292.782 156.724 295.285 156.545C296.795 156.445 298.165 155.83 299.436 154.161C298.046 153.784 296.914 153.208 295.781 153.247C293.378 153.307 290.994 153.784 288.591 153.943L288.611 153.923Z" fill="white"/>
<path d="M241.415 151.599C235.952 151.301 232.556 154.102 232.059 159.385C232.556 154.102 235.972 151.301 241.415 151.599Z" fill="white"/>
<path d="M232.059 159.385C235.178 155.671 239.051 153.287 243.878 151.917C243.024 151.738 242.19 151.638 241.415 151.599C235.972 151.301 232.556 154.102 232.059 159.385Z" fill="white"/>
<path d="M218.373 107.919C213.844 105.416 211.401 101.105 208.342 97.2916C208.441 103.449 213.149 108.475 218.373 107.919Z" fill="white"/>
<path d="M249.479 99.0596C249.936 95.3451 250.413 91.5511 250.87 87.7572C250.731 87.7373 250.592 87.6976 250.473 87.6777C248.566 89.9819 246.639 92.306 244.553 94.8088C246.142 96.1794 247.692 97.5301 249.479 99.0596Z" fill="white"/>
<path d="M108.527 308.64L104.654 309.216L111.566 308.184L108.527 308.64Z" fill="white"/>
<path d="M190.862 296.424L139.872 303.992L190.862 296.424Z" fill="white"/>
<path d="M325.398 276.442L271.111 284.506L324.802 276.541L325.398 276.442Z" fill="white"/>
<path d="M284.301 203.602C284.301 203.602 284.301 203.602 284.281 203.622C284.281 203.622 284.301 203.622 284.32 203.622H284.301V203.602Z" fill="white"/>
<path d="M191.537 157.399L191.518 157.419L191.537 157.399Z" fill="white"/>
<path d="M81.3145 311.938V312.017L96.6094 309.753C96.6094 309.753 96.5697 309.713 96.5498 309.673L81.3145 311.938Z" fill="white"/>
<path d="M98.0791 301.311L98.1983 294.219L96.2715 301.589L98.0791 301.311Z" fill="white"/>
<path d="M163.093 280.811L161.543 281.03C161.265 281.07 161.166 281.229 161.126 281.487L159.398 293.921C159.358 294.239 159.398 294.339 159.716 294.299L161.206 294.08C161.523 294.041 161.603 293.902 161.643 293.604L163.371 281.169C163.41 280.911 163.351 280.792 163.073 280.831L163.093 280.811Z" fill="white"/>
<path d="M359.663 71.2505C359.107 70.8532 345.46 61.4577 320.909 52.0026C298.364 43.3421 261.855 32.9932 216.387 32.9932C170.919 32.9932 132.642 42.6667 108.567 50.7711C82.3869 59.5905 67.1117 68.3106 66.4761 68.6881L63.9932 70.1182V224.419C63.9932 245.812 69.8132 266.867 81.2348 287.148V311.938H81.2944L96.5297 309.673C96.5297 309.693 96.5695 309.713 96.5893 309.753C98.5161 312.176 100.542 314.599 102.648 317.003V367.735L152.188 360.385C183.095 381.858 210.269 393.22 211.56 393.756L213.487 394.55L215.394 393.736C216.844 393.12 251.426 378.262 286.585 350.513C289.664 348.09 292.603 345.626 295.503 343.143V365.569L332.39 360.286V333.649L342.441 332.159V287.506C353.108 267.999 358.531 247.858 358.531 227.458C358.531 126.69 361.749 76.1766 361.788 75.68L361.967 72.8793L359.663 71.2902V71.2505ZM98.0791 306.972V304.489L95.3975 304.886L94.7023 307.468L90.7494 308.064L97.1257 287.128L101.317 286.512L102.032 306.396L98.0791 306.992V306.972ZM103.244 289.929L104.793 285.976L112.043 284.903L112.5 288.558L109.878 288.956L107.574 305.562L103.561 306.157L105.866 289.551L103.244 289.949V289.929ZM119.77 300.02L118.558 303.933L111.249 305.025L114.069 284.625L118.102 284.029L115.797 300.635L119.75 300.039L119.77 300.02ZM312.149 351.188L308.315 351.744L307.203 359.968L302.456 360.663L305.197 340.283L314.195 338.972L314.473 342.647L309.428 343.382L308.772 348.209L312.606 347.653L312.129 351.168L312.149 351.188ZM323.829 341.336L321.048 341.713C320.73 341.753 320.611 341.912 320.571 342.17L318.962 354.168C318.923 354.426 319.002 354.545 319.32 354.505L323.769 353.85L322.419 357.763L317.254 358.518C314.612 358.915 313.758 358.14 314.076 355.896L314.712 351.228L316.062 341.157C316.281 339.568 317.572 338.476 319.121 338.257L325.219 337.363L323.849 341.316L323.829 341.336ZM340.435 274.217V330.411L303.608 335.873L284.062 338.773C283.565 339.171 283.089 339.568 282.592 339.985L283.704 338.833L164.523 356.532L163.073 356.75L149.804 358.717L104.654 365.411V309.216L108.527 308.64L111.566 308.184L115.956 307.528L139.892 303.972L190.882 296.404C187.406 293.246 183.413 290.406 178.805 287.903C178.586 287.784 178.348 287.664 178.11 287.545V269.37L173.541 270.045L157.749 272.389L150.817 273.422C144.222 269.291 139.038 264.782 134.867 259.557C131.609 255.485 129.066 251.175 127.219 246.666C126.146 248.017 125.014 249.248 123.802 250.38L118.261 255.565L116.552 248.156C114.208 238.045 114.526 228.173 117.526 218.201C113.95 218.4 110.414 217.884 106.899 216.652L96.9072 213.176L106.442 208.587C113.632 205.111 117.903 198.675 121.856 192.24C118.936 191.882 116.076 191.068 113.295 189.777L104.932 185.903L113.215 181.871C114.347 181.335 115.48 180.798 116.572 180.302C118.976 179.209 121.24 178.176 123.306 176.905C127.755 174.184 131.351 169.953 134.29 163.974C134.906 162.722 135.542 161.471 136.158 160.239C133.635 160.12 131.112 159.564 128.609 158.591L119.095 154.876L131.132 149.235C135.164 147.348 138.919 144.388 142.613 140.197C144.997 137.496 147.381 134.735 149.724 132.013C146.586 131.02 143.686 129.431 141.044 127.226L133.297 120.77L143.309 119.519C143.825 119.459 144.302 119.4 144.759 119.34C145.633 119.241 146.387 119.161 147.122 119.042C156.081 117.612 163.609 113.759 170.144 107.263C170.661 106.747 171.038 106.151 171.217 104.78C173.084 90.8161 178.825 78.2425 188.3 67.4168C191.517 63.742 195.987 59.1933 202.125 56.6309C204.21 55.7569 206.296 55.2801 208.322 54.8034C208.918 54.6644 209.514 54.5253 210.11 54.3863C212.573 53.7705 214.241 54.6644 215.016 55.2404C216.426 56.313 217.161 57.922 217.221 60.0474C217.439 68.549 219.684 76.8719 224.074 85.4331C227.312 84.0029 230.132 81.7186 232.754 79.4541C237.283 75.5807 241.673 70.8333 246.56 64.5366C247.215 63.6824 248.983 61.418 251.903 61.6961C254.843 61.9742 256.174 64.5763 256.67 65.5496C258.676 69.5025 260.007 73.9321 260.822 79.5137C261.795 86.1482 261.596 93.2991 260.186 101.86C260.404 101.999 260.603 102.138 260.822 102.277C263.92 104.264 267.138 106.31 270.217 108.534C275.56 112.388 279.195 116.758 281.321 121.803C287.896 122.518 294.55 123.214 301.006 123.889L303.826 124.187C305.217 124.326 306.607 124.465 307.998 124.604C311.017 124.902 314.136 125.22 317.234 125.617C321.267 126.134 325.001 128.577 327.206 132.152C329.311 135.549 329.788 139.561 328.517 143.137C325.895 150.586 322.836 157.776 320.174 163.835C319.34 165.742 318.049 167.112 316.916 168.324C316.479 168.801 316.062 169.238 315.725 169.655L315.605 169.794C315.506 169.913 315.367 170.092 315.268 170.211C313.202 178.891 307.104 184.513 298.086 186.062C295.007 186.598 291.948 186.718 288.988 186.837C287.538 186.896 286.148 186.956 284.777 187.055C283.883 187.115 282.97 187.174 282.056 187.214C279.771 187.333 277.606 187.433 275.66 187.87C274.488 188.128 273.654 188.684 273.157 189.479C272.601 190.392 272.501 191.664 272.879 193.054C274.031 197.345 277.507 199.728 281.937 199.291C282.354 199.252 282.751 199.212 283.267 199.192L284.062 199.132L295.086 198.397L287.578 206.482C285.015 209.263 282.096 211.07 278.778 211.944C279.632 213.017 280.526 213.911 281.5 214.686C283.784 216.453 286.644 217.407 291.114 217.884L301.165 218.956L293.517 225.551C290.18 228.431 286.565 230.219 282.572 230.934C282.652 231.411 282.731 231.887 282.811 232.364C283.764 239.217 282.95 246.269 280.387 253.36C279.295 256.34 278.123 259.319 276.991 262.179C276.037 264.603 275.044 267.106 274.13 269.569C272.362 274.296 271.409 279.203 271.19 284.407L325.478 276.342L337.078 274.614L340.495 274.098L340.435 274.217ZM130.934 282.103L131.092 285.797L126.822 286.433L126.146 291.28L129.384 290.803L128.888 294.319L125.65 294.795L125.034 299.245L129.146 298.629L127.934 302.522L120.465 303.635L123.286 283.235L130.914 282.103H130.934ZM125.133 282.659L125.451 281.427L125.769 280.414L129.543 278.785L128.888 281.05L125.133 282.659ZM141.143 284.288L138.521 284.685L136.217 301.291L132.205 301.887L134.509 285.281L131.887 285.678L133.436 281.725L140.687 280.653L141.143 284.307V284.288ZM152.168 282.659C151.909 282.699 151.79 282.857 151.751 283.116L150.082 295.133C150.042 295.391 150.102 295.511 150.38 295.471L154.134 294.915L152.903 298.828L148.513 299.483C146.268 299.801 145.573 299.026 145.891 296.782L147.937 282.023C148.155 280.414 149.287 279.361 150.579 279.183L155.743 278.408L155.902 282.103L152.148 282.659H152.168ZM157.392 280.752C157.61 279.143 158.564 277.991 160.411 277.713L165.278 276.998C167.125 276.72 167.78 277.653 167.562 279.242L165.496 294.1C165.278 295.65 164.463 297.08 162.278 297.417L157.73 298.093C155.545 298.411 155.108 297.159 155.326 295.61L157.392 280.752ZM143.845 300.159L139.932 300.735L142.752 280.335L146.665 279.759L143.845 300.159ZM348.102 226.882C348.102 242.276 344.725 257.571 338.031 272.548L325.617 274.396C330.583 260.551 333.542 245.593 333.542 229.583C333.542 143.693 335.509 88.4722 336.144 72.4224C330.861 69.86 324.504 67.0195 317.115 64.179C295.424 55.876 260.365 45.9641 216.486 45.9641C172.607 45.9641 135.443 55.3 112.123 63.1263C103.422 66.0462 95.9338 68.986 89.8357 71.5683V226.564C89.8357 246.249 94.1858 264.325 101.257 280.732L89.7761 282.44C78.9107 263.431 73.4085 243.786 73.4085 223.882V75.3821C78.6724 72.6211 92.0803 66.0263 111.507 59.5111C134.827 51.6848 172.011 42.3489 215.87 42.3489C259.729 42.3489 294.808 52.2609 316.499 60.5638C334.456 67.4367 346.454 74.3889 351.201 77.3486C350.526 89.4654 348.102 139.283 348.102 226.862V226.882Z" stroke="white" stroke-width="2.00622" stroke-miterlimit="10"/>
<path d="M98.0791 301.311L96.2715 301.589L98.1983 294.219L98.0791 301.331V301.311Z" fill="white"/>
</g>
<defs>
<clipPath id="clip0_37_10624">
<rect width="300" height="363.623" fill="white" transform="translate(63 32)"/>
</clipPath>
</defs>
</svg>
