<svg width="426" height="426" viewBox="0 0 426 426" fill="none" xmlns="http://www.w3.org/2000/svg">
<g clip-path="url(#clip0_37_10622)">
<path d="M345.229 107.307C345.201 106.777 345.187 106.122 345.159 105.398C345.02 100.828 344.783 96.9682 343.278 95.9511C342.749 95.5888 342.01 95.4356 340.965 95.4356C340.324 95.4356 339.642 95.4913 338.917 95.547C338.625 95.5749 338.318 95.5888 338.039 95.6167C327.562 96.3552 316.373 95.1848 305.143 92.1891C294.345 89.305 284.619 85.2225 275.41 79.705C274.058 78.8969 272.832 77.8937 271.648 76.9184C270.923 76.3332 270.185 75.734 269.432 75.1767C263.274 70.6763 256.349 67.1651 248.268 64.4063C240.995 61.9262 229.36 58.9863 215.232 58.9863C213.713 58.9863 212.195 59.0281 210.69 59.0839L209.074 59.1535C206.287 59.2789 203.64 59.3904 201.062 59.6969C182.308 61.9123 167.511 67.4159 155.807 76.5282C153.675 78.1863 151.738 79.496 149.718 80.6664C141.024 85.6823 131.535 89.5697 120.709 92.5375C110.594 95.3102 98.848 96.4806 88.5513 95.7142L87.7293 95.6446C87.0047 95.5888 86.322 95.5192 85.6811 95.5192C84.8033 95.5192 84.1624 95.6446 83.7026 95.8954C82.2674 96.6896 82.1699 98.5009 82.0445 100.591C82.0167 101.037 81.9888 101.51 81.947 101.97C78.8259 137.904 84.0788 172.096 87.4924 189.276C95.6573 230.49 110.245 265.421 132.079 296.06C141.08 308.697 151 320.011 161.533 329.694C175.648 342.68 189.874 353.242 205.019 361.978C205.59 362.312 206.162 362.646 206.747 362.995C208.851 364.235 211.01 365.531 213.337 366.436L213.56 366.534L213.783 366.408C234.808 355.192 254.287 340.688 271.689 323.285C287.685 307.29 301.869 287.435 313.823 264.264C325.207 242.222 333.553 217.532 339.321 188.774C343.097 169.95 347.193 140.537 345.229 107.265V107.307ZM332.982 190.084C330.292 203.613 326.823 216.404 322.671 228.108C313.879 252.936 303.22 273.836 290.039 292.019C283.365 301.229 276.19 309.854 268.081 318.395C253.729 333.512 235.839 347.055 213.393 359.818C199.292 352.378 185.331 342.583 170.743 329.903C158.343 319.133 147.154 306.705 136.523 291.894C116.529 264.027 102.122 229.766 93.7205 190.07C87.9243 162.719 85.9319 132.191 87.9243 101.747C111.694 102.709 132.162 97.6788 152.839 85.7938C154.887 84.6234 157.047 83.3137 159.053 81.6974C168.263 74.2571 180.246 69.2133 194.694 66.6914C200.212 65.73 206.078 65.312 213.184 64.9776C213.978 64.9358 214.772 64.9358 215.58 64.9358C220.15 64.9358 225.557 65.4653 232.119 66.5799C246.275 68.9764 258.606 74.1596 267.76 81.586C269.488 82.9932 271.383 84.2612 273.849 85.6963C282.892 90.9212 292.338 94.8783 302.733 97.7903C314.492 101.092 326.238 102.346 338.764 101.65C341.021 129.642 339.07 159.403 332.954 190.098L332.982 190.084Z" fill="white"/>
<path fill-rule="evenodd" clip-rule="evenodd" d="M324.65 115.82C326.517 169.783 315.831 213.282 298.581 248.937C297.787 242.054 297.021 234.99 296.129 228.163C295 219.622 293.44 212.251 291.461 204.323C290.319 199.767 288.731 195.267 286.905 191.17C284.551 185.876 281.569 180.804 276.219 178.254C273.711 173.308 270.59 168.961 267.371 164.725C266.772 164.028 266.354 163.346 265.769 162.635C265.225 161.966 264.361 161.367 264.166 160.545C263.929 159.542 264.166 157.995 264.166 156.602V102.917C264.166 101.566 264.417 99.9915 264.166 99.1137C263.929 98.2499 261.589 97.0098 260.725 96.4107C259.401 95.4911 258.259 94.8223 257.046 94.0699C254.176 92.2864 251.947 90.9767 249.3 89.7645C247.837 89.0957 246.318 88.6499 244.869 88.0368C244.158 87.7303 243.503 87.2984 242.779 87.0476C242.026 86.7968 241.204 86.7132 240.438 86.4345C240.048 86.2952 239.727 86.0444 239.323 85.9468C238.891 85.8354 238.515 85.8075 238.097 85.696C235.993 85.1248 233.485 84.3027 230.852 83.9683C230.559 101.51 230.81 119.582 230.727 137.319C225.098 135.66 216.459 134.574 209.59 136.092C204.532 137.207 199.6 139.868 195.573 142.488C194.876 142.948 194.138 143.366 193.483 143.839C192.173 144.801 191.017 146.556 189.052 146.292C188.593 145.874 188.816 145.079 188.816 144.578C188.537 125.266 189.025 105.272 188.816 85.8214C181.988 87.5213 176.317 90.4055 170.995 93.5683C170.298 93.9724 169.546 94.265 168.905 94.669C167.052 95.8394 165.185 97.2745 163.248 98.6121C161.98 99.4899 160.601 100.228 159.319 101.064C158.009 101.914 156.616 102.569 155.39 103.517V165.478C154.024 166.718 152.255 167.554 150.597 168.668C149.05 169.713 147.559 170.898 146.041 171.984C143.101 174.13 140.3 176.694 137.681 179.355C135.228 181.863 132.637 184.928 130.798 188.217C129.516 190.502 128.206 193.33 127.983 196.939C127.886 198.513 128.011 199.642 128.972 199.893C130.435 200.283 131.076 199.224 131.675 198.053C133.222 195.086 135.075 192.174 137.207 190.07C139.269 188.035 141.972 185.75 145.567 184.9C148.994 184.092 151.182 184.51 155.404 184.9V253.494C154.749 254.162 153.857 254.608 153.063 255.082C148.27 257.994 143.477 261.213 139.172 264.793C138.837 265.072 138.545 265.476 138.196 265.769C137.918 266.006 137.486 266.396 137.095 266.382C114.217 227.606 99.4619 179.076 101.566 115.806C112.88 114.872 122.772 112.977 131.926 110.525C141.094 108.045 149.635 104.826 157.131 100.075C160.81 97.7343 164.042 94.9756 167.707 92.8298C178.575 86.4066 192.215 80.708 208.768 79.9277C227.787 79.036 242.709 84.2749 254.859 90.8653C259.039 93.1364 262.648 95.4911 266.423 98.2359C273.864 103.656 282.906 107.195 292.604 110.037C302.315 112.88 312.946 114.789 324.692 115.82" fill="white"/>
<path fill-rule="evenodd" clip-rule="evenodd" d="M192.507 184.901C196.199 186.907 198.986 190.92 200.992 194.863C202.762 198.346 204.155 202.247 204.434 206.413C204.489 207.235 204.475 207.876 204.434 208.629C204.113 213.937 202.288 218.549 200.128 222.52C199.404 223.844 197.983 225.112 198.401 226.937C198.637 227.271 198.944 227.536 199.139 227.912C201.884 228.316 202.692 226.143 204.67 226.199C204.378 227.494 203.974 228.707 203.57 229.877C199.418 232.218 195.154 234.517 190.654 236.634C190.082 236.899 189.483 237.317 188.814 237.262V185.75C189.873 185.305 191.406 185.319 192.493 184.887" fill="white"/>
<path d="M176.651 315.97C187.742 326.141 202.427 336.173 213.226 342.931C223.759 336.187 238.709 326.197 249.717 316.444C249.717 316.444 234.432 311.957 213.226 311.957C189.929 311.957 176.651 315.97 176.651 315.97ZM204.643 332.843H201.954V314.061H209.965V316.597H204.643V322.296H209.282V324.831H204.643V332.843ZM211.317 332.843H208.628V330.154H211.317V332.843ZM224.275 330.154H226.964V332.843H224.275V330.154ZM213.532 318.227C213.532 315.775 215.288 313.908 217.907 313.908C220.387 313.908 222.24 315.775 222.24 318.38V319.439H219.537V318.548C219.537 317.489 218.91 316.597 217.879 316.597C216.528 316.597 216.221 317.517 216.221 318.784V328.384C216.221 329.471 216.653 330.307 217.865 330.307C218.59 330.307 219.551 329.875 219.551 328.398V327.479H222.254V328.635C222.254 330.948 220.373 332.996 217.977 332.996C215.915 332.996 213.546 331.993 213.546 328.566V318.227H213.532Z" fill="white"/>
<path d="M200.728 282.642C183.214 283.464 167.149 286.543 153.397 291.002C153.146 291.42 153.703 291.74 153.898 291.991C154.135 292.312 154.386 292.674 154.623 292.966C158.273 297.467 162.105 301.786 166.062 305.869C168.514 308.404 171.677 311.526 174.255 313.95C174.255 313.95 187.672 309.254 213.24 309.254C235.923 309.254 251.696 314.312 251.696 314.312C254.287 311.818 257.547 308.53 260.097 305.994C264.194 301.898 268.22 297.397 271.773 292.966C272.317 292.312 273.027 291.671 273.139 291.002C252.504 285.261 227.103 281.402 200.742 282.642H200.728ZM182.016 308.669C179.953 309.157 177.32 308.697 176.526 305.256L174.101 294.847C173.53 292.381 174.868 290.082 177.501 289.469C179.995 288.884 182.294 290.333 182.893 292.966L183.144 294.039L180.441 294.666L180.232 293.761C179.981 292.702 179.131 291.949 178.1 292.186C176.749 292.507 176.651 293.51 176.944 294.792L179.187 304.447C179.438 305.534 180.065 306.287 181.277 306.008C182.016 305.827 182.879 305.186 182.531 303.695L182.322 302.775L185.025 302.135L185.29 303.305C185.833 305.646 184.426 308.126 182.016 308.683V308.669ZM188.049 307.29L187.603 304.545L190.348 304.099L190.793 306.844L188.049 307.29ZM199.85 305.771L194.472 294.583H194.416L195.559 306.189L192.786 306.468L190.877 287.17L193.538 286.906L198.861 298.122H198.917L197.76 286.488L200.519 286.209L202.428 305.506L199.822 305.771H199.85ZM204.532 305.465L204.42 302.692L207.193 302.58L207.318 305.353L204.532 305.465ZM218.646 291.503L215.873 291.476V290.849C215.901 289.567 215.358 288.508 213.937 288.494C212.404 288.48 212.042 289.692 212.028 290.974C212.028 292.479 212.139 292.994 213.588 293.58L215.706 294.443C218.158 295.391 218.604 296.951 218.576 299.78C218.548 303.054 217.322 305.465 213.728 305.437C211.024 305.409 209.004 303.402 209.032 300.783V299.752L211.819 299.78V300.658C211.819 301.675 212.334 302.65 213.755 302.664C215.636 302.692 215.776 301.563 215.804 299.794C215.817 297.718 215.581 297.397 214.229 296.84L212.251 296.004C209.854 295.001 209.255 293.412 209.269 290.988C209.297 288.048 210.885 285.693 214.09 285.721C216.862 285.749 218.702 287.992 218.674 290.152V291.517L218.646 291.503ZM222.979 305.618L220.206 305.465L220.374 302.692L223.146 302.845L222.979 305.618ZM234.739 306.732L232.133 306.454L229.138 294.416H229.082L227.842 306.008L225.083 305.715L227.131 286.432L229.793 286.71L232.732 298.777H232.774L234.014 287.156L236.773 287.449L234.711 306.732H234.739ZM239.588 307.513L236.829 307.081L237.261 304.336L240.006 304.754L239.588 307.513ZM250.72 309.658L248.003 309.073L248.588 306.356L251.305 306.941L250.706 309.658H250.72ZM252.699 292.855L249.536 292.242L246.359 308.725L243.628 308.209L246.805 291.726L243.642 291.127L244.13 288.564L253.172 290.305L252.671 292.869L252.699 292.855Z" fill="white"/>
<path d="M297.063 250.79C296.533 244.395 295.711 237.61 294.973 231.994C293.064 217.685 290.751 204.295 286 193.023C283.659 187.478 280.524 182.183 275.174 179.87C269.196 168.905 261.77 159.333 252.072 151.238C245.217 145.525 236.829 140.161 226.38 138.085C223.454 137.499 220.165 137.012 216.793 137.012C215.971 137.012 215.149 137.04 214.327 137.109C209.13 137.513 204.797 139.478 201.174 141.415C198.527 142.822 195.824 144.494 193.441 146.333C192.647 146.932 191.658 148.061 190.975 148.186C190.864 148.2 190.752 148.214 190.627 148.214C189.958 148.214 189.206 147.935 188.746 147.935C182.685 147.963 179.759 151.795 177.446 156.295C167.303 160.684 157.438 166.09 148.813 172.402C142.46 177.042 136.301 182.378 132.33 189.484C130.979 191.895 129.627 194.681 129.753 197.844C132.386 192.55 136.441 186.516 142.167 183.953C144.02 183.117 146.905 182.378 149.412 182.35C149.44 182.35 149.468 182.35 149.496 182.35C151.098 182.35 152.868 182.782 154.582 182.964C159.96 183.535 165.659 183.827 171.176 184.064C173.559 184.176 176.039 184.245 178.491 184.245C182.727 184.245 186.907 184.022 190.474 183.326C191.31 183.173 192.187 182.824 192.787 182.824C192.842 182.824 192.884 182.824 192.926 182.824C193.4 182.88 194.403 183.479 194.904 183.8C196.158 184.663 197.51 186.182 198.583 187.492C201.885 191.519 204.699 196.897 205.717 202.609C207.235 211.067 204.477 218.535 201.537 223.635C201.091 224.415 200.478 225.111 200.31 225.961C201.648 225.098 202.888 224.108 205.104 224.108C205.187 224.108 205.257 224.108 205.34 224.108C207.472 225.599 205.591 229.236 205.104 231.117C192.396 238.111 180.024 245.426 161.59 246.485C163.081 246.694 167.289 247.056 167.372 248.7C167.428 250.01 164.864 250.749 163.792 251.278C154.331 256.043 144.926 262.062 137.862 268.374C141.08 273.933 147.211 282.238 152.366 289.037C152.366 289.037 175.454 280.036 211.819 280.036C229.988 280.036 251.473 282.279 275.034 289.023C282.809 279.353 290.04 267.566 296.059 255.96C296.547 255.012 297.202 254.134 297.286 253.507C297.369 252.825 297.118 251.794 297.035 250.804L297.063 250.79ZM204.839 162.203C205.828 160.601 207.514 158.831 209.395 157.285C211.164 155.822 213.31 154.247 215.79 153.969C217.894 153.732 221.6 154.205 221.935 155.933C222.186 157.201 220.583 159.639 219.719 159.988C218.744 160.378 217.1 160.141 215.665 160.238C212.168 160.489 207.235 160.963 204.853 162.203H204.839ZM205.842 248.436C207.026 248.087 208.322 247.767 209.52 247.572C210.983 247.349 212.279 247.168 213.7 247.084C215.442 246.987 219.092 247.126 221.573 247.823C223.467 248.352 226.393 249.745 226.491 251.877C226.575 254.092 223.969 255.583 222.06 256.308C217.253 258.119 211.415 257.938 206.079 256.545C203.863 255.973 200.756 254.845 200.798 252.365C200.826 250.038 203.933 248.993 205.842 248.436ZM193.664 280.524L186.781 281.262C186.391 279.005 185.945 275.452 186.168 272.665C186.28 271.328 186.503 269.767 187.52 269.224C188.816 269.99 189.317 271.732 190.585 273.028C191.101 273.571 191.714 273.822 192.187 274.254C193.776 275.689 193.72 277.667 193.664 280.524ZM193.79 272.526C192.675 272.652 191.769 270.993 191.198 270.325C189.833 268.653 188.189 266.953 188.997 263.679C189.484 261.714 190.418 260.432 191.7 258.635C192.94 256.907 194.236 255.138 195.141 254.329C195.671 253.87 196.869 252.908 197.482 252.852C197.594 252.852 197.524 252.797 197.719 252.852C198.652 253.131 200.129 256.127 199.572 258.259C199.307 259.29 198.471 260.307 197.858 261.589C196.744 263.915 195.726 265.88 195.281 269.085C195.03 270.952 194.723 272.415 193.804 272.526H193.79ZM213.589 279.785L196.256 280.273C195.963 273.85 197.398 266.939 199.572 262.578C199.948 261.825 200.101 260.962 200.436 260.362C201.996 257.534 205.744 258.537 209.047 259.136C209.841 259.276 210.914 259.485 211.987 259.624C213.129 259.763 214.299 259.749 215.066 260.112C217.337 261.212 216.041 263.804 215.428 265.894C214.174 270.255 213.672 274.574 213.589 279.785ZM224.652 280.148L216.417 279.785C215.595 277.64 216.097 275.396 216.417 272.902C216.835 269.712 217.476 267.106 218.27 264.417C219.051 261.798 219.636 260 221.461 258.886C222.102 258.495 222.882 258.342 223.676 257.91C226.073 256.587 228.26 254.538 228.72 251.515C231.214 253.396 234.628 255.012 236.467 257.659C237.568 259.234 238.46 261.491 238.32 263.929C238.153 266.493 236.676 268.318 235.478 270.199C232.998 274.156 229.821 277.291 225.766 279.423C225.404 279.618 224.944 279.827 224.666 280.162L224.652 280.148ZM241.483 281.625L228.943 280.398C229.682 280.259 231.131 278.852 231.897 278.183C234.572 275.856 237.554 272.456 238.78 269.335C239.142 268.444 239.045 267.092 240.006 266.758C241.581 268.054 241.915 270.896 242.096 273.515C242.291 276.316 241.943 279.312 241.469 281.625H241.483Z" fill="white"/>
</g>
<defs>
<clipPath id="clip0_37_10622">
<rect width="264.731" height="307.575" fill="white" transform="translate(81 59)"/>
</clipPath>
</defs>
</svg>
