<svg width="426" height="426" viewBox="0 0 426 426" fill="none" xmlns="http://www.w3.org/2000/svg">
<g clip-path="url(#clip0_37_10620)">
<path d="M212.842 66.2578C212.114 67.0439 210.892 67.8008 210.848 68.6159C210.79 69.5767 211.809 70.5956 212.842 72.4443C213.876 70.5811 214.895 69.5621 214.837 68.6159C214.793 67.7862 213.57 67.0293 212.842 66.2578Z" fill="white"/>
<path d="M207.936 129.462L211.953 131.777V122.824H207.936V129.462Z" fill="white"/>
<path d="M224.123 129.462L228.14 131.777V122.824H224.123V129.462Z" fill="white"/>
<path d="M161.458 86.4191H157.44V93.0568L161.458 95.3858V86.4191Z" fill="white"/>
<path d="M193.816 86.4189H189.799V93.0567L193.816 95.3857V86.4189Z" fill="white"/>
<path d="M253.28 122.824H249.262V129.462L253.28 131.777V122.824Z" fill="white"/>
<path d="M152.316 131.456V147.541H154.062L155.096 146.958V142.752V136.259V132.038L154.062 131.456H152.316Z" fill="white"/>
<path d="M267.5 86.4189H263.482V109.651H267.5V86.4189Z" fill="white"/>
<path d="M249.262 134.747V146.072H253.28V137.906H254.75L254.677 137.862L253.28 137.061L249.262 134.747Z" fill="white"/>
<path d="M317.254 304.023C297.166 339.657 265.593 365.232 222.404 380.458C219.566 381.463 215.33 382.38 212.477 383.326C209.609 382.365 205.388 381.463 202.549 380.458C158.88 365.072 127.148 339.031 107.103 302.756C103.741 300.398 100.378 298.025 97.0159 295.667C117.322 338.492 152.024 368.769 200.686 385.917C202.404 386.528 204.427 387.067 206.392 387.591C208.008 388.027 209.537 388.435 210.716 388.828L212.491 389.425L214.267 388.828C215.446 388.435 216.975 388.027 218.591 387.591C220.556 387.067 222.579 386.528 224.297 385.917C272.536 368.915 307.035 339.06 327.385 296.919C324.066 299.248 320.689 301.621 317.283 304.008L317.254 304.023Z" fill="white"/>
<path d="M78.3987 231.735L82.5472 221.007C80.2765 204.02 79.0974 186.873 78.486 169.696C78.4569 168.939 78.6316 104.207 78.6753 90.5821C78.6898 86.7974 79.6069 83.2311 81.965 80.2761C83.2023 78.7332 84.8326 77.2338 86.6085 76.4187C122.81 59.97 160.671 49.3147 199.988 43.3466C204.093 42.7207 208.169 42.4586 212.201 42.4295C212.288 42.4295 212.375 42.4295 212.477 42.4295C212.565 42.4295 212.652 42.4295 212.754 42.4295C216.786 42.4586 220.847 42.7207 224.967 43.3466C264.298 49.3147 302.159 59.97 338.361 76.4187C340.137 77.2338 341.767 78.7186 343.004 80.2761C345.362 83.2311 346.279 86.7974 346.294 90.5821C346.352 104.207 346.512 168.939 346.483 169.696C345.944 185.228 344.809 201.88 342.698 218.576L346.891 229.421C349.598 211.648 351.316 192.055 352.087 170.074C352.131 169.056 351.942 100.641 351.898 90.7422C351.869 85.3126 350.355 80.6837 347.386 76.9573C346.003 75.2251 343.717 72.8815 340.675 71.4986C305.405 55.4721 266.743 44.1909 225.796 37.9753C223.365 37.6114 220.891 37.3494 218.358 37.1892V37H212.404H212.23H206.582V37.1892C204.049 37.3494 201.575 37.6114 199.144 37.9753C158.197 44.1909 119.549 55.4721 84.2794 71.4986C81.2372 72.8815 78.9518 75.2251 77.569 76.9573C74.5995 80.6837 73.0711 85.3126 73.0565 90.7422C73.0128 100.917 72.8382 169.056 72.8673 170.089C73.7115 193.496 75.502 213.554 78.3987 231.75V231.735Z" fill="white"/>
<path d="M184.574 281.561C179.552 282.406 172.608 283.919 166.247 285.521C167.878 286.904 169.508 288.301 171.124 289.684C185.098 301.62 199.086 313.556 213.075 325.493C223.963 316.206 234.837 306.933 245.71 297.646C240.907 296.06 222.318 289.858 207.049 284.283C195.069 279.916 184.676 281.547 184.574 281.561ZM214.385 307.326V291.489H222.085V297.253H219.363V294.196H217.093V307.312H219.363V299.247L222.085 300.819V310.019H214.385V307.297V307.326ZM213.323 310.048H210.659V307.384H213.323V310.048ZM209.756 291.489H212.478V297.239H209.756V294.211H207.485V297.981L210.251 299.582V302.537L207.485 300.936V310.048H204.763V299.8H205.477L204.763 299.393L204.065 298.985V296.03L204.763 296.409V291.503H209.742L209.756 291.489Z" fill="white"/>
<path d="M294.765 312.698C289.714 312.087 281.344 309.437 281.228 309.394C278.054 308.36 269.917 305.667 262.071 303.062C258.549 301.897 255.099 300.747 252.173 299.772C239.771 310.354 227.384 320.937 214.967 331.519L213.075 333.135L211.182 331.519C196.553 319.045 181.953 306.57 167.339 294.095C164.689 291.839 162.04 289.583 159.391 287.312C158.343 287.603 157.338 287.909 156.421 288.185C156.334 288.214 147.498 290.922 136.101 294.008C133.379 294.735 130.031 294.823 129.885 294.837H129.536L129.186 294.765C125.795 294.008 123.757 291.358 123.757 287.661C123.757 285.652 125.533 281.97 130.22 272.741C130.962 271.285 131.705 269.815 132.403 268.418L133.859 265.506C130.118 262.318 126.377 259.116 122.636 255.928L121.661 255.098L118.793 162.272L144.878 158.866L126.464 123.48L70.0002 269.582C93.5379 286.118 117.076 302.654 140.599 319.19C164.733 336.148 188.867 353.121 213.016 370.079C221.139 364.388 257.515 338.841 294.765 312.698Z" fill="white"/>
<path d="M118.924 311.082C122.781 316.919 126.959 322.451 131.515 327.604C149.929 348.463 174.471 364.402 204.472 374.97C205.767 375.421 207.572 375.916 209.319 376.382C210.367 376.659 211.444 376.95 212.463 377.241C212.609 377.197 212.754 377.168 212.9 377.125L211.342 376.033C186.64 358.682 161.938 341.33 137.25 323.965C131.137 319.67 125.037 315.376 118.924 311.082Z" fill="white"/>
<path d="M263.921 297.544C271.752 300.149 279.874 302.828 283.048 303.876C287.749 305.404 292.742 306.554 295.202 306.918C293.616 304.327 289.86 298.475 285.915 292.478L254.954 246.422C254.517 247.237 254.066 248.052 253.571 248.853C241.286 268.737 215.215 274.894 195.331 262.623C175.447 250.352 169.29 224.267 181.561 204.383C188.766 192.752 200.688 185.824 213.337 184.543L209.538 178.88C209.189 178.356 208.694 177.585 208.126 176.668C206.117 173.465 200.033 163.727 196.466 163.727C192.143 163.727 188.475 169.826 185.156 176.406L137.63 271.08C136.931 272.492 136.174 273.962 135.432 275.433C133.234 279.756 129.944 286.248 129.609 287.82C129.624 288.679 129.842 288.926 130.162 289.043C131.007 288.999 133.03 288.868 134.602 288.431C145.912 285.375 154.646 282.696 154.733 282.667C162.565 280.265 175.534 277.194 183.613 275.826C183.817 275.797 186.117 275.418 189.756 275.418C194.472 275.418 201.43 276.044 209.058 278.824C226.569 285.215 248.505 292.449 248.724 292.522C252.057 293.614 257.909 295.564 263.921 297.558V297.544Z" fill="white"/>
<path d="M299.67 123.524L281.257 158.91L307.342 162.316L304.474 255.143L303.499 255.972C296.06 262.319 288.622 268.665 281.184 275.012L290.747 289.234C294.561 295.012 300.267 303.877 301.111 305.508C301.49 306.25 301.679 307.036 301.679 307.837C321.432 293.964 340.967 280.252 356.149 269.597L299.656 123.538L299.67 123.524Z" fill="white"/>
<path d="M220.47 374.97C250.485 364.388 275.041 348.463 293.455 327.604C297.633 322.873 301.505 317.851 305.1 312.552C260.514 343.848 214.691 376.018 214.691 376.018L213.264 377.022C214.05 376.804 214.836 376.586 215.622 376.382C217.369 375.916 219.174 375.436 220.47 374.97Z" fill="white"/>
<path d="M301.373 167.411L272.261 163.612L300.456 109.404L338.172 206.903C339.351 195.272 340.181 182.87 340.646 169.551C340.661 167.106 340.501 104.702 340.457 90.5972C340.457 87.7732 339.788 85.5898 338.448 83.9158C337.633 82.8968 336.673 82.0671 335.945 81.7323C301.635 66.1425 264.007 55.1669 224.094 49.1115C220.469 48.5583 216.757 48.2818 212.725 48.2672H212.463H212.245C208.227 48.2818 204.501 48.5583 200.876 49.1115C160.963 55.1669 123.32 66.1425 89.0253 81.7323C88.2975 82.0671 87.3367 82.9114 86.5216 83.9158C85.1824 85.6043 84.5128 87.7878 84.5128 90.5972C84.4546 105.561 84.2945 167.062 84.3236 169.551C84.8476 184.064 85.7501 197.223 87.0456 209.435L125.736 109.419L153.932 163.627L124.819 167.426L127.439 252.391C130.496 254.997 133.539 257.603 136.595 260.208L179.973 173.787C183.845 166.101 188.62 157.92 196.48 157.906C202.754 157.906 208.344 165.999 213.075 173.583C213.599 174.427 214.035 175.126 214.37 175.621L220.28 184.413C226.99 184.835 233.686 186.859 239.815 190.629C256.875 201.167 263.818 221.852 257.69 240.077L277.938 270.179C284.881 264.255 291.81 258.33 298.768 252.406L301.388 167.44L301.373 167.411ZM274.852 109.666V101.602H279.67V109.666H283.687V101.514H285.172L285.085 101.471L283.687 100.67L274.852 95.5609V81.6159H288.506V91.8781H283.687V86.434H279.67V93.0718L288.506 98.181V114.484H274.852V109.666ZM196.044 66.7247C195.461 66.2298 194.734 65.4874 194.719 64.8324C194.603 60.5965 194.661 56.3606 194.661 52.1247C198.256 55.4144 201.677 58.5295 205.272 61.8192C207.674 58.7041 210.076 55.429 212.842 51.8335C215.607 55.429 218.009 58.7041 220.411 61.8192C224.006 58.544 227.413 55.4144 231.023 52.1247C231.023 56.3751 231.081 60.611 230.964 64.8324C230.95 65.4874 230.222 66.2298 229.64 66.7247C227.966 68.1512 228.169 69.374 229.698 70.7568C230.338 71.3391 230.731 72.1688 231.707 73.5662C226.699 73.5662 222.565 73.5662 218.417 73.5662C216.612 73.5662 214.807 73.5662 213.016 73.5662C213.016 73.5662 212.9 73.5662 212.856 73.5662C212.813 73.5662 212.74 73.5662 212.696 73.5662C210.891 73.5662 209.086 73.5662 207.296 73.5662C203.162 73.5662 199.013 73.5662 194.006 73.5662C194.981 72.1834 195.389 71.3391 196.014 70.7568C197.543 69.374 197.747 68.1367 196.073 66.7247H196.044ZM188.096 76.492L190.308 76.1136L190.934 76.0117L191.08 75.9826L191.851 75.8516L194.049 75.4731L194.603 78.7192L188.649 79.7381L187.63 79.9128L187.077 76.6667L188.096 76.492ZM152.622 95.5463V81.6013H166.276V114.47H161.458V101.5H162.942L162.855 101.456L161.458 100.656L157.44 98.3266V114.47H152.622V95.5463ZM148.735 114.47H135.125V81.6013H148.735V91.7762H143.961V86.4049H139.943V109.637H143.917V101.398H145.184L142.695 99.9569V94.7166L150.089 98.9817V104.222L148.692 103.421V109.637H148.735V114.455V114.47ZM158.43 130.045V149.114L155.388 150.875H148.983V128.124H155.388L158.43 129.885V130.06V130.045ZM169.9 131.442V135.154H166.567V131.442H163.787V136.071L167.178 138.036V141.661L163.787 139.696V147.542H166.567V143.044L169.9 144.951V150.89H160.453V138.313H161.327L160.453 137.818L159.609 137.323V133.699L160.453 134.164V128.138H169.9V131.472V131.442ZM181.109 146.741V150.861H171.662V128.109H174.995V147.527H177.775V143.029L181.109 144.936V146.756V146.741ZM182.463 108.502V114.455H168.809V81.5868H173.627V109.637H177.644V103.13L182.463 105.881V108.502ZM184.995 95.5318V81.5868H198.649V114.455H193.831V101.485H195.316L195.228 101.442L193.831 100.641L189.813 98.3121V114.455H184.995V95.5318ZM200.6 122.81V128.211H195.782V122.81H191.764V146.042H195.782V131.763L200.6 134.557V150.861H186.96V117.992H200.6V122.81ZM201.182 109.651V81.6013H214.836V91.8199H210.018V86.4195H206V109.651H210.018V95.3717L214.836 98.1665V114.47H201.182V109.651ZM216.786 122.81V150.861H211.968V137.891H213.453L213.366 137.847L211.968 137.047L207.951 134.718V150.861H203.133V117.992H216.772V122.81H216.786ZM217.369 81.5868H231.023V86.4049H226.583V114.455H221.765V86.4049H217.369V81.5868ZM232.973 122.81V131.675L230.644 132.985L232.973 134.339V150.861H228.155V137.891H229.64L229.552 137.847L228.155 137.047L224.137 134.718V150.861H219.319V117.992H232.959V122.81H232.973ZM233.934 95.5755V95.5318L232.711 94.8185V89.5782L233.934 90.2478V81.5868H238.752V93.0426L240.018 93.7559V98.9962L238.752 98.2829V114.47H233.934L233.977 109.448V96.4343H235.419L233.934 95.59V95.5755ZM241.969 135.402L240.702 134.688V150.875H235.884L235.928 145.853V132.84H237.369L235.884 131.996V131.952L234.662 131.239V125.998L235.884 126.668V118.007H240.702V129.463L241.969 130.176V135.416V135.402ZM242.507 109.651V81.6013H256.161V91.8199H251.343V86.4195H247.326V109.651H251.343V95.3717L256.161 98.1665V114.47H242.507V109.651ZM258.112 122.81V131.675L255.783 132.985L258.112 134.339V150.861H244.473V117.992H258.112V122.81ZM258.694 109.651V81.6013H272.348V114.47H258.694V109.651ZM265.841 150.875H261.023V132.709H262.29L261.023 131.996L259.8 131.282V126.042L261.023 126.712V118.007H274.677V128.182H269.859V122.81H265.841V129.492L270.747 132.316V137.556L265.841 134.718V146.042H269.859V139.536L274.677 142.287V150.861H265.841V150.875Z" fill="white"/>
<path d="M218.214 238.649L201.474 234.573L189.757 244.253L198.432 257.762C198.723 257.791 211.009 259.698 215.638 259.901L224.488 250.207L218.2 238.649H218.214Z" fill="white"/>
<path d="M198.241 259.391L197.906 259.741C204.224 263.496 211.488 265.374 218.824 265.127L215.607 261.575C210.105 261.342 200.454 259.784 198.227 259.406L198.241 259.391Z" fill="white"/>
<path d="M190.425 199.23L189.333 208.211L199.989 214.791L215.87 208.27L219.276 193.364L212.143 188.473C203.934 189.638 196.321 193.408 190.425 199.23Z" fill="white"/>
<path d="M220.878 193.845L217.471 208.649L228.607 221.793L241.751 222.245L246.468 209.974C244.211 205.927 237.006 195.796 236.831 195.563L220.863 193.845H220.878Z" fill="white"/>
<path d="M188.46 209.624L180.92 214.617C178.358 222.492 178.402 230.978 181.036 238.839L188.591 243.045L200.396 233.322L199.115 216.203L188.46 209.624Z" fill="white"/>
<path d="M238.564 249.348L247.283 235.214L241.795 223.918L228.68 223.452L219.713 237.965L226.001 249.494L238.564 249.348Z" fill="white"/>
<path d="M238.389 194.193L238.214 194.659C239.539 196.479 245.259 204.412 247.923 209.23L252.538 210.511C249.481 203.83 244.561 198.167 238.374 194.193H238.389Z" fill="white"/>
<path d="M250.31 246.844C252.741 242.913 254.43 238.59 255.317 234.049L248.738 235.956L239.859 250.337L241.11 257.077C244.764 254.253 247.894 250.788 250.31 246.844Z" fill="white"/>
</g>
<defs>
<clipPath id="clip0_37_10620">
<rect width="286.163" height="352.425" fill="white" transform="translate(70 37)"/>
</clipPath>
</defs>
</svg>
