<svg width="426" height="426" viewBox="0 0 426 426" fill="none" xmlns="http://www.w3.org/2000/svg">
<g clip-path="url(#clip0_37_10618)">
<path d="M111.485 316.039L116.045 314.913L129.839 326.533L129.476 331.207L134.132 335.118L135.448 311.88L129.686 307.034L107.039 312.3L111.485 316.039ZM129.076 311.67L130.85 313.158L130.182 321.934L120.509 313.788L129.076 311.651V311.67Z" fill="white"/>
<path d="M155.596 325.426L148.613 342.693L170.974 351.736L172.5 347.939L154.718 340.747L160.175 327.277L155.596 325.426Z" fill="white"/>
<path d="M188.997 336.489L185.805 354.835L190.617 355.672L193.809 337.327L188.997 336.489Z" fill="white"/>
<path d="M232.885 337.942L206.136 339.239L207.052 357.841L233.801 356.544L233.61 352.843L211.745 353.911L211.535 349.752L232.942 348.703L232.77 345.001L211.364 346.051L211.192 342.712L233.076 341.643L232.885 337.942Z" fill="white"/>
<path d="M269.841 345.784L278.808 342.311L272.092 324.93L267.494 326.724L272.817 340.442L270.642 341.281L252.861 332.39L243.932 335.844L250.647 353.206L255.207 351.45L249.884 337.732L252.078 336.874L269.841 345.784Z" fill="white"/>
<path d="M309.737 314.818L296.82 325.789C296.038 326.457 295.237 326.876 294.435 327.086C293.615 327.277 292.833 327.258 292.069 326.991L291.535 331.608C292.966 331.818 294.302 331.703 295.542 331.265C296.801 330.826 298.098 330.043 299.453 328.899L312.293 317.985C313.514 316.955 314.373 315.887 314.869 314.78C315.365 313.674 315.556 312.605 315.403 311.575C315.251 310.526 314.831 309.591 314.106 308.732C313.648 308.198 313.152 307.778 312.599 307.435C312.045 307.11 311.473 306.881 310.862 306.767C310.271 306.652 309.641 306.633 308.993 306.748C308.344 306.843 307.714 307.053 307.066 307.377C306.436 307.683 305.806 308.102 305.177 308.637C304.662 309.076 304.013 309.629 303.231 310.297C302.449 310.964 301.609 311.689 300.693 312.453C299.777 313.235 298.862 314.017 297.927 314.799C296.992 315.581 296.133 316.326 295.332 316.993C294.531 317.68 293.844 318.253 293.271 318.749C292.699 319.245 292.298 319.569 292.089 319.76C291.783 320.027 291.497 320.218 291.23 320.37C290.963 320.523 290.696 320.599 290.467 320.618C290.238 320.618 290.009 320.599 289.799 320.504C289.589 320.409 289.398 320.237 289.208 320.027C288.998 319.779 288.864 319.512 288.845 319.207C288.807 318.92 288.883 318.615 289.036 318.291C289.189 317.966 289.475 317.642 289.856 317.318L302.353 306.71C303.212 305.985 303.994 305.508 304.662 305.317C305.349 305.126 306.016 305.145 306.665 305.374L307.142 301.1C305.806 300.948 304.585 301.062 303.498 301.444C302.391 301.825 301.285 302.493 300.14 303.447L287.357 314.303C286.193 315.295 285.354 316.326 284.877 317.375C284.381 318.424 284.209 319.455 284.323 320.447C284.457 321.439 284.858 322.336 285.544 323.137C285.983 323.652 286.46 324.072 286.994 324.358C287.529 324.663 288.082 324.854 288.654 324.968C289.227 325.064 289.837 325.064 290.467 324.968C291.096 324.854 291.726 324.644 292.356 324.339C292.985 324.034 293.615 323.614 294.225 323.099C294.721 322.679 295.37 322.126 296.152 321.477C296.935 320.828 297.774 320.103 298.69 319.321C299.606 318.539 300.522 317.757 301.437 316.974C302.353 316.192 303.212 315.448 304.032 314.761C304.833 314.074 305.539 313.483 306.112 312.987C306.703 312.491 307.085 312.166 307.276 311.976C307.581 311.708 307.886 311.518 308.172 311.365C308.458 311.212 308.726 311.136 308.993 311.136C309.241 311.136 309.489 311.174 309.718 311.289C309.947 311.403 310.156 311.575 310.347 311.785C310.576 312.071 310.729 312.376 310.786 312.701C310.843 313.025 310.786 313.387 310.614 313.75C310.443 314.112 310.156 314.475 309.737 314.818Z" fill="white"/>
<path d="M158.533 81.7283L154.45 83.1783L160.708 100.712L183.145 92.7178L181.943 89.3027L163.57 95.8468L158.533 81.7283Z" fill="white"/>
<path d="M222.468 89.0358C223.803 88.5398 224.929 87.8529 225.883 86.9753C226.837 86.0976 227.562 85.0864 228.058 83.9226C228.554 82.7588 228.802 81.5186 228.783 80.1831C228.764 78.8476 228.478 77.6074 227.943 76.4627C227.409 75.3179 226.646 74.3258 225.654 73.4863C224.681 72.6469 223.517 71.9982 222.162 71.5403C220.808 71.0824 219.32 70.8725 217.698 70.8916L203.827 71.1205C202.206 71.1396 200.736 71.4067 199.401 71.9218C198.065 72.4179 196.94 73.1047 195.986 73.9824C195.032 74.86 194.307 75.8712 193.811 77.035C193.315 78.1989 193.067 79.439 193.086 80.7746C193.105 82.1101 193.391 83.3502 193.925 84.495C194.459 85.6397 195.223 86.6318 196.215 87.4713C197.188 88.3108 198.352 88.9595 199.706 89.4174C201.061 89.8753 202.53 90.0852 204.152 90.0661L218.022 89.8371C219.663 89.8181 221.132 89.5509 222.468 89.0358ZM204.228 86.4983C203.198 86.4983 202.282 86.3838 201.461 86.0976C200.641 85.8114 199.935 85.4108 199.325 84.9147C198.733 84.3996 198.275 83.7891 197.97 83.064C197.665 82.339 197.493 81.5568 197.493 80.7173C197.493 79.8588 197.607 79.0765 197.894 78.3515C198.18 77.6265 198.619 76.9969 199.191 76.4627C199.763 75.9285 200.469 75.5087 201.29 75.2035C202.11 74.8982 203.026 74.7265 204.037 74.7074L217.641 74.4784C218.671 74.4784 219.587 74.5929 220.426 74.8791C221.266 75.1653 221.972 75.566 222.563 76.062C223.154 76.5771 223.612 77.1877 223.918 77.9127C224.223 78.6377 224.395 79.4199 224.395 80.2594C224.395 81.118 224.28 81.9002 223.994 82.6252C223.708 83.3502 223.269 83.9798 222.697 84.5141C222.105 85.0483 221.418 85.468 220.598 85.7733C219.777 86.0785 218.862 86.2503 217.831 86.2693L204.228 86.4983Z" fill="white"/>
<path d="M266.941 96.5723C266.597 96.8203 266.197 96.9539 265.739 96.992C265.281 97.0302 264.747 96.9348 264.136 96.7249L248.3 91.0393C247.27 90.6768 246.45 90.1617 245.82 89.513C245.21 88.8643 244.809 88.1202 244.618 87.2808L240.86 88.8834C241.394 90.2189 242.157 91.3255 243.149 92.2032C244.141 93.0808 245.458 93.8058 247.137 94.4163L262.858 100.083C264.308 100.598 265.624 100.827 266.807 100.712C267.99 100.617 268.982 100.235 269.803 99.6059C270.623 98.9763 271.215 98.1177 271.596 97.0874C271.825 96.4578 271.94 95.8091 271.959 95.1986C271.959 94.569 271.882 93.9775 271.672 93.4052C271.463 92.8328 271.176 92.2986 270.757 91.8025C270.356 91.3064 269.86 90.8676 269.268 90.467C268.677 90.0663 268.009 89.742 267.227 89.4558C266.597 89.2268 265.815 88.9406 264.861 88.5972C263.907 88.2538 262.877 87.8913 261.789 87.4906C260.702 87.09 259.576 86.6893 258.47 86.2886C257.344 85.888 256.295 85.5064 255.303 85.1439C254.31 84.7814 253.452 84.4761 252.727 84.209C252.002 83.9419 251.487 83.7702 251.22 83.6748C250.762 83.5031 250.38 83.3314 250.094 83.1215C249.789 82.9307 249.56 82.7018 249.388 82.4728C249.216 82.2439 249.121 81.9958 249.102 81.7097C249.083 81.4235 249.102 81.1373 249.216 80.832C249.35 80.4314 249.579 80.1452 249.865 79.9353C250.17 79.7254 250.533 79.611 250.952 79.5728C251.372 79.5346 251.868 79.63 252.422 79.8208L267.857 85.3728C268.925 85.7544 269.726 86.2123 270.261 86.7656C270.795 87.2998 271.119 87.9294 271.253 88.6545L274.744 87.1663C274.229 85.9452 273.523 84.9531 272.665 84.1709C271.806 83.3886 270.661 82.759 269.249 82.2439L253.624 76.6155C252.212 76.1004 250.952 75.9096 249.827 76.005C248.701 76.1004 247.747 76.4438 246.965 77.0353C246.183 77.6267 245.61 78.409 245.248 79.4202C245.019 80.0498 244.904 80.6412 244.904 81.2327C244.904 81.8241 245 82.3965 245.21 82.9307C245.42 83.4649 245.706 83.9801 246.106 84.457C246.507 84.934 247.003 85.3728 247.575 85.7544C248.148 86.136 248.797 86.4604 249.541 86.7275C250.151 86.9373 250.914 87.2235 251.849 87.5479C252.784 87.8913 253.795 88.2347 254.902 88.6354C256.008 89.017 257.115 89.4176 258.241 89.8183C259.366 90.2189 260.416 90.6005 261.408 90.9821C262.4 91.3446 263.259 91.669 264.003 91.917C264.728 92.165 265.243 92.3558 265.529 92.4894C266.006 92.642 266.407 92.8328 266.731 93.0426C267.055 93.2525 267.303 93.5005 267.475 93.7677C267.647 94.0348 267.742 94.3209 267.78 94.6071C267.818 94.9124 267.78 95.2367 267.628 95.5993C267.475 95.9999 267.246 96.3433 266.903 96.5914L266.941 96.5723Z" fill="white"/>
<path d="M81.2055 209.521L79.9654 200.801L78.7252 209.521C78.4963 211.123 77.2371 212.363 75.6535 212.592L66.9343 213.832L75.6535 215.073C77.2561 215.302 78.4963 216.561 78.7252 218.144L79.9654 226.864L81.2055 218.144C81.4345 216.542 82.6937 215.302 84.2773 215.073L92.9964 213.832L84.2773 212.592C82.6746 212.363 81.4345 211.104 81.2055 209.521Z" fill="white"/>
<path d="M344.576 218.163L345.816 226.882L347.056 218.163C347.285 216.56 348.544 215.32 350.128 215.091L358.847 213.851L350.128 212.611C348.525 212.382 347.285 211.122 347.056 209.539L345.816 200.82L344.576 209.539C344.347 211.142 343.087 212.382 341.504 212.611L332.785 213.851L341.504 215.091C343.106 215.32 344.347 216.579 344.576 218.163Z" fill="white"/>
<path d="M234.049 316.879C231.893 320.027 229.489 322.641 226.875 324.721C281.442 317.795 323.626 271.223 323.626 214.768C323.626 207.041 322.843 199.504 321.336 192.216C319.352 193.323 317.348 194.448 315.326 195.555C315.402 195.918 315.479 196.261 315.536 196.623C325.362 252.296 289.054 305.451 234.068 316.86L234.049 316.879Z" fill="white"/>
<path d="M130.01 278.244C127.816 279.007 125.66 279.751 123.523 280.476C141.038 304.23 167.825 320.752 198.542 324.682C196.176 322.775 193.811 320.237 191.502 316.879C166.985 311.766 145.14 297.934 130.01 278.225V278.244Z" fill="white"/>
<path d="M191.276 264.812C189.158 264.221 187.04 263.61 184.98 262.866C181.431 261.569 178.054 259.813 175.001 257.6C172.006 255.406 169.373 252.773 167.045 249.873C167.904 251.8 169.068 253.593 170.441 255.196C175.555 261.244 183.396 264.774 191.276 264.831V264.812Z" fill="white"/>
<path d="M176.184 244.416C179.961 244.626 182.938 242.928 182.842 240.639C182.747 238.33 179.618 236.308 175.859 236.098C172.082 235.888 169.105 237.586 169.201 239.876C169.296 242.165 172.425 244.206 176.184 244.416Z" fill="white"/>
<path d="M245.555 260.557C242.292 262.294 238.839 263.515 235.329 264.621C237.504 264.564 239.679 264.202 241.777 263.572C248.798 261.55 255.304 256.646 258.281 249.854C256.983 251.438 255.61 252.964 254.122 254.376C251.565 256.818 248.665 258.898 245.555 260.557Z" fill="white"/>
<path d="M239.105 247.45C242.635 246.114 245.001 243.214 244.39 241.001C243.78 238.788 240.422 238.082 236.892 239.418C233.362 240.753 230.997 243.653 231.607 245.866C232.218 248.08 235.576 248.786 239.105 247.45Z" fill="white"/>
<path d="M168.17 265.671C173.417 270.898 178.835 276.26 182.403 282.823C178.435 278.435 174.065 274.771 169.582 271.051C172.921 277.5 176.05 284.101 180.247 289.844C184.177 294.9 188.375 299.708 192.973 304.191C191.198 300.242 189.92 296.216 189.176 292.839C194.595 303.619 206.004 326.323 220.58 315.486C227.849 309.667 232.2 300.853 236.206 292.572C235.443 296.121 234.26 300.089 232.619 303.943C237.141 299.536 241.262 294.785 245.135 289.806C249.313 284.082 252.442 277.519 255.762 271.089C251.279 274.79 246.929 278.435 242.979 282.823C246.547 276.26 251.965 270.898 257.212 265.671C262.116 260.538 266.866 255.063 269.213 248.309C271.388 241.974 270.987 234.381 267.191 228.733C263.146 222.876 255.686 220.243 248.684 219.518C256.067 218.583 264.31 220.587 269.423 226.444C268.354 222.189 267.133 218.374 265.836 216.332C261.715 209.864 256.048 206.544 246.852 205.266C241.167 204.465 226.896 203.339 212.911 203.339H212.834C198.773 203.339 184.082 204.484 178.587 205.266C169.391 206.564 163.705 209.864 159.603 216.332C158.306 218.354 157.123 222.113 156.055 226.31C161.187 220.549 169.334 218.583 176.679 219.499C169.677 220.224 162.217 222.857 158.173 228.714C154.376 234.362 153.975 241.936 156.15 248.29C158.497 255.024 163.248 260.5 168.151 265.652L168.17 265.671ZM218.253 300.07C216.478 300.7 214.589 301.024 212.701 301.024C210.812 301.024 208.923 300.7 207.149 300.07C205.451 299.403 203.905 298.62 202.112 298.143C203.924 297.704 205.794 298.067 207.587 298.41C209.285 298.697 211.003 298.83 212.701 298.849C215.314 298.906 217.909 298.353 220.504 297.972C221.439 297.914 222.374 297.933 223.29 298.143C221.496 298.62 219.951 299.403 218.253 300.07ZM229.91 290.836C229.681 291.332 229.299 291.79 228.765 292.191C228.231 292.591 227.544 292.935 226.647 293.183C225.77 293.431 224.682 293.564 223.385 293.564C222.088 293.564 220.771 293.431 219.531 293.221C218.272 293.011 217.089 292.725 216.059 292.439C215.028 292.152 214.151 291.866 213.502 291.637C212.853 291.408 212.453 291.256 212.395 291.218C212.319 291.256 211.918 291.408 211.289 291.637C210.659 291.866 209.782 292.152 208.751 292.439C207.721 292.725 206.538 293.011 205.298 293.221C204.058 293.431 202.741 293.564 201.444 293.564C200.147 293.564 199.078 293.431 198.181 293.183C197.285 292.935 196.579 292.591 196.045 292.191C195.491 291.79 195.11 291.313 194.862 290.836C194.614 290.34 194.499 289.825 194.499 289.329C194.499 288.566 194.728 287.974 195.11 287.497C195.472 287.02 195.968 286.658 196.464 286.391C196.96 286.123 197.476 285.952 197.876 285.856C198.277 285.761 198.563 285.704 198.601 285.704C198.582 285.704 198.449 285.78 198.277 285.895C198.105 286.009 197.857 286.181 197.628 286.371C197.399 286.581 197.17 286.81 196.999 287.077C196.827 287.345 196.712 287.65 196.731 287.974C196.731 288.146 196.77 288.298 196.846 288.432C196.922 288.566 197.037 288.699 197.17 288.795C197.323 288.89 197.495 288.985 197.724 289.043C197.952 289.1 198.201 289.138 198.506 289.138C198.754 289.138 199.04 289.119 199.345 289.062C199.651 289.004 199.994 288.947 200.356 288.833C200.719 288.737 201.12 288.604 201.539 288.432C201.959 288.26 202.417 288.07 202.894 287.841C203.562 287.516 204.172 287.211 204.745 286.944C205.298 286.677 205.813 286.448 206.309 286.276C206.805 286.085 207.263 285.952 207.702 285.856C208.141 285.761 208.599 285.704 209.057 285.704C209.305 285.704 209.553 285.704 209.82 285.742C210.068 285.78 210.335 285.818 210.602 285.895C210.869 285.952 211.155 286.047 211.441 286.143C211.728 286.238 212.033 286.371 212.357 286.505C212.682 286.371 212.968 286.238 213.273 286.143C213.559 286.047 213.845 285.952 214.112 285.895C214.38 285.837 214.647 285.78 214.895 285.742C215.143 285.704 215.41 285.704 215.658 285.704C216.116 285.704 216.555 285.761 217.013 285.856C217.47 285.952 217.928 286.104 218.424 286.276C218.92 286.467 219.436 286.696 220.008 286.944C220.58 287.211 221.191 287.497 221.878 287.841C222.355 288.07 222.813 288.279 223.232 288.432C223.652 288.604 224.053 288.737 224.415 288.833C224.778 288.928 225.121 289.004 225.426 289.062C225.732 289.119 226.018 289.138 226.266 289.138C226.571 289.138 226.819 289.1 227.048 289.043C227.258 288.985 227.449 288.909 227.582 288.795C227.735 288.699 227.83 288.566 227.907 288.432C227.983 288.298 228.002 288.146 228.002 287.974C228.002 287.65 227.888 287.345 227.697 287.077C227.525 286.81 227.296 286.562 227.048 286.371C226.819 286.162 226.571 286.009 226.399 285.895C226.209 285.78 226.075 285.704 226.056 285.704C226.113 285.704 226.399 285.761 226.8 285.856C227.201 285.971 227.716 286.123 228.231 286.391C228.746 286.658 229.242 287.001 229.624 287.497C230.005 287.974 230.273 288.585 230.273 289.329C230.273 289.825 230.177 290.34 229.948 290.836H229.91ZM207.416 280.114C207.797 279.808 209.266 278.664 209.953 278.129C210.106 278.015 210.316 278.129 210.316 278.32C210.278 279.427 210.03 282.155 208.828 283.147C208.026 283.796 206.805 283.586 206.405 282.575C206.023 281.64 206.748 280.686 207.435 280.114H207.416ZM215.086 278.32C215.086 278.129 215.295 278.015 215.448 278.129C216.135 278.664 217.604 279.789 217.986 280.114C218.672 280.686 219.397 281.621 219.016 282.575C218.596 283.586 217.394 283.796 216.593 283.147C215.372 282.155 215.143 279.427 215.105 278.32H215.086ZM264.023 235.297C265.435 242.642 264.023 255.578 252.004 263.648C240.69 271.242 227.392 268.399 222.832 267.063C222.698 267.025 222.565 266.968 222.45 266.911C222.412 267.235 222.374 267.559 222.297 267.865C221.935 269.41 221.286 271.127 219.874 271.986C220.809 270.708 220.943 269.162 220.943 267.712C220.943 266.167 220.561 264.717 220.409 263.171C220.103 259.985 220.294 256.723 221.095 253.555C221.878 250.35 223.366 247.278 225.407 244.645C227.067 242.432 229.223 240.219 232.028 238.025C243.017 229.516 257.193 231.939 261.963 233.084C263.012 233.332 263.814 234.19 264.023 235.259V235.297ZM219.34 239.265C220.332 229.916 228.136 222.113 237.618 221.636C235.519 222.399 233.421 223.124 231.494 224.25C227.659 226.387 224.492 229.497 222.221 233.236C221.057 235.144 220.275 237.224 219.34 239.246V239.265ZM262.707 230.832C252.137 228.066 240.232 228.581 231.284 235.297C228.346 237.453 225.713 240.105 223.614 243.215C225.026 239.704 227.43 236.613 230.311 234.057C238.992 226.31 252.671 225.185 262.726 230.813L262.707 230.832ZM203.39 205.61C205.431 205.934 207.435 206.468 209.476 206.792C211.403 207.117 213.311 207.174 215.238 206.907C217.28 206.621 219.264 206.087 221.286 205.743C223.576 205.342 225.903 205.094 228.231 205.285C226.209 205.762 224.186 206.296 222.202 206.907C220.218 207.517 218.272 208.204 216.249 208.643C214.189 209.063 212.109 209.139 210.049 208.815C207.988 208.471 205.985 207.804 204.001 207.174C201.749 206.468 199.479 205.839 197.189 205.304C199.269 205.133 201.349 205.304 203.409 205.629L203.39 205.61ZM193.66 209.979C197.933 210.322 202.074 211.448 206.176 212.612C207.492 212.974 208.789 213.356 210.125 213.661C211.136 213.89 212.205 214.1 213.254 214.004C214.361 213.909 215.467 213.642 216.555 213.356C219.836 212.497 223.08 211.467 226.419 210.799C231.226 209.807 236.492 209.254 241.224 210.875C233.249 210.189 225.827 213.337 218.367 215.588C216.555 216.141 214.647 216.733 212.739 216.733C210.831 216.733 208.904 216.141 207.11 215.588C203.619 214.539 200.185 213.298 196.674 212.325C192.648 211.2 188.413 210.513 184.235 210.875C187.249 209.826 190.512 209.731 193.679 209.979H193.66ZM205.451 239.246C204.516 237.205 203.733 235.125 202.57 233.236C200.299 229.497 197.113 226.387 193.297 224.25C191.37 223.124 189.291 222.399 187.173 221.636C196.636 222.113 204.458 229.916 205.451 239.265V239.246ZM195.129 234.057C198.01 236.594 200.414 239.704 201.826 243.215C199.708 240.105 197.075 237.453 194.156 235.297C185.208 228.581 173.302 228.066 162.732 230.832C172.787 225.185 186.467 226.31 195.148 234.076L195.129 234.057ZM161.378 235.278C161.588 234.209 162.37 233.351 163.438 233.103C168.208 231.958 182.365 229.516 193.373 238.044C196.178 240.219 198.353 242.451 199.994 244.665C202.035 247.297 203.524 250.369 204.306 253.574C205.107 256.723 205.298 260.004 204.993 263.19C204.84 264.736 204.478 266.186 204.458 267.731C204.458 269.181 204.611 270.727 205.527 272.005C204.115 271.146 203.466 269.429 203.104 267.884C203.028 267.559 202.989 267.254 202.951 266.93C202.837 266.987 202.703 267.044 202.57 267.082C198.01 268.418 184.712 271.28 173.398 263.667C161.397 255.597 159.966 242.661 161.378 235.316V235.278Z" fill="white"/>
<path d="M215.809 108.172C215.809 108.172 215.732 108.019 215.637 107.981C213.042 107.123 210.428 107.065 207.796 107.81C207.624 107.848 207.509 108 207.49 108.153L206.155 119.429C206.155 119.429 206.078 119.543 206.021 119.543C206.002 119.543 205.964 119.543 205.945 119.505L205.888 119.448C205.888 119.448 205.811 119.352 205.811 119.276L205.716 113.304C205.716 113.304 205.678 113.228 205.621 113.228C205.601 113.228 205.582 113.228 205.563 113.247C204.323 114.621 203.064 116.014 201.824 117.425C192.57 127.976 185.549 140.301 180.283 153.275C180.283 153.332 180.283 153.371 180.341 153.39C180.341 153.39 180.379 153.39 180.398 153.39C188.297 151.157 196.329 149.688 204.495 148.944C204.59 148.944 204.628 148.887 204.628 148.792C204.628 141.675 204.915 134.559 205.487 127.461C205.487 127.442 205.487 127.423 205.525 127.423C205.544 127.423 205.563 127.423 205.601 127.423C205.678 127.423 205.735 127.461 205.754 127.537L206.441 147.971C206.441 148.086 206.536 148.181 206.67 148.181C210.123 147.857 213.577 147.742 217.049 147.876C217.202 147.876 217.278 147.818 217.278 147.666C217.221 143.163 217.182 138.718 217.163 134.291C217.125 125.477 217.679 116.796 215.79 108.115L215.809 108.172Z" fill="white"/>
<path d="M219.644 148.887C228.421 149.688 237.045 151.329 245.516 153.79C245.592 153.81 245.668 153.771 245.687 153.695C245.687 153.657 245.687 153.619 245.687 153.6C238.533 138.107 229.489 123.054 217.717 110.691C217.679 110.653 217.641 110.653 217.603 110.691C217.603 110.691 217.584 110.729 217.584 110.748C217.527 116.815 218.271 122.959 218.843 128.988C219.034 131.029 219.282 135.513 219.568 142.438C219.664 144.537 219.644 146.636 219.511 148.754C219.511 148.849 219.549 148.887 219.625 148.906L219.644 148.887Z" fill="white"/>
<path d="M205.01 162.96L204.858 162.964C203.836 162.987 203.027 163.835 203.051 164.857L203.461 182.538C203.485 183.56 204.332 184.369 205.354 184.346L205.507 184.342C206.529 184.318 207.338 183.471 207.314 182.449L206.903 164.767C206.88 163.746 206.032 162.936 205.01 162.96Z" fill="white"/>
<path d="M136.956 253.326C136.46 254.928 135.391 256.15 135.086 257.79C134.628 260.366 135.296 262.579 137.128 264.487C137.414 264.773 137.681 264.945 137.929 264.983C140.486 265.365 145.809 249.93 146.553 247.64C147.087 245.98 147.469 244.34 147.831 242.661C149.376 235.43 150.998 227.321 152.792 221.025C153.536 218.411 154.394 216.217 155.348 214.481C159.889 206.143 168.169 201.812 177.423 200.572C181.143 200.057 185.15 199.656 189.424 199.351C207.453 198.054 225.464 198.283 243.456 200.019C253.892 201.011 263.088 203.777 269.117 213.031C270.052 214.462 270.758 215.835 271.235 217.171C272.628 220.968 273.772 225.051 274.707 229.458C276.52 238.024 277.397 244.092 279.897 250.941C281.499 255.329 283.312 260.232 285.964 264.106C286.117 264.334 286.479 264.64 286.994 265.021C287.051 265.059 287.128 265.079 287.204 265.079C287.605 265.021 287.948 264.831 288.234 264.544C290.219 262.446 290.829 259.984 290.085 257.142C289.856 256.245 289.188 255.405 288.864 254.661C287.452 251.38 286.67 247.335 285.506 242.565C285.01 240.486 284.647 238.902 284.457 237.834C283.369 231.785 283.274 225.718 284.17 219.632C284.533 217.171 285.544 214.519 285.868 212.058C286.727 205.723 286.803 199.294 287.013 191.605C287.166 185.69 286.555 179.471 283.617 174.376C283.083 173.461 282.682 172.717 282.415 172.163C282.129 171.572 282.129 171.019 282.034 170.389C281.709 168.252 279.553 166.535 277.817 165.409C277.741 165.371 277.703 165.314 277.684 165.218C275.986 159.934 273.448 154.725 269.899 150.451C268.354 148.581 266.923 146.979 265.645 145.624C260.57 140.301 254.827 134.52 248.416 128.3C243.742 123.779 238.571 119.81 233.096 116.338C232.943 116.242 232.924 116.242 233.057 116.376C236.301 119.314 239.201 122.596 241.777 126.202C241.834 126.297 241.853 126.354 241.834 126.373C241.738 126.431 241.624 126.431 241.529 126.354C236.206 121.127 230.52 116.166 224.3 112.026C222.259 110.652 219.988 109.717 217.718 108.706C217.661 108.687 217.584 108.706 217.565 108.763C217.565 108.802 217.565 108.821 217.565 108.859C217.565 108.897 217.603 108.935 217.642 108.992C221.4 113.59 225.197 118.131 229.051 122.653C235.08 129.712 240.212 137.363 244.429 145.624C245.898 148.486 247.138 151.272 248.168 153.981C248.187 154.057 248.244 154.095 248.321 154.114L258.585 157.415C258.585 157.415 258.681 157.415 258.7 157.358C258.7 157.339 258.7 157.32 258.7 157.301C256.697 151.997 254.483 146.559 251.679 141.618C251.641 141.56 251.679 141.484 251.717 141.465C251.831 141.408 251.908 141.446 252.003 141.56C255.189 146.483 257.727 152.073 259.997 157.472C260.035 157.549 260.035 157.625 259.997 157.701L259.711 158.426C259.711 158.426 259.711 158.56 259.787 158.598C263.718 160.048 267.572 161.651 271.368 163.425C272.38 163.902 272.36 163.959 271.292 163.597C261.218 160.258 250.744 157.434 239.869 155.145C229.184 152.893 218.92 151.52 209.342 151.92C190.168 152.722 171.432 157.835 153.288 163.807C153.269 163.807 153.249 163.807 153.23 163.788C153.23 163.788 153.23 163.788 153.23 163.768C153.23 163.73 153.269 163.711 153.307 163.692C157.103 161.937 160.957 160.296 164.831 158.77C164.907 158.751 164.926 158.655 164.907 158.598C164.735 158.216 164.735 157.816 164.907 157.396C168.78 148.467 173.76 140.206 179.827 132.631C179.827 132.612 179.865 132.593 179.884 132.593C180.037 132.555 180.094 132.593 180.113 132.727C180.113 132.765 180.113 132.803 180.075 132.841C175.4 140.397 171.298 148.257 167.788 156.423C167.731 156.557 167.788 156.614 167.921 156.576L177.766 153.771C177.766 153.771 177.9 153.695 177.938 153.618C180.857 146.445 184.864 139.519 189.137 133.337C194.022 126.278 199.535 118.665 205.641 110.519C205.755 110.366 205.793 110.156 205.736 109.908C205.736 109.832 205.679 109.794 205.603 109.832C203.084 110.938 201.405 111.95 198.486 114.144C195.014 116.796 191.656 119.581 188.431 122.538C188.374 122.596 188.317 122.615 188.241 122.577C188.183 122.538 188.164 122.481 188.202 122.424C190.568 119.467 193.163 116.719 195.968 114.201C196.025 114.163 196.025 114.106 195.968 114.067C195.949 114.067 195.91 114.067 195.872 114.067C189.633 117.94 183.127 122.405 177.785 127.614C170.287 134.902 162.655 142.247 155.787 150.127C152.124 154.324 149.319 160.143 147.659 165.352C147.64 165.428 147.583 165.486 147.526 165.524C146.057 166.42 144.32 167.87 143.595 169.454C143.138 170.446 143.405 171.381 142.928 172.316C142.622 172.926 142.088 173.899 141.325 175.216C139.131 179.089 138.349 184.736 138.33 189.239C138.33 196.642 138.654 204.273 139.455 211.962C139.703 214.195 140.657 216.866 141.001 218.716C142.298 225.909 141.936 233.522 140.314 240.505C139.303 244.855 138.291 249.243 136.956 253.498V253.326ZM263.546 167.508C265.397 172.717 266.198 178.44 266.293 184.03C266.351 187.255 266.045 190.327 265.397 193.227C265.301 193.665 265.206 193.665 265.129 193.227C264.824 191.452 264.519 189.678 264.385 187.827C263.908 181.111 263.565 174.357 263.355 167.546C263.355 167.145 263.412 167.126 263.546 167.508ZM231.665 164.665C231.665 164.665 231.741 164.513 231.836 164.493C232.485 164.436 233.153 164.627 233.706 164.474C235.061 164.093 235.652 162.662 235.729 161.345C235.729 161.269 235.805 161.193 235.881 161.212L238.495 161.422C238.495 161.422 238.629 161.498 238.629 161.574L236.969 187.255C236.969 187.35 236.911 187.407 236.816 187.388L233.763 187.198C233.763 187.198 233.649 187.14 233.649 187.064L234.965 166.554C234.965 166.42 234.927 166.401 234.813 166.478C233.859 167.184 232.771 167.413 231.569 167.145C231.512 167.145 231.474 167.088 231.493 167.031L231.665 164.646V164.665ZM216.325 180.596C217.088 176.819 219.53 175.578 221.934 173.041C223.117 171.782 223.442 170.351 223.575 168.5C223.69 166.974 223.709 165.676 223.651 164.608C223.518 162.223 219.874 162.242 219.836 165.104C219.817 166.478 219.778 167.851 219.759 169.225C219.759 169.32 219.702 169.378 219.607 169.378L216.516 169.282C216.516 169.282 216.42 169.244 216.42 169.187C216.516 165.009 215.963 159.686 222.221 160.143C225.464 160.391 226.8 161.994 226.914 165.238C226.971 166.745 226.895 168.729 226.8 169.855C226.456 173.88 224.281 175.445 221.534 177.944C219.721 179.604 219.53 181.436 219.378 183.649C219.378 183.706 219.416 183.763 219.492 183.763L225.884 183.916C225.884 183.916 226.055 183.992 226.055 184.088V186.492C226.055 186.644 225.979 186.702 225.826 186.702L216.211 186.434C216.211 186.434 216.077 186.396 216.077 186.301C215.943 184.05 216.02 182.142 216.344 180.558L216.325 180.596ZM200.108 163.234C200.661 161.097 203.16 160.105 205.24 160.182C210.678 160.391 210.239 164.875 210.315 168.786C210.391 173.06 210.544 177.334 210.62 181.627C210.678 184.259 209.686 186.339 206.919 186.911C203.981 187.522 200.928 186.644 200.318 183.305C200.28 183.057 200.222 182.218 200.184 180.825C200.089 177.734 200.012 174.644 199.955 171.553C199.955 171.381 199.917 171.19 199.86 170.961C199.707 170.37 200.051 169.797 200.032 169.244C199.898 167.222 199.631 165.218 200.146 163.234H200.108ZM187.134 164.932C187.821 164.875 188.603 164.932 189.175 164.627C190.339 164.036 190.721 162.566 190.625 161.326C190.625 161.231 190.664 161.174 190.759 161.174L193.411 160.983C193.411 160.983 193.545 161.021 193.545 161.097L195.224 186.911C195.224 186.911 195.204 187.007 195.128 187.007L192.037 187.217C192.037 187.217 191.904 187.179 191.904 187.102L190.568 166.573C190.568 166.459 190.511 166.44 190.416 166.516C189.309 167.47 188.851 167.508 187.42 167.661C187.325 167.661 187.248 167.622 187.229 167.527C187.039 166.707 186.962 165.886 187.02 165.047C187.02 164.97 187.058 164.932 187.153 164.913L187.134 164.932ZM161.034 166.63C161.358 165.543 161.721 164.589 162.159 163.73C162.159 163.692 162.217 163.673 162.274 163.692C162.312 163.692 162.331 163.749 162.331 163.788C161.587 170.236 160.919 176.742 160.576 183.229C160.29 188.667 159.908 194.085 159.431 199.504C159.431 199.523 159.412 199.561 159.393 199.561C159.374 199.561 159.336 199.542 159.336 199.523C157.6 188.648 157.886 177.257 161.053 166.668L161.034 166.63ZM152.601 211.447C159.717 197.367 175.629 193.589 190.053 192.807C202.283 192.139 214.474 192.196 226.704 192.845C232.829 193.169 238.934 193.799 245.02 194.715C250.935 195.611 256.658 197.138 262.058 199.752C262.077 199.752 262.096 199.771 262.115 199.809C262.115 199.847 262.115 199.847 262.096 199.847C252.804 196.298 242.75 195.497 232.905 195.02C218.901 194.333 204.897 194.238 190.893 194.734C185.245 194.944 179.636 195.783 174.122 197.004C165.288 198.969 157.428 203.739 152.639 211.562C152.601 211.619 152.601 211.6 152.582 211.562C152.582 211.523 152.582 211.504 152.582 211.485L152.601 211.447Z" fill="white"/>
<path d="M367.833 164.036C367.833 164.036 367.794 164.055 367.775 164.074C366.135 165.238 364.417 166.421 362.643 167.623C367.05 182.218 369.34 197.539 369.34 213.222C369.34 255.082 353.046 294.423 323.455 324.014C293.863 353.606 254.503 369.9 212.662 369.9C170.822 369.9 131.461 353.606 101.87 324.014C92.8643 315.009 85.0991 305.088 78.6313 294.48C76.3418 295.052 74.1286 295.567 71.9727 296.064C78.8984 307.797 87.3695 318.73 97.2525 328.613C128.084 359.444 169.066 376.425 212.662 376.425C256.258 376.425 297.24 359.444 328.072 328.613C358.904 297.781 375.884 256.799 375.884 213.203C375.884 196.165 373.27 179.509 368.271 163.712C368.119 163.807 367.985 163.922 367.852 164.017L367.833 164.036Z" fill="white"/>
<path d="M393.493 131.964C390.956 126.622 376.57 127.061 354.114 132.193C354.209 132.174 354.285 132.155 354.362 132.136C347.245 119.734 338.45 108.191 328.071 97.8123C297.239 66.9804 256.257 50 212.661 50C169.065 50 128.083 66.9804 97.2515 97.8123C66.4196 128.644 49.4392 169.626 49.4392 213.222C49.4392 231.023 52.282 248.385 57.7386 264.793C57.815 264.735 57.8913 264.678 57.9676 264.64C39.8233 277.557 30.2265 287.707 32.268 293.087C32.3062 293.182 32.3443 293.278 32.4016 293.392C34.8818 298.639 48.8478 298.296 70.6743 293.43C70.6934 293.43 70.7124 293.43 70.7315 293.43C83.3428 290.607 98.568 286.295 115.701 280.628C128.885 276.278 143.213 271.165 158.362 265.365L153.974 260.614C143.766 264.545 134.074 268.074 125.012 271.184C117.742 259.87 112.534 246.973 110.054 232.892C101.029 181.703 130.983 132.67 178.586 116.224C183.508 112.389 188.679 109.069 192.838 106.417L192.933 106.36C193.372 106.074 193.811 105.806 194.25 105.52C141.878 114.354 101.983 159.915 101.983 214.805C101.983 236.288 108.127 256.341 118.696 273.321C116.178 274.161 113.698 274.962 111.294 275.725C94.1607 281.143 80.0803 284.635 70.2355 285.837C71.2848 285.703 72.3914 285.551 73.5361 285.379C62.0887 263.362 56.0024 238.769 56.0024 213.241C56.0024 171.381 72.296 132.04 101.888 102.448C131.46 72.8186 170.802 56.5251 212.661 56.5251C254.521 56.5251 293.862 72.8186 323.454 102.41C338.85 117.807 350.641 135.856 358.407 155.527C352.797 160.144 345.375 165.448 336.427 171.229C331.009 174.739 325.094 178.364 318.722 182.123C306.53 142.534 272.76 112.389 231.13 105.463C231.549 105.73 232.007 106.016 232.484 106.322L232.58 106.379C236.682 109.012 241.795 112.293 246.679 116.09C277.95 126.87 303.23 152.245 312.903 185.5C306.206 189.373 299.032 193.36 291.324 197.501L291 205.934C308.247 197.024 323.931 188.362 337.553 180.253C348.924 173.48 358.883 167.089 367.126 161.25C367.126 161.25 367.164 161.231 367.183 161.212C383.362 149.746 392.94 140.454 393.798 134.616C393.951 133.624 393.856 132.727 393.474 131.945L393.493 131.964ZM54.9531 283.528C54.9531 283.528 54.9149 283.471 54.9149 283.452C53.7511 281.086 55.8116 277.366 60.5623 272.596C62.3558 277.194 64.3782 281.735 66.5913 286.161C60.1617 286.6 56.1169 285.78 54.9531 283.528ZM69.8157 285.856C68.8045 285.971 67.8124 286.085 66.8775 286.142C67.7933 286.066 68.7854 285.971 69.8157 285.856ZM359.456 154.63C359.971 154.191 360.505 153.752 361.001 153.332C360.524 153.752 359.99 154.21 359.456 154.63ZM370.445 141.503C369.949 143.926 367.584 147.132 363.596 150.929C361.574 146.025 359.322 141.236 356.823 136.562C364.245 135.837 368.919 136.6 370.197 139.042C370.56 139.748 370.636 140.569 370.445 141.503Z" fill="white"/>
</g>
<defs>
<clipPath id="clip0_37_10618">
<rect width="361.874" height="326.425" fill="white" transform="translate(32 50)"/>
</clipPath>
</defs>
</svg>
