<svg width="426" height="426" viewBox="0 0 426 426" fill="none" xmlns="http://www.w3.org/2000/svg">
<g clip-path="url(#clip0_37_10616)">
<path d="M279.984 230.753L279.143 229.057L278.302 230.753L276.418 231.032L277.788 232.355L277.461 234.221L279.143 233.334L280.825 234.221L280.498 232.355L281.852 231.032L279.984 230.753Z" fill="white"/>
<path d="M279.984 268.362L279.143 266.667L278.302 268.362L276.418 268.627L277.788 269.949L277.461 271.815L279.143 270.944L280.825 271.815L280.498 269.949L281.852 268.627L279.984 268.362Z" fill="white"/>
<path d="M282.288 255.53L281.447 253.835L280.606 255.53L278.738 255.794L280.093 257.117L279.781 258.983L281.447 258.112L283.129 258.983L282.818 257.117L284.172 255.794L282.288 255.53Z" fill="white"/>
<path d="M281.447 241.003L280.606 242.698L278.738 242.963L280.093 244.285L279.781 246.167L281.447 245.28L283.129 246.167L282.818 244.285L284.172 242.963L282.288 242.698L281.447 241.003Z" fill="white"/>
<path d="M144.961 229.057L144.12 230.753L142.236 231.032L143.59 232.355L143.279 234.221L144.961 233.334L146.642 234.221L146.315 232.355L147.67 231.032L145.802 230.753L144.961 229.057Z" fill="white"/>
<path d="M145.802 268.362L144.961 266.667L144.12 268.362L142.236 268.627L143.59 269.949L143.279 271.815L144.961 270.944L146.642 271.815L146.315 269.949L147.67 268.627L145.802 268.362Z" fill="white"/>
<path d="M142.64 258.112L144.322 258.983L143.995 257.117L145.365 255.794L143.481 255.53L142.64 253.835L141.8 255.53L139.931 255.794L141.286 257.117L140.959 258.983L142.64 258.112Z" fill="white"/>
<path d="M143.481 242.698L142.64 241.003L141.8 242.698L139.931 242.963L141.286 244.285L140.959 246.167L142.64 245.28L144.322 246.167L143.995 244.285L145.365 242.963L143.481 242.698Z" fill="white"/>
<path d="M212.044 26H74V265.656C74 300.341 84.9158 330.578 122.615 348.31C160.299 366.041 172.819 372.449 187.113 381.082C201.408 389.714 212.059 399 212.059 399C212.059 399 222.711 389.73 237.005 381.082C251.3 372.449 263.82 366.041 301.504 348.31C339.188 330.578 350.119 300.341 350.119 265.656V26H212.075H212.044ZM341.695 265.656C341.695 283.372 338.689 297.681 332.492 309.44C325.407 322.879 314.086 333.113 297.907 340.735C260.363 358.389 247.563 364.906 232.645 373.927C224.034 379.138 216.731 384.519 212.044 388.19C207.372 384.519 200.054 379.138 191.442 373.927C176.525 364.906 163.709 358.404 126.181 340.735C109.986 333.113 98.6813 322.879 91.5961 309.44C85.3986 297.697 82.3932 283.372 82.3932 265.656V34.3836H341.71V265.656H341.695Z" fill="white"/>
<path d="M200.287 59.6122H196.768V62.9252H192.33V49.6732H188.344V66.2382H200.287V59.6122Z" fill="white"/>
<path d="M215.392 66.2381L218.288 63.3451V52.5506L215.392 49.6576H207.201L204.305 52.5506V63.3451L207.201 66.2381H215.392ZM208.431 53.1261H214.162V62.7852H208.431V53.1261Z" fill="white"/>
<path d="M231.773 62.7852H222.96V66.2382H233.003L235.76 63.5007V56.7814L226.712 56.0037V53.1418H235.526V49.6732H225.482L222.726 52.4263V58.9123L231.773 59.69V62.7852Z" fill="white"/>
<path d="M128.906 115.56V106.834H111.217V84.3585H128.346V75.6327H108.242L101.282 82.5853V108.607L108.242 115.56H128.906Z" fill="white"/>
<path d="M133.188 75.6327V115.56H142.78V99.3681H155.689V115.56H165.282V75.6327H155.689V90.6889H142.78V75.6327H133.188Z" fill="white"/>
<path d="M177.443 75.6327L168.645 115.56H178.814L180.464 107.005H193.031L194.681 115.56H204.85L196.052 75.6327H177.428H177.443ZM181.663 100.099L184.98 83.223H188.515L191.832 100.099H181.663Z" fill="white"/>
<path d="M208.229 115.56H217.65V87.8426L225.7 104.376H229.811L237.862 87.8426V115.56H247.283V75.6327H235.744L227.756 92.6332L219.752 75.6327H208.229V115.56Z" fill="white"/>
<path d="M286.275 82.5853L279.314 75.6327H259.553L252.593 82.5853V108.592L259.553 115.544H279.314L286.275 108.592V82.5853ZM258.946 110.458V106.943L279.906 95.1529V98.6837L258.946 110.458ZM258.946 103.257V99.7414L279.906 87.9514V91.4822L258.946 103.257ZM258.946 96.0551V92.5399L279.906 80.75V84.2807L258.946 96.0551Z" fill="white"/>
<path d="M301.006 83.9696H322.261V75.6327H298.047L291.413 82.2587V97.8749L313.229 99.7569V107.238H291.99V115.56H316.204L322.822 108.949V92.7421L301.006 90.86V83.9696Z" fill="white"/>
<path d="M181.103 56.0503H101.282V59.8766H181.103V56.0503Z" fill="white"/>
<path d="M322.821 56.0503H243V59.8766H322.821V56.0503Z" fill="white"/>
<path d="M103.867 138.953L108.071 136.744L112.275 138.953L111.466 134.271L114.86 130.974L110.173 130.289L108.071 126.043L105.969 130.289L101.282 130.974L104.676 134.271L103.867 138.953Z" fill="white"/>
<path d="M141.177 134.271L144.571 130.974L139.884 130.289L137.782 126.043L135.68 130.289L130.977 130.974L134.372 134.271L133.578 138.953L137.782 136.744L141.971 138.953L141.177 134.271Z" fill="white"/>
<path d="M165.391 130.289L160.688 130.974L164.083 134.271L163.289 138.953L167.493 136.744L171.682 138.953L170.888 134.271L174.282 130.974L169.595 130.289L167.493 126.043L165.391 130.289Z" fill="white"/>
<path d="M199.291 130.289L197.188 126.043L195.086 130.289L190.399 130.974L193.794 134.271L193 138.953L197.188 136.744L201.393 138.953L200.599 134.271L203.993 130.974L199.291 130.289Z" fill="white"/>
<path d="M229.002 130.289L226.899 126.043L224.797 130.289L220.11 130.974L223.505 134.271L222.711 138.953L226.899 136.744L231.104 138.953L230.31 134.271L233.704 130.974L229.002 130.289Z" fill="white"/>
<path d="M253.216 134.271L252.406 138.953L256.61 136.744L260.815 138.953L260.005 134.271L263.415 130.974L258.713 130.289L256.61 126.043L254.508 130.289L249.821 130.974L253.216 134.271Z" fill="white"/>
<path d="M293.111 130.974L288.423 130.289L286.321 126.043L284.219 130.289L279.516 130.974L282.927 134.271L282.117 138.953L286.321 136.744L290.526 138.953L289.716 134.271L293.111 130.974Z" fill="white"/>
<path d="M316.032 126.043L313.93 130.289L309.228 130.974L312.638 134.271L311.828 138.953L316.032 136.744L320.221 138.953L319.427 134.271L322.822 130.974L318.135 130.289L316.032 126.043Z" fill="white"/>
<path d="M132.924 323.034V151.738H101.282V265.656C101.282 280.23 103.586 291.678 108.305 300.652C113.225 309.985 121.291 317.326 132.924 323.034Z" fill="white"/>
<path d="M291.18 323.034C302.812 317.326 310.878 309.985 315.799 300.652C320.533 291.678 322.822 280.245 322.822 265.656V151.738H291.164V323.034H291.18Z" fill="white"/>
<path d="M164.581 186.89C173.784 179.984 184.544 175.038 196.239 172.674V151.738H164.581V186.906V186.89Z" fill="white"/>
<path d="M164.581 338.137C175.793 343.612 183.345 347.532 190.29 351.405C192.283 352.525 194.23 353.629 196.239 354.811V327.592C184.544 325.228 173.784 320.281 164.581 313.375V338.153V338.137Z" fill="white"/>
<path d="M227.88 172.674C239.575 175.038 250.335 179.984 259.538 186.89V151.723H227.88V172.658V172.674Z" fill="white"/>
<path d="M227.88 354.795C229.889 353.629 231.836 352.509 233.829 351.389C240.774 347.516 248.311 343.597 259.538 338.122V313.344C250.335 320.25 239.575 325.196 227.88 327.56V354.78V354.795Z" fill="white"/>
<path d="M210.16 335.477H216.933V332.927H207.139V349.787L210.16 346.739V342.741H216.949V340.33H210.16V335.477Z" fill="white"/>
<path d="M210.16 355.62H216.933V353.069H209.583L207.139 355.511V365.155L209.583 367.597H216.949V365.046H210.16V355.62Z" fill="white"/>
<path d="M175.575 213.379C183.376 209.817 190.679 207.546 197.282 206.644C199.368 206.364 201.393 206.209 203.277 206.209C206.687 206.209 209.786 206.675 212.511 207.608C214.239 206.084 217.198 202.662 217.198 197.203C217.198 194.59 216.451 192.226 214.971 190.188C213.99 190.141 213.009 190.11 212.044 190.11C196.316 190.11 181.523 196.223 170.405 207.344C164.69 213.052 160.237 219.834 157.293 227.222C161.7 222.26 167.773 216.956 175.59 213.379H175.575Z" fill="white"/>
<path d="M172.694 258.61C175.326 258.61 177.755 258.983 179.623 259.403C180.386 252.808 183.797 247.178 188.935 244.191C192.283 242.231 195.896 241.236 199.664 241.236C201.938 241.236 204.258 241.609 206.563 242.34C208.774 243.056 210.627 243.989 211.935 244.767C212.978 243.88 214.302 242.574 215.532 240.8C218.755 236.134 219.83 230.581 218.709 224.298C217.914 219.849 215.797 216.676 212.402 214.903C210.004 213.643 206.936 213.005 203.277 213.005C196.394 213.005 187.799 215.276 178.424 219.569C167.976 224.344 160.953 232.728 156.889 238.934C155.596 240.909 154.382 242.994 153.292 245.124C153.214 246.384 153.167 247.691 153.167 248.982C153.167 255.032 154.07 260.974 155.861 266.651C157.496 264.505 159.52 262.732 161.887 261.347C164.939 259.559 168.583 258.641 172.71 258.641L172.694 258.61Z" fill="white"/>
<path d="M225.373 223.1C227.18 233.319 223.972 240.552 220.951 244.829C219.035 247.551 216.933 249.448 215.563 250.522C216.015 252.948 217.572 257.521 223.006 260.243C225.7 261.596 228.472 262.28 231.275 262.28C237.286 262.28 242.627 259.123 245.959 253.632C255.318 238.125 253.605 224.873 252.235 214.219C251.752 210.455 250.911 206.939 249.759 203.766C242.051 197.311 232.848 192.972 223.006 191.137C223.645 193.05 223.972 195.072 223.972 197.203C223.972 203.595 221.293 208.106 218.693 210.983C222.197 213.861 224.439 217.92 225.342 223.1H225.373Z" fill="white"/>
<path d="M212.044 307.776C219.986 307.776 227.881 306.174 235.106 303.11C226.728 301.99 214.473 299.268 201.533 292.58C194.323 288.862 188.733 284.18 184.902 278.69C182.255 274.895 180.496 270.664 179.795 266.433C178.144 265.967 175.497 265.391 172.647 265.391C169.798 265.391 167.291 265.982 165.298 267.149C161.732 269.249 159.941 272.313 159.053 274.677C161.903 280.541 165.734 285.876 170.405 290.542C181.523 301.648 196.317 307.776 212.044 307.776Z" fill="white"/>
<path d="M243.156 265.858C241.334 266.931 239.388 267.755 237.317 268.3C235.386 268.813 233.393 269.062 231.368 269.062C227.507 269.062 223.567 268.113 219.985 266.309C211.296 261.954 209.241 254.395 208.758 250.77C207.808 250.179 206.251 249.339 204.336 248.748C202.732 248.251 201.159 248.002 199.618 248.002C197.095 248.002 194.65 248.686 192.346 250.039C188.437 252.326 186.086 257.194 186.241 262.747C186.491 271.971 193.202 280.65 204.647 286.56C217.292 293.093 229.235 295.581 237.037 296.53C240.042 296.888 243.001 297.106 245.835 297.152C248.606 295.208 251.254 292.984 253.667 290.558C257.467 286.762 260.706 282.516 263.322 277.912C259.974 277.446 256.75 276.481 253.714 275.004C248.264 272.359 245.009 268.751 243.141 265.873L243.156 265.858Z" fill="white"/>
<path d="M259.865 233.132C259.086 241.578 256.439 249.417 251.783 257.132C250.802 258.75 249.696 260.243 248.466 261.565C249.634 263.587 252.063 266.651 256.704 268.891C260.41 270.695 263.96 271.255 266.53 271.38C269.457 264.271 270.952 256.728 270.952 248.935C270.952 236.025 266.732 223.567 258.993 213.394C259.694 218.854 260.566 225.635 259.865 233.117V233.132Z" fill="white"/>
</g>
<defs>
<clipPath id="clip0_37_10616">
<rect width="277.145" height="373" fill="white" transform="translate(74 26)"/>
</clipPath>
</defs>
</svg>
