<svg width="426" height="426" viewBox="0 0 426 426" fill="none" xmlns="http://www.w3.org/2000/svg">
<g clip-path="url(#clip0_37_10614)">
<path d="M253.357 298.427H247.081V312.553H253.357V298.427Z" fill="white"/>
<path d="M181.635 307.848H186.03L183.824 299.606L181.635 307.848Z" fill="white"/>
<path d="M366.021 300.393C360.087 290.542 353.708 280.846 347.073 271.56L346.218 270.363L344.61 270.551C301.156 275.767 256.881 278.401 212.999 278.418C169.134 278.418 124.841 275.767 81.3868 270.551L79.7792 270.363L78.9242 271.56C72.2888 280.846 65.9101 290.542 59.9759 300.393L59.5142 301.162L59.8049 302C64.1144 314.724 68.4924 327.122 72.819 338.854L73.4688 340.615L75.5723 340.342C119.984 334.63 166.226 331.723 213.016 331.705C259.805 331.705 306.047 334.613 350.459 340.342L352.562 340.615L353.212 338.854C357.539 327.122 361.917 314.724 366.226 302L366.517 301.162L366.055 300.393H366.021ZM104.542 317.255H98.2658V305.472L91.9896 317.255L85.7134 305.472V317.255H79.4372V298.409L76.2906 293.706H85.7134L91.9896 305.489L98.2658 293.706H104.542V317.255ZM126.842 314.895L123.695 317.255H111.126L107.979 314.895V298.409L104.833 293.706H114.255V312.552H120.532V293.706H126.808V314.912L126.842 314.895ZM149.142 300.769H142.866V298.409H136.59V312.535H142.866V310.175H149.142V317.238H133.443L130.297 314.878V298.392L127.15 293.689H149.142V300.752V300.769ZM171.442 317.255H165.166V307.832H158.89V317.255H152.614V298.409L149.467 293.706H158.89V303.129H165.166V293.706H171.442V317.255ZM188.544 317.255L187.295 312.552H180.386L179.138 317.255H172.862L178.249 297.058L176.008 293.706H188.578L194.854 317.255H188.578H188.544ZM214.811 300.769H208.535V298.409H202.259V312.535H208.535V310.175H214.811V317.238H199.112L195.966 314.878V298.392L192.819 293.689H214.811V300.752V300.769ZM237.351 317.255H231.075V307.832H224.798V317.255H218.522V298.409L215.376 293.706H224.798V303.129H231.075V293.706H237.351V317.255ZM259.651 314.895L256.504 317.255H243.935L240.788 314.895V298.409L237.642 293.706H256.487L259.634 296.066V314.912L259.651 314.895ZM281.951 300.769H275.675V298.409H269.399V303.112H278.822L281.968 305.472V314.895L278.822 317.255H263.123V310.192H269.399V312.552H275.675V307.849H266.252L263.105 305.489V298.426L259.959 293.723H281.951V300.786V300.769ZM327.424 300.769H321.147V298.409H314.871V303.112H321.147V307.815H314.871V317.238H308.595V298.392L305.448 293.689H327.441V300.752L327.424 300.769ZM349.724 300.769H343.447V298.409H337.171V312.535H343.447V310.175H349.724V317.238H334.025L330.878 314.878V298.392L327.731 293.689H349.724V300.752V300.769Z" fill="white"/>
<path d="M295.343 310.413C297.44 310.413 299.139 308.713 299.139 306.616C299.139 304.52 297.44 302.82 295.343 302.82C293.246 302.82 291.546 304.52 291.546 306.616C291.546 308.713 293.246 310.413 295.343 310.413Z" fill="#606060"/>
<path d="M270.94 338.187C265.57 337.913 260.217 337.639 254.813 337.434C254.386 337.759 253.958 338.101 253.531 338.409C235.814 351.662 220.405 360.658 213 364.728C205.664 360.675 190.478 351.816 172.829 338.665C172.282 338.255 171.735 337.827 171.188 337.417C165.801 337.622 160.431 337.896 155.061 338.169C155.061 338.169 155.044 338.152 155.027 338.135C152.445 338.272 149.845 338.409 147.28 338.563C152.325 342.787 157.678 347.028 163.407 351.303C189.264 370.576 209.785 380.906 210.658 381.333L213 382.513L215.343 381.333C216.198 380.906 236.737 370.576 262.594 351.303C267.622 347.558 273.06 343.283 278.687 338.563C276.121 338.409 273.539 338.272 270.957 338.135C270.957 338.135 270.94 338.152 270.923 338.169L270.94 338.187Z" fill="white"/>
<path d="M371.649 84.1287L371.102 78.7247L365.732 79.443C362.517 79.8705 359.422 80.0928 356.498 80.0928C336.728 80.0928 323.27 70.6358 314.121 50.3023L310.837 42.9829L305.45 48.9171C290.025 65.9158 274.599 74.5178 259.636 74.5178C244.672 74.5178 230.427 66.0013 217.139 49.1907L213.017 43.9748L208.896 49.1907C195.608 66.0013 181.312 74.5178 166.399 74.5178C151.487 74.5178 136.027 65.8987 120.585 48.9171L115.198 42.9829L111.914 50.3023C102.765 70.6187 89.3065 80.0928 69.5373 80.0928C66.613 80.0928 63.5006 79.8705 60.3026 79.4601L54.9328 78.7418L54.3856 84.1458C54.2658 85.2745 51.6322 112.072 54.0093 148.071C57.9426 207.789 72.6669 245.052 84.501 265.984C86.6729 266.241 88.8276 266.48 90.9995 266.72C92.1624 266.857 93.3253 266.976 94.4882 267.113C95.138 267.181 95.7708 267.267 96.4206 267.335L98.1307 258.066C89.5801 242.932 82.7738 224.736 77.8828 203.907C73.8469 186.668 71.0936 167.669 69.7425 147.421C69.6741 146.326 69.6057 145.266 69.5373 144.189L111.436 186.087L121.936 129.259L110.033 92.0125L128.503 93.6713L212.983 169.858L224.492 159.477L153.967 88.8658C158.105 89.8064 162.261 90.3023 166.382 90.3023C176.592 90.3023 186.613 87.4293 196.138 81.7859C201.953 78.3314 207.596 73.8508 213 68.3613C218.404 73.8508 224.048 78.3485 229.862 81.7859C239.388 87.4293 249.409 90.3023 259.619 90.3023C269.828 90.3023 279.336 87.6345 289.067 82.3844C295.053 79.1522 301.004 74.894 306.87 69.6952C307.896 71.2172 308.956 72.6708 310.068 74.056C314.018 79.0154 318.498 83.1882 323.407 86.4545C332.761 92.6965 343.894 95.8603 356.48 95.8603C356.532 95.8603 356.6 95.8603 356.651 95.8603C357.216 106.737 357.712 125.463 356.241 147.404C354.89 167.669 352.154 186.668 348.101 203.889C343.21 224.702 336.404 242.915 327.853 258.049L329.563 267.318C330.315 267.233 331.051 267.147 331.786 267.062C332.846 266.942 333.924 266.822 334.984 266.703C337.156 266.463 339.328 266.224 341.483 265.967C353.317 245.035 368.041 207.771 371.974 148.054C374.351 112.055 371.718 85.2574 371.598 84.1287H371.649Z" fill="white"/>
<path d="M213 273.527C227.399 273.527 241.85 273.202 256.3 272.638L249.477 187.029L213 243.874L176.523 187.029L171.786 246.439L198.772 273.425C203.509 273.493 208.246 273.527 212.983 273.527H213Z" fill="white"/>
<path d="M127.372 128.883L133.717 148.242L126.072 135.912L101.686 267.866C111.399 268.857 121.147 269.73 130.929 270.465L152.443 150.243L139.719 271.046C147.945 271.594 156.171 272.073 164.413 272.449L171.254 186.617L172.502 170.986L180.968 184.189L212.981 234.108L244.995 184.189L253.46 170.986L254.708 186.617L261.549 272.449C269.792 272.09 278.018 271.594 286.243 271.046L273.52 150.243L295.033 270.465C304.798 269.73 314.546 268.857 324.277 267.866L299.89 135.912L292.246 148.242L298.59 128.883L299.001 127.617L308.475 97.9467L299.685 98.7333L216.504 173.74L212.964 176.938L209.424 173.74L126.243 98.7333L117.453 97.9467L126.927 127.617L127.338 128.883H127.372Z" fill="white"/>
</g>
<defs>
<clipPath id="clip0_37_10614">
<rect width="320" height="339.513" fill="white" transform="translate(53 43)"/>
</clipPath>
</defs>
</svg>
