<svg width="426" height="426" viewBox="0 0 426 426" fill="none" xmlns="http://www.w3.org/2000/svg">
<g clip-path="url(#clip0_37_10612)">
<path d="M87.3492 215.821C87.9033 222.256 88.4038 228.691 89.2082 235.108C89.6551 238.594 90.5847 242.026 91.4785 245.423C91.979 247.353 93.1766 247.836 95.0715 247.318C99.1829 246.173 103.312 245.029 107.406 243.868C109.354 243.313 111.285 242.688 113.108 242.134C115.611 249.963 118.56 257.382 122.618 264.389C120.83 265.443 119.114 266.444 117.291 267.517C116.469 266.105 115.557 264.711 114.86 263.227C113.34 259.991 111.91 256.72 110.462 253.449C109.587 251.447 108.603 250.982 106.566 251.715C103.562 252.77 100.559 253.842 97.5741 254.897C95.5541 255.612 94.8748 257.006 95.7686 259.008C97.5383 262.977 99.308 266.963 101.203 270.878C102.454 273.452 103.759 276.044 105.332 278.439C107.835 282.264 110.552 285.929 113.197 289.665C114.234 291.131 115.575 291.309 117.005 290.201C118.828 288.789 120.634 287.359 122.421 285.911C123.136 285.339 123.762 284.678 124.477 284.106C125.728 283.105 127.015 282.121 128.284 281.138C129.5 280.191 130.716 279.243 131.985 278.278C137.133 284.767 142.871 290.308 149.199 295.296C147.894 296.994 146.714 298.567 145.266 300.462C141.262 296.726 137.437 293.169 133.647 289.593C132.307 288.324 131.002 288.199 129.661 289.45C127.248 291.703 124.852 293.991 122.457 296.243C120.973 297.637 120.812 298.71 122.189 300.176C124.709 302.821 127.248 305.449 129.965 307.88C132.289 309.954 134.845 311.795 137.365 313.636C140.351 315.817 143.407 317.908 146.446 320.018C147.59 320.804 148.752 321.609 149.95 322.288C151.541 323.2 153.007 322.735 153.9 321.162C154.723 319.714 155.599 318.32 156.385 316.872C157.744 314.387 159.049 311.884 160.389 309.382C161.265 307.755 162.177 306.128 163.106 304.448C170.274 308.309 177.675 311.527 185.683 313.565C185.129 315.513 184.575 317.426 183.985 319.517C181.429 318.784 179.016 318.212 176.692 317.39C174.028 316.443 171.454 315.227 168.827 314.19C167.289 313.583 166.252 313.958 165.555 315.388C164 318.641 162.463 321.913 160.961 325.22C160.514 326.221 160.568 327.275 161.641 327.847C163.75 328.956 165.841 330.225 168.094 330.922C174.994 333.067 181.947 335.069 188.937 336.946C191.404 337.607 194.013 337.75 196.57 338.036C198.464 338.251 199.698 337.464 199.841 336.052C200.252 331.977 200.645 327.883 201.039 323.807C201.271 321.484 201.521 319.16 201.771 316.764C209.976 317.658 217.985 317.605 226.118 316.586C226.386 318.641 226.636 320.608 226.905 322.646C226.279 322.717 225.796 322.789 225.332 322.806C220.577 323.003 215.822 323.2 211.067 323.396C209.315 323.468 208.35 324.451 208.278 326.185C208.117 329.546 207.974 332.906 207.813 336.267C207.76 337.643 208.314 338.537 209.619 338.93C210.191 339.109 210.817 339.145 211.424 339.145C218.378 339.288 225.314 338.841 232.178 337.679C236.718 336.91 241.241 335.927 245.728 334.908C247.73 334.443 248.284 333.174 247.73 331.262C246.067 325.523 244.405 319.785 242.742 314.065C242.653 313.779 242.599 313.493 242.546 313.243C250.232 310.669 257.704 307.809 264.676 303.626C265.731 305.431 266.767 307.165 267.876 309.042C265.409 310.347 263.049 311.67 260.636 312.832C258.205 313.994 255.684 314.977 253.236 316.103C251.805 316.764 251.43 317.873 251.948 319.356C253.075 322.52 254.183 325.684 255.327 328.83C255.988 330.672 257.49 331.369 259.26 330.564C263.496 328.634 267.715 326.668 271.933 324.683C272.988 324.183 273.971 323.504 274.972 322.896C278.101 321.019 281.265 319.213 284.339 317.247C286.377 315.924 288.272 314.369 290.238 312.903C291.329 312.081 291.561 310.526 290.703 309.418C289.559 307.934 288.415 306.468 287.235 305.02C284.893 302.16 282.516 299.318 280.174 296.458C279.727 295.921 279.262 295.385 278.959 294.759C278.816 294.491 278.941 293.884 279.155 293.669C280.871 292.06 282.695 290.577 284.375 288.932C287.253 286.09 290.042 283.176 292.83 280.262C293.778 279.261 294.564 278.117 295.494 276.955C297.174 278.225 298.765 279.422 300.427 280.673C299.462 281.907 298.64 283.087 297.674 284.141C294.993 287.073 292.258 289.951 289.559 292.865C288.415 294.098 288.415 295.117 289.541 296.315C291.883 298.817 294.242 301.32 296.638 303.787C298.014 305.199 299.069 305.253 300.57 303.876C301.875 302.678 303.127 301.409 304.342 300.104C306.684 297.584 309.133 295.153 311.224 292.454C314.084 288.789 316.658 284.91 319.322 281.085C320.377 279.583 321.36 278.046 322.289 276.473C323.398 274.578 322.915 273.076 321.056 272.022C316.676 269.591 312.315 267.124 307.935 264.711C306.88 264.139 305.754 263.692 304.592 263.173C308.436 255.826 311.707 248.462 313.655 240.417C315.693 241.007 317.642 241.562 319.679 242.151C318.839 244.922 318.142 247.568 317.23 250.16C316.39 252.537 315.318 254.843 314.388 257.203C313.727 258.883 314.12 259.92 315.675 260.635C318.75 262.083 321.878 263.406 324.917 264.943C326.651 265.819 327.956 265.175 328.814 263.388C329.69 261.547 330.601 259.67 331.191 257.721C333.086 251.554 334.999 245.387 336.626 239.148C337.43 236.038 337.68 232.785 338.073 229.585C338.359 227.261 337.466 226.278 335.195 226.081C331.924 225.795 328.671 225.563 325.4 225.259C322.557 224.991 319.715 224.633 316.98 224.312C317.123 220.236 317.391 216.357 317.356 212.496C317.32 208.581 317.016 204.684 316.819 200.662C318.714 200.43 320.645 200.179 322.647 199.929C322.718 200.412 322.826 200.805 322.843 201.18C323.04 205.721 323.237 210.243 323.415 214.784C323.487 216.554 324.345 217.662 325.882 217.733C329.332 217.912 332.782 218.055 336.232 218.198C337.984 218.27 338.985 217.34 339.164 215.588C339.2 215.195 339.2 214.802 339.2 214.408C339.361 205.202 338.234 196.104 336.626 187.077C336.25 184.985 335.642 182.912 334.981 180.892C334.48 179.319 333.372 178.603 332.175 178.943C327.42 180.248 322.7 181.607 317.963 182.965C316.39 183.412 314.835 183.877 313.369 184.306C310.92 176.458 307.935 169.04 303.877 162.069C305.683 161.014 307.399 160.013 309.222 158.958C310.187 160.692 311.26 162.337 312.1 164.106C313.494 167.056 314.764 170.077 316.069 173.062C316.909 175.01 317.91 175.457 319.876 174.778C322.915 173.706 325.954 172.633 328.993 171.56C330.887 170.899 331.585 169.523 330.816 167.664C329.6 164.678 328.421 161.675 327.008 158.779C325.507 155.687 323.952 152.594 322.111 149.699C319.25 145.23 316.14 140.922 313.101 136.56C312.315 135.434 310.867 135.255 309.758 136.077C308.65 136.917 307.56 137.758 306.487 138.634C303.18 141.315 299.873 144.032 296.566 146.713C295.94 147.232 295.208 147.625 294.475 148.108C289.38 141.762 283.696 136.167 277.314 131.179C278.601 129.481 279.799 127.908 281.014 126.299C282.051 127.05 282.998 127.604 283.803 128.337C286.913 131.215 289.97 134.129 293.045 137.043C294.171 138.115 295.619 138.187 296.763 137.132C299.176 134.88 301.589 132.627 303.985 130.339C305.647 128.748 305.701 127.658 304.128 125.995C302.662 124.458 301.107 123.01 299.605 121.509C298.622 120.525 297.71 119.453 296.62 118.577C294.224 116.629 291.793 114.734 289.309 112.91C286.252 110.676 283.124 108.549 280.013 106.386C278.941 105.635 277.85 104.902 276.724 104.259C274.972 103.258 273.578 103.687 272.595 105.438C270.772 108.71 268.966 111.981 267.161 115.252C265.927 117.487 264.694 119.721 263.443 121.991C256.239 118.166 248.874 114.877 240.866 112.91C241.455 110.908 242.01 108.978 242.599 106.976C245.12 107.691 247.497 108.227 249.785 109.049C252.377 109.961 254.862 111.123 257.401 112.178C259.313 112.982 260.314 112.607 261.208 110.73C262.567 107.852 263.907 104.974 265.248 102.078C266.285 99.8612 265.891 98.7351 263.621 97.7161C261.762 96.876 259.903 95.9286 257.955 95.3387C251.788 93.426 245.62 91.5312 239.4 89.9045C236.343 89.1001 233.125 88.8677 229.961 88.4744C228.12 88.242 226.869 89.0286 226.726 90.3514C226.333 93.9444 225.957 97.5553 225.6 101.166C225.332 103.973 225.099 106.797 224.849 109.746C216.626 108.853 208.582 108.906 200.431 109.925C200.163 107.87 199.912 105.903 199.644 103.883C200.109 103.812 200.359 103.758 200.609 103.74C205.454 103.526 210.298 103.293 215.125 103.097C217.216 103.025 218.181 102.149 218.271 100.111C218.414 96.7509 218.557 93.3902 218.735 90.0296C218.789 88.8498 218.235 88.0633 217.216 87.6879C216.501 87.4198 215.697 87.3304 214.928 87.3125C207.974 87.2053 201.039 87.6343 194.174 88.8141C189.723 89.5827 185.29 90.5123 180.875 91.5133C178.819 91.9781 178.247 93.2651 178.819 95.2314C180.464 100.88 182.108 106.529 183.735 112.178C183.842 112.535 183.896 112.91 183.967 113.214C176.263 115.806 168.809 118.666 161.837 122.831C160.782 121.026 159.746 119.292 158.637 117.379C161.158 116.074 163.571 114.77 166.038 113.59C168.469 112.428 170.989 111.427 173.421 110.265C174.797 109.603 175.101 108.531 174.583 107.083C173.456 103.919 172.33 100.773 171.186 97.6268C170.543 95.8392 169.059 95.1063 167.379 95.8571C163.517 97.5731 159.674 99.325 155.867 101.13C154.383 101.845 152.971 102.721 151.541 103.579C148.448 105.421 145.32 107.226 142.281 109.192C140.208 110.533 138.277 112.106 136.275 113.608C135.202 114.412 134.988 115.985 135.828 117.093C136.775 118.327 137.741 119.56 138.742 120.758C141.477 124.101 144.212 127.408 146.947 130.75C147.197 131.054 147.519 131.358 147.59 131.716C147.662 132.055 147.59 132.592 147.376 132.806C145.66 134.415 143.836 135.881 142.156 137.543C139.296 140.385 136.489 143.281 133.719 146.213C132.771 147.214 131.985 148.358 131.055 149.52C129.375 148.251 127.802 147.071 126.139 145.802C127.033 144.64 127.784 143.496 128.696 142.513C131.413 139.545 134.183 136.649 136.918 133.718C138.152 132.395 138.17 131.394 136.918 130.071C134.612 127.586 132.271 125.137 129.911 122.688C128.553 121.276 127.516 121.205 126.068 122.51C124.691 123.761 123.404 125.12 122.099 126.442C120.938 127.622 119.686 128.73 118.632 130C116.665 132.377 114.77 134.808 112.965 137.311C110.766 140.332 108.639 143.424 106.512 146.499C105.725 147.643 104.939 148.805 104.242 150.02C103.402 151.504 103.58 153.345 104.581 153.953C106.369 155.025 108.192 156.062 110.033 157.063C112.661 158.511 115.325 159.906 117.97 161.318C119.257 161.997 120.562 162.658 121.921 163.356C118.095 170.667 114.806 178.085 112.876 186.076C110.802 185.486 108.889 184.931 106.905 184.342C107.656 181.732 108.282 179.193 109.14 176.727C110.016 174.224 111.16 171.811 112.143 169.344C112.84 167.628 112.465 166.627 110.766 165.84C107.781 164.428 104.778 163.016 101.757 161.675C99.6476 160.728 98.6287 161.21 97.6277 163.32C94.4994 169.952 92.4616 176.941 90.7098 184.002C89.6551 188.221 89.1189 192.564 88.4575 196.872C88.1178 199.125 89.101 200.233 91.2997 200.412C95.429 200.769 99.5583 201.091 103.688 201.484C105.672 201.663 107.638 201.967 109.712 202.235C108.889 210.154 108.943 217.948 109.89 225.831C107.817 226.081 105.868 226.314 103.848 226.564C103.795 226.153 103.759 225.938 103.759 225.724C103.545 221.094 103.312 216.482 103.133 211.852C103.044 209.743 102.257 208.849 100.13 208.742C96.8948 208.581 93.6772 208.438 90.4417 208.313C88.4575 208.241 87.4564 209.153 87.3671 211.173C87.2956 212.746 87.2419 214.319 87.3671 215.892L87.3492 215.821ZM91.8896 213.318H98.5394C98.5751 213.747 98.593 214.212 98.6287 214.659C98.9147 219.503 99.1471 224.329 99.5046 229.156C99.6834 231.48 100.97 232.32 103.259 231.927C106.262 231.39 109.283 230.908 112.304 230.425C114.091 230.139 114.913 229.156 114.627 227.333C113.662 221.451 113.466 215.517 113.68 209.582C113.787 206.704 114.073 203.826 114.377 200.966C114.61 198.821 113.877 197.784 111.732 197.48C105.815 196.622 99.9158 195.746 93.9989 194.87C93.7844 194.835 93.5878 194.781 93.3912 194.727C93.409 189.633 97.9316 172.776 100.774 167.252C102.776 168.128 104.796 168.986 106.905 169.898C106.029 172.186 105.064 174.367 104.367 176.637C103.419 179.712 102.597 182.84 101.846 185.968C101.507 187.416 102.186 188.453 103.652 188.828C106.995 189.669 110.355 190.455 113.716 191.152C115.289 191.474 116.183 190.759 116.665 189.079C117.613 185.861 118.346 182.572 119.525 179.444C121.527 174.099 123.744 168.843 126.711 163.928C127.838 162.051 127.552 161.085 125.675 159.941C121.67 157.474 117.684 154.99 113.68 152.541C112.304 151.701 110.891 150.95 109.336 150.074C114.449 141.958 120.133 134.451 126.747 127.819C128.517 129.428 130.144 130.911 131.645 132.288C130.269 133.861 129.053 135.273 127.82 136.667C126.551 138.097 125.246 139.509 124.03 140.975C122.94 142.28 121.921 143.639 120.938 145.015C119.811 146.588 120.026 147.643 121.599 148.787C124.173 150.646 126.747 152.505 129.339 154.346C131.109 155.598 131.967 155.312 133.343 153.631C135.792 150.628 138.223 147.589 140.94 144.854C144.247 141.511 147.823 138.473 151.29 135.291C151.809 134.826 152.327 134.343 152.81 133.843C153.704 132.931 153.775 131.93 153.042 130.893C151.541 128.802 150.075 126.71 148.538 124.637C146.786 122.242 144.962 119.9 143.211 117.504C142.657 116.736 142.228 115.878 141.691 114.948C149.396 109.478 157.44 104.723 166.306 101.166C167.128 103.222 167.933 105.206 168.773 107.333C168.112 107.673 167.468 107.995 166.824 108.316C163.607 109.943 160.371 111.57 157.154 113.196C156.153 113.697 155.098 114.144 154.133 114.734C152.399 115.806 152.202 117.058 153.293 118.756C154.937 121.33 156.51 123.922 158.137 126.496C159.37 128.462 160.586 128.695 162.624 127.497C164.769 126.246 166.878 124.869 169.13 123.868C173.421 121.938 177.782 120.168 182.162 118.452C183.806 117.808 185.612 117.558 187.328 117.058C189.08 116.539 189.616 115.377 189.187 113.643C187.685 107.512 186.202 101.363 184.736 95.2314C187.56 93.7299 207.259 91.3167 212.711 91.8172V98.6278C211.764 98.6278 210.817 98.5742 209.887 98.6278C205.704 98.8781 201.521 99.0926 197.338 99.4501C194.424 99.7003 193.692 100.88 194.264 103.758C194.818 106.493 195.265 109.246 195.747 111.999C196.158 114.341 196.909 114.913 199.197 114.573C208.064 113.232 216.948 113.196 225.832 114.358C227.995 114.644 228.996 113.894 229.318 111.731C230.176 106.046 231.016 100.344 231.874 94.6594C231.946 94.2304 232.035 93.8192 232.124 93.426C237.13 93.4617 254.54 98.1809 259.563 100.898C258.688 102.918 257.812 104.974 256.9 107.101C255.398 106.475 254.022 105.796 252.592 105.331C248.856 104.151 245.102 103.043 241.33 101.988C239.471 101.47 238.381 102.114 237.898 103.991C237.094 107.208 236.343 110.444 235.592 113.661C235.27 115.056 235.932 116.128 237.362 116.575C238.935 117.075 240.508 117.63 242.135 117.969C246.621 118.935 250.715 120.847 254.791 122.831C257.651 124.208 260.457 125.692 263.282 127.122C264.676 127.819 265.713 127.533 266.589 126.121C269.717 121.044 272.827 115.949 275.938 110.855C276.188 110.444 276.438 110.05 276.814 109.496C277.94 110.283 278.994 111.016 280.031 111.766C284.017 114.716 288.057 117.594 291.972 120.633C293.992 122.206 295.833 124.011 297.71 125.763C299.14 127.086 299.069 127.122 297.692 128.48C296.53 129.606 295.458 130.804 294.457 131.859C291.382 129.142 288.486 126.55 285.537 124.011C284.321 122.957 283.016 122.009 281.694 121.08C280.174 120.007 279.102 120.204 278.011 121.687C276.116 124.297 274.222 126.889 272.362 129.517C271.183 131.161 271.433 132.073 272.97 133.36C275.938 135.845 278.994 138.258 281.729 140.993C285.018 144.264 288.039 147.822 291.168 151.272C291.346 151.468 291.489 151.683 291.668 151.879C293.831 154.239 294.135 154.364 296.763 152.541C300.803 149.734 304.717 146.749 308.686 143.871C309.598 143.21 310.563 142.638 311.671 141.905C317.248 149.699 321.914 157.832 325.417 166.573C323.362 167.431 321.36 168.253 319.197 169.165C318.696 167.878 318.303 166.645 317.713 165.483C316.372 162.784 314.942 160.138 313.548 157.474C312.994 156.438 312.493 155.383 311.868 154.382C310.795 152.666 309.544 152.487 307.828 153.578C305.2 155.276 302.501 156.885 299.855 158.547C298.3 159.512 297.996 160.817 298.89 162.444C300.177 164.768 301.661 167.002 302.751 169.433C304.646 173.634 306.362 177.924 308.024 182.232C308.686 183.93 308.972 185.754 309.455 187.523C309.955 189.347 311.081 189.919 312.922 189.454C319.054 187.952 325.185 186.505 331.281 185.039C332.657 187.541 335.249 207.794 334.606 213.104H327.831C327.831 212.067 327.884 211.084 327.831 210.083C327.563 205.739 327.294 201.377 326.973 197.033C326.812 195.013 325.435 194.066 323.433 194.423C320.287 194.96 317.159 195.496 314.013 195.996C312.386 196.265 311.707 197.301 311.886 199.143C312.261 203.093 312.833 207.044 312.869 211.012C312.905 215.749 312.511 220.504 312.172 225.241C311.993 227.654 312.583 228.62 314.996 228.959C320.859 229.817 326.74 230.675 332.604 231.551C332.764 231.569 332.943 231.623 333.193 231.694C332.371 241.276 329.028 250.16 325.918 259.241C323.719 258.275 321.699 257.399 319.626 256.506C320.43 254.378 321.27 252.376 321.932 250.321C322.915 247.157 323.809 243.975 324.649 240.775C325.096 239.095 324.381 237.933 322.7 237.522C319.483 236.717 316.247 235.966 313.012 235.287C311.314 234.93 310.402 235.591 309.901 237.289C309.008 240.328 308.257 243.438 307.184 246.424C306.183 249.248 304.932 252.001 303.663 254.736C302.376 257.489 300.946 260.188 299.569 262.887C298.854 264.317 299.087 265.354 300.481 266.23C302.322 267.374 304.235 268.429 306.076 269.573C308.31 270.949 310.491 272.397 312.708 273.773C314.138 274.667 315.622 275.472 317.195 276.365C312.047 284.463 306.398 291.989 299.694 298.674C297.996 297.065 296.387 295.564 295.029 294.277C298.658 289.862 302.179 285.643 305.629 281.335C306.791 279.887 306.487 278.761 304.986 277.67C302.411 275.829 299.837 273.952 297.245 272.129C295.458 270.86 294.6 271.128 293.223 272.79C290.596 275.972 287.986 279.208 285.09 282.139C281.926 285.357 278.44 288.253 275.097 291.292C274.543 291.792 273.882 292.239 273.56 292.883C273.256 293.508 273.078 294.42 273.292 295.046C273.614 296.011 274.239 296.905 274.847 297.745C277.171 300.909 279.531 304.055 281.872 307.201C282.873 308.56 283.892 309.9 284.983 311.366C277.189 316.997 269.091 321.68 260.225 325.291C259.403 323.218 258.598 321.18 257.722 319.017C258.92 318.534 260.082 318.177 261.154 317.64C263.872 316.264 266.553 314.798 269.252 313.386C270.253 312.868 271.29 312.385 272.255 311.813C274.15 310.687 274.365 309.471 273.203 307.63C271.54 305.02 269.931 302.392 268.287 299.765C267.286 298.174 265.945 297.834 264.283 298.764C262.084 299.997 259.957 301.445 257.669 302.482C253.271 304.466 248.784 306.289 244.298 308.059C242.653 308.703 240.848 308.953 239.132 309.471C237.451 309.972 236.933 311.098 237.362 312.814C238.81 318.749 240.222 324.683 241.634 330.618C241.688 330.868 241.706 331.119 241.741 331.351C238.095 332.835 217.734 335.391 213.784 334.569V327.955C214.267 327.937 214.731 327.919 215.196 327.883C220.148 327.543 225.117 327.275 230.069 326.828C232.106 326.632 232.786 325.434 232.428 323.414C231.856 320.232 231.266 317.068 230.676 313.886C230.372 312.26 229.64 311.688 227.906 311.867C225.206 312.135 222.525 312.528 219.826 312.725C213.587 313.171 207.367 312.993 201.146 312.224C200.216 312.117 199.144 312.278 198.286 312.653C197.803 312.868 197.41 313.708 197.302 314.333C196.641 318.552 196.087 322.789 195.461 327.025C195.157 329.045 194.8 331.047 194.425 333.228C191.993 332.853 189.634 332.674 187.399 332.084C182.895 330.904 178.426 329.528 173.975 328.169C171.937 327.543 169.935 326.793 167.915 326.113C167.271 325.899 166.95 325.595 167.289 324.862C168.094 323.075 168.862 321.287 169.685 319.41C170.882 319.911 171.973 320.465 173.117 320.84C177.192 322.127 181.268 323.361 185.362 324.558C187.006 325.041 188.204 324.344 188.633 322.646C189.473 319.356 190.242 316.032 190.992 312.725C191.296 311.33 190.438 310.258 188.847 309.793C185.719 308.881 182.519 308.148 179.463 306.986C174.082 304.949 168.773 302.732 163.839 299.711C161.873 298.513 160.925 298.782 159.746 300.694C156.707 305.664 153.668 310.651 150.611 315.62C150.361 316.032 150.093 316.425 149.735 316.979C148.716 316.264 147.715 315.585 146.75 314.887C142.514 311.759 138.241 308.685 134.094 305.449C132.038 303.858 130.251 301.928 128.32 300.176C127.569 299.497 127.784 299.014 128.41 298.37C129.679 297.065 130.859 295.671 132.074 294.33C136.168 298.639 140.386 302.089 144.766 305.378C146.321 306.54 147.411 306.343 148.538 304.788C150.397 302.214 152.274 299.657 154.115 297.065C155.366 295.314 155.17 294.456 153.543 293.115C148.895 289.254 144.176 285.446 140.172 280.87C138.116 278.511 136.096 276.115 134.005 273.773C132.825 272.451 131.895 272.397 130.465 273.434C126.711 276.115 122.958 278.797 119.204 281.496C117.809 282.497 116.451 283.551 114.913 284.695C109.301 276.812 104.599 268.733 101.113 259.938C103.151 259.08 105.171 258.24 107.316 257.346C107.853 258.704 108.299 260.027 108.907 261.261C110.212 263.87 111.606 266.444 112.965 269.036C113.519 270.073 114.02 271.128 114.627 272.129C115.682 273.863 116.969 274.024 118.667 272.933C121.295 271.235 123.994 269.608 126.64 267.964C128.177 266.999 128.517 265.676 127.605 264.067C126.39 261.904 124.977 259.813 123.959 257.56C122.01 253.234 120.223 248.819 118.506 244.404C117.845 242.706 117.559 240.882 117.076 239.113C116.522 237.128 115.485 236.61 113.43 237.111C107.334 238.594 101.239 240.024 95.1609 241.472C93.7129 238.255 91.1925 218.162 91.8896 213.425V213.318Z" fill="white"/>
<path d="M215.32 382.422C307.076 381.42 382.351 307.04 382.44 213.354C382.547 119.578 306.754 43.7494 212.657 43.9996C119.489 44.2499 44.1248 119.775 43.9996 213.121C43.9996 306.682 119.9 383.458 215.32 382.422ZM213.247 49.7377C303 49.7735 375.88 121.955 376.72 211.637C377.578 302.714 304.216 376.558 213.515 376.701C123.529 376.844 50.7745 304.502 49.7914 215.07C48.7903 123.85 122.241 49.7914 213.229 49.7377H213.247Z" fill="white"/>
<path d="M138.097 212.835C138.204 200.43 139.902 188.292 146.338 177.495C152.773 166.68 161.031 157.349 171.578 150.181C182.071 143.031 193.833 139.491 206.203 137.329C219.217 135.04 231.247 138.33 243.027 143.227C258.114 149.502 269.626 159.923 278.475 173.634C282.747 180.248 286.376 187.005 287.716 194.817C291.667 217.662 288.342 238.952 274.345 258.043C271.092 262.494 268.16 267.141 263.799 270.681C256.899 276.276 249.016 280.155 240.828 283.283C221.129 290.791 201.573 290.04 182.321 281.478C178.389 279.726 174.349 278.153 170.684 275.954C165.125 272.629 161.264 267.428 157.063 262.637C147.142 251.339 141.225 238.201 139.026 223.382C138.508 219.914 138.419 216.375 138.133 212.871L138.097 212.835ZM214.891 277.259C214.891 277.062 214.927 276.866 214.944 276.669C217.34 276.669 219.753 276.884 222.113 276.616C225.223 276.276 228.459 276.383 231.193 274.202C236.288 270.162 240.024 265.05 243.385 259.58C244.35 258.007 244.243 256.72 243.224 255.236C238.969 249.051 234.751 242.831 230.604 236.556C229.674 235.144 228.637 234.822 227.028 234.822C218.198 234.787 209.367 234.644 200.537 234.358C199.125 234.304 198.445 234.661 197.623 235.68C193.011 241.526 188.524 247.478 183.537 253.002C181.445 255.326 181.535 257.131 182.679 259.509C185.36 265.014 189.007 269.805 193.44 274.006C194.012 274.56 194.906 274.971 195.692 275.06C202.074 275.847 208.491 276.526 214.891 277.241V277.259ZM178.103 253.824C178.871 253.234 180.015 252.609 180.802 251.679C185.843 245.583 190.848 239.452 195.746 233.249C196.211 232.659 196.211 231.39 195.961 230.568C193.529 222.291 190.955 214.069 188.56 205.774C188.238 204.648 187.791 204.13 186.772 203.754C179.426 201.073 172.079 198.356 164.75 195.585C163.427 195.085 162.372 195.228 161.264 196.122C155.597 200.716 151.79 206.65 148.804 213.193C148.536 213.765 148.572 214.498 148.59 215.141C148.769 223.793 151.075 231.926 154.811 239.667C155.847 241.794 156.795 244.243 158.493 245.744C163.909 250.481 170.666 252.323 178.121 253.842L178.103 253.824ZM249.159 255.647C255.379 255.075 261.082 252.841 266.659 250.106C269.144 248.89 270.895 247.049 272.397 244.761C276.473 238.487 278.439 231.515 279.386 224.204C279.762 221.344 280.298 218.216 279.547 215.552C277.617 208.795 273.255 203.361 268.518 198.249C267.714 197.373 266.945 197.409 265.89 197.766C258.525 200.197 251.143 202.575 243.724 204.863C242.527 205.238 242.044 205.792 241.758 206.954C239.667 215.57 236.556 223.811 232.677 231.783C232.087 232.981 232.248 233.75 232.981 234.822C237.325 241.097 241.615 247.425 245.798 253.806C246.674 255.147 247.568 255.88 249.194 255.63L249.159 255.647ZM214.766 170.452C214.766 166.859 214.623 163.266 214.819 159.691C214.962 157.099 213.961 155.419 211.637 154.65C207.169 153.202 202.682 151.808 198.141 150.646C196.354 150.181 194.119 149.752 192.528 150.378C182.84 154.257 174.349 160.031 167.342 167.789C166.019 169.254 165.107 171.221 164.481 173.116C162.747 178.46 163.266 184.02 163.373 189.525C163.409 191.206 164.124 192.332 165.965 192.975C173.169 195.478 180.301 198.231 187.487 200.787C188.167 201.019 189.347 200.859 189.865 200.394C196.836 194.119 204.648 189.132 212.978 184.914C214.355 184.216 214.784 183.43 214.766 182.036C214.712 178.174 214.766 174.331 214.766 170.47V170.452ZM217.554 170.506C217.554 174.492 217.59 178.496 217.536 182.482C217.519 183.716 217.822 184.484 218.895 185.271C226.206 190.687 233.428 196.229 240.721 201.663C241.275 202.074 242.33 202.217 243.009 202.003C250.428 199.679 257.81 197.301 265.175 194.817C265.944 194.566 266.784 193.637 267.016 192.85C268.411 188.095 267.91 183.251 267.267 178.425C266.855 175.332 266.283 172.401 263.96 169.898C257.149 162.569 249.194 156.724 240.757 151.504C240.185 151.146 239.363 151.021 238.666 151.039C231.73 151.272 225.169 153.131 218.913 156.026C218.269 156.312 217.644 157.385 217.608 158.118C217.483 162.247 217.554 166.359 217.554 170.488V170.506ZM236.824 281.514C234.751 280.781 232.784 280.03 230.782 279.386C229.835 279.082 228.762 278.689 227.833 278.85C218.091 280.512 208.402 279.923 198.695 278.493C197.462 278.314 196.086 277.849 195.013 278.207C193.136 278.85 191.456 280.03 189.633 281.031C201.967 286.304 222.166 287.109 236.824 281.514ZM141.458 210.923C139.616 221.97 147.911 249.391 154.31 253.538C154.417 251.786 154.632 250.017 154.632 248.229C154.632 247.103 154.596 245.834 154.096 244.886C149.198 235.68 145.98 226.027 145.658 215.517C145.658 214.962 145.247 214.301 144.836 213.89C143.817 212.871 142.673 211.959 141.475 210.905L141.458 210.923ZM157.724 166.877C159.619 166.877 161.228 166.966 162.801 166.841C163.498 166.788 164.356 166.448 164.821 165.947C171.399 158.708 179.175 153.059 188.077 149.109C190.92 147.839 192.028 145.569 193.905 142.977C179.175 147.464 167.342 155.294 157.724 166.877ZM241.347 145.802C241.847 148 242.991 149.377 244.779 150.503C252.358 155.311 259.687 160.549 265.551 167.413C267.463 169.648 269.59 169.809 272.111 170.023C267.66 161.818 251.143 148.805 241.347 145.819V145.802ZM286.447 213.443C285.393 214.641 284.588 215.409 283.945 216.321C283.462 217.018 282.997 217.858 282.872 218.681C282.586 220.575 282.586 222.506 282.354 224.419C281.353 232.695 279.1 240.578 274.185 247.389C272.665 249.516 273.094 251.161 273.809 253.574C281.978 241.293 286.108 228.226 286.447 213.443Z" fill="white"/>
<path d="M150.879 88.4743C149.771 88.3671 148.77 87.9917 147.858 87.3482C146.947 86.6868 146.25 85.8109 145.749 84.7205C145.266 83.6122 145.088 82.5039 145.213 81.3956C145.338 80.2873 145.731 79.2863 146.41 78.4104C147.072 77.5344 147.93 76.8552 149.002 76.3725C150.057 75.9078 151.147 75.7111 152.238 75.8184C153.346 75.9256 154.347 76.301 155.241 76.9446C156.135 77.5881 156.832 78.4819 157.315 79.5723C157.797 80.6806 157.994 81.7889 157.869 82.8971C157.744 84.0054 157.35 85.0065 156.689 85.8824C156.028 86.7583 155.169 87.4376 154.115 87.9202C153.06 88.385 151.97 88.5816 150.879 88.4743ZM154.776 83.5585C155.044 82.7184 154.973 81.8067 154.526 80.8236C154.079 79.8225 153.453 79.1611 152.649 78.8036C151.845 78.4461 150.987 78.464 150.093 78.8751C149.181 79.2863 148.591 79.894 148.305 80.7163C148.019 81.5386 148.109 82.4681 148.555 83.4692C149.002 84.4702 149.628 85.1316 150.432 85.4891C151.237 85.8466 152.095 85.8109 153.007 85.4176C153.9 85.0243 154.49 84.3987 154.758 83.5585H154.776Z" fill="white"/>
<path d="M163.284 81.6101L166.984 80.2873L167.77 82.4681L161.228 84.8098L157.081 73.1907L159.905 72.1718L163.266 81.6101H163.284Z" fill="white"/>
<path d="M168.29 69.437L171.901 81.2349L169.023 82.1109L165.412 70.3129L168.29 69.437Z" fill="white"/>
<path d="M184.609 65.3966L187.362 77.4269L184.43 78.0883L182.786 70.8844L181.749 78.714L179.389 79.2502L175.028 72.6362L176.69 79.858L173.758 80.5194L171.006 68.4891L174.473 67.7026L179.747 75.264L181.177 66.1831L184.627 65.3966H184.609Z" fill="white"/>
<path d="M197.231 69.6696C196.98 70.2952 196.551 70.8315 195.926 71.2963C195.3 71.7432 194.496 72.0471 193.495 72.1722L191.653 72.4225L192.243 76.8199L189.258 77.2131L187.613 64.9862L192.44 64.3427C193.423 64.2175 194.263 64.2712 194.978 64.5214C195.693 64.7717 196.265 65.1649 196.676 65.7191C197.088 66.2732 197.356 66.9168 197.463 67.6854C197.552 68.4004 197.481 69.0618 197.231 69.6875V69.6696ZM194.156 69.2585C194.406 68.9546 194.496 68.5613 194.424 68.0787C194.353 67.596 194.174 67.2385 193.852 67.0061C193.53 66.7737 193.101 66.7022 192.529 66.7737L190.903 66.9883L191.314 70.045L192.94 69.8305C193.512 69.759 193.924 69.5623 194.156 69.2585Z" fill="white"/>
<path d="M202.485 74.9785C201.484 74.4959 200.679 73.7808 200.072 72.8334C199.464 71.9039 199.124 70.8314 199.053 69.6158C198.999 68.4181 199.214 67.3099 199.732 66.3267C200.25 65.3435 200.983 64.557 201.913 63.9671C202.842 63.3772 203.897 63.0554 205.059 63.0018C206.221 62.9482 207.293 63.1627 208.277 63.6453C209.278 64.128 210.064 64.843 210.672 65.7725C211.28 66.7021 211.601 67.7746 211.673 68.9723C211.727 70.17 211.512 71.2782 210.994 72.2614C210.475 73.2446 209.76 74.049 208.831 74.6389C207.901 75.2288 206.846 75.5505 205.702 75.6042C204.541 75.6578 203.468 75.4433 202.485 74.9606V74.9785ZM207.883 71.7788C208.437 71.0995 208.688 70.2057 208.634 69.1332C208.58 68.0428 208.241 67.1847 207.615 66.5769C206.989 65.9513 206.185 65.6653 205.202 65.7189C204.201 65.7725 203.432 66.1301 202.878 66.8093C202.324 67.4886 202.074 68.3645 202.127 69.4728C202.181 70.5632 202.521 71.4213 203.146 72.029C203.772 72.6547 204.576 72.9407 205.577 72.8871C206.56 72.8334 207.329 72.4759 207.883 71.7788Z" fill="white"/>
<path d="M220.772 63.1447L220.325 70.5095C220.272 71.2424 220.433 71.8323 220.772 72.2434C221.112 72.6545 221.63 72.8869 222.328 72.9406C223.025 72.9763 223.579 72.8154 223.972 72.44C224.365 72.0647 224.598 71.5105 224.634 70.7776L225.08 63.4128L228.084 63.5916L227.637 70.9385C227.565 72.0289 227.279 72.9584 226.761 73.6913C226.242 74.4242 225.581 74.9605 224.777 75.3001C223.972 75.6398 223.078 75.7828 222.095 75.7113C221.13 75.6577 220.272 75.4074 219.521 74.9784C218.77 74.5494 218.216 73.9416 217.805 73.1551C217.412 72.3685 217.233 71.4211 217.304 70.3128L217.751 62.9659L220.754 63.1447H220.772Z" fill="white"/>
<path d="M240.114 77.6774L237.147 77.2484L233.286 68.9899L232.178 76.5155L229.21 76.0865L230.998 63.8774L233.965 64.3065L237.826 72.6008L238.935 65.0394L241.902 65.4684L240.114 77.6774Z" fill="white"/>
<path d="M247.533 66.7016L244.977 78.7676L242.045 78.142L244.601 66.0759L247.533 66.7016Z" fill="white"/>
<path d="M258.723 69.5442L258.098 71.868L254.934 71.0279L252.378 80.6271L249.482 79.8584L252.038 70.2592L248.874 69.4191L249.5 67.0952L258.723 69.5621V69.5442Z" fill="white"/>
<path d="M262.834 73.4411L262.03 75.8007L265.837 77.1056L265.086 79.3043L261.279 77.9994L260.403 80.5556L264.711 82.0214L263.942 84.2916L256.792 81.8605L260.761 70.1877L267.911 72.6188L267.142 74.889L262.834 73.4232V73.4411Z" fill="white"/>
<path d="M277.509 77.4098C278.206 78.2678 278.617 79.2331 278.742 80.2878C278.867 81.3603 278.689 82.4507 278.206 83.559C277.723 84.6673 277.062 85.5432 276.204 86.2046C275.346 86.866 274.363 87.2235 273.272 87.3129C272.164 87.4023 271.02 87.1878 269.84 86.6872L265.586 84.8818L270.43 73.5308L274.685 75.3362C275.882 75.8546 276.83 76.5339 277.509 77.3919V77.4098ZM273.487 84.417C274.309 84.0953 274.953 83.416 275.4 82.3613C275.846 81.3245 275.9 80.3771 275.56 79.5549C275.221 78.7326 274.542 78.0891 273.487 77.6422L272.182 77.088L269.375 83.6841L270.68 84.2383C271.717 84.6852 272.665 84.7388 273.487 84.417Z" fill="white"/>
<path d="M213.229 360.846C193.297 360.846 173.956 356.949 155.758 349.245C138.169 341.808 122.385 331.172 108.835 317.605C95.285 304.055 84.6311 288.253 77.1948 270.681C69.4904 252.484 65.5935 233.142 65.5935 213.211C65.5935 189.597 71.2958 166.109 82.1106 145.283C92.5679 125.138 107.798 107.387 126.156 93.9624L129.32 98.2704C92.7467 125.03 70.9383 167.986 70.9383 213.211C70.9383 291.667 134.772 355.501 213.229 355.501C291.685 355.501 355.519 291.667 355.519 213.211C355.519 168.164 333.836 125.298 297.513 98.5564L300.677 94.2484C318.928 107.691 334.068 125.406 344.454 145.498C355.18 166.252 360.864 189.669 360.864 213.211C360.864 233.142 356.967 252.484 349.263 270.681C341.826 288.271 331.19 304.055 317.623 317.605C304.073 331.154 288.271 341.808 270.699 349.245C252.502 356.949 233.16 360.846 213.229 360.846Z" fill="white"/>
</g>
<defs>
<clipPath id="clip0_37_10612">
<rect width="338.44" height="338.422" fill="white" transform="translate(44 44)"/>
</clipPath>
</defs>
</svg>
