<svg width="426" height="426" viewBox="0 0 426 426" fill="none" xmlns="http://www.w3.org/2000/svg">
<g clip-path="url(#clip0_37_10610)">
<path d="M358.164 160.138L354.392 150.503C350.148 139.624 344.027 132.911 339.723 129.219C344.066 123.019 350.957 109.969 350.957 89.5732C350.799 64.143 334.886 46.4327 334.214 45.6824L321.657 31.9801L325.922 50.0655C326.001 50.4407 334.392 87.579 312.97 97.7274C307.442 99.9585 302.624 99.8203 298.636 97.293C295.556 95.3384 294.035 92.594 294.035 92.594L292.93 90.5209L290.62 90.1062C289.633 89.9285 266.848 86.1772 243.748 109.258L241.556 108.093L242.524 106.632L225.544 65.9989L220.193 96.3256H220.174L212.631 92.594L205.089 96.3453H205.069L199.719 65.9989L182.739 106.632L183.707 108.093L181.515 109.258C158.434 86.1575 135.63 89.9285 134.623 90.1062L132.333 90.5406L131.227 92.5742C130.635 93.6601 125.107 102.94 112.273 97.7471C90.851 87.579 99.2224 50.4407 99.3211 50.0853L103.507 31.9998L90.9497 45.7021C90.2784 46.4524 74.3648 64.143 74.2069 89.6126C74.2069 109.988 81.0778 123.019 85.4412 129.219C81.137 132.891 75.0164 139.604 70.7715 150.503L67.0004 160.158L81.5121 155.301L70.2976 166.515L70.4555 168.727C70.7517 172.853 77.8595 270.605 93.1808 344.487L98.3142 369.266L106.034 325.296C110.792 330.173 118.078 337.221 127.673 345.198C144.377 359.078 171.564 378.545 206.254 392.406L212.552 394.854L214.29 394.202C215.277 393.827 216.264 393.452 217.251 393.057C252.415 379.296 280.037 359.631 297.017 345.573C306.849 337.438 314.273 330.252 319.11 325.276L326.83 369.246L331.963 344.467C347.364 270.25 354.629 169.694 354.689 168.707L354.847 166.496L343.632 155.281L358.144 160.138H358.164ZM199.818 99.6623L204.556 102.999L212.592 99.0107L220.628 102.999L225.366 99.6623V99.6031L226.294 99.149L227.42 94.4894L228.19 90.1457L234.784 105.941L231.724 110.66L245.13 117.748L246.176 116.622C258.891 102.782 271.725 98.3987 280.076 97.1351C271.606 99.9387 258.654 106.158 245.663 119.939C245.347 120.275 245.011 120.611 244.695 120.966L242.839 119.939L228.881 112.219L231.901 106.178L228.841 95.5161L228.288 100.827L220.726 105.289L212.592 101.242L204.457 105.289L198.317 100.827L196.343 95.5161L193.282 106.178L196.777 112.219L181.93 119.939L181.061 120.393C180.923 120.235 180.784 120.078 180.626 119.939C168.267 106.632 153.321 98.9515 144.594 96.0294C165.759 101.025 181.002 117.274 181.002 117.274L193.499 110.679L190.439 105.961L197.034 90.1655L197.804 94.5289L199.403 97.1351L199.857 99.682L199.818 99.6623ZM322.822 142.507L330.759 161.125C330.759 161.125 330.601 161.066 330.502 161.026C324.342 158.499 312.891 151.707 306.711 134.728L306.138 133.148L304.835 129.574L304.737 129.278L304.559 129.851L303.947 131.726L303.71 132.496L302.96 134.806C302.841 135.182 301.479 139.525 301.044 145.764C300.669 151.253 301.044 158.183 303.631 165.153C303.473 165.054 303.315 164.955 303.137 164.837C299.327 162.33 294.233 157.374 291.409 147.936C290.56 145.073 289.85 142.349 289.218 139.94C287.836 134.629 286.691 130.305 284.756 127.324C283.788 125.843 282.604 124.678 281.103 123.947C279.188 123 276.937 122.782 274.134 123.335C273.462 123.473 272.751 123.631 272.021 123.868C270.817 124.224 269.513 124.698 268.112 125.29C259.444 128.943 251.369 136.583 244.735 147.383C240.332 154.55 236.561 163.021 233.461 172.695C232.494 175.716 231.585 178.855 230.756 182.113L229.256 172.695L228.308 166.673L228.268 166.476V166.397C228.268 166.397 228.268 166.417 228.268 166.436V166.397L228.249 166.476L226.788 172.675L225.939 176.229C225.899 176.407 221.792 194.058 220.786 218.383C220.687 220.515 220.647 222.628 220.608 224.681C220.351 239.015 221.338 251.671 223.017 262.688C223.214 263.991 223.431 265.255 223.648 266.518C223.668 266.656 223.688 266.795 223.727 266.933C225.761 278.503 228.525 288.118 231.388 295.877C232.375 296.49 233.343 297.161 234.271 297.872C235.436 298.78 236.561 299.747 237.627 300.794C237.686 300.853 237.746 300.892 237.785 300.952C239.246 302.413 240.569 303.992 241.734 305.651L254.054 282.373L249.158 310.31L261.497 299.076L254.054 321.13L285.131 288.414L265.762 324.467H287.836C269.099 340.341 243.294 358.94 213.895 371.102L212.612 371.635C182.68 359.473 156.401 340.558 137.407 324.467H159.56L140.191 288.414L171.268 321.13L163.824 299.076L176.164 310.31L171.268 282.373L183.568 305.592C184.733 303.953 186.017 302.413 187.458 300.952C187.517 300.892 187.576 300.833 187.636 300.794C188.702 299.747 189.827 298.78 190.992 297.872C191.92 297.161 192.887 296.49 193.875 295.858C197.409 286.302 199.877 276.509 201.535 266.933C201.555 266.795 201.575 266.656 201.614 266.518C202.799 259.667 203.569 252.934 204.043 246.478C204.615 238.719 204.754 231.354 204.655 224.681C204.615 222.509 204.556 220.396 204.477 218.383C203.47 194.078 199.363 176.407 199.324 176.229L198.475 172.675L197.192 167.266L196.994 166.456V166.397L195.987 172.675L194.487 182.093C193.638 178.835 192.749 175.696 191.762 172.675C188.662 163.001 184.891 154.531 180.488 147.364C173.854 136.564 165.759 128.943 157.111 125.27C153.518 123.75 150.616 123.019 148.187 123.039C146.667 123.039 145.324 123.355 144.1 123.947C139.579 126.178 138.059 131.944 135.986 139.94C135.354 142.349 134.643 145.073 133.794 147.936C130.911 157.512 125.778 162.468 121.967 164.936C121.829 165.034 121.691 165.113 121.553 165.192C124.218 158.025 124.534 150.898 124.119 145.35C123.665 139.348 122.362 135.182 122.244 134.826L121.355 132.082L120.664 129.969V129.93L120.447 129.337L120.329 129.634L120.092 130.285L118.453 134.787C112.273 151.786 100.782 158.598 94.6418 161.105C94.5628 161.125 94.5036 161.165 94.4246 161.204L102.362 142.586L102.697 142.25L102.46 142.329L103.053 140.947L99.2224 142.23L79.1626 148.943L78.9059 149.022C83.6642 139.367 90.2192 133.701 93.3585 131.924L95.6882 130.621L93.7928 128.765C93.6546 128.646 81.0383 115.971 81.058 89.6916C81.1567 75.8709 86.5666 64.4391 90.851 57.5288C90.851 57.5288 90.8707 57.509 90.8707 57.4893C87.1786 67.1243 85.9742 79.9776 88.6792 91.0145C88.6792 91.0145 89.4294 95.9307 93.161 102.032C96.8926 108.113 103.625 115.359 115.551 120.018C115.235 119.841 111.049 117.452 106.093 112.614C123.646 119.347 140.487 104.914 140.487 104.914C160.093 105.901 170.281 112.95 177.428 120.018C181.337 123.868 184.338 127.718 187.478 130.581C196.343 138.696 200.884 130.009 208.051 127.56C215.06 125.152 222.089 132.872 222.385 133.207C222.247 132.852 218.693 123.868 222.859 119.999C223.352 119.544 223.945 119.15 224.655 118.873C228.565 117.294 233.303 118.399 237.212 119.999C241.536 121.776 244.853 124.145 244.853 124.145C246.058 122.664 247.302 121.282 248.585 119.999C263.432 105.131 282.781 103.216 282.781 103.216C291.33 121.637 312.595 116.603 312.595 116.603C320.275 114.549 325.843 111.212 329.811 107.086C326.573 115.734 321.42 120.986 321.104 121.302C341.48 106.968 338.518 79.0496 338.518 79.0496L338.42 79.3063C337.966 71.0928 335.892 63.2545 333.977 57.588C333.958 57.3511 333.938 57.0944 333.898 56.8575C334.037 57.0746 334.175 57.2918 334.313 57.509C338.597 64.4194 344.027 75.8511 344.106 89.6719C344.106 103.354 340.651 113.246 337.748 119.15C334.609 125.547 331.411 128.745 331.371 128.765L329.495 130.621L331.805 131.924C334.945 133.681 341.5 139.348 346.258 149.022L345.982 148.923L328.883 143.198L322.111 140.927L322.704 142.309L322.486 142.23L322.822 142.566V142.507ZM118.038 171.056C118.611 170.918 132.056 167.562 137.605 149.062C138.493 146.14 139.204 143.375 139.836 140.927C141.652 133.958 142.975 128.923 145.857 127.501C147.812 126.534 150.991 127.008 155.552 128.923C168.82 134.51 180.034 150.049 187.537 172.636H92.1146C91.8974 169.161 91.779 166.93 91.7395 166.199C94.7405 165.449 110.358 160.849 119.677 141.954C120.605 148.292 120.901 158.677 115.788 168.154L113.695 172.044L117.999 171.037L118.038 171.056ZM200.627 224.661C200.903 240.752 199.62 254.672 197.547 266.499C197.527 266.637 197.488 266.775 197.468 266.913H186.313L186.727 224.661H200.607H200.627ZM123.29 294.989L116.952 289.836L106.093 241.503L116.281 251.592L166.608 258.463L165.128 201.502L119.44 192.281L101.868 179.862L174.881 190.168L181.949 181.402L181.021 275.186L121.711 268.078L123.29 294.989ZM107.929 266.913H101.71C101.69 266.775 101.671 266.637 101.651 266.499C99.5383 251.967 97.8403 237.692 96.478 224.661H160.488L161.297 253.369L117.387 247.465L100.565 232.223L107.929 266.933V266.913ZM87.613 167.009C87.613 167.009 88.4027 218.165 98.3142 298.464C98.3142 298.464 142.343 353.016 212.592 380.52C212.651 380.539 212.71 380.559 212.77 380.599C212.77 380.599 212.77 380.599 212.789 380.599C283.157 353.095 327.245 298.464 327.245 298.464C336.959 219.784 337.906 169.102 337.946 167.068L347.838 169.102C347.127 178.796 340.591 263.734 327.363 332.66L323.414 310.231L320.67 313.509C320.275 313.983 280.373 360.993 214.764 386.7C214.112 386.956 213.461 387.213 212.809 387.45C212.75 387.47 212.671 387.509 212.612 387.529H212.552L208.762 386.028C144.14 360.203 104.889 313.963 104.494 313.509L101.75 310.231L97.8008 332.66C84.5922 263.734 78.0569 178.776 77.3264 169.102L87.5735 166.989L87.613 167.009ZM243.649 275.186L242.721 181.402L249.789 190.168L322.802 179.862L305.23 192.281L259.543 201.502L258.062 258.463L307.994 251.631L308.389 251.572L318.577 241.483L307.718 289.816L301.36 294.969L302.94 268.058L243.629 275.166L243.649 275.186ZM237.686 172.636C245.189 150.049 256.404 134.51 269.671 128.923C274.232 126.988 277.411 126.534 279.366 127.501C282.268 128.923 283.571 133.958 285.388 140.927C286.019 143.375 286.75 146.14 287.619 149.062C293.167 167.562 306.612 170.918 307.185 171.056L311.489 172.063L309.376 168.174C304.263 158.697 304.579 148.292 305.487 141.974C314.806 160.868 330.463 165.469 333.424 166.18C333.385 166.871 333.267 169.121 333.049 172.656H237.647L237.686 172.636ZM238.338 266.893H227.775C227.755 266.755 227.735 266.617 227.696 266.479C225.05 251.394 224.399 236.823 224.616 224.641H237.923L238.338 266.893ZM328.765 224.641C327.403 237.672 325.705 251.947 323.592 266.479C323.592 266.617 323.553 266.755 323.533 266.893H316.741L324.105 232.184L307.284 247.426L263.373 253.329L264.183 224.622H328.765V224.641Z" fill="white"/>
<path d="M239.345 336.669C239.305 342.533 236.995 347.172 236.363 348.357L236.857 348.969C242.148 343.362 245.288 336.234 245.84 328.613L244.379 327.093C243.234 331.95 240.233 335.662 239.424 336.59C239.404 336.609 239.364 336.649 239.345 336.669Z" fill="white"/>
<path d="M232.532 310.627C232.374 310.627 232.255 310.627 232.137 310.627C229.945 315.424 227.004 319.275 226.214 320.262C226.51 320.854 227.221 322.335 227.951 324.447C228.701 326.58 229.471 329.383 229.847 332.562C229.847 332.72 229.886 332.898 229.906 333.056L238.672 335.938C239.501 334.971 242.66 331.002 243.549 326.066C243.549 325.514 243.549 324.961 243.529 324.447C243.233 317.043 240.39 313.608 240.074 313.233C236.895 311.041 233.815 310.686 232.492 310.627" fill="white"/>
<path d="M224.417 295.206L221.929 295.503C222.047 296.727 222.126 297.852 222.166 298.662C222.186 299.155 222.186 299.53 222.205 299.787C223.785 300.557 225.147 301.485 226.332 302.472C229.787 305.335 231.623 308.652 232.137 309.659C232.255 309.659 232.393 309.659 232.571 309.659C233.933 309.698 236.915 310.054 240.113 312.068C240.587 309.698 240.074 307.487 239.975 307.092C238.849 305.473 237.566 303.953 236.145 302.512C236.125 302.512 236.105 302.492 236.085 302.472C235.039 301.426 233.933 300.478 232.788 299.59C230.32 297.694 227.615 296.174 224.752 295.048C224.654 295.127 224.535 295.187 224.417 295.187" fill="white"/>
<path d="M224.082 353.372C224.082 353.372 223.924 353.372 223.865 353.372C223.332 354.024 221.555 355.959 217.902 357.558C217.053 357.933 216.125 358.288 215.079 358.604L215.434 359.335C223.272 358.683 230.538 355.307 236.165 349.7L235.671 349.068C229.65 353.017 225.484 353.392 224.082 353.392" fill="white"/>
<path d="M210.38 318.721C208.307 320.775 206.451 322.848 205.109 324.427C203.964 325.75 203.174 326.757 202.878 327.132C203.095 328.455 204.378 335.899 206.254 340.657C207.419 341.032 213.204 342.829 218.199 343.164C218.772 343.204 219.344 343.224 219.897 343.224C225.82 339.137 228.604 334.122 229.038 333.293C229.019 333.075 228.999 332.858 228.959 332.641C228.565 329.403 227.735 326.56 226.985 324.427C226.255 322.394 225.583 321.012 225.366 320.577C220.805 318.721 213.283 317.517 211.901 317.3C211.407 317.774 210.914 318.248 210.44 318.721" fill="white"/>
<path d="M214.23 255.975C215.493 258.858 215.849 263.596 215.099 266.479C215.059 266.617 215.02 266.775 214.98 266.894C214.467 268.532 213.519 269.421 212.157 268.73C211.505 268.394 211.031 267.762 210.656 266.894C210.597 266.756 210.538 266.617 210.498 266.479C208.642 261.306 210.558 249.795 210.656 249.302C207.695 255.126 207.023 261.129 207.122 266.479C207.122 266.617 207.122 266.756 207.122 266.894C207.359 276.114 209.847 283.261 206.747 283.834C203.529 284.229 204.121 272.876 204.654 266.894C204.654 266.756 204.674 266.617 204.694 266.479C204.871 264.584 205.029 263.32 205.029 263.32C204.634 264.386 204.259 265.433 203.904 266.479C203.864 266.617 203.805 266.756 203.766 266.894C199.837 278.878 198.711 290.409 198.474 293.41C202.877 291.495 207.675 290.488 212.611 290.488C217.547 290.488 222.325 291.495 226.728 293.39C225.977 281.919 223.273 273.074 220.587 266.874C220.528 266.736 220.469 266.598 220.41 266.459C217.31 259.45 214.269 255.956 214.269 255.956" fill="white"/>
<path d="M220.963 295.404L216.402 293.054C216.402 293.054 216.342 293.015 216.303 292.975C215.079 292.837 213.835 292.778 212.591 292.778C208.129 292.778 203.785 293.647 199.777 295.325C198.553 297.773 198.454 301.09 198.474 302.275C198.889 302.275 199.56 302.314 200.389 302.374C200.844 302.393 201.357 302.433 201.91 302.472C202.008 302.472 202.107 302.472 202.206 302.472C205.266 302.729 207.813 303.144 209.748 303.696C210.518 303.222 211.308 302.828 212.098 302.452C215.967 300.656 219.975 299.866 221.259 299.649C221.259 299.412 221.259 299.076 221.239 298.662C221.199 297.813 221.12 296.648 220.982 295.364" fill="white"/>
<path d="M223.056 352.839C220.825 349.068 219.897 345.395 219.62 344.211C219.127 344.211 218.613 344.211 218.1 344.152C213.026 343.816 207.3 342.039 205.977 341.605C205.247 342.276 202.581 344.546 197.408 347.291C197.408 347.39 197.408 347.488 197.448 347.627C197.507 348.021 197.606 348.594 197.823 349.325C198.218 350.647 199.047 352.799 200.864 355.465C207.043 357.972 213.638 357.854 214.309 357.814C215.514 357.479 216.58 357.084 217.527 356.669C220.864 355.188 222.542 353.451 223.076 352.819" fill="white"/>
<path d="M190.064 324.922C191.249 325.237 196.698 326.58 201.18 326.58C201.496 326.58 201.812 326.58 202.128 326.56C202.385 326.225 202.997 325.474 203.846 324.448C205.208 322.829 207.222 320.519 209.532 318.228C210.065 317.695 210.618 317.162 211.171 316.649L209.374 304.645C206.472 303.835 202.7 303.499 200.311 303.361C199.226 303.302 198.416 303.282 198.12 303.262C194.487 305.415 189.156 312.996 188.643 313.746C188.505 314.22 187.636 317.833 189.906 324.467C189.966 324.625 190.005 324.783 190.064 324.941" fill="white"/>
<path d="M196.46 347.331C195.157 346.679 189.491 343.579 186.726 338.011C186.016 338.15 185.364 338.209 184.752 338.209C184.278 338.209 183.844 338.169 183.449 338.11C183.291 338.11 183.153 338.071 183.015 338.031L182.324 340.104C183.943 343.619 186.193 346.857 189.017 349.68C191.702 352.365 194.762 354.537 198.099 356.136L199.817 355.584C197.329 351.793 196.677 349.029 196.519 347.765C196.5 347.587 196.48 347.429 196.48 347.311" fill="white"/>
<path d="M183.233 337.123C183.352 337.143 183.45 337.162 183.569 337.182C184.359 337.301 185.366 337.32 186.531 337.083C186.531 335.741 186.748 331.911 189.176 325.316C189.176 325.296 189.176 325.257 189.156 325.237C189.058 324.961 188.979 324.704 188.88 324.447C187.044 318.899 187.301 315.444 187.577 314.042L183.668 314.417L183.095 314.477L179.956 321.15L179.482 322.157C179.383 322.907 179.344 323.677 179.304 324.428C179.285 324.98 179.265 325.533 179.265 326.106C179.265 328.376 179.502 330.627 179.936 332.799L183.174 336.926C183.174 336.926 183.233 337.044 183.253 337.103" fill="white"/>
<path d="M182.285 312.166C181.338 314.22 180.587 316.372 180.094 318.603L182.285 313.924V312.166Z" fill="white"/>
</g>
<defs>
<clipPath id="clip0_37_10610">
<rect width="291.163" height="362.874" fill="white" transform="translate(67 32)"/>
</clipPath>
</defs>
</svg>
