<svg width="426" height="426" viewBox="0 0 426 426" fill="none" xmlns="http://www.w3.org/2000/svg">
<g clip-path="url(#clip0_37_10608)">
<path d="M362.679 149.39C354.49 130.015 342.756 112.611 327.801 97.6564C312.864 82.7188 295.46 70.9846 276.068 62.7792C256.026 54.2997 234.698 50 212.737 50C190.776 50 169.449 54.2997 149.39 62.7963C130.015 70.9846 112.611 82.7188 97.6563 97.6735C82.7187 112.611 70.9845 130.015 62.7791 149.407C54.2996 169.449 49.9999 190.777 49.9999 212.738C49.9999 234.699 54.2996 256.026 62.7962 276.085C70.9845 295.46 82.7187 312.864 97.6734 327.819C112.611 342.756 130.015 354.49 149.407 362.696C169.466 371.175 190.776 375.492 212.755 375.492C234.733 375.492 256.043 371.192 276.102 362.696C295.477 354.508 312.881 342.773 327.836 327.819C342.773 312.881 354.508 295.477 362.713 276.085C371.192 256.026 375.509 234.716 375.509 212.738C375.509 190.759 371.21 169.449 362.713 149.39H362.679ZM212.737 370.833C125.562 370.833 54.6422 299.913 54.6422 212.738C54.6422 125.562 125.562 54.6423 212.737 54.6423C299.913 54.6423 370.833 125.562 370.833 212.738C370.833 299.913 299.913 370.833 212.737 370.833Z" fill="white"/>
<path d="M334.295 212.738C334.295 193.552 329.876 175.034 321.516 158.349C321.225 160.353 320.899 162.238 320.557 164.036C327.289 178.888 331.058 195.385 331.058 212.738C331.058 225.431 329.036 237.662 325.319 249.122C325.353 252.309 325.319 255.615 325.216 259.007C331.178 244.514 334.295 228.874 334.295 212.738Z" fill="white"/>
<path d="M222.195 94.813C228.242 95.2926 234.169 96.2348 239.942 97.6052C240.832 96.6973 241.706 95.7723 242.545 94.8644C235.693 93.1513 228.653 92.0207 221.492 91.5068C221.698 92.312 221.955 93.4426 222.195 94.813Z" fill="white"/>
<path d="M252 101.134C262.278 104.765 271.923 109.767 280.693 115.951C281.824 115.369 282.937 114.804 284.034 114.273C274.15 107.078 263.306 101.476 251.846 97.5876C251.966 98.7868 252.017 99.9688 252 101.134Z" fill="white"/>
<path d="M145.52 115.438C164.62 102.196 187.798 94.4359 212.739 94.4359C214.041 94.4359 215.343 94.4702 216.645 94.5044C218.067 93.2197 219.18 92.1404 219.951 91.4038C217.553 91.2668 215.155 91.1812 212.739 91.1812C186.992 91.1812 162.479 99.1467 141.974 113.879C143.208 114.393 144.389 114.924 145.52 115.438Z" fill="white"/>
<path d="M212.737 331.039C177.86 331.039 146.443 315.862 124.774 291.76C123.968 292.411 123.163 293.164 122.375 294.038C123.797 295.614 125.27 297.173 126.778 298.68C149.732 321.635 180.258 334.277 212.72 334.277C245.182 334.277 275.708 321.635 298.68 298.68C301.095 296.265 303.374 293.781 305.549 291.211C304.556 290.732 303.494 290.286 302.329 289.91C280.625 315.091 248.505 331.039 212.72 331.039H212.737Z" fill="white"/>
<path d="M104.971 156.396C95.9608 173.577 91.1815 192.781 91.1815 212.737C91.1815 228.96 94.3334 244.702 100.363 259.246C100.226 255.837 100.158 252.428 100.141 249.071C96.4404 237.61 94.4191 225.414 94.4191 212.737C94.4191 194.819 98.4276 177.826 105.588 162.597C105.348 160.541 105.143 158.469 104.971 156.396Z" fill="white"/>
<path d="M308.188 157.955C308.188 157.955 301.079 160.439 296.282 165.064C292.908 155.111 296.282 146.58 296.282 146.58C296.282 146.58 285.799 151.205 282.955 161.158C279.049 151.925 284.377 145.878 284.377 145.878C284.377 145.878 280.111 144.816 269.097 146.94C276.566 134.863 294.33 121.005 307.828 117.082C314.218 127.394 314.937 165.766 314.937 165.766C314.937 165.766 321.327 134.144 310.312 111.395C290.767 114.238 260.206 132.362 249.894 147.283C250.596 138.392 256.643 129.861 256.643 129.861C256.643 129.861 251.11 129.827 246.091 130.803C241.072 131.78 236.549 133.767 226.785 134.829C247.752 122.033 247.05 96.0973 247.05 96.0973C247.05 96.0973 233.551 117.424 208.319 121.33C218.614 112.097 217.552 101.785 217.552 101.785C217.552 101.785 195.882 124.174 169.57 128.439C175.514 134.743 178.717 147.916 178.803 148.327C178.392 147.745 157.048 117.716 111.995 112.44C105.246 143 113.417 175.445 113.417 175.445C113.417 175.445 110.573 134.126 115.558 119.206C136.714 121.673 154.718 149.338 154.992 149.766C154.786 149.647 148.842 146.238 142.555 147.283C148.945 152.97 144.697 162.563 144.697 162.563C144.697 162.563 142.213 150.126 130.119 149.064C137.588 153.689 129.399 170.032 129.399 170.032C129.399 170.032 120.868 165.406 120.868 157.595C119.173 162.7 119.943 175.393 115.455 186.665C115.25 187.162 99.2844 228.668 107.387 281.258C114.256 274.595 117.939 274.869 117.939 274.869C117.939 274.869 116.038 281.258 117.939 290.029C123.095 282.44 135.738 279.751 135.738 279.751C135.738 279.751 158.795 325.626 212.704 325.626C266.613 325.626 293.97 281.275 293.97 281.275C301.644 282.081 307.075 284.582 311.152 288.11C311.152 288.11 309.644 280.076 308.445 275.091C312.71 275.571 314.972 277.884 318.757 282.457C325.627 225.259 308.907 190.262 307.075 179.282C305.242 168.301 308.137 157.955 308.137 157.955H308.188ZM267.058 184.918C261.165 191.17 258.596 193.38 258.596 193.38C258.596 193.38 267.435 189.697 286.775 184.918C252.532 197.954 237.063 213.046 237.063 213.046C237.063 213.046 251.984 191.907 267.075 184.918H267.058ZM239.65 188.669C236.995 197.92 230.468 209.208 221.166 212.874C228.498 205.885 233.449 196.601 239.65 188.669ZM202.049 215.41C191.36 209.859 184.901 195.521 182.863 184.13C189.321 194.391 194.118 206.125 202.049 215.41ZM163.951 193.38C163.951 193.38 161.382 191.17 155.489 184.918C170.581 191.907 185.501 213.046 185.501 213.046C185.501 213.046 170.032 197.954 135.789 184.918C155.129 189.697 163.968 193.38 163.968 193.38H163.951ZM263.529 273.207C263.529 273.207 278.69 276.702 278.69 292.873C268.737 280.008 249.106 291.399 232.883 278.963C232.883 283.4 237.012 285.884 237.012 285.884C227.556 283.554 221.475 278.004 217.963 272.299C215.496 268.291 213.834 265.755 213.663 263.563C213.663 263.563 211.83 268.89 210.083 271.7C206.468 277.507 200.456 283.468 190.674 285.884C190.674 285.884 194.803 283.4 194.803 278.963C178.58 291.399 158.949 280.008 148.996 292.873C148.996 276.702 164.157 273.207 164.157 273.207C164.157 273.207 148.277 274.749 143.309 279.374C143.309 279.374 151.309 269.541 164.808 268.119C160.542 265.516 154.701 265.396 148.774 266.338C149.339 266.149 165.013 260.976 172.807 269.01C167.84 269.37 161.793 270.603 161.793 270.603C161.793 270.603 167.788 270.603 171.094 272.556C166.229 274.338 159.669 277.644 155.934 283.931C165.356 280.916 185.964 283.931 195.916 273.447C198.229 276.273 197.698 279.665 197.698 279.665C197.698 279.665 209.775 274.218 211.196 260.89C211.196 260.89 212.019 262.107 213.869 262.107C215.719 262.107 216.541 260.89 216.541 260.89C216.541 272.077 230.04 279.665 230.04 279.665C230.04 279.665 229.509 276.273 231.821 273.447C241.774 283.931 262.382 280.916 271.803 283.931C268.052 277.644 261.491 274.338 256.643 272.556C259.949 270.603 265.945 270.603 265.945 270.603C265.945 270.603 259.898 269.353 254.93 269.01C262.724 260.976 278.398 266.149 278.964 266.338C273.037 265.396 267.195 265.516 262.93 268.119C276.428 269.541 284.428 279.374 284.428 279.374C279.461 274.749 263.581 273.207 263.581 273.207H263.529ZM217.106 256.111C217.106 256.111 216.37 258.458 213.834 258.458C211.299 258.458 210.563 256.111 210.563 256.111C210.563 256.111 210.939 253.884 207.719 252.154C204.498 250.424 200.439 252.154 200.439 252.154C200.439 252.154 199.085 251.537 199.325 249.31C199.582 247.083 202.409 245.49 213.834 245.49C225.26 245.49 228.104 247.101 228.344 249.31C228.601 251.537 227.23 252.154 227.23 252.154C227.23 252.154 223.153 250.424 219.95 252.154C216.747 253.884 217.106 256.111 217.106 256.111ZM283.812 212.806C283.812 212.806 287.066 231.358 273.105 243.006C259.144 254.672 240.609 250.852 232.969 244.154C230.108 242.236 228.19 241.859 228.755 246.073C224.746 239.957 216.335 237.662 213.663 237.662C210.991 237.662 202.58 239.957 198.554 246.073C199.12 241.859 197.218 242.253 194.34 244.154C186.7 250.852 168.148 254.672 154.204 243.006C140.243 231.358 143.498 212.806 143.498 212.806C143.498 212.806 137.947 207.256 128.389 199.992C150.367 207.256 193.963 231.255 193.963 231.255C193.963 231.255 190.709 225.568 183.634 219.863C191.856 222.724 196.053 229.422 202.169 230.947C208.284 232.471 210.203 227.692 210.203 227.692C210.974 233.996 204.858 234.767 203.128 239.169C207.805 234.835 213.646 234.39 213.646 234.39C213.646 234.39 219.487 234.835 224.164 239.169C222.451 234.767 216.335 234.013 217.089 227.692C217.089 227.692 219.008 232.471 225.123 230.947C231.239 229.422 235.436 222.724 243.658 219.863C236.583 225.551 233.346 231.255 233.346 231.255C233.346 231.255 276.925 207.256 298.903 199.992C289.345 207.256 283.794 212.806 283.794 212.806H283.812Z" fill="white"/>
<path d="M138.443 108.5L133.732 101.579L137.535 98.9924C141.835 96.0632 142.88 91.9005 140.31 88.1147C137.844 84.5002 133.527 83.9692 129.398 86.7957L120.953 92.5515L133.921 111.6L138.46 108.517L138.443 108.5ZM127.702 92.7228L130.529 90.8042C132.567 89.4166 134.435 89.6736 135.651 91.4722C136.867 93.2709 136.405 95.121 134.4 96.4914L131.591 98.41L127.72 92.7228H127.702Z" fill="white"/>
<path d="M165.27 93.5625L163.523 89.8966L154.05 94.419L151.583 89.2799L160.371 85.083L158.641 81.4514L149.853 85.6483L147.609 80.9546L156.894 76.535L155.146 72.8691L140.911 79.6699L150.847 100.449L165.27 93.5625Z" fill="white"/>
<path d="M173.114 90.9762L170.613 82.5139L173.782 81.5717L180.514 88.7835L186.202 87.1048L178.579 79.3105C181.148 77.4947 181.936 74.7367 181.114 71.9616C179.915 67.9189 176.609 65.9146 171.007 67.5763L161.294 70.4541L167.838 92.5522L173.097 90.9933L173.114 90.9762ZM171.058 71.5847C173.645 70.8139 175.067 71.6533 175.649 73.5719C176.232 75.559 175.495 77.135 172.943 77.8887L169.551 78.8994L167.684 72.5783L171.076 71.5676L171.058 71.5847Z" fill="white"/>
<path d="M192.233 76.4324L195.368 76.6722C197.749 76.8435 198.828 77.3574 199.051 79.0533C199.291 80.852 197.664 81.897 195.471 82.1882C192.456 82.5822 190.246 81.2803 188.773 79.0876L185.124 82.4451C187.094 85.4601 190.914 87.0703 195.831 86.4193C201.809 85.6142 204.79 82.1882 204.207 77.8371C203.676 73.9143 201.21 72.2869 197.03 71.91L193.621 71.6359C191.137 71.4132 190.143 70.7965 189.938 69.3062C189.749 67.8673 191 66.7709 193.158 66.4797C195.762 66.1371 198.092 67.1307 199.514 69.2034L202.683 65.7431C200.627 62.8995 197.064 61.8717 192.97 62.4198C187.505 63.1393 184.405 66.2056 184.97 70.3854C185.484 74.2055 188.088 76.0555 192.182 76.3981L192.233 76.4324Z" fill="white"/>
<path d="M212.002 79.3271L220.464 79.5498L222.109 84.9801L227.59 85.1171L219.813 61.8713L213.543 61.7172L204.584 84.5347L210.066 84.6717L211.985 79.3271H212.002ZM215.616 69.1346C215.976 68.141 216.319 67.0789 216.541 65.9141H216.61C216.815 67.0961 217.107 68.1753 217.364 69.186L219.299 75.6612L213.355 75.507L215.599 69.1346H215.616Z" fill="white"/>
<path d="M237.902 83.4557C234.904 82.8904 233.225 80.9375 232.523 78.4022L228 80.4407C228.926 83.9182 232.026 86.659 236.908 87.6012C242.835 88.7318 246.758 86.4021 247.58 82.1024C248.317 78.2138 246.484 75.8841 242.647 74.2224L239.495 72.8863C237.199 71.8927 236.463 70.9848 236.737 69.5116C237.011 68.0727 238.553 67.4389 240.694 67.85C243.281 68.3468 245.165 70.0255 245.867 72.4409L249.979 70.1454C248.934 66.805 245.867 64.698 241.807 63.9271C236.394 62.8993 232.489 64.8179 231.701 68.9634C230.981 72.7492 232.865 75.3359 236.651 76.9461L239.563 78.1624C241.773 79.0874 242.63 79.9097 242.304 81.5885C241.962 83.37 240.094 83.8496 237.919 83.4214L237.902 83.4557Z" fill="white"/>
<path d="M251.005 78.7565L249.629 82.9564L259.705 86.2578L261.081 82.0578L251.005 78.7565Z" fill="white"/>
<path d="M265.259 95.995L269.267 87.4128L278.055 91.524L279.785 87.8239L270.998 83.7126L273.242 78.899L282.561 83.2501L284.325 79.4815L270.038 72.8007L260.291 93.6825L265.259 95.995Z" fill="white"/>
<path d="M281.566 90.9414C277.506 96.9884 278.106 103.138 284.17 107.198C288.915 110.384 293.626 109.785 297.258 106.359L293.318 102.265C291.279 104.491 288.864 104.988 286.74 103.549C283.725 101.528 283.708 97.8278 286.243 94.0248C288.864 90.1191 292.221 88.8001 295.116 90.753C297.412 92.2947 297.806 94.7101 296.384 97.4338L301.54 99.7121C303.836 95.1897 302.568 90.4275 297.686 87.1556C291.862 83.2499 285.609 84.8773 281.549 90.9071L281.566 90.9414Z" fill="white"/>
<path d="M159.325 338.593L158.417 335.047L157.51 338.593C157.373 339.142 156.944 339.553 156.413 339.69L152.867 340.598L156.413 341.506C156.961 341.643 157.373 342.071 157.51 342.602L158.417 346.148L159.325 342.602C159.462 342.054 159.891 341.643 160.422 341.506L163.968 340.598L160.422 339.69C159.874 339.553 159.462 339.125 159.325 338.593Z" fill="white"/>
<path d="M272.711 338.223L271.803 334.677L270.895 338.223C270.758 338.771 270.33 339.182 269.799 339.319L266.253 340.227L269.799 341.135C270.347 341.272 270.758 341.7 270.895 342.231L271.803 345.777L272.711 342.231C272.848 341.683 273.276 341.272 273.807 341.135L277.353 340.227L273.807 339.319C273.259 339.182 272.848 338.754 272.711 338.223Z" fill="white"/>
<path d="M191.599 239.307C193.158 237.32 193.894 235.692 193.894 235.692L151.942 214.485C145.176 244 179.574 254.535 191.616 239.307H191.599Z" fill="white"/>
<path d="M276.96 214.485L235.008 235.692C235.008 235.692 235.727 237.32 237.303 239.307C249.328 254.535 283.743 244 276.977 214.485H276.96Z" fill="white"/>
<path d="M233.995 357.18C233.995 357.18 234.012 357.18 234.029 357.18L232.368 344.778C232.368 344.778 232.35 344.778 232.333 344.778V344.743L231.905 344.795C229.301 345.137 226.663 345.411 224.008 345.6C223.546 345.634 223.066 345.651 222.603 345.686C218.698 345.925 214.775 345.977 210.852 345.874C206.741 345.703 202.647 345.377 198.604 344.846V344.915C198.415 344.898 198.244 344.88 198.073 344.863L197.645 344.812L195.983 357.54L196.411 357.591C202.475 358.379 208.659 358.79 214.809 358.79C220.959 358.79 227.417 358.362 233.601 357.54L234.029 357.488L233.995 357.214V357.18ZM210.355 357.831L210.818 346.713C213.798 346.799 216.796 346.782 219.777 346.679L220.205 357.797C216.933 357.917 213.644 357.934 210.355 357.831Z" fill="white"/>
</g>
<defs>
<clipPath id="clip0_37_10608">
<rect width="325.475" height="325.475" fill="white" transform="translate(50 50)"/>
</clipPath>
</defs>
</svg>
