<svg width="426" height="426" viewBox="0 0 426 426" fill="none" xmlns="http://www.w3.org/2000/svg">
<g clip-path="url(#clip0_37_11207)">
<path d="M330.291 251.89C329.865 254.072 329.353 256.254 328.774 258.453C338.047 213.264 326.217 90.3977 325.944 87.5511V85.6249C325.944 84.9942 325.671 84.3976 325.211 84.0226C324.887 83.7669 324.512 83.6305 324.12 83.6305C323.933 83.6305 323.745 83.6646 323.558 83.7328C322.893 83.9544 307.245 89.0682 287.182 89.0341C273.75 89 261.477 86.6988 250.738 82.1475C237.135 76.4031 225.987 67.079 217.584 54.4139C217.243 53.9026 216.697 53.6128 216.135 53.5957H215.692C215.112 53.5957 214.584 53.9196 214.243 54.4139C205.839 67.079 194.674 76.4031 181.088 82.1475C170.333 86.6817 158.077 89 144.644 89.0341C124.581 89.0682 108.916 83.9544 108.269 83.7328C108.081 83.6646 107.894 83.6305 107.706 83.6305C107.314 83.6305 106.939 83.7669 106.615 84.0226C106.155 84.3976 105.882 84.9942 105.882 85.6249V87.5511C105.609 90.3977 93.7796 213.247 103.053 258.453C102.473 256.271 101.979 254.072 101.535 251.89C95.791 222.469 96.7456 189.673 97.9558 148.149C98.5013 129.45 99.115 108.262 99.0809 85.6419C99.0809 82.676 100.393 79.8634 102.592 78.1077C104.791 76.352 107.672 75.8235 110.28 76.6929C110.877 76.8974 125.604 81.7043 144.644 81.6532C157.241 81.6362 168.662 79.4884 178.634 75.2781C190.992 70.062 201.117 61.6073 208.737 50.1184C210.356 47.6979 212.964 46.2319 215.726 46.2319C215.794 46.2319 215.862 46.2319 215.93 46.2319C215.998 46.2319 216.067 46.2319 216.135 46.2319C218.896 46.2319 221.504 47.6979 223.124 50.1184C230.743 61.6073 240.885 70.062 253.226 75.2781C263.198 79.4884 274.619 81.6362 287.216 81.6532C306.256 81.6873 320.984 76.8804 321.58 76.6929C324.188 75.8065 327.069 76.352 329.268 78.1077C331.467 79.8634 332.779 82.676 332.779 85.6419C332.745 108.262 333.359 129.45 333.904 148.149C335.115 189.673 336.052 222.469 330.325 251.89H330.291Z" fill="white"/>
<path d="M174.322 162.962C175.651 160.899 178.413 160.32 180.475 161.649L190.584 168.195C192.646 169.525 193.226 172.286 191.896 174.348C191.044 175.661 189.612 176.377 188.163 176.377C187.328 176.377 186.493 176.155 185.76 175.661L175.651 169.115C173.589 167.786 173.009 165.024 174.339 162.962H174.322Z" fill="white"/>
<path d="M256.177 169.098L246.069 175.644C245.319 176.121 244.483 176.36 243.665 176.36C242.199 176.36 240.785 175.644 239.932 174.331C238.603 172.269 239.182 169.524 241.245 168.178L251.353 161.632C253.416 160.303 256.16 160.882 257.507 162.945C258.836 165.007 258.257 167.752 256.194 169.098H256.177Z" fill="white"/>
<path d="M241.228 168.178L251.336 161.632C253.398 160.303 256.143 160.882 257.489 162.945C258.819 165.007 258.239 167.752 256.177 169.098L246.069 175.644C245.319 176.121 244.483 176.36 243.665 176.36C242.199 176.36 240.785 175.644 239.932 174.331C238.603 172.269 239.182 169.524 241.245 168.178H241.228Z" fill="white"/>
<path d="M256.177 169.098L246.069 175.644C245.319 176.121 244.483 176.36 243.665 176.36C242.199 176.36 240.785 175.644 239.932 174.331C238.603 172.269 239.182 169.524 241.245 168.178L251.353 161.632C253.416 160.303 256.16 160.882 257.507 162.945C258.836 165.007 258.257 167.752 256.194 169.098H256.177Z" fill="white"/>
<path d="M191.896 174.331C191.044 175.644 189.612 176.36 188.163 176.36C187.328 176.36 186.493 176.138 185.76 175.644L175.651 169.098C173.589 167.769 173.009 165.007 174.339 162.945C175.669 160.882 178.43 160.303 180.493 161.632L190.601 168.178C192.663 169.507 193.243 172.269 191.913 174.331H191.896Z" fill="white"/>
<path d="M274.517 167.871C273.903 164.615 273.068 161.547 271.858 158.769C270.205 155.769 267.852 155.428 264.528 155.206C261.92 155.036 260.915 155.308 257.113 156.911C257.727 156.706 258.289 156.587 258.835 156.553C263.829 156.229 265.21 163.013 260.778 171.195C255.511 180.911 246.408 180.042 241.005 179.207C235.601 178.372 230.999 172.32 237.255 167.258C238.175 166.508 239.232 165.758 240.374 165.042C240.459 164.991 240.545 164.939 240.63 164.871C244.158 162.604 247.499 160.098 250.721 157.422C254.437 154.354 259.21 151.422 264.767 148.967C267.75 147.774 270 145.763 270.324 141.638C270.682 138.229 269.454 135.16 264.102 132.978L259.585 131.956C254.164 130.711 248.897 128.904 243.852 126.552C241.073 125.257 238.346 123.859 235.687 122.325C233.3 120.944 227.675 118.745 215.931 118.745C204.186 118.745 198.561 120.927 196.174 122.325C193.532 123.876 190.788 125.257 188.009 126.552C182.981 128.904 177.697 130.728 172.276 131.956L167.759 132.978C162.407 135.177 161.179 138.246 161.537 141.638C161.861 145.78 164.111 147.774 167.094 148.967C173.094 151.627 178.191 154.831 182.026 158.189C184.328 160.218 186.816 162.007 189.39 163.644C189.936 163.985 190.481 164.326 191.044 164.667C192.049 165.28 193.021 165.911 193.924 166.593C196.294 168.383 198.186 171.4 197.333 174.246C196.941 175.542 196.038 176.633 194.947 177.434C192.714 179.087 189.816 179.565 187.038 179.667C183.97 179.786 180.799 179.462 178.021 178.15C173.06 175.781 170.06 170.513 168.799 165.178C168.356 163.32 168.1 161.343 168.748 159.553C169.515 157.456 171.458 156.246 173.657 156.638C173.776 156.655 173.912 156.689 174.049 156.706C174.185 156.74 174.322 156.774 174.458 156.826C174.543 156.86 174.645 156.877 174.731 156.911C170.947 155.291 169.924 155.019 167.316 155.206C163.975 155.428 161.639 155.752 159.986 158.769C158.759 161.547 157.923 164.633 157.31 167.871C155.997 177.673 160.344 184.917 166.873 191.207C171.697 195.247 177.322 197.667 183.424 199.065C191.248 200.838 199.004 202.952 206.623 205.508C210.357 206.753 213.459 207.486 215.675 207.469H216.152C218.385 207.469 221.47 206.753 225.203 205.508C232.823 202.952 240.562 200.855 248.403 199.065C254.522 197.667 260.13 195.264 264.954 191.207C271.466 184.934 275.813 177.673 274.517 167.871ZM210.595 193.406C210.339 193.423 210.135 193.218 209.982 193.048C209.709 192.707 209.419 192.332 209.078 192.042C208.669 191.701 208.175 191.463 207.663 191.377C207.374 191.292 207.084 191.258 206.811 191.139L206.487 190.985C205.822 190.662 205.55 189.877 205.873 189.23C206.402 188.173 207.766 188.411 208.652 188.787C209.947 189.366 210.885 190.627 211.124 191.991C211.175 192.264 211.192 192.503 211.192 192.792C211.192 193.116 210.936 193.389 210.612 193.389L210.595 193.406ZM225.357 190.985L225.033 191.139C224.743 191.258 224.453 191.292 224.181 191.377C223.652 191.48 223.175 191.701 222.766 192.042C222.425 192.315 222.118 192.69 221.845 193.048C221.692 193.218 221.505 193.423 221.232 193.406C220.908 193.406 220.635 193.133 220.652 192.809C220.652 192.52 220.652 192.281 220.72 192.008C220.959 190.627 221.897 189.366 223.192 188.804C224.078 188.411 225.442 188.19 225.971 189.247C226.294 189.894 226.005 190.696 225.357 191.002V190.985Z" fill="white"/>
<path d="M307.365 239.873C306.7 243.214 300.035 243.657 294.478 243.879C294.478 243.879 293.813 246.555 287.37 246.759C280.927 246.981 277.142 242.975 274.483 240.094C271.858 237.248 268.159 232.901 271.006 228.111L280.5 207.98C280.5 207.98 280.518 207.929 280.552 207.844C280.824 207.077 281.08 206.275 281.37 205.44C281.37 205.44 282.716 200.599 283.091 196.713C283.091 196.542 283.126 196.372 283.143 196.201C283.143 196.099 283.143 195.98 283.16 195.877C283.381 191.872 283.16 181.218 292.705 181.883C302.268 182.548 310.263 187.44 310.927 194.105C311.66 201.349 310.365 207.213 291.989 225.316C291.018 226.27 289.978 227.174 288.938 228.043C287.95 228.861 286.91 230.361 290.268 231.435C295.16 232.986 301.603 234.998 301.603 234.998C301.603 234.998 308.047 236.549 307.382 239.89L307.365 239.873Z" fill="white"/>
<path d="M266.284 251.208C263.846 257.43 255.391 254.089 252.954 250.765C252.954 250.765 253.397 255.879 248.505 257.652C243.613 259.424 240.51 258.316 234.732 251.652C234.732 251.652 233.181 256.765 229.397 256.765C225.612 256.765 222.732 254.992 218.726 243.879C217.089 239.361 218.777 235.526 221.351 232.577C223.209 230.446 225.544 228.81 228.135 227.668C230.266 226.73 232.38 225.793 234.459 224.838C249.102 218.122 262.227 210.707 268.994 200.361C267.443 207.349 265.022 214.474 261.801 221.719L259.193 227.054L259.159 227.123C258.869 227.736 258.698 228.077 258.698 228.077C258.698 228.077 258.562 228.35 258.375 228.827C257.778 230.412 256.789 234.162 259.363 236.736C262.704 240.077 268.704 244.952 266.25 251.191L266.284 251.208Z" fill="white"/>
<path d="M213.083 243.878C209.078 254.992 206.197 256.765 202.413 256.765C198.629 256.765 197.077 251.651 197.077 251.651C191.299 258.316 188.197 259.424 183.304 257.652C178.412 255.879 178.855 250.765 178.855 250.765C176.418 254.106 167.963 257.43 165.526 251.208C163.088 244.986 169.088 240.094 172.412 236.77C174.986 234.196 173.98 230.446 173.401 228.861C173.213 228.384 173.077 228.111 173.077 228.111C173.077 228.111 172.906 227.77 172.617 227.157L172.583 227.088L169.975 221.753C166.753 214.491 164.332 207.383 162.781 200.395C169.548 210.741 182.674 218.156 197.316 224.872C199.396 225.827 201.509 226.764 203.64 227.702C206.231 228.827 208.566 230.48 210.424 232.611C212.998 235.56 214.686 239.378 213.049 243.913L213.083 243.878Z" fill="white"/>
<path d="M157.327 240.094C154.668 242.975 150.883 246.981 144.44 246.759C137.997 246.538 137.332 243.879 137.332 243.879C131.775 243.657 125.11 243.214 124.445 239.873C123.78 236.532 130.224 234.981 130.224 234.981C130.224 234.981 136.667 232.986 141.559 231.418C144.917 230.344 143.878 228.861 142.889 228.026C141.849 227.157 140.809 226.253 139.838 225.299C121.462 207.196 120.167 201.315 120.9 194.088C121.565 187.423 129.559 182.531 139.122 181.866C148.667 181.201 148.463 191.872 148.667 195.86C148.667 195.963 148.667 196.082 148.684 196.184C148.684 196.355 148.702 196.525 148.719 196.696C149.077 200.582 150.44 205.423 150.44 205.423C150.713 206.258 150.986 207.077 151.258 207.827C151.292 207.912 151.327 207.963 151.327 207.963L160.821 228.094C163.668 232.884 159.969 237.248 157.344 240.077L157.327 240.094Z" fill="white"/>
<path d="M365.678 280.391L359.15 278.107C353.371 276.095 347.49 274.169 341.593 272.379C343.877 265.987 345.65 259.595 346.86 253.271C349.689 238.492 351.172 222.128 351.53 201.792C351.854 183.144 351.206 162.86 350.508 141.382V141.365L350.473 140.325V140.12C349.826 120.194 349.11 97.6251 349.059 73.2836C349.059 72.3972 349.008 71.5279 348.888 70.6756V70.6415V70.6074L348.837 70.3006L348.803 70.1301V70.0449L348.701 69.4824C348.564 68.7835 348.377 68.1016 348.104 67.4369L347.763 66.5846L347.371 65.8345C346.178 63.4652 344.439 61.4879 342.274 60.039C340.638 58.948 338.848 58.215 336.956 57.8741C336.121 57.7207 335.269 57.6355 334.416 57.6355C332.797 57.6355 331.212 57.9082 329.695 58.4537C328.16 58.931 313.143 63.3799 294.222 63.414H294.001C280.756 63.414 268.773 61.2663 258.409 57.0218C245.693 51.8229 235.346 43.3511 227.658 31.8281C224.914 27.7371 220.431 25.2825 215.675 25.2825H215.658C210.868 25.2825 206.385 27.7541 203.658 31.8792C196.021 43.3681 185.896 51.8399 173.572 57.0389C163.481 61.3003 151.855 63.4652 139.003 63.4993H138.781C119.127 63.4993 103.803 58.4707 103.65 58.4196C102.218 57.9423 100.735 57.7037 99.2177 57.7037C96.0131 57.7037 92.8596 58.8117 90.3368 60.8401C86.706 63.7379 84.5412 68.3403 84.5412 73.1472C84.5753 97.6421 83.9276 120.347 83.331 140.376C82.0184 185.462 80.9957 221.088 87.2856 253.407V253.424C88.3765 258.896 89.8766 264.47 91.7686 270.01C83.1605 272.447 74.5523 275.175 66.1146 278.124L59.5861 280.408L63.4385 286.152C70.6148 296.874 77.6376 307.903 84.3367 318.965C83.6378 332.193 83.2116 345.574 83.0582 358.767L82.973 366.387L90.1663 363.881C108.133 357.608 126.644 352.682 145.241 349.222C148.446 352.358 151.77 355.495 155.162 358.546C182.657 383.382 208.021 398.314 209.095 398.927C211.26 400.189 213.715 400.871 216.203 400.871H216.22C218.658 400.871 221.061 400.223 223.175 399.013C224.249 398.399 249.971 383.688 278.233 358.631C281.182 356.023 284.114 353.313 286.995 350.568C303.222 353.909 319.416 358.375 335.132 363.864L342.326 366.37L342.24 358.75C342.087 345.557 341.661 332.176 340.962 318.948C347.627 307.92 354.65 296.891 361.86 286.118L365.712 280.374L365.678 280.391ZM335.507 317.602C336.257 331.375 336.717 345.131 336.871 358.819C319.893 352.887 302.66 348.216 285.29 344.773C281.881 348.08 278.352 351.37 274.671 354.625C247.022 379.137 221.59 393.746 220.516 394.359C219.186 395.109 217.703 395.518 216.203 395.518C214.669 395.518 213.135 395.109 211.771 394.308C210.732 393.694 185.845 379.069 158.725 354.574C154.651 350.892 150.747 347.193 147.014 343.46C127.258 346.989 107.672 352.103 88.3936 358.836C88.547 345.131 89.0072 331.392 89.7572 317.619C82.7514 305.976 75.4558 294.488 67.8874 283.186C78.1149 279.624 88.4277 276.436 98.7915 273.64C96.0472 266.532 93.9676 259.441 92.5698 252.401C86.3822 220.679 87.4049 185.326 88.7004 140.547C89.28 120.381 89.9447 97.5398 89.9107 73.1472C89.9107 69.9426 91.3255 66.9084 93.6948 65.0163C96.0642 63.1243 99.1665 62.5617 101.979 63.4993C102.627 63.7209 118.497 68.9028 139.037 68.8517C152.605 68.8346 164.946 66.5164 175.685 61.9822C188.998 56.3571 199.925 47.2375 208.141 34.8452C209.879 32.2201 212.692 30.6519 215.675 30.6519C218.658 30.6519 221.471 32.2031 223.226 34.8111C231.528 47.2205 242.693 56.3741 256.397 61.9822C267.46 66.5164 280.193 68.8005 294.239 68.7664C314.353 68.7323 330.018 63.9595 331.416 63.5163C332.882 62.9708 334.467 62.8345 336.002 63.1243C337.178 63.3459 338.286 63.789 339.326 64.4879C340.945 65.5789 342.206 67.1471 342.973 69.0562C343.007 69.1414 343.041 69.2267 343.076 69.3119L343.161 69.5505C343.229 69.738 343.297 69.9426 343.348 70.1471L343.536 70.9653L343.57 71.1699L343.621 71.4767C343.706 72.0733 343.74 72.6699 343.74 73.2665C343.774 97.4716 344.507 120.228 345.155 140.308V140.444L345.189 141.586C346.604 185.82 347.661 220.849 341.627 252.299C340.127 260.123 337.757 267.998 334.57 275.891C342.223 278.107 349.843 280.544 357.411 283.186C349.843 294.505 342.547 305.993 335.541 317.619L335.507 317.602Z" fill="white"/>
<path d="M248.045 268.135C246.647 268.032 245.25 267.93 243.869 267.845C243.647 267.845 243.409 267.811 243.17 267.811C240.818 267.675 238.482 267.538 236.13 267.436C236.062 267.436 236.011 267.436 235.942 267.436C235.039 267.402 234.63 267.606 234.494 268.271C234.221 269.89 234.46 271.629 234.289 273.249C234.221 274.135 234.153 275.021 234.102 275.891C234.033 277.646 233.948 279.419 233.88 281.175C233.761 283.851 233.641 286.527 233.539 289.22C233.471 290.823 233.403 292.408 233.334 294.01C233.249 295.851 233.181 297.709 233.096 299.55C233.062 300.181 233.045 300.812 233.011 301.459C232.959 302.619 232.908 303.778 232.857 304.937C232.789 306.488 232.721 308.056 232.653 309.607C232.465 314.039 232.261 318.488 232.073 322.937C232.073 323.005 232.073 323.074 232.073 323.125C232.039 324.028 231.988 324.932 231.954 325.835C231.937 326.432 232.09 326.585 232.704 326.602C235.636 326.585 238.551 326.892 241.482 327.096C242.164 327.147 242.846 327.113 243.443 327.096C243.443 327.096 243.477 327.096 243.494 327.096C243.749 327.045 244.09 326.994 244.176 326.858C244.38 326.5 244.414 325.903 244.448 325.528C244.636 323.994 244.568 322.511 244.687 320.994C244.687 320.943 244.687 320.892 244.687 320.841C244.687 320.653 244.721 320.448 244.755 320.261C244.823 319.289 244.909 318.318 244.943 317.346C245.011 316.34 245.096 315.352 245.164 314.346C245.164 314.278 245.198 314.193 245.215 314.124C245.215 314.124 245.215 314.107 245.215 314.09C245.215 313.954 245.215 313.749 245.215 313.494C245.403 310.988 245.59 308.482 245.761 305.96C245.812 305.158 245.88 304.374 245.931 303.573C246.358 297.726 246.784 291.88 247.227 286.016C247.227 286.016 247.227 285.862 247.244 285.794C247.261 285.522 247.278 285.266 247.295 284.993C247.585 281.004 247.875 277.016 248.164 273.044C248.216 272.447 248.284 271.851 248.335 271.271C248.386 270.538 248.437 269.805 248.505 269.072C248.505 268.442 248.591 268.186 248.028 268.135H248.045Z" fill="white"/>
<path d="M285.733 324.437C285.852 323.858 285.545 323.5 284.949 323.38C284.557 323.312 284.114 323.227 283.653 323.142C283.585 323.142 283.517 323.125 283.449 323.108C283.432 323.108 283.415 323.108 283.381 323.108C282.477 322.954 281.488 322.784 280.551 322.613C276.903 322 273.255 321.437 269.59 320.943C268.312 320.772 267.017 320.602 265.738 320.432C265.244 320.295 265.09 320.039 265.312 319.699C266.318 318.25 267.392 316.903 268.414 315.471C269.897 313.34 271.483 311.244 273.085 309.147C274.704 307.051 276.238 304.954 277.977 302.908C279.801 300.931 281.386 298.869 283.091 296.806C285.017 294.573 286.875 292.323 288.784 290.022C289.517 289.255 290.097 288.3 290.744 287.431C291.665 286.169 292.688 284.993 293.642 283.749C294.273 283.033 294.648 282.198 294.801 281.328C295.142 279.573 295.671 277.936 296.012 276.18C296.063 275.959 296.114 275.669 296.063 275.43C296.114 275.141 295.858 274.936 295.466 274.783C295.279 274.68 295.006 274.612 294.801 274.578C294.801 274.578 294.784 274.578 294.767 274.578C293.813 274.288 292.824 274.067 291.801 273.879C291.614 273.845 291.443 273.811 291.273 273.777C285.477 272.737 279.648 271.817 273.818 271.033C273.306 270.964 272.795 270.896 272.284 270.828C269.88 270.504 267.477 270.214 265.073 269.942C262.977 269.703 260.897 269.481 258.8 269.277C258.204 269.209 257.88 269.413 257.727 269.839C257.727 269.908 257.692 269.976 257.675 270.044C257.471 272.243 257.249 274.425 257.045 276.624C257.045 276.76 257.028 276.896 257.028 277.033C257.062 277.715 257.335 277.953 258.323 278.056C258.647 278.09 258.971 278.141 259.295 278.175C263.437 278.584 267.579 279.061 271.704 279.59C272.318 279.675 272.949 279.76 273.562 279.828C275.301 280.067 277.04 280.306 278.778 280.561C279.665 280.629 279.92 280.97 279.528 281.499C279.153 282.044 278.846 282.658 278.386 283.118C278.386 283.118 278.386 283.118 278.369 283.135C277.074 284.72 275.914 286.374 274.738 288.027C266.539 298.118 258.886 308.465 251.778 319.017C251.641 319.204 251.488 319.392 251.368 319.579C251.368 319.579 251.351 319.613 251.351 319.63C251.181 319.988 251.113 320.397 251.062 320.824C251.062 320.892 251.062 320.96 251.045 321.011C251.045 321.011 251.045 321.028 251.045 321.045C250.857 322.818 250.67 324.608 250.482 326.381C250.465 326.551 250.448 326.721 250.431 326.926C250.38 327.471 250.567 327.795 251.164 327.881C251.164 327.881 251.249 327.881 251.283 327.881C251.334 327.881 251.386 327.881 251.454 327.881C251.641 327.898 251.812 327.915 251.999 327.949C254.062 328.136 256.141 328.341 258.204 328.579C259.056 328.682 259.925 328.767 260.778 328.869C262.738 329.091 264.698 329.346 266.642 329.602C267.835 329.756 269.011 329.926 270.204 330.097C271.159 330.233 272.113 330.369 273.085 330.523C273.443 330.574 273.801 330.625 274.142 330.693C277.108 331.153 280.091 331.648 283.04 332.193C283.227 332.21 283.415 332.244 283.585 332.278C283.585 332.278 283.602 332.278 283.619 332.278C284.301 332.33 284.693 332.108 284.812 331.443C284.847 331.273 284.881 331.085 284.915 330.881C284.949 330.608 284.983 330.335 285.017 330.045C285.239 328.204 285.477 326.381 285.699 324.54C285.699 324.505 285.699 324.454 285.716 324.42L285.733 324.437Z" fill="white"/>
<path d="M184.617 328.051C183.339 327.42 182.419 326.023 181.873 324.949C181.328 323.807 180.936 322.579 180.629 321.403C180.015 318.846 178.873 316.494 178.14 313.954C177.543 311.772 176.947 309.59 176.418 307.408C175.396 304.033 174.373 300.641 173.316 297.266C172.583 295.016 171.918 292.698 171.032 290.448C170.043 287.584 169.021 284.737 167.998 281.874C167.947 281.703 167.896 281.533 167.827 281.362C167.197 279.487 166.583 277.698 165.833 275.84C165.322 274.254 164.827 272.754 164.026 271.271C163.77 270.862 163.242 270.641 162.543 270.641C162.526 270.641 162.509 270.641 162.475 270.641C161.878 270.726 161.299 270.794 160.702 270.879C160.191 270.93 159.696 270.981 159.219 271.05C155.333 271.595 151.463 272.209 147.594 272.874C147.338 272.908 147.083 272.942 146.844 272.976C146.264 273.078 145.736 273.453 145.583 273.845C145.583 273.862 145.583 273.879 145.583 273.913C145.548 274.101 145.531 274.288 145.497 274.476C145.327 277.902 145.173 281.328 145.037 284.755C145.037 285.658 145.037 286.578 145.003 287.482C145.003 287.482 145.003 287.482 145.003 287.499C145.003 287.601 145.003 287.72 145.003 287.84C145.003 287.891 145.003 287.942 145.003 287.993C144.713 292.937 144.457 297.863 144.27 302.789C144.27 302.959 144.27 303.13 144.27 303.3C144.202 304.374 144.117 305.448 144.134 306.437C144.134 307.579 144.134 308.687 144.1 309.778C144.1 309.812 144.1 309.846 144.1 309.88C144.048 311.585 144.014 313.306 143.98 315.011C144.048 315.965 143.98 316.886 143.929 317.806C143.912 318.267 143.878 318.71 143.878 319.153C143.844 322.579 143.554 325.988 143.452 329.364C143.384 330.165 143.418 331.187 143.435 332.125C142.872 331.869 142.344 331.494 141.832 331C140.776 329.858 139.685 328.954 138.781 327.778C137.162 325.784 135.577 323.687 134.162 321.574C132.9 319.733 130.701 316.801 129.491 314.96C128.639 313.784 127.633 312.42 126.849 311.159C126.696 310.886 127.378 310.562 127.684 310.272C127.872 310.102 128.042 309.965 128.213 309.846C128.315 309.778 128.417 309.71 128.503 309.641C129.133 309.164 129.713 308.551 130.207 307.818C130.701 307.033 131.213 306.283 131.639 305.516C132.594 303.778 132.952 302.312 132.815 300.437C132.815 300.403 132.815 300.369 132.815 300.334C132.679 297.624 132.338 294.931 131.775 292.289C131.775 292.272 131.775 292.255 131.775 292.238C131.724 291.999 131.69 291.777 131.639 291.539C131.537 291.044 131.4 290.567 131.264 290.09C130.94 288.948 130.531 287.84 130.054 286.698C129.781 286.101 129.423 285.556 129.031 285.044C128.332 284.175 127.548 283.442 126.679 282.811C125.826 282.181 124.889 281.652 123.9 281.226C123.593 281.107 123.287 281.004 123.014 280.919C122.656 280.783 122.298 280.664 121.923 280.527C120.235 279.965 118.497 279.573 116.417 279.845C115.105 280.033 113.69 280.237 112.326 280.595C110.656 281.039 109.002 281.465 107.366 281.857C103.65 282.879 99.9508 283.97 96.2689 285.112C95.1779 285.487 94.087 285.828 92.9961 286.135C92.3142 286.357 91.6324 286.561 90.9846 286.851C90.5926 286.97 90.354 287.209 90.4392 287.499C90.4733 287.959 90.6267 288.385 90.7631 288.794C91.1551 290.158 91.5642 291.505 91.9904 292.834C92.587 294.624 93.1665 296.414 93.7631 298.204L106.155 342.165C106.53 343.512 107.962 344.245 109.292 343.784L118.019 340.699C118.19 340.631 118.36 340.563 118.531 340.511C118.633 340.494 118.718 340.46 118.821 340.426C120.133 339.966 120.218 339.949 119.911 338.875C117.713 331.835 116.417 326.023 113.792 317.551C113.656 317.056 113.502 316.545 113.451 316.017C113.468 315.778 113.587 315.505 113.962 315.403C114.9 314.977 115.616 315.096 115.991 315.761C116.11 315.931 116.213 316.102 116.315 316.272C117.355 317.738 118.377 319.204 119.383 320.67C119.383 320.67 119.383 320.67 119.383 320.687C120.525 322.307 121.701 324.199 122.605 325.426C122.946 325.886 123.321 326.346 123.662 326.841C123.679 326.858 123.696 326.892 123.713 326.909C124.412 327.881 125.11 328.852 125.792 329.824C126.951 331.187 128.008 332.483 129.27 333.676C130.122 334.528 131.179 335.176 132.372 335.653C135.628 336.847 138.832 337 142.259 336.097C143.878 335.739 145.156 334.903 146.111 333.642C147.901 333.318 149.725 332.96 151.514 332.687C152.162 332.568 152.844 332.398 153.492 332.244C153.526 332.244 153.577 332.244 153.611 332.227C154.463 332.074 155.094 331.358 155.111 330.523C155.162 329.381 155.145 327.829 155.282 326.721C155.35 325.136 155.435 323.568 155.52 322C155.52 321.983 155.52 321.949 155.52 321.932C155.588 321.71 155.81 321.522 156.134 321.403C156.39 321.284 156.645 321.233 157.003 321.181C159.543 320.755 162.202 320.483 164.793 319.801C166.447 319.289 167.401 319.647 167.947 320.824C168.134 321.42 168.322 322 168.492 322.596C168.577 322.903 168.697 323.21 168.816 323.517C169.31 324.863 169.992 326.312 170.742 327.471C170.81 327.591 170.896 327.693 170.964 327.795C171.629 328.682 172.617 329.295 173.691 329.807C173.981 329.943 174.271 330.079 174.543 330.216C174.901 330.335 175.293 330.42 175.737 330.489C175.856 330.489 175.958 330.489 176.078 330.506C175.958 330.506 175.839 330.506 175.737 330.489C176.146 330.54 176.589 330.574 177.083 330.591H177.134C177.867 330.642 178.617 330.693 179.384 330.693C181.379 330.778 183.203 330.216 184.72 328.954C185.76 328.102 185.095 328.238 184.635 327.983L184.617 328.051ZM120.201 302.414C120.048 303.096 119.741 303.761 119.383 304.442C119.059 305.073 118.377 305.482 117.593 305.84C115.565 306.693 113.502 307.102 111.354 307.562C110.996 307.664 110.639 307.46 110.536 307.102C110.025 305.687 109.718 304.238 109.207 302.84C109.121 302.516 109.019 302.209 108.9 301.903C108.474 300.403 108.03 298.886 107.604 297.386C107.604 297.351 107.604 297.317 107.57 297.283C107.144 295.834 106.548 294.471 106.07 293.056C106.002 292.834 105.968 292.698 106.002 292.459C106.002 292.152 106.258 291.914 106.53 291.76C106.684 291.675 106.888 291.59 107.076 291.539H107.11C108.576 291.061 110.059 290.584 111.525 290.141C112.241 289.919 112.957 289.817 113.69 289.783C115.82 289.681 116.758 290.141 117.525 291.556C118.531 293.448 118.94 295.493 119.366 297.539C119.519 298.153 119.673 298.766 119.843 299.38C119.911 299.653 119.98 299.908 120.048 300.147C120.252 301.016 120.321 301.715 120.201 302.414ZM164.725 310.749C161.81 311.176 158.895 311.619 155.998 312.113C155.793 312.147 155.605 312.011 155.605 311.806C155.657 307.255 155.742 302.704 155.844 298.153C155.844 297.743 155.844 297.334 155.844 296.925C155.878 295.937 156.083 294.846 156.117 293.789C156.219 292.647 156.219 291.437 156.338 290.277C156.424 289.613 156.543 289.135 156.543 288.505C156.543 288.471 156.543 288.436 156.56 288.385C156.645 288.164 156.952 288.096 157.14 288.232C157.225 288.3 157.293 288.351 157.31 288.385C158.145 290.669 158.759 292.766 159.679 295.033C160.481 297.028 161.162 299.039 161.793 301.067C162.884 304.153 163.958 307.238 165.015 310.34C165.083 310.528 164.947 310.715 164.742 310.749H164.725Z" fill="white"/>
<path d="M223.278 267.351C223.005 267.317 222.715 267.3 222.391 267.283C221.999 267.283 221.59 267.265 221.266 267.265H221.062C221.062 267.265 220.891 267.265 220.823 267.265C217.993 267.214 215.164 267.197 212.334 267.197C210.647 267.3 210.936 267.675 210.971 270.368C211.005 272.055 211.022 273.743 211.056 275.43C211.056 275.499 211.056 275.55 211.056 275.618C211.056 277.323 211.056 279.027 211.056 280.749C211.056 281.26 211.09 281.754 211.124 282.266C211.329 288.249 211.55 294.232 211.738 300.232C211.738 300.334 211.738 300.437 211.738 300.539V300.607C211.772 300.897 211.704 301.101 211.584 301.221C211.482 301.323 211.346 301.357 211.209 301.34C211.039 301.306 210.885 301.17 210.817 300.948C210.817 300.948 210.817 300.931 210.817 300.914C210.817 300.863 210.783 300.812 210.766 300.778C210.732 300.675 210.698 300.573 210.664 300.471C210.238 299.158 209.829 297.829 209.419 296.516C208.243 293.039 207.033 289.561 205.806 286.084C205.806 286.05 205.772 285.999 205.755 285.965C205.005 283.595 204.237 281.243 203.453 278.891C203.402 278.72 203.351 278.55 203.283 278.362C202.772 276.913 202.26 275.464 201.749 274.033C201.647 273.743 201.527 273.47 201.408 273.197C200.811 271.646 200.215 270.095 199.618 268.544C199.618 268.544 199.618 268.527 199.618 268.51C199.482 268.152 199.021 267.896 198.425 267.862C198.237 267.862 198.084 267.845 197.948 267.862C193.226 268.033 188.487 268.271 183.765 268.595C183.373 268.629 183.186 268.868 183.101 269.106C183.015 269.243 182.947 269.464 182.947 269.601C182.947 269.618 182.947 269.652 182.947 269.669C183.049 270.811 183.152 271.936 183.254 273.078C183.288 273.538 183.339 273.982 183.373 274.442C183.612 277.101 183.868 279.743 184.106 282.402C185.453 297.181 186.8 311.943 188.112 326.721C188.112 326.738 188.112 326.773 188.112 326.79C188.163 327.096 188.248 327.267 188.47 327.352C188.589 327.403 188.726 327.42 188.845 327.403C191.777 327.182 194.709 326.994 197.658 326.841C197.777 326.841 197.896 326.807 197.999 326.755C198.288 326.619 198.357 326.363 198.34 325.801C198.34 325.682 198.34 325.562 198.323 325.443C198.323 325.409 198.323 325.375 198.323 325.341C198.271 324.591 198.22 323.824 198.152 323.074V322.971C198.152 322.971 198.152 322.937 198.152 322.92C198.016 321.062 197.879 319.187 197.743 317.329V317.295C197.607 315.488 197.47 313.681 197.351 311.891C197.215 310.068 197.078 308.244 196.942 306.403C196.908 305.857 196.857 305.312 196.823 304.766C196.465 300.045 196.107 295.323 195.749 290.601C195.749 290.158 195.715 289.715 195.697 289.255V289.22C195.697 289.118 195.715 288.999 195.732 288.897C195.732 288.811 195.8 288.726 195.885 288.675C195.919 288.658 195.936 288.641 195.936 288.641C196.038 288.641 196.124 288.641 196.226 288.709C196.533 288.914 196.635 289.203 196.754 289.578C197.794 292.954 198.817 296.329 200.164 299.618C200.232 299.806 200.3 299.993 200.385 300.181C200.436 300.317 200.504 300.454 200.556 300.59C201.306 302.397 202.056 304.221 202.772 306.028C204.561 310.494 206.317 314.977 207.988 319.46C208.482 320.619 208.942 321.795 209.317 323.022C209.351 323.159 209.385 323.295 209.419 323.414C209.419 323.414 209.419 323.414 209.419 323.432C209.692 324.165 209.965 324.897 210.323 325.63C210.459 326.022 210.8 326.278 211.26 326.38C211.397 326.415 211.55 326.432 211.721 326.415C212.215 326.415 212.743 326.466 213.255 326.466H213.289C213.289 326.466 213.442 326.466 213.527 326.466H213.545C216.34 326.398 219.119 326.346 221.914 326.329H222.067C222.698 326.261 223.039 326.005 223.09 325.426C223.09 325.426 223.09 325.341 223.09 325.29C223.09 325.102 223.09 324.897 223.09 324.693V324.625C223.124 323.022 223.141 321.437 223.175 319.835C223.21 318.267 223.227 316.715 223.261 315.147C223.346 310.869 223.414 306.59 223.499 302.329C223.533 300.181 223.585 298.016 223.619 295.868C223.619 295.425 223.619 294.965 223.653 294.522C223.653 293.482 223.687 292.459 223.704 291.436C223.772 286.885 223.84 282.334 223.908 277.8C224.045 274.578 224.045 271.391 224.181 268.169C224.181 268.135 224.181 268.101 224.181 268.084C224.079 267.743 223.789 267.521 223.295 267.453L223.278 267.351Z" fill="white"/>
<path d="M329.405 283.254C329.337 282.777 328.928 282.351 328.28 282.095C328.263 282.095 328.246 282.095 328.229 282.078C327.649 281.925 327.07 281.754 326.49 281.601C326.013 281.448 325.536 281.311 325.041 281.175C321.223 280.135 317.405 279.163 313.57 278.243C313.314 278.175 313.075 278.107 312.837 278.038C312.257 277.902 311.626 278.038 311.319 278.345C311.319 278.345 311.302 278.379 311.285 278.396C311.183 278.55 311.081 278.72 310.979 278.874C309.785 281.311 308.609 283.732 307.45 286.152C307.45 286.152 307.45 286.152 307.45 286.169C304.16 292.766 300.956 299.397 297.836 306.062C297.581 306.624 297.325 307.17 297.052 307.732C294.87 312.437 292.722 317.159 290.609 321.897C290.609 321.897 290.609 321.897 290.609 321.914C289.893 323.397 289.16 324.88 288.444 326.346C288.444 326.346 288.444 326.38 288.427 326.397C287.523 328.204 286.637 330.028 285.751 331.835C285.478 332.381 285.819 333.028 286.433 333.165C287.455 333.386 288.478 333.608 289.484 333.829C289.501 333.829 289.535 333.829 289.552 333.847C290.864 334.153 292.194 334.443 293.49 334.767C294.12 334.903 294.819 335.023 295.484 335.142C295.518 335.142 295.569 335.159 295.603 335.176C296.455 335.364 297.308 334.954 297.649 334.187C298.143 333.165 298.74 331.733 299.302 330.761C299.302 330.761 299.302 330.761 299.302 330.744C299.984 329.346 300.683 327.932 301.382 326.534C301.382 326.517 301.399 326.5 301.416 326.483C301.552 326.295 301.842 326.227 302.2 326.244C302.473 326.244 302.745 326.295 303.086 326.38C305.609 326.994 308.166 327.795 310.825 328.187C312.564 328.375 313.297 329.091 313.348 330.369C313.28 330.983 313.229 331.596 313.16 332.21C313.126 332.534 313.092 332.858 313.092 333.199C313.024 334.631 313.092 336.25 313.314 337.597C313.331 337.733 313.365 337.869 313.382 337.989C313.484 338.415 313.655 338.824 313.876 339.216C313.996 339.42 314.115 339.608 314.234 339.813C314.268 339.864 314.302 339.932 314.354 339.983C314.456 340.119 314.558 340.256 314.66 340.392C315.291 341.176 316.075 341.892 317.064 342.54C317.371 342.693 317.678 342.847 317.984 343.017C318.649 343.358 319.314 343.699 320.03 344.006C320.32 344.142 320.609 344.262 320.916 344.364C320.967 344.364 321.001 344.398 321.053 344.415C322.553 344.926 324.121 344.977 325.689 344.534C327.002 344.176 326.32 344.023 325.996 343.614C325.058 342.523 324.769 340.869 324.683 339.676C324.632 338.688 324.7 337.699 324.82 336.744C324.956 335.534 325.092 334.358 325.229 333.165C325.638 329.619 326.013 326.074 326.388 322.511C327.343 313.289 328.161 304.05 328.86 294.794C328.86 294.726 328.86 294.658 328.86 294.59C328.86 294.59 328.86 294.454 328.877 294.385C328.877 294.266 328.877 294.164 328.894 294.044C328.962 293.175 329.03 292.306 329.081 291.436C329.081 291.402 329.081 291.385 329.081 291.351C329.149 290.311 329.201 289.272 329.218 288.198C329.371 286.527 329.507 284.942 329.354 283.271L329.405 283.254ZM316.382 296.772C316.246 299.158 316.109 301.545 315.956 303.931C315.854 305.516 315.751 307.085 315.649 308.636C315.41 312.283 315.138 315.897 314.848 319.528C314.848 319.715 314.626 319.852 314.422 319.801C311.558 319.034 308.694 318.301 305.831 317.602C305.626 317.551 305.507 317.346 305.592 317.176C305.865 316.545 306.155 315.914 306.427 315.301C309.359 309.062 312.342 302.84 315.41 296.635C315.496 296.465 315.581 296.294 315.649 296.141C315.649 296.107 315.683 296.073 315.717 296.056C315.82 295.954 315.956 295.937 316.092 295.971C316.092 295.971 316.109 295.971 316.126 295.971C316.126 295.971 316.126 295.971 316.143 295.971C316.314 296.039 316.382 296.158 316.399 296.295C316.399 296.295 316.399 296.312 316.399 296.329C316.399 296.482 316.399 296.635 316.382 296.789V296.772Z" fill="white"/>
<path d="M226.295 90.5169C226.295 90.5169 223.943 92.2556 222.255 95.3409L224.403 95.4091C223.841 96.7216 221.846 100.659 218.096 100.676C217.432 100.676 216.903 100.131 216.903 99.483V85.6588H220.568C220.858 86.2725 221.471 86.6986 222.204 86.6816C223.21 86.6816 224.011 85.8634 224.011 84.8577C224.011 83.869 223.176 83.0849 222.187 83.0849C221.471 83.0849 220.858 83.5111 220.568 84.1247H216.886V80.9883C217.909 80.5792 218.642 79.5735 218.642 78.4144C218.642 76.8802 217.363 75.6529 215.846 75.67C214.346 75.687 213.136 76.9143 213.136 78.4314C213.136 79.5905 213.869 80.5962 214.892 80.9883V84.1247H211.244C210.954 83.5281 210.34 83.102 209.624 83.102C208.636 83.102 207.818 83.8861 207.801 84.8747C207.801 85.8804 208.602 86.6986 209.607 86.6986C210.323 86.6986 210.954 86.2725 211.227 85.6588H214.875L214.892 99.466C214.892 100.131 214.363 100.659 213.716 100.659C209.965 100.659 207.954 96.7216 207.391 95.4091L209.539 95.3409C207.835 92.2726 205.482 90.534 205.482 90.534C203.982 92.784 203.522 96.858 203.522 96.858L205.414 95.8693C205.789 97.4887 207.272 101.904 212.642 104.205C214.329 104.921 215.403 105.79 215.778 106.114C215.863 106.182 216 106.182 216.085 106.114C216.46 105.79 217.534 104.921 219.221 104.205C224.574 101.886 226.04 97.4546 226.415 95.8352L228.307 96.8239C228.307 96.8239 227.829 92.7329 226.329 90.4999M214.517 78.3803C214.517 77.6302 215.13 76.9996 215.88 76.9996C216.63 76.9996 217.261 77.6132 217.261 78.3632C217.261 79.1132 216.647 79.7439 215.897 79.7439C215.147 79.7439 214.517 79.1303 214.517 78.3803Z" fill="white"/>
<path d="M212.657 341.756C212.282 341.671 211.805 341.739 211.498 341.722C210.646 341.722 209.794 341.688 208.941 341.688C205.532 341.637 202.123 341.62 198.697 341.62H197.981C197.81 341.62 197.623 341.62 197.487 341.722C197.282 341.875 197.265 342.165 197.265 342.421C197.248 353.518 197.231 364.614 197.214 375.711C197.214 375.865 197.214 376.052 197.333 376.171C197.452 376.291 197.64 376.308 197.81 376.308C199.549 376.342 201.271 376.342 202.992 376.325C203.18 376.325 203.384 376.308 203.504 376.154C203.589 376.052 203.589 375.916 203.589 375.779C203.589 371.671 203.606 367.546 203.623 363.421C203.623 363.165 203.623 362.893 203.759 362.671C204.015 362.245 204.595 362.177 205.089 362.16C206.691 362.109 208.277 362.075 209.879 362.023C210.152 362.023 210.458 361.989 210.629 361.768C210.748 361.614 210.748 361.41 210.748 361.222C210.765 360.012 210.782 358.802 210.816 357.591C210.816 357.387 210.816 357.165 210.663 357.046C210.544 356.944 210.373 356.944 210.22 356.944C208.311 356.978 206.402 357.012 204.509 357.046C204.288 357.046 204.015 357.046 203.879 356.859C203.776 356.722 203.759 356.535 203.759 356.364C203.725 353.603 203.691 350.841 203.657 348.08C203.657 347.909 203.657 347.705 203.776 347.586C203.913 347.415 204.151 347.415 204.373 347.415H212.368C212.606 347.415 212.862 347.415 213.032 347.228C213.169 347.091 213.186 346.887 213.203 346.699C213.271 345.898 213.305 345.097 213.322 344.279C213.322 343.682 213.51 342.591 213.186 342.063C213.083 341.875 212.913 341.79 212.708 341.739L212.657 341.756Z" fill="white"/>
<path d="M234.34 347.21C233.948 345.557 233.113 344.057 231.664 342.966C229.908 341.636 227.641 341.159 225.476 341.227C224.13 341.278 222.8 341.534 221.539 341.994C219.323 342.813 217.379 344.466 216.493 346.648C215.556 348.966 215.879 351.591 215.879 354.046C215.879 356.091 215.879 358.137 215.879 360.165C215.879 363.182 215.879 366.217 215.896 369.234V369.302C215.896 371.91 217.056 374.347 219.408 375.626C221.044 376.495 222.97 376.666 224.828 376.717C226.09 376.751 227.368 376.717 228.596 376.461C229.823 376.205 231.033 375.66 231.937 374.774C234.937 371.808 233.743 367.359 234.033 363.66C234.067 363.251 233.914 363.131 233.658 363.131C232.039 363.097 230.419 363.097 228.8 363.08C228.289 363.08 227.641 362.978 227.624 363.66C227.607 365.143 227.59 366.626 227.573 368.109C227.573 369.097 227.488 370.205 226.755 370.853C226.158 371.364 225.306 371.433 224.539 371.313C223.976 371.228 223.397 371.041 223.022 370.614C222.715 370.273 222.578 369.813 222.476 369.353C222.135 367.717 222.255 366.029 222.237 364.359C222.237 362.569 222.22 360.779 222.203 358.989C222.203 357.37 222.186 355.733 222.169 354.114C222.169 352.597 222.033 350.96 222.442 349.495C222.681 348.659 223.158 347.875 223.925 347.466C224.47 347.176 225.101 347.091 225.715 347.108C226.209 347.125 226.721 347.21 227.13 347.483C227.454 347.688 227.709 347.995 227.897 348.318C228.919 349.972 228.732 352.784 226.976 353.926C226.158 354.455 227.931 354.966 228.323 355.086C229.567 355.427 230.965 355.461 232.124 354.847C233.13 354.319 233.948 353.398 234.323 352.324C234.63 351.455 234.681 350.517 234.664 349.597C234.664 348.779 234.562 347.977 234.374 347.21H234.34Z" fill="white"/>
<path d="M118.224 118.574H126.866V116.188H120.627V113.444H125.315V111.057H120.627V108.466H126.866V106.08H118.224V118.591V118.574Z" fill="white"/>
<path d="M136.872 111.5L132.832 110.682C132.832 110.682 132.781 110.682 132.764 110.682C132.764 110.648 132.764 110.58 132.764 110.495V108.927C132.764 108.552 133.122 108.483 133.412 108.483H138.747V106.097H133.412C131.639 106.097 130.361 107.29 130.361 108.944V110.512C130.361 111.944 131.042 112.796 132.372 113.069L136.395 113.887C136.548 113.921 136.616 113.955 136.616 113.955C136.616 113.972 136.685 114.108 136.685 114.501V115.609C136.685 116.137 136.241 116.239 135.849 116.239H130.003V118.626H135.849C137.707 118.626 139.071 117.347 139.071 115.591V114.483C139.071 112.813 138.338 111.824 136.872 111.535V111.5Z" fill="white"/>
<path d="M141.781 108.466H145.701V118.591H148.088V108.466H152.008V106.08H141.781V108.466Z" fill="white"/>
<path d="M156.678 114.568H154.292V118.591H156.678V114.568Z" fill="white"/>
<path d="M271.535 114.5C271.535 114.364 271.535 114.279 271.535 114.228C271.569 114.211 271.637 114.194 271.723 114.159L276.171 112.693L276.257 112.659C277.126 112.284 277.586 111.551 277.586 110.58V108.841C277.586 107.801 277.177 106.08 274.45 106.08H269.507V108.466H274.45C275.012 108.466 275.166 108.551 275.166 108.551C275.166 108.551 275.2 108.637 275.2 108.841V110.495L270.938 111.909C269.694 112.336 269.149 113.137 269.149 114.517V118.591H278.012V116.205H271.518V114.517L271.535 114.5Z" fill="white"/>
<path d="M286.552 105.841C283.33 105.841 281.694 107.086 281.694 109.523V115.148C281.694 117.586 283.33 118.83 286.552 118.83C289.773 118.83 291.444 117.586 291.444 115.148V109.523C291.444 107.853 290.592 105.841 286.552 105.841ZM289.057 115.148C289.057 115.66 289.057 116.427 286.552 116.427C284.046 116.427 284.08 115.677 284.08 115.148V109.523C284.08 108.978 284.08 108.245 286.552 108.245C289.023 108.245 289.057 109.046 289.057 109.523V115.148Z" fill="white"/>
<path d="M297.614 114.5C297.614 114.364 297.614 114.279 297.614 114.228C297.648 114.211 297.716 114.194 297.801 114.16L302.25 112.694L302.336 112.66C303.205 112.285 303.665 111.552 303.665 110.58V108.841C303.665 107.801 303.256 106.08 300.529 106.08H295.586V108.466H300.529C301.091 108.466 301.245 108.551 301.245 108.551C301.245 108.551 301.279 108.637 301.279 108.841V110.495L297.017 111.91C295.773 112.336 295.228 113.137 295.228 114.518V118.591H304.091V116.205H297.597V114.518L297.614 114.5Z" fill="white"/>
<path d="M314.746 111.518C314.848 111.194 314.882 110.819 314.882 110.41V109.182C314.882 107.75 314.251 106.063 311.285 106.063H307.245V108.449H311.285C312.496 108.449 312.496 108.722 312.496 109.097V110.41C312.496 110.716 312.257 110.972 311.95 111.006C311.831 111.006 311.66 111.023 311.473 111.023H308.797V111.841V113.256V113.41H312.802C313.757 113.41 313.757 113.648 313.757 114.211V115.523C313.757 115.967 313.757 116.137 312.547 116.137H307.245V118.523H312.547C314.967 118.523 316.143 117.535 316.143 115.506V114.194C316.143 112.898 315.649 111.978 314.746 111.466V111.518Z" fill="white"/>
</g>
<defs>
<clipPath id="clip0_37_11207">
<rect width="306.825" height="376.713" fill="white" transform="translate(59.586 24.4303)"/>
</clipPath>
</defs>
</svg>
