<svg width="426" height="426" viewBox="0 0 426 426" fill="none" xmlns="http://www.w3.org/2000/svg">
<g clip-path="url(#clip0_37_10606)">
<path d="M339.412 75.2894L332.259 65.7094L268.219 35.9869L255.027 41.8588L213.438 23.3257L171.311 41.6179L158.118 35.7422L94.0817 65.4686L86.9254 75.0486L64.0687 87.5263L66.1712 205.644C66.1712 205.644 76.317 339.191 213.171 402.397C350.02 339.191 360.166 205.885 360.166 205.885L362.269 87.7671L339.412 75.2894ZM350.475 181.235C350.38 187.715 350.33 194.199 350.055 200.674C349.81 206.458 349.141 212.216 347.956 217.896C347.146 221.776 346.484 225.691 345.582 229.548C344.512 234.117 343.208 238.627 342.084 243.184C340.96 247.741 339.534 252.21 338.085 256.667C336.101 262.757 333.766 268.709 331.197 274.577C328.207 281.409 324.992 288.133 321.464 294.701C318.341 300.508 315.141 306.272 311.635 311.861C309.227 315.703 306.868 319.58 304.318 323.326C302.407 326.132 300.205 328.739 298.167 331.461C295.079 335.594 291.554 339.34 287.915 342.979C282.872 348.022 277.681 352.911 272.203 357.487C268.755 360.369 265.341 363.298 261.839 366.115C259.759 367.786 257.554 369.296 255.394 370.863C253.433 372.289 251.468 373.715 249.48 375.102C247.855 376.238 246.211 377.346 244.545 378.421C242.362 379.82 240.164 381.188 237.95 382.542C235.397 384.105 232.854 385.703 230.243 387.164C225.966 389.557 221.638 391.854 217.33 394.186C216.405 394.687 215.441 395.123 214.535 395.662C214.027 395.967 213.538 396.117 213.044 396.117C212.551 396.117 212.085 395.975 211.569 395.692C207.062 393.219 202.509 390.818 197.998 388.352C192.095 385.126 186.434 381.494 180.841 377.767C176.835 375.095 172.947 372.235 169.116 369.311C165.033 366.195 161.054 362.938 157.078 359.681C150.4 354.211 144.126 348.285 138.071 342.138C133.66 337.658 129.592 332.887 125.804 327.86C123.342 324.591 121.006 321.246 118.773 317.821C117.049 315.176 115.36 312.507 113.72 309.809C111.747 306.559 109.778 303.302 107.928 299.984C105.286 295.247 102.622 290.519 100.214 285.664C97.4611 280.12 94.8234 274.509 92.415 268.809C88.1946 258.804 84.6776 248.544 82.1736 237.958C81.3402 234.419 80.4571 230.89 79.727 227.331C78.7139 222.38 77.655 217.43 76.9134 212.437C75.9042 205.663 75.476 198.828 75.4951 191.966C75.541 172.63 75.5295 153.298 75.5372 133.962C75.541 123.912 75.5372 113.858 75.541 103.808C75.541 102.065 75.583 100.321 75.5754 98.5781C75.5677 97.5459 75.9577 96.8884 76.9401 96.3914C80.2584 94.6979 83.5078 92.863 86.8145 91.1503C89.6128 89.7053 92.4723 88.375 95.2859 86.9529C98.2792 85.4352 101.23 83.8296 104.239 82.3349C110.765 79.0931 117.294 75.8514 123.865 72.7014C130.907 69.322 137.979 65.9999 145.082 62.7391C152.881 59.1571 160.702 55.6133 168.562 52.1613C178.494 47.8033 188.471 43.537 198.441 39.2669C202.761 37.4166 207.123 35.6658 211.447 33.8308C211.836 33.6664 212.192 33.5862 212.547 33.5862C212.964 33.5862 213.381 33.697 213.847 33.9073C217.318 35.4593 220.851 36.8814 224.349 38.3723C230.645 41.0598 236.949 43.7281 243.222 46.4614C249.006 48.9845 254.763 51.5764 260.524 54.153C266.358 56.764 272.199 59.3673 278.013 62.0165C280.85 63.3048 283.637 64.7078 286.458 66.0305C288.729 67.0971 291.03 68.1063 293.297 69.1767C296.149 70.5223 298.978 71.9062 301.822 73.271C303.607 74.1311 305.4 74.9798 307.189 75.8361C310.653 77.4952 314.132 79.1352 317.584 80.8249C323.478 83.7073 329.373 86.582 335.234 89.5333C339.171 91.5211 343.044 93.639 346.951 95.688C347.883 96.1773 348.831 96.6246 349.921 97.1636C349.982 100.769 350.059 104.289 350.093 107.81C350.169 115.59 350.257 123.365 350.284 131.145C350.33 145.167 350.334 159.193 350.368 173.215C350.376 175.891 350.513 178.563 350.475 181.235Z" fill="white"/>
<path d="M341.643 99.2531C343.058 100.094 343.264 100.683 342.74 102.556C342.423 102.43 342.091 102.334 341.804 102.174C337.882 100.064 333.959 97.9495 330.068 95.8049C328.37 94.8683 326.734 93.8209 325.018 92.8996C321.493 90.9958 317.953 89.1035 314.379 87.28C310.155 85.1201 305.93 83.0252 301.676 80.9456C298.403 79.34 295.1 77.7688 291.816 76.2129C288.227 74.5156 284.622 72.8297 281.036 71.1324C278.417 69.8938 275.81 68.6399 273.192 67.386C269.747 65.7345 266.299 64.0525 262.839 62.4163C261.983 62.0035 261.027 61.8123 260.171 61.43C258.978 60.891 257.82 60.2717 256.631 59.6983C253.55 58.238 250.469 56.7776 247.372 55.3173C245.243 54.331 243.087 53.3944 240.973 52.3814C240.308 52.0641 239.734 51.5557 239.1 51.1428L239.195 50.8561C239.562 50.9516 239.956 50.9975 240.308 51.1275C244.199 52.6375 248.102 54.1284 251.979 55.6843C253.821 56.4298 255.599 57.3205 257.411 58.1462C260.825 59.6715 264.239 61.1968 267.637 62.7336C273.639 65.4822 279.641 68.2117 285.627 71.0062C291.709 73.8657 297.776 76.7558 303.809 79.7223C312.605 84.0268 321.371 88.3772 330.121 92.7581C332.472 93.9317 334.709 95.3003 336.999 96.5848C338.554 97.4755 340.11 98.3318 341.651 99.2531H341.643Z" fill="white"/>
<path d="M341.567 200.86C341.536 201.51 341.552 201.892 341.502 202.275C340.722 207.26 339.961 212.264 339.136 217.249C338.532 220.869 337.882 224.458 337.167 228.063C335.722 235.193 333.975 242.258 332.102 249.292C331.196 252.675 330.42 256.073 329.181 259.342C327.514 263.772 325.878 268.203 324.1 272.584C323.099 275.046 321.845 277.412 320.671 279.794C319.146 282.86 317.64 285.922 316.05 288.957C313.89 293.071 311.619 297.134 309.459 301.248C307.062 305.82 304.409 310.266 301.599 314.586C299.263 318.141 296.821 321.635 294.263 325.033C291.278 329.001 287.944 332.687 284.404 336.196C281.483 339.101 278.544 342.022 275.528 344.866C272.844 347.389 270.13 349.931 267.27 352.267C262.824 355.937 258.267 359.477 253.695 363.002C249.456 366.289 244.96 369.225 240.453 372.131C236.944 374.386 233.419 376.607 229.799 378.656L227.987 375.479C228.575 375.112 229.179 374.749 229.749 374.352C233.083 372.112 236.451 369.921 239.704 367.57C243.863 364.569 248.041 361.599 251.899 358.2C254.567 355.849 257.331 353.628 259.9 351.212C263.218 348.116 266.41 344.893 269.617 341.686C271.556 339.732 273.444 337.733 275.256 335.684C278.242 332.316 281.178 328.921 284.068 325.473C287.657 321.168 291.213 316.818 294.722 312.437C296.5 310.197 298.166 307.865 299.818 305.529C303.216 300.766 306.47 295.907 309.44 290.888C311.328 287.696 312.949 284.362 314.631 281.075C316.68 277.107 318.267 272.943 320.029 268.864C321.933 264.419 323.493 259.877 324.903 255.27C326.666 249.49 328.286 243.645 329.395 237.693C330.316 232.658 331.188 227.593 331.937 222.528C332.476 218.827 332.794 215.096 333.161 211.365C333.256 210.54 333.734 209.966 334.193 209.396C336.353 206.778 338.543 204.205 340.718 201.632C340.909 201.411 341.146 201.235 341.559 200.852L341.567 200.86Z" fill="white"/>
<path d="M317.923 140.869C317.923 146.951 317.953 153.048 317.907 159.146C317.812 168.848 317.67 178.566 317.559 188.283C317.494 193.968 317.479 199.668 317.399 205.352C317.368 208.781 317.288 212.21 317.223 215.624C317.177 217.1 316.81 217.578 315.239 218.101C315.208 217.562 315.174 217.134 315.159 216.702C315.128 210.207 315.094 203.712 315.078 197.217C315.032 186.911 314.998 176.589 314.967 166.287C314.967 163.221 314.952 160.159 314.937 157.093C314.906 152.234 314.872 147.375 314.857 142.516C314.826 134.989 314.811 127.462 314.792 119.935V118.329C313.538 118.742 312.456 119.235 311.424 119.774C307.693 121.758 303.977 123.761 300.261 125.745C299.531 126.143 298.801 126.506 298.086 126.873C298.04 126.827 297.99 126.808 297.975 126.778C297.96 126.747 297.96 126.682 297.975 126.667C300.104 125.061 302.169 123.379 304.374 121.919C308.679 119.044 313.06 116.299 317.41 113.52C317.506 113.455 317.647 113.505 317.919 113.505V140.865L317.923 140.869Z" fill="white"/>
<path d="M296.071 243.114C295.88 243.321 295.739 243.573 295.532 243.733C293.071 245.622 290.593 247.48 288.131 249.372C286.369 250.722 284.607 252.086 282.875 253.501C280.031 255.802 277.236 258.168 274.381 260.455C272.316 262.121 270.141 263.662 268.077 265.359C262.155 270.249 255.691 274.427 249.402 278.839C248.053 279.79 246.497 280.505 244.956 281.125C240.717 282.822 236.397 284.347 232.158 286.079C229.409 287.207 226.744 288.571 224.026 289.825C223.025 290.284 222.027 290.747 221.025 291.205C220.98 291.11 220.93 291.03 220.884 290.934C221.664 290.475 222.425 290.013 223.201 289.569C225.471 288.266 227.757 286.981 230.028 285.662C232.505 284.217 234.998 282.803 237.429 281.297C243.018 277.833 248.592 274.389 254.12 270.849C259.946 267.102 265.71 263.26 271.475 259.415C274.698 257.285 277.875 255.11 281.082 252.95L295.326 243.328C295.517 243.202 295.724 243.107 296.071 243.107V243.114Z" fill="white"/>
<path d="M240.606 356.457C240.652 356.538 240.717 356.618 240.782 356.679C240.51 356.82 240.258 356.981 240.002 357.138C240.208 356.916 240.399 356.679 240.606 356.453V356.457Z" fill="white"/>
<path d="M240.008 357.141L239.959 357.19C239.959 357.19 239.926 357.206 239.91 357.206L239.943 357.174C239.943 357.174 239.992 357.141 240.012 357.141H240.008Z" fill="white"/>
<path d="M239.91 357.203C239.673 357.49 239.482 357.822 239.195 358.029C236.29 360.299 233.335 362.52 230.46 364.856C229.363 365.747 228.461 365.842 227.237 365.143C224.141 363.331 220.998 361.618 217.868 359.887C216.694 359.237 215.501 358.602 214.278 358.013C213.563 357.681 212.787 357.727 212.072 358.059C210.899 358.613 209.736 359.233 208.563 359.821C208.024 360.074 207.466 360.299 206.927 360.536C206.498 360.728 206.055 360.903 205.623 361.125C202.955 362.601 200.271 364.095 197.587 365.54C197.35 365.682 196.953 365.701 196.681 365.605C196.204 365.445 195.714 365.208 195.332 364.906C192.583 362.731 189.854 360.54 187.124 358.35C186.696 358.002 186.314 357.604 186.012 357.096C187.075 357.685 188.156 358.239 189.219 358.858C191.284 360.032 193.348 361.24 195.397 362.448C196.223 362.941 197.018 362.972 197.874 362.494C199.35 361.653 200.875 360.842 202.366 360.032C205.669 358.269 208.957 356.507 212.244 354.729C212.737 354.458 213.15 354.397 213.689 354.699C215.914 355.922 218.15 357.13 220.406 358.319C222.757 359.558 225.139 360.75 227.505 361.97C227.646 362.035 227.807 362.096 227.933 362.192C229.045 363.209 230.043 362.765 231.14 362.065C233.044 360.857 235.047 359.779 237.001 358.652C237.479 358.38 237.953 358.063 238.446 357.826C238.924 357.589 239.413 357.413 239.906 357.207L239.91 357.203Z" fill="white"/>
<path d="M227.983 375.48L229.795 378.657C229.065 379.085 228.335 379.498 227.589 379.91C226.048 380.751 224.558 381.673 223.002 382.483C220.016 384.07 216.985 385.58 213.999 387.151C213.219 387.579 212.6 387.403 211.87 387.055C205.803 384.211 200.057 380.797 194.323 377.368C189.51 374.493 184.827 371.412 180.205 368.22C166.485 358.774 153.908 347.974 142.176 336.162C138.475 332.431 134.966 328.524 131.774 324.33C128.899 320.519 126.104 316.646 123.677 312.518C121.184 308.263 118.596 304.054 116.119 299.799C114.785 297.528 113.596 295.193 112.338 292.891L116.513 290.701C117.102 291.718 117.686 292.735 118.29 293.732C119.766 296.194 121.452 298.526 123.084 300.862C125.29 303.974 127.515 307.085 129.786 310.136C131.215 312.059 132.787 313.867 134.278 315.71C136.835 318.871 139.408 322.014 141.961 325.156C150.662 335.841 160.128 345.784 170.606 354.722C174.306 357.864 178.118 360.865 181.929 363.885C184.311 365.758 186.723 367.57 189.2 369.317C191.995 371.271 194.854 373.144 197.729 375.002C199.335 376.049 201.001 376.986 202.618 377.988C205 379.463 207.638 380.4 210.161 381.562C210.811 381.864 211.445 382.196 212.049 382.563C212.542 382.865 212.955 382.896 213.494 382.659C217.78 380.736 222.134 378.974 226.198 376.562C226.786 376.214 227.39 375.847 227.975 375.484L227.983 375.48Z" fill="white"/>
<path d="M202.29 289.768C202.4 289.848 202.465 289.99 202.702 290.307C202.179 290.116 201.877 290.02 201.605 289.894C198.841 288.59 196.081 287.241 193.283 286.002C191.551 285.242 189.709 284.668 187.946 283.938C185.152 282.81 182.342 281.698 179.609 280.413C178.068 279.683 176.688 278.636 175.274 277.684C173.894 276.747 172.559 275.73 171.21 274.763C166.955 271.732 162.666 268.777 158.476 265.68C155.632 263.57 152.933 261.28 150.154 259.09C147.742 257.186 145.326 255.309 142.913 253.405C141.025 251.895 139.152 250.355 137.244 248.848C135.638 247.594 134.021 246.386 132.416 245.133C131.655 244.544 130.925 243.894 130.13 243.229C130.306 243.164 130.401 243.087 130.447 243.118C153.98 259.3 177.686 275.211 202.282 289.772L202.29 289.768Z" fill="white"/>
<path d="M188.462 49.8698C188.478 49.9157 188.493 49.9807 188.508 50.0303C186.872 50.8255 185.27 51.6359 183.634 52.3967C180.79 53.7308 177.934 55.0344 175.09 56.3495C172.406 57.5728 169.723 58.7808 167.054 60.0003C164.768 61.0477 162.498 62.0799 160.242 63.1427C157.241 64.5227 154.256 65.9066 151.27 67.3172C148.873 68.4602 146.476 69.6338 144.075 70.796C142.902 71.3694 141.663 71.8281 140.535 72.4933C137.485 74.3206 134.105 75.4139 130.959 77.0654C128.673 78.2581 126.292 79.2712 123.99 80.4333C120.003 82.4327 116.05 84.4817 112.082 86.5307C108.825 88.1975 105.541 89.8031 102.334 91.5654C97.888 94.012 93.507 96.5657 89.0916 99.0773C87.6466 99.903 86.1863 100.744 84.7413 101.554C84.0111 101.967 83.755 102.522 83.82 103.412C83.9308 105.588 83.8505 107.778 83.8849 109.953C83.9002 110.955 84.0264 111.937 84.0608 112.939C84.1717 117.305 84.2366 121.689 84.3781 126.055C84.5042 129.645 84.791 133.2 84.8865 136.774C84.9668 139.599 84.8865 142.443 84.8559 145.269C84.8559 145.334 84.791 145.395 84.6648 145.601C84.5692 143.934 84.4737 142.409 84.3934 140.868C84.2022 137.455 84.0264 134.041 83.8544 130.627C83.7282 128.165 83.6326 125.703 83.4262 123.26C83.0286 118.543 82.8872 113.83 82.6311 109.112C82.4896 106.364 82.2641 103.634 82.0423 100.885C81.9965 100.201 82.4399 99.8686 82.8987 99.5819C84.9477 98.3586 86.9776 97.0894 89.0611 95.9464C93.4917 93.515 97.953 91.1334 102.414 88.7862C104.383 87.754 106.432 86.848 108.431 85.8809C109.892 85.166 111.337 84.4205 112.782 83.6751C114.705 82.7232 116.608 81.7369 118.547 80.785C121.406 79.405 124.262 78.0211 127.136 76.6564C131.33 74.6379 135.52 72.608 139.729 70.6392C143.938 68.6552 148.162 66.717 152.402 64.7941C156.309 63.0318 160.231 61.2542 164.184 59.5683C169.581 57.267 175.014 55.0268 180.461 52.8057C182.701 51.8997 185.003 51.0893 187.273 50.2482C187.671 50.1068 188.069 49.9959 188.466 49.866L188.462 49.8698Z" fill="white"/>
<path d="M125.248 125.436C125.535 125.642 125.772 125.879 125.978 126.196C120.978 123.482 116.119 120.497 110.641 118.256C110.561 119.43 110.45 120.401 110.45 121.383C110.419 131.151 110.435 140.899 110.419 150.663C110.404 155.758 110.373 160.858 110.354 165.954C110.339 172.212 110.339 178.451 110.324 184.709C110.278 195.539 110.228 206.369 110.163 217.195C110.163 217.543 110.133 217.879 110.098 218.353C108.925 217.703 108.145 217.05 108.194 215.67C108.275 212.478 108.259 209.301 108.275 206.109C108.275 203.838 108.244 201.567 108.21 199.312C108.164 196.961 108.145 194.614 108.018 192.278C107.525 184.131 107.973 175.97 107.651 167.823C107.399 161.248 107.414 154.677 107.399 148.117C107.353 137.478 107.304 126.839 107.239 116.215C107.239 115.58 107.174 114.931 107.193 114.311C107.208 114.009 107.288 113.612 107.495 113.486C107.655 113.375 108.083 113.516 108.305 113.677C109.926 114.739 111.543 115.837 113.149 116.949C117.182 119.759 121.215 122.603 125.248 125.428V125.436Z" fill="white"/>
<path d="M116.513 290.704L112.338 292.895C110.782 290.02 109.146 287.195 107.686 284.29C107.56 284.037 107.434 283.766 107.304 283.51L111.383 281.476C113.034 284.588 114.75 287.669 116.513 290.701V290.704Z" fill="white"/>
<path d="M111.386 281.476L107.307 283.51C105.021 278.922 102.72 274.331 100.621 269.664C96.6991 260.898 93.8893 251.719 91.5536 242.399C89.8715 235.713 88.3615 228.996 87.1726 222.219C85.999 215.678 84.856 209.133 83.7091 202.592C83.6135 202.068 83.6288 201.529 83.5829 200.987C83.6938 200.956 83.7894 200.922 83.885 200.891C84.8063 202.034 85.697 203.192 86.6336 204.305C88.0939 206.036 89.5542 207.749 91.0642 209.45C91.588 210.039 91.9053 210.689 92.0161 211.45C92.3487 213.942 92.6507 216.435 93.0483 218.896C93.8587 223.977 94.6845 229.042 95.5408 234.092C96.9208 242.239 99.1457 250.179 101.799 257.973C103.515 262.974 105.434 267.913 107.403 272.821C108.577 275.776 109.911 278.666 111.39 281.476H111.386Z" fill="white"/>
<path d="M194.953 93.6181C195.657 99.727 196.184 105.855 196.754 111.979C196.903 113.566 196.926 115.167 197.002 116.762C197.117 119.132 197.201 121.506 197.358 123.876C197.396 124.51 197.591 125.153 197.832 125.745C198.253 126.8 198.929 127.748 199.029 128.933C199.052 129.232 199.292 129.515 199.445 129.797C199.602 130.076 199.82 130.325 199.931 130.619C200.271 131.495 200.531 132.408 200.902 133.272C202.71 137.477 204.476 141.709 206.399 145.865C207.875 149.053 209.553 152.146 211.166 155.269C211.854 156.603 212.596 157.907 213.357 159.306C213.582 159.107 213.815 158.992 213.918 158.801C214.867 157.085 215.838 155.376 216.713 153.621C218.521 149.993 220.337 146.369 222.031 142.688C223.625 139.228 225.074 135.7 226.568 132.198C227.272 130.543 227.987 128.888 228.606 127.198C229.038 126.017 229.535 124.797 229.63 123.562C229.925 119.762 230.016 115.943 230.227 112.136C230.383 109.353 230.498 106.558 230.804 103.791C231.614 96.4929 232.234 89.176 233.407 81.9241C233.82 79.3704 234.153 76.8168 235.128 74.3931C235.464 73.5597 235.67 72.6728 235.869 71.7936C236.072 70.9182 235.934 70.6162 235.154 70.1689C234.233 69.6413 233.289 69.1482 232.345 68.6627C230.303 67.6152 228.243 66.606 226.213 65.5318C223.212 63.9453 220.234 62.313 217.241 60.7036C216.025 60.0499 214.798 59.4153 213.727 58.8495C206.021 63.0011 198.447 67.08 190.886 71.1514C191.65 74.6263 192.488 77.9598 193.096 81.3354C193.826 85.4105 194.479 89.5048 194.953 93.6181Z" fill="white"/>
<path d="M275.065 132.99C274.87 137.244 274.77 141.507 274.652 145.769C274.637 146.35 274.449 146.985 274.931 147.597C275.447 146.939 275.929 146.324 276.449 145.659C277.064 146.171 277.309 146.664 277.255 147.268C277.064 149.466 276.93 151.672 276.628 153.851C276.361 155.785 275.91 157.697 275.512 159.612C274.973 162.211 274.396 164.807 273.86 167.407C273.761 167.896 273.406 168.416 274.071 169.104C274.614 168.634 275.156 168.217 275.63 167.735C276.437 166.921 277.248 166.103 277.97 165.212C278.872 164.108 279.943 163.037 280.478 161.756C281.418 159.505 282.083 157.127 282.722 154.765C283.276 152.723 283.624 150.628 284.087 148.56C284.415 147.084 284.763 145.613 285.13 144.145C285.245 143.697 285.455 143.277 285.685 142.684C285.906 143.005 286.032 143.124 286.071 143.265C286.445 144.649 286.801 146.033 287.172 147.417C287.325 147.979 287.382 148.621 288.238 148.828C288.265 148.476 288.315 148.208 288.303 147.941C288.204 144.745 288.15 141.545 287.974 138.353C287.657 132.665 287.256 126.98 286.908 121.296C286.694 117.775 286.522 114.254 286.315 110.733C286.292 110.362 286.162 109.999 286.025 109.345C285.562 109.884 285.291 110.167 285.058 110.477C283.586 112.446 282.114 114.415 280.657 116.395C279.224 118.337 277.779 120.275 276.407 122.259C276.047 122.775 275.776 123.44 275.718 124.06C275.447 127.03 275.202 130.008 275.065 132.99Z" fill="white"/>
<path d="M138.743 148.755C139.381 148.189 139.385 148.193 139.538 147.49C139.878 145.926 140.448 144.447 141.273 142.791C141.518 143.25 141.698 143.483 141.763 143.739C141.889 144.252 141.912 144.783 142.038 145.291C142.527 147.279 143.066 149.256 143.536 151.247C144.205 154.111 144.836 156.985 145.471 159.86C145.849 161.6 146.721 163.045 147.967 164.291C149.095 165.415 150.192 166.565 151.312 167.693C151.756 168.14 152.226 168.557 152.857 169.154C152.857 168.381 152.952 167.854 152.841 167.368C152.084 164.058 151.278 160.762 150.505 157.456C149.741 154.191 149.236 150.877 148.942 147.535C148.877 146.779 148.823 145.968 149.569 145.414C150.911 145.85 151.048 147.398 152.126 148.22C152.126 145.96 152.184 143.843 152.119 141.729C151.939 136.075 151.717 130.421 151.476 124.77C151.454 124.231 151.266 123.631 150.972 123.18C150.165 121.949 149.278 120.772 148.388 119.594C146.094 116.559 143.781 113.535 141.472 110.507C141.308 110.293 141.109 110.102 140.711 109.659C140.658 110.313 140.612 110.691 140.597 111.069C140.459 114.304 140.383 117.538 140.18 120.768C139.805 126.743 139.339 132.71 138.945 138.686C138.75 141.671 138.616 144.664 138.475 147.654C138.456 148.025 138.272 148.483 138.743 148.755Z" fill="white"/>
<path d="M187.147 251.272C186.322 248.359 185.561 245.427 184.735 242.514C183.581 238.42 182.319 234.348 181.233 230.231C180.174 226.232 179.131 222.222 178.684 218.09C178.569 217.031 178.095 216.19 177.174 215.548C176.271 214.921 175.476 214.133 174.639 213.415C172.028 211.178 169.425 208.93 166.806 206.705C166.301 206.277 165.739 205.922 164.956 205.348C165.047 206.021 165.07 206.377 165.151 206.717C166.221 211.174 166.925 215.693 167.666 220.212C168.343 224.336 169.146 228.442 169.937 232.544C170.075 233.255 170.315 234.008 170.717 234.593C171.806 236.179 173.003 237.693 174.176 239.222C174.417 239.532 174.735 239.784 175.22 240.262C175.507 239.628 175.767 239.249 175.851 238.833C175.981 238.194 175.977 237.529 176.046 236.875C176.287 234.593 176.527 232.311 176.787 230.029C176.814 229.792 176.975 229.57 177.166 229.126C177.414 229.627 177.602 229.895 177.69 230.189C178.202 231.913 178.691 233.645 179.192 235.377C180.522 239.949 181.581 244.582 182.143 249.315C182.243 250.171 182.472 250.909 183.019 251.54C184.769 253.547 186.532 255.538 188.298 257.526C188.459 257.706 188.707 257.809 189.139 258.1C189.032 257.629 189.001 257.442 188.944 257.262C188.344 255.263 187.717 253.279 187.147 251.272Z" fill="white"/>
<path d="M269.212 148.483C269.277 148.82 269.422 149.137 269.533 149.462C269.656 149.458 269.782 149.454 269.904 149.451C269.981 149.198 270.095 148.95 270.126 148.694C270.29 147.436 270.401 146.171 270.588 144.917C270.906 142.78 271.319 140.654 271.598 138.51C271.846 136.606 271.938 134.679 272.156 132.772C272.691 128.047 273.257 123.322 273.815 118.6C274.159 115.676 274.472 112.744 274.866 109.827C275.16 107.633 275.635 105.461 275.887 103.263C276.036 101.933 276.089 100.545 275.879 99.2302C275.554 97.2194 274.958 95.2506 274.491 93.2627C273.677 89.7954 272.874 86.3281 272.056 82.8608C272.003 82.6353 271.892 82.4212 271.754 82.0771C271.563 82.3753 271.376 82.5474 271.326 82.7538C270.974 84.1874 270.581 85.6171 270.34 87.0659C269.468 92.2879 268.868 97.5443 268.574 102.831C268.256 108.52 267.824 114.208 267.737 119.904C267.66 124.816 267.939 129.74 268.165 134.656C268.371 139.274 268.318 143.919 269.212 148.483Z" fill="white"/>
<path d="M284.775 162.296C283.089 164.13 281.411 165.973 279.732 167.812C278.521 169.146 277.297 170.469 276.108 171.822C275.474 172.537 275.065 173.355 274.973 174.349C274.434 180.144 273.849 185.936 273.31 191.731C272.966 195.482 272.645 199.232 272.366 202.99C272.14 206.01 271.987 209.037 271.812 212.061C271.796 212.363 271.85 212.669 271.869 212.971C271.942 212.994 272.01 213.013 272.083 213.036C272.224 212.776 272.408 212.531 272.5 212.256C272.679 211.713 272.809 211.155 272.966 210.601C274.583 205.016 276.269 199.446 277.794 193.834C279.377 188.019 280.841 182.178 282.29 176.333C283.402 171.837 284.408 167.319 285.459 162.812C285.532 162.51 285.734 162.169 285.245 161.951C285.096 162.059 284.909 162.15 284.775 162.296Z" fill="white"/>
<path d="M151.132 172.216C150.513 171.508 149.97 170.732 149.336 170.044C146.748 167.254 144.14 164.482 141.533 161.711C141.468 161.642 141.312 161.657 141.052 161.604C141.101 162.016 141.105 162.368 141.189 162.701C141.889 165.564 142.577 168.431 143.326 171.279C145.333 178.921 147.355 186.563 149.408 194.193C150.318 197.584 151.324 200.956 152.279 204.339C152.99 206.854 153.682 209.377 154.409 211.893C154.527 212.31 154.596 212.837 155.28 213.002C155.257 212.539 155.246 212.176 155.215 211.816C154.913 208.345 154.6 204.878 154.298 201.407C153.969 197.653 153.652 193.895 153.327 190.141C152.879 184.999 152.417 179.858 151.989 174.712C151.912 173.795 151.763 172.938 151.132 172.216Z" fill="white"/>
<path d="M254.842 165.988C255.828 163.886 256.727 161.734 257.652 159.6C257.583 159.528 257.514 159.459 257.449 159.386C247.296 165.812 237.146 172.235 226.997 178.661C227.31 178.772 227.532 178.699 227.742 178.604C229.386 177.862 231.026 177.117 232.67 176.375C239.681 173.194 246.7 170.018 253.707 166.822C254.131 166.627 254.662 166.363 254.842 165.988Z" fill="white"/>
<path d="M198.593 178.753C198.623 178.692 198.658 178.634 198.692 178.573C188.676 171.967 178.661 165.362 168.641 158.752C168.584 158.817 168.522 158.878 168.461 158.939C169.291 160.893 170.147 162.835 170.935 164.807C171.229 165.553 171.695 165.985 172.41 166.321C180.786 170.285 189.147 174.28 197.515 178.267C197.87 178.436 198.234 178.589 198.593 178.753Z" fill="white"/>
<path d="M172.735 167.972C172.689 168.267 172.624 168.424 172.651 168.561C173.045 170.434 173.354 172.338 173.886 174.173C174.356 175.817 175.079 177.384 175.679 178.99C176.168 180.293 177.017 181.226 178.37 181.628C179.509 181.964 180.645 182.327 181.803 182.557C185.335 183.256 188.871 183.921 192.415 184.537C193.658 184.751 194.931 184.785 196.192 184.885C196.322 184.892 196.464 184.781 196.796 184.644C195.596 183.734 194.59 182.813 193.447 182.132C189.969 180.056 186.429 178.084 182.923 176.046C179.196 173.883 175.786 171.31 172.735 167.972Z" fill="white"/>
<path d="M251.015 170.457C248.626 172.655 246.084 174.651 243.244 176.23C240.881 177.545 238.465 178.753 236.102 180.068C234.6 180.905 233.147 181.83 231.695 182.755C230.923 183.249 230.2 183.818 229.455 184.357C229.485 184.472 229.516 184.59 229.546 184.709C229.974 184.743 230.41 184.846 230.831 184.793C232.211 184.625 233.595 184.441 234.963 184.193C238.148 183.619 241.321 183.004 244.501 182.411C245.545 182.216 246.608 182.09 247.644 181.842C249.112 181.486 250.136 180.603 250.847 179.215C252.483 176.016 253.061 172.545 253.672 169.073C253.699 168.936 253.6 168.779 253.538 168.546C253.267 168.649 253.015 168.684 252.846 168.825C252.22 169.349 251.619 169.903 251.015 170.457Z" fill="white"/>
<path d="M161.087 97.8424C161.676 100.901 162.272 103.959 162.784 107.029C163.17 109.33 163.423 111.65 163.74 113.959C163.824 114.575 163.92 115.187 164.015 115.802V115.821L164.463 119.304C164.707 122.412 164.864 125.527 164.998 128.639C165.028 129.442 165.327 129.885 166.007 130.287C168.519 131.755 171.042 133.219 173.465 134.824C176.914 137.111 180.274 139.519 183.672 141.874C184.177 142.225 184.682 142.577 185.416 142.363V140.918C185.848 141.274 186.169 141.446 186.36 141.709C186.819 142.34 187.258 142.986 187.629 143.67C188.359 145.016 189.089 146.362 189.812 147.711C190.206 148.438 190.595 149.164 190.985 149.89C191.907 151.599 192.82 153.304 193.734 155.013H193.738C193.933 155.384 194.132 155.751 194.33 156.121C194.411 156.274 194.414 156.473 194.457 156.653C193.841 156.427 193.409 156.076 192.985 155.712C190.897 153.923 188.864 152.073 186.723 150.36C184.452 148.548 182.12 146.805 179.742 145.135C175.958 142.478 172.032 140.02 168.45 137.08C167.8 136.545 167.632 136.571 167.012 137.198L167.777 146.522L202.76 168.362L204.033 181.172L213.594 193.585L223.155 181.172L224.428 168.362L258.669 145.154L259.078 136.507C250.488 142.768 241.764 148.56 233.897 155.624C233.308 155.25 233.499 154.898 233.759 154.466C234.554 153.128 235.338 151.779 236.068 150.406C237.028 148.598 237.915 146.756 238.863 144.94C239.348 144.015 240.029 143.265 241 142.795C241.584 142.512 242.165 142.199 242.712 141.843C246.034 139.676 249.192 137.267 252.613 135.249C255.194 133.727 257.636 131.98 260.217 130.463C261.421 129.755 261.96 128.826 262.063 127.504C262.35 123.826 262.576 120.145 262.988 116.483C263.482 112.125 264.063 107.778 264.747 103.447C265.458 98.9625 266.31 94.5013 267.53 90.1165C267.767 89.2602 267.614 88.8588 266.865 88.3427C266.322 87.9719 265.752 87.6431 265.187 87.3144C259.823 84.2217 254.46 81.129 249.1 78.0364C246.936 76.7901 244.784 75.5286 242.613 74.2976C241.867 73.8733 241.08 73.5216 240.311 73.147C239.799 72.8947 239.436 73.0476 239.237 73.5713C239.149 73.8007 239.077 74.0377 239.023 74.2747C238.392 76.9392 237.483 79.5158 237.073 82.2491C236.378 86.8671 235.43 91.443 234.581 96.0342C233.767 100.43 233.235 104.861 232.907 109.315C232.543 114.265 232.253 119.22 231.932 124.17C231.916 124.415 231.939 124.675 231.863 124.9C231.442 126.185 230.999 127.462 230.563 128.739C228.273 135.448 225.991 142.16 223.69 148.866C223.449 149.554 223.128 150.227 222.768 150.861L213.536 166.887L204.316 150.861L204.339 150.915C203.681 149.646 203.1 148.334 202.691 146.92C201.64 143.265 200.24 139.71 198.99 136.113C197.966 133.173 196.98 130.218 195.894 127.301C195.382 125.929 195.183 124.533 195.106 123.104C194.969 120.523 194.923 117.939 194.69 115.37C194.307 111.176 194.009 106.971 193.333 102.804C192.526 97.8692 191.884 92.9071 190.997 87.9872C190.248 83.8356 189.265 79.7222 188.355 75.5974C188.183 74.8252 187.847 74.0874 187.549 73.2158C186.864 73.5178 186.325 73.7051 185.836 73.9803C180.71 76.9086 175.587 79.8522 170.461 82.7843C169.467 83.3539 168.442 83.8662 167.441 84.4281C165.158 85.7164 162.891 87.0276 160.605 88.3045C159.543 88.897 159.355 89.1417 159.588 90.3688C160.063 92.8651 160.605 95.3461 161.087 97.8424Z" fill="white"/>
<path d="M235.636 245.488C235.464 245.595 235.334 245.763 235.174 245.889C234.566 246.371 233.966 246.86 233.335 247.315C232.796 247.705 232.134 247.797 231.588 247.464C230.185 246.616 228.747 245.794 227.471 244.781L220.517 250.469H204.744L198.868 245.289C197.985 245.943 197.075 246.558 196.184 247.2C195.053 248.007 193.979 247.835 192.912 247.032C192.27 246.547 191.57 246.134 190.668 245.538C190.668 247.407 190.638 248.947 190.672 250.488C190.725 252.82 190.878 255.156 190.882 257.491C190.882 258.608 191.219 259.449 192.033 260.198C193.268 261.333 194.437 262.541 195.63 263.723C198.432 266.487 201.223 269.262 204.029 272.022C204.507 272.496 205.076 272.748 205.787 272.745C210.627 272.714 215.463 272.703 220.303 272.71C221.048 272.71 221.656 272.504 222.191 271.988C223.453 270.764 224.726 269.553 226.006 268.345C229.141 265.393 232.276 262.446 235.414 259.506C235.999 258.956 236.206 258.325 236.145 257.522C236.057 256.337 236.03 255.144 236.064 253.959C236.114 252.281 236.24 250.603 236.336 248.925C236.389 247.942 236.458 246.96 236.492 245.977C236.515 245.362 236.156 245.163 235.636 245.488ZM227.914 265.615L221.136 270.699H205.512L198.734 265.615L195.722 257.144L202.874 263.734L214.362 265.428L223.774 263.734L230.926 257.144L227.914 265.615Z" fill="white"/>
<path d="M218.533 237.995C215.211 238.026 211.893 238.018 208.571 238.014C207.71 238.014 206.996 238.293 206.346 238.878C204.301 240.713 202.255 242.548 200.141 244.303C199.751 244.628 199.346 244.937 198.937 245.239L204.744 247.709H220.517L227.406 244.735C227.364 244.7 227.322 244.67 227.28 244.639C225.066 242.823 222.987 240.843 220.861 238.92C220.192 238.32 219.462 237.987 218.533 237.995Z" fill="white"/>
<path d="M269.965 151.798C268.941 149.929 267.928 148.052 267.033 146.121C266.07 144.042 264.823 142.195 263.218 140.586L263.638 146.301L269.17 153.423H269.174L270.072 154.229L269.346 154.956L269.392 154.742L264.911 159.417L264.869 159.459L261.463 162.881L261.635 170.633V170.649L261.677 173.217L255.052 179.296L254.972 179.368L254.444 179.839H254.441L238.843 186.177L238.775 186.204L232.379 188.776L213.594 207.088L194.812 188.769L172.873 179.953L165.491 173.416L165.724 162.881L157.115 154.233L163.537 146.523L163.939 140.341C163.369 140.937 162.8 141.538 162.234 142.138C160.819 143.644 159.841 145.437 158.816 147.207C158.675 147.448 158.449 147.639 158.262 147.857C158.174 147.815 158.086 147.777 158.002 147.738C158.044 147.1 158.04 146.458 158.132 145.827C158.533 143.124 158.721 140.406 158.793 137.677C158.824 136.572 158.774 135.463 158.812 134.355C158.931 130.918 159.118 127.481 159.195 124.041C159.256 121.135 159.214 118.226 159.195 115.321C159.183 114.139 159.13 112.962 159.061 111.781C158.977 110.313 158.855 108.841 158.767 107.373C158.732 106.761 158.774 106.146 158.728 105.538C158.595 103.825 158.449 102.117 158.273 100.408C158.078 98.5422 157.841 96.6767 157.627 94.8111C157.429 93.0603 157.329 91.2941 157.012 89.5662C156.599 87.3107 156.022 85.0897 155.49 82.861C155.437 82.6278 155.223 82.4328 154.959 82.0276C154.795 82.559 154.676 82.8533 154.615 83.163C154.42 84.1149 154.302 85.0859 154.057 86.0263C152.834 90.7398 151.74 95.4878 150.265 100.136C150.203 100.327 150.146 100.542 150.177 100.733C150.44 102.461 150.731 104.185 150.999 105.909C151.423 108.642 151.843 111.375 152.249 114.113C152.662 116.892 153.063 119.671 153.449 122.454C154.038 126.709 154.611 130.964 155.192 135.215C155.437 136.996 155.697 138.774 155.93 140.559C156.266 143.116 156.416 145.72 156.974 148.228C157.295 149.673 156.997 150.766 156.316 151.92C156.01 152.437 155.773 152.995 155.487 153.564C156.259 154.038 156.347 154.688 156.381 155.426C156.534 158.576 156.752 161.726 156.92 164.88C157.085 167.866 157.199 170.855 157.383 173.841C157.421 174.429 157.585 175.064 157.872 175.58C159.084 177.767 160.28 179.961 161.538 182.125C161.764 182.515 161.993 182.905 162.222 183.294C162.452 183.684 162.681 184.071 162.918 184.457C165.957 189.461 168.106 194.859 170.189 200.298C170.289 200.562 170.552 200.765 170.893 201.189C171.424 199.847 171.875 198.727 172.311 197.603C172.762 196.441 172.98 195.187 173.752 194.105C174.02 194.522 174.161 194.931 174.287 195.348C175.063 197.982 175.828 200.62 176.623 203.25C176.753 203.674 176.933 204.121 177.219 204.446C178.133 205.49 179.089 206.495 180.06 207.489C181.149 208.598 182.296 209.657 183.37 210.781C184.238 211.69 185.068 212.585 185.481 213.877C186.494 217.046 187.235 220.261 187.747 223.545C188.329 227.269 188.994 230.981 189.609 234.7C189.881 236.359 190.137 238.018 190.37 239.685C190.515 240.744 190.913 241.642 191.784 242.308C192.308 242.701 192.801 243.137 193.31 243.55C193.757 243.913 194.204 243.925 194.64 243.542C194.889 243.328 195.129 243.103 195.366 242.877C196.658 241.677 197.916 240.446 199.243 239.284C199.797 238.798 200.359 238.317 200.925 237.839C201.292 237.525 201.663 237.219 202.037 236.917C202.064 236.894 202.091 236.872 202.118 236.849C202.664 236.401 203.215 235.958 203.773 235.526C204.434 235.01 205.191 234.524 205.986 234.299C206.835 234.058 207.775 234.096 208.674 234.089C212.324 234.062 215.979 234.062 219.63 234.05C220.945 234.046 222.138 234.383 223.135 235.289C223.835 235.92 224.55 236.531 225.261 237.151C227.249 238.886 229.248 240.629 231.236 242.361C231.301 242.415 231.358 242.468 231.416 242.518C231.473 242.568 231.53 242.621 231.584 242.667C231.76 242.82 231.905 242.95 232.016 243.045C232.914 243.829 233.476 243.783 234.371 242.973C235.713 241.757 236.095 240.155 236.351 238.462C236.806 235.503 237.307 232.552 237.807 229.604C238.136 227.666 238.545 225.739 238.832 223.797C239.314 220.552 239.807 217.314 240.785 214.175C240.95 213.648 241.24 213.113 241.611 212.711C244.012 210.135 246.416 207.562 248.89 205.054C249.769 204.163 250.446 203.273 250.767 202.007C251.302 199.916 252.07 197.886 252.736 195.83C252.877 195.382 252.992 194.92 253.122 194.469C253.225 194.442 253.328 194.415 253.431 194.392C253.898 195.535 254.28 196.743 254.899 197.791C255.549 198.895 255.408 200.318 256.371 201.342C256.574 201.12 256.723 201.021 256.78 200.883C257.3 199.603 257.82 198.322 258.309 197.03C258.753 195.86 259.15 194.671 259.594 193.501C259.881 192.741 260.16 191.972 260.538 191.261C261.998 188.513 263.497 185.783 264.984 183.046C266.353 180.531 267.736 178.023 269.078 175.496C269.296 175.087 269.418 174.586 269.445 174.12C269.514 172.935 269.464 171.742 269.526 170.557C269.652 168.187 269.812 165.824 269.969 163.458C269.992 163.118 270.007 162.774 270.022 162.433C270.026 162.357 270.03 162.284 270.034 162.208H270.03C270.13 159.891 270.126 157.563 270.619 155.281C270.894 153.989 270.573 152.907 269.965 151.798ZM190.072 214.03C186.685 209.324 179.907 197.275 179.907 197.275L193.65 213.843L195.909 230.411C195.909 230.411 193.463 218.74 190.072 214.03ZM236.577 214.03C233.189 218.736 230.739 230.411 230.739 230.411L232.998 213.843L246.741 197.275C246.741 197.275 239.964 209.324 236.577 214.03Z" fill="white"/>
<path d="M238.044 257.752C238.354 257.733 238.518 257.645 238.633 257.515C238.843 257.282 239.05 257.052 239.256 256.819L239.447 256.674L239.489 256.555C240.892 254.98 242.276 253.386 243.729 251.861C244.524 251.027 244.864 250.118 244.983 249.017C245.457 244.563 246.34 240.186 247.521 235.87C248.049 233.935 248.638 232.013 249.211 230.09C249.268 229.902 249.394 229.742 249.486 229.566H249.819C249.96 230.097 250.178 230.625 250.228 231.164C250.472 233.817 250.664 236.474 250.885 239.131C250.912 239.433 251.031 239.731 251.099 240.018C251.86 240.06 252.151 239.609 252.46 239.169C253.649 237.502 254.876 235.858 256.027 234.165C256.524 233.431 257.055 232.64 257.25 231.799C257.778 229.528 258.175 227.223 258.542 224.917C259.146 221.152 259.636 217.371 260.27 213.609C260.278 213.56 260.286 213.514 260.297 213.464L260.706 211.343C261.016 209.859 261.371 208.38 261.685 206.897C261.761 206.526 261.803 206.025 261.861 205.647C261.773 205.597 261.681 205.7 261.593 205.647C261.18 205.956 260.756 206.212 260.366 206.541C257.755 208.724 255.152 210.911 252.552 213.105C252.361 213.265 252.174 213.43 251.99 213.602L249.544 215.582C249.456 215.651 249.375 215.727 249.295 215.808C249.284 215.811 249.276 215.823 249.268 215.831C248.55 216.446 248.286 217.199 248.141 218.178C248.098 218.457 248.056 218.732 248.014 219.011L247.995 219.133L247.517 221.997L247.51 222.039C247.41 222.597 247.303 223.151 247.185 223.706L238.874 254.636C238.813 254.846 238.748 255.057 238.687 255.267C238.446 256.096 238.205 256.926 237.964 257.756C237.991 257.756 238.014 257.756 238.037 257.752H238.044Z" fill="white"/>
<path d="M194.651 299.088C194.594 299.329 194.548 299.577 194.518 299.826L194.319 301.492C194.292 301.726 194.223 301.951 194.12 302.158L193.81 302.773C193.757 302.88 193.822 303.01 193.944 303.029C194.518 303.125 195.966 303.358 196.643 303.434C196.815 303.454 196.96 303.327 196.968 303.159C196.968 303.159 197.052 301.653 197.052 301.462C197.052 301.08 197.434 301.271 197.912 301.462C198.103 301.844 199.143 302.838 198.868 303.66C198.772 303.947 201.154 304.176 201.991 304.291C202.137 304.31 202.366 304.18 202.312 304.042L201.383 301.966C201.315 301.794 201.387 301.592 201.552 301.504C202.137 301.179 203.41 300.361 203.555 299.26C203.734 297.93 202.981 296.871 201.452 296.679C200.172 296.519 196.548 295.957 195.397 295.777C195.202 295.747 195.022 295.884 194.999 296.079L195.03 297.054C195.037 297.314 195.011 297.57 194.953 297.822L194.651 299.088ZM197.53 298.686C197.721 298.304 197.626 298.209 197.626 298.209L199.824 298.495C199.824 298.495 200.592 298.782 200.592 298.973C200.592 298.973 200.015 299.451 199.25 299.451C198.486 299.451 197.721 299.164 197.721 299.164C197.721 299.164 197.339 299.069 197.53 298.686Z" fill="white"/>
<path d="M208.242 299.26L210.405 299.44C210.906 299.478 211.407 299.566 211.896 299.696L212.867 299.96C212.99 299.99 213.108 299.891 213.093 299.765L212.99 297.823C212.986 297.689 212.879 297.582 212.745 297.574L204.79 297.165C204.637 297.161 204.514 297.28 204.514 297.433V301.366C204.514 301.94 204.323 304.138 204.323 304.138C204.323 304.138 204.228 304.329 204.419 304.425C204.61 304.52 206.426 304.616 206.426 304.616C206.426 304.616 210.921 304.906 211.399 304.906C211.877 304.906 212.068 304.811 212.068 304.811C212.068 304.811 212.646 303.182 212.741 302.991C212.837 302.8 213.081 301.886 212.837 302.035C212.596 302.177 211.64 302.659 210.684 302.559C210.52 302.544 208.708 302.418 208.161 302.379C208.073 302.376 208.005 302.303 208.005 302.211C208.005 301.99 208.184 301.81 208.406 301.81H208.421L210.088 301.867C210.306 301.883 210.486 301.707 210.482 301.489L210.57 300.311C210.577 300.181 210.482 300.067 210.352 300.063L208.513 299.967C208.188 299.952 208.012 299.585 208.2 299.321L208.242 299.26Z" fill="white"/>
<path d="M222.402 301.367C222.306 301.175 221.733 300.12 221.446 299.547C221.216 299.092 220.685 297.785 220.479 297.272C220.425 297.146 220.299 297.066 220.165 297.077L216.43 297.326C216.289 297.337 216.174 297.452 216.163 297.597L216.086 298.591C216.086 298.591 215.226 300.889 215.226 301.271C215.226 301.653 214.557 303.278 214.557 303.374C214.557 303.442 214.16 304.26 213.938 304.708C213.873 304.838 213.976 304.983 214.117 304.968L216.759 304.715C216.759 304.715 217.141 304.616 217.141 304.329C217.141 304.043 217.237 303.469 217.524 303.374C217.81 303.278 219.531 302.991 219.817 303.087C220.104 303.182 220.391 303.182 220.486 303.469C220.586 303.756 220.391 304.329 220.681 304.329C220.972 304.329 221.924 304.425 222.306 304.329C222.688 304.234 223.889 304.322 223.931 304.234C224.026 304.043 223.453 303.087 223.262 302.896C223.071 302.705 222.497 301.558 222.402 301.367ZM218.934 301.581C218.135 301.741 217.975 301.741 217.657 301.42C217.424 301.187 218.105 299.914 218.456 299.344C218.552 299.188 218.636 299.161 218.709 299.325C218.953 299.864 219.462 301.038 219.573 301.26C219.733 301.581 219.733 301.42 218.934 301.581Z" fill="white"/>
<path d="M224.84 300.074C224.936 300.361 225.414 302.272 225.414 302.368C225.414 302.464 225.509 303.614 225.605 303.805C225.7 303.996 226.178 303.71 226.465 303.614C226.756 303.519 228.763 303.232 228.858 303.136C228.954 303.041 231.729 302.559 231.825 302.464C231.92 302.368 232.111 301.795 232.207 301.603C232.302 301.412 232.302 300.265 232.111 299.883C231.92 299.501 231.729 299.692 231.729 299.692C231.729 299.692 231.06 299.979 230.005 300.361C228.954 300.743 228.38 300.743 228.189 300.648C227.998 300.552 227.807 299.883 227.807 299.596C227.807 299.31 227.425 298.446 227.425 298.446L227.184 296.282C227.157 296.106 226.993 295.988 226.817 296.026L226.66 296.056C226.66 296.056 226.083 296.152 225.796 296.248C225.509 296.343 224.458 296.534 224.076 296.63C223.693 296.725 223.693 296.63 223.693 296.917C223.693 297.203 224.267 297.872 224.171 298.063C224.076 298.255 224.745 299.788 224.84 300.074Z" fill="white"/>
<path d="M227.635 311.527C225.597 311.676 223.548 311.795 221.496 311.894C219.412 311.994 217.31 312.043 215.226 312.078C213.177 312.108 211.124 312.108 209.075 312.043C206.988 311.978 204.904 311.844 202.821 311.661C200.787 311.477 198.754 311.26 196.716 310.942C194.682 310.625 192.668 310.193 190.599 309.792C190.783 312.009 191.131 314.027 191.081 316.046C191.031 318.045 190.599 320.048 190.317 322.147H201.372C202.588 322.147 203.788 322.197 205.004 322.181C205.658 322.181 206.025 322.399 206.105 323.084C206.273 324.448 206.522 325.802 206.655 327.166C207.305 333.436 207.171 339.69 206.338 345.925C206.124 347.561 205.623 349.163 205.291 350.795C205.222 351.147 205.356 351.529 205.39 351.831H213.976C215.36 351.831 216.744 351.896 218.112 351.862C219.512 351.831 220.93 352.015 222.363 351.728C220.463 341.926 221.362 332.151 221.396 322.296C221.962 322.265 222.413 322.197 222.864 322.197C226.167 322.181 229.466 322.181 232.769 322.147C233.22 322.147 233.652 322.097 234.138 322.067C234.004 318.332 233.87 314.746 233.736 310.98C231.748 311.16 229.692 311.359 227.635 311.527Z" fill="white"/>
<path d="M233.736 310.927V310.984C233.736 310.984 233.761 310.98 233.773 310.98L233.736 310.927Z" fill="white"/>
<path d="M182.445 305.274C181.593 304.757 180.66 304.356 179.762 303.924C178.825 303.473 177.877 303.037 176.925 302.59C176.023 302.154 175.14 301.672 174.207 301.321C173.29 300.988 172.54 300.155 171.374 300.086C171.94 301.321 172.441 302.357 172.907 303.423C173.324 304.39 173.309 305.342 172.873 306.325C171.921 308.458 171.088 310.645 170.12 312.778C169.023 315.213 167.853 317.595 166.718 320.014C166.569 320.347 166.405 320.664 166.187 321.131C169.421 322.148 172.556 323.134 175.843 324.166V324.185C176.023 323.734 176.206 323.348 176.359 322.966C177.774 319.399 179.177 315.813 180.61 312.262C181.027 311.226 181.509 310.194 182.094 309.226C182.778 308.11 183.814 307.323 185.163 306.86C184.429 305.874 183.294 305.79 182.445 305.274Z" fill="white"/>
<path d="M274.741 314.347L274.757 314.31C274.757 314.31 274.733 314.323 274.721 314.331C274.729 314.335 274.733 314.343 274.741 314.347Z" fill="white"/>
<path d="M137.657 274.709V282.344C137.657 283.731 137.741 283.831 139.041 284.163C141.908 284.913 144.01 286.797 145.995 288.865C146.442 289.332 146.361 289.699 145.926 290.15C144.909 291.251 143.926 292.382 142.944 293.518C140.474 296.354 138.005 299.187 135.554 302.039C135.421 302.188 135.371 302.391 135.271 302.574C138.054 304.707 140.792 306.791 143.491 308.84C143.659 308.759 143.743 308.725 143.793 308.675C143.942 308.477 144.075 308.274 144.225 308.06C146.679 304.34 149.611 301.037 152.83 297.971C153.197 297.62 153.613 297.352 154.015 297.054C154.363 296.786 154.749 296.802 155.047 297.054C156.733 298.537 158.751 299.669 160.001 301.622C160.185 301.92 160.483 302.154 160.701 302.391C162.834 300.422 164.887 298.537 166.97 296.603C156.565 290.299 147.245 282.546 137.657 274.709Z" fill="white"/>
<path d="M284.442 281.495L284.408 281.446C284.408 281.446 284.427 281.48 284.438 281.495C282.538 282.65 277.806 286.733 277.404 287.566C278.238 287.482 279.071 287.467 279.87 287.298C281.155 287.05 282.038 287.547 282.772 288.548C283.857 290.032 284.958 291.5 286.04 292.983C286.139 293.136 286.174 293.335 286.292 293.652C285.99 293.583 285.822 293.568 285.688 293.518C283.341 292.532 280.921 291.767 278.421 291.301C276.621 290.949 274.801 290.666 272.985 290.315C272.419 290.2 272.049 290.467 271.617 290.75C268.298 293.002 264.965 295.219 261.647 297.471C261.444 297.605 261.345 297.868 261.127 298.186C261.528 298.235 261.727 298.27 261.929 298.27C264.965 298.335 267.916 298.82 270.818 299.654C271.467 299.837 271.919 300.154 272.301 300.686C274.702 303.939 277.121 307.192 279.537 310.442C279.786 310.774 280.023 311.111 280.371 311.577C281.021 311.061 281.571 310.576 282.171 310.159C282.821 309.708 283.525 309.341 284.19 308.909C284.775 308.527 285.558 308.374 286.025 307.575C285.474 307.426 285.088 307.307 284.691 307.208C282.439 306.676 281.556 304.723 280.122 302.957C280.638 303.006 280.887 303.022 281.12 303.056C283.907 303.607 286.69 304.138 289.477 304.707C290.192 304.857 290.792 304.708 291.342 304.256C293.346 302.605 295.36 300.988 297.363 299.336C297.581 299.172 297.746 298.939 297.964 298.706C292.891 293.35 288.169 287.795 284.438 281.495H284.442Z" fill="white"/>
<path d="M261.15 305.055C259.548 304.008 257.866 303.056 256.398 301.84C255.481 301.072 254.781 301.103 253.848 301.588C252.143 302.471 250.427 303.324 248.676 304.123C245.323 305.64 241.955 307.108 238.603 308.611C238.339 308.725 238.121 308.924 237.689 309.211C239.723 309.574 241.474 309.891 243.24 310.228C244.306 310.442 244.391 310.576 244.306 311.661C244.306 311.86 244.276 312.078 244.241 312.277C243.523 316.23 242.842 320.182 242.108 324.116C241.871 325.351 241.523 326.551 241.256 327.767C241.191 328.054 241.29 328.352 241.305 328.669C243.473 327.801 245.507 327.067 247.476 326.2C249.46 325.332 251.577 324.766 253.814 323.684C253.194 323.382 252.877 323.214 252.545 323.084C251.879 322.832 251.21 322.583 250.526 322.381C249.846 322.182 249.444 321.75 249.345 321.065C249.246 320.347 249.777 320.029 250.312 319.762C250.461 319.682 250.61 319.613 250.759 319.529C253.328 318.298 255.882 317.048 258.447 315.847C261.234 314.544 261.784 314.677 263.719 317.063C263.768 317.128 263.833 317.178 263.883 317.262C264.399 317.996 264.319 318.497 263.635 319.112C263.283 319.429 262.95 319.781 262.599 320.114C262.901 320.282 263.119 320.316 263.283 320.232C264.453 319.697 265.619 319.166 266.769 318.565C269.377 317.201 271.965 315.79 274.721 314.33C273.861 313.653 273.081 312.973 272.236 312.395C268.555 309.926 264.85 307.51 261.15 305.055ZM251.761 313.08L251.742 313.095C251.662 312.778 251.558 312.594 251.612 312.495C252.109 311.459 252.61 310.411 253.21 309.41C253.344 309.176 253.909 308.943 254.127 309.043C255.159 309.524 256.146 310.124 257.147 310.675C257.197 310.694 257.163 310.828 257.197 310.992C255.412 311.677 253.626 312.361 251.761 313.08Z" fill="white"/>
</g>
<defs>
<clipPath id="clip0_37_10606">
<rect width="299" height="380" fill="white" transform="translate(64 23)"/>
</clipPath>
</defs>
</svg>
