<svg width="426" height="426" viewBox="0 0 426 426" fill="none" xmlns="http://www.w3.org/2000/svg">
<g clip-path="url(#clip0_37_10604)">
<path d="M192.9 67.4996L197.905 66.9021L194.544 60.0598L192.9 67.4996Z" fill="white"/>
<path d="M295.775 81.5426C295.297 80.9002 294.714 80.3773 294.012 79.9441C293.31 79.5109 292.563 79.242 291.786 79.1075C291.009 78.973 290.232 79.0029 289.485 79.1673C288.738 79.3316 288.036 79.6453 287.379 80.0935C286.721 80.5417 286.169 81.1393 285.72 81.8713C285.272 82.6033 285.003 83.3652 284.899 84.157C284.794 84.9488 284.854 85.7107 285.048 86.4577C285.242 87.2046 285.586 87.8919 286.049 88.5343C286.527 89.1766 287.11 89.6995 287.812 90.1328C288.514 90.566 289.261 90.8349 290.038 90.9694C290.815 91.1038 291.592 91.0739 292.354 90.9096C293.115 90.7453 293.818 90.4316 294.475 89.9834C295.132 89.5352 295.685 88.9376 296.133 88.2056C296.581 87.4736 296.85 86.7116 296.955 85.9199C297.059 85.1281 297 84.3662 296.806 83.6043C296.596 82.8573 296.268 82.1551 295.79 81.5277L295.775 81.5426Z" fill="white"/>
<path d="M194.394 365.675L199.414 366.213L197.666 358.788L194.394 365.675Z" fill="white"/>
<path d="M299.644 337.081C299.181 336.349 298.613 335.781 297.956 335.333C297.284 334.9 296.581 334.601 295.819 334.452C295.058 334.302 294.281 334.302 293.504 334.452C292.727 334.601 291.98 334.9 291.293 335.333C290.606 335.781 290.023 336.319 289.56 336.962C289.097 337.604 288.783 338.306 288.604 339.053C288.424 339.8 288.395 340.577 288.514 341.354C288.634 342.146 288.917 342.893 289.381 343.625C289.844 344.357 290.411 344.924 291.069 345.373C291.741 345.806 292.443 346.105 293.205 346.254C293.967 346.403 294.729 346.403 295.506 346.254C296.283 346.105 297.03 345.806 297.717 345.373C298.404 344.924 298.987 344.387 299.45 343.744C299.913 343.102 300.227 342.4 300.421 341.638C300.615 340.876 300.645 340.114 300.525 339.322C300.406 338.53 300.122 337.783 299.659 337.051L299.644 337.081Z" fill="white"/>
<path d="M256.604 269.465L238.722 286.347V183.668L204.525 217.864V156.957H221.497V183.31L238.841 166.518V139.612H187.166V259.769L221.362 225.573V302.705L213.086 310.504L204.525 302.377V263.669L187.166 280.475V285.928L169.821 269.48V139.612H152.477V276.95L213.056 334.392L273.964 276.965V139.612H256.604V269.465Z" fill="white"/>
<path d="M213.219 43.9999C119.759 43.9999 44.001 119.757 44.001 213.218C44.001 306.679 119.759 382.437 213.219 382.437C306.68 382.437 382.438 306.679 382.438 213.218C382.438 119.757 306.665 43.9999 213.219 43.9999ZM364.033 165.457C365.288 166.189 366.363 167.13 367.289 168.311C368.201 169.476 368.873 170.79 369.276 172.255C369.515 173.076 369.65 173.928 369.71 174.764C369.754 175.616 369.724 176.527 369.605 177.513L363.151 179.336C364.331 177.648 364.645 175.885 364.137 174.047C363.913 173.241 363.555 172.523 363.062 171.926C362.569 171.313 362.001 170.835 361.358 170.492C360.716 170.133 359.999 169.924 359.222 169.834C358.445 169.745 357.653 169.819 356.832 170.043C356.01 170.283 355.278 170.641 354.666 171.119C354.053 171.597 353.545 172.165 353.187 172.822C352.813 173.48 352.574 174.182 352.469 174.944C352.365 175.706 352.425 176.482 352.649 177.274C353.142 179.007 354.307 180.352 356.174 181.308L349.765 183.115L349.422 182.622C348.899 181.875 348.466 181.158 348.122 180.486C347.779 179.814 347.51 179.112 347.315 178.424C346.912 176.99 346.793 175.541 346.957 174.062C347.121 172.583 347.569 171.224 348.272 169.939C348.974 168.654 349.915 167.519 351.095 166.533C352.275 165.547 353.665 164.815 355.263 164.367C356.862 163.918 358.415 163.799 359.924 164.023C361.433 164.247 362.808 164.725 364.048 165.442L364.033 165.457ZM367.857 213.218C367.857 215.758 365.795 217.835 363.241 217.835C360.686 217.835 358.625 215.773 358.625 213.218C358.625 210.664 360.686 208.602 363.241 208.602C365.795 208.602 367.857 210.664 367.857 213.218ZM354.098 135.683L359.7 146.738L355.457 148.889L352.395 142.854L349.168 144.482L351.962 149.98L347.719 152.131L344.925 146.633L337.351 150.473L334.811 145.453L354.098 135.683ZM310.52 105.012C310.609 106.133 310.819 107.104 311.147 107.94C311.491 108.777 311.939 109.464 312.522 110.032C313.179 110.674 313.821 111.003 314.434 111.003C315.046 111.003 315.539 110.824 315.913 110.45C316.137 110.211 316.286 109.972 316.376 109.718C316.466 109.464 316.481 109.18 316.421 108.852C316.361 108.523 316.241 108.15 316.062 107.716C315.868 107.298 315.629 106.79 315.345 106.222C314.987 105.55 314.643 104.878 314.344 104.191C314.03 103.503 313.851 102.801 313.776 102.099C313.702 101.397 313.791 100.665 314.045 99.9329C314.284 99.2009 314.792 98.4539 315.539 97.6771C316.286 96.9152 317.093 96.3326 317.945 95.9591C318.811 95.5856 319.678 95.3914 320.574 95.3914C321.47 95.3914 322.367 95.5856 323.263 95.9889C324.174 96.3923 325.026 96.9899 325.862 97.7817C326.624 98.5286 327.327 99.4101 327.954 100.441C328.581 101.472 329.089 102.562 329.448 103.713L324.787 105.296C324.697 104.519 324.503 103.817 324.234 103.22C323.965 102.622 323.622 102.129 323.203 101.726C322.68 101.218 322.143 100.934 321.56 100.859C320.992 100.784 320.514 100.949 320.126 101.352C319.857 101.621 319.722 101.935 319.707 102.278C319.707 102.622 319.767 102.981 319.902 103.369C320.036 103.757 320.23 104.161 320.484 104.594C320.723 105.012 320.962 105.446 321.186 105.879C322.083 107.597 322.471 109.121 322.367 110.45C322.262 111.78 321.635 113.035 320.499 114.215C319.722 115.007 318.886 115.604 318.004 115.993C317.108 116.381 316.182 116.546 315.226 116.516C314.27 116.471 313.283 116.217 312.297 115.754C311.297 115.276 310.326 114.588 309.384 113.662C307.427 111.75 306.172 109.405 305.635 106.611L310.52 105.042V105.012ZM279.132 83.1411C279.341 81.6471 279.864 80.213 280.701 78.8385C281.537 77.4641 282.568 76.3437 283.793 75.4622C285.018 74.5808 286.348 73.9832 287.782 73.6396C289.216 73.296 290.71 73.2661 292.264 73.5201C293.817 73.7741 295.341 74.3717 296.85 75.283C298.329 76.1793 299.554 77.2699 300.51 78.5397C301.466 79.8096 302.124 81.1541 302.497 82.5883C302.871 84.0225 302.945 85.4866 302.736 86.9805C302.527 88.4744 302.004 89.9086 301.168 91.283C300.331 92.6575 299.3 93.7779 298.075 94.6593C296.85 95.5408 295.521 96.1383 294.071 96.467C292.622 96.7957 291.128 96.8255 289.56 96.5716C288.006 96.3027 286.467 95.72 284.988 94.8237C283.479 93.9124 282.254 92.8218 281.313 91.5669C280.372 90.312 279.715 88.9674 279.341 87.5332C278.983 86.0991 278.908 84.6499 279.117 83.156L279.132 83.1411ZM256.947 63.3464L258.501 58.8496L272.544 63.69L270.99 68.1867L266.628 66.6779L261.145 82.6331L255.827 80.8105L261.309 64.8553L256.947 63.3464ZM221.346 52.3958L226.934 53.0531L235.718 67.395L237.257 54.2632L242.814 54.9056L240.305 76.3885L234.747 75.7461L225.963 61.4043L224.424 74.536L218.837 73.8787L221.346 52.3958ZM190.736 54.084L196.831 53.3519L207.602 73.8338L201.656 74.5509L199.923 70.9804L191.946 71.9365L191.109 75.8208L185.163 76.5379L190.751 54.084H190.736ZM156.39 64.2726C156.793 63.4808 157.376 62.7637 158.138 62.1363C158.9 61.5088 159.826 61.0009 160.917 60.6274C161.933 60.2838 163.038 60.0597 164.233 59.9551C165.428 59.8506 166.638 59.8954 167.834 60.0896L167.146 64.9748C166.399 64.7059 165.712 64.5565 165.055 64.5266C164.398 64.4967 163.8 64.5864 163.262 64.7656C162.575 65.0047 162.067 65.3632 161.753 65.8413C161.425 66.3193 161.365 66.8123 161.544 67.3352C161.664 67.6937 161.888 67.9627 162.172 68.112C162.47 68.2764 162.829 68.381 163.232 68.4258C163.636 68.4706 164.099 68.4855 164.577 68.4557C165.07 68.4258 165.548 68.4108 166.026 68.4108C167.968 68.3959 169.492 68.7246 170.642 69.4118C171.778 70.099 172.614 71.2194 173.152 72.7731C173.511 73.8189 173.66 74.8348 173.6 75.8058C173.54 76.7769 173.272 77.6882 172.808 78.5248C172.345 79.3614 171.673 80.1233 170.807 80.7956C169.94 81.4679 168.879 82.0206 167.624 82.4539C165.04 83.3502 162.381 83.41 159.647 82.6331L160.439 77.5687C161.469 78.0019 162.44 78.2559 163.337 78.3306C164.233 78.4053 165.055 78.3157 165.817 78.0467C166.683 77.748 167.266 77.3297 167.55 76.7769C167.834 76.2391 167.893 75.7013 167.714 75.2083C167.61 74.8945 167.46 74.6555 167.281 74.4613C167.087 74.2671 166.848 74.1326 166.519 74.028C166.205 73.9235 165.817 73.8637 165.354 73.8338C164.891 73.8189 164.338 73.804 163.695 73.804C162.934 73.8189 162.172 73.804 161.425 73.789C160.678 73.7591 159.961 73.6097 159.303 73.3558C158.631 73.1018 158.033 72.6984 157.496 72.1457C156.958 71.5929 156.51 70.8161 156.151 69.8002C155.807 68.7843 155.658 67.8133 155.703 66.8721C155.748 65.9309 155.972 65.0644 156.375 64.2726H156.39ZM120.132 82.0505L123.06 85.8003L119.43 88.6537L129.828 101.935L125.406 105.401L115.008 92.1196L111.378 94.9731L108.45 91.2233L120.147 82.0654L120.132 82.0505ZM90.343 109.539C90.7016 108.613 91.2543 107.716 92.0013 106.85C92.7034 106.043 93.555 105.296 94.541 104.609C95.527 103.922 96.5877 103.369 97.738 102.936L99.5756 107.507C98.7987 107.642 98.1264 107.866 97.5438 108.165C96.9612 108.463 96.4831 108.837 96.1096 109.27C95.6316 109.823 95.3776 110.376 95.3328 110.943C95.288 111.511 95.4822 111.989 95.9005 112.348C96.1843 112.602 96.498 112.721 96.8416 112.706C97.1853 112.706 97.5438 112.616 97.9173 112.452C98.3057 112.288 98.6941 112.079 99.0975 111.81C99.5009 111.541 99.9192 111.287 100.337 111.048C102.011 110.062 103.505 109.599 104.834 109.629C106.164 109.658 107.449 110.211 108.689 111.302C109.525 112.034 110.153 112.826 110.586 113.707C111.019 114.574 111.243 115.5 111.243 116.456C111.243 117.412 111.049 118.413 110.631 119.429C110.212 120.445 109.57 121.446 108.704 122.447C106.911 124.508 104.625 125.883 101.861 126.57L100.039 121.774C101.159 121.625 102.115 121.371 102.937 120.983C103.759 120.609 104.416 120.116 104.954 119.504C105.551 118.816 105.85 118.159 105.82 117.546C105.805 116.934 105.581 116.441 105.178 116.097C104.939 115.888 104.685 115.739 104.431 115.664C104.177 115.589 103.878 115.589 103.549 115.664C103.221 115.739 102.847 115.873 102.444 116.082C102.026 116.292 101.548 116.56 100.98 116.889C100.323 117.293 99.6652 117.651 99.0079 117.995C98.3356 118.338 97.6484 118.562 96.9462 118.667C96.2441 118.772 95.512 118.727 94.7651 118.518C94.0181 118.308 93.2413 117.86 92.4345 117.143C91.6278 116.441 91.0153 115.664 90.597 114.828C90.1787 113.991 89.9397 113.124 89.8948 112.228C89.85 111.332 89.9994 110.435 90.358 109.509L90.343 109.539ZM77.4204 127.078L81.5437 129.468L78.1824 135.25L81.3047 137.072L84.4718 131.619L88.5951 134.01L85.428 139.463L88.6549 141.33L92.0162 135.548L96.1395 137.939L89.9546 148.576L71.2505 137.715L77.4354 127.078H77.4204ZM56.0721 177.946L70.5184 178.305L58.4175 169.954L59.6874 165.666L74.3878 165.203L62.0329 157.689L63.6912 152.042L82.6194 164.337L81.0059 169.834L67.7845 170.372L78.6156 177.976L77.0021 183.474L54.4287 183.564L56.087 177.917L56.0721 177.946ZM67.7995 213.218C67.7995 215.758 65.7378 217.835 63.1832 217.835C60.6286 217.835 58.5669 215.773 58.5669 213.218C58.5669 210.664 60.6286 208.602 63.1832 208.602C65.7378 208.602 67.7995 210.664 67.7995 213.218ZM60.3895 265.775L71.0712 257.962L57.8349 257.663L56.1169 252.195L74.821 239.556L76.5838 245.174L64.3784 252.912L79.0787 253.106L80.4233 257.379L68.4718 265.939L82.9181 265.312L84.681 270.914L62.1076 271.243L60.3895 265.775ZM85.8761 298.343L82.5745 292.965L79.3924 294.922L82.8883 300.614L78.8247 303.109L72.3859 292.621L90.8211 281.312L97.26 291.799L93.1964 294.294L89.7006 288.602L86.6231 290.485L89.9247 295.863L85.8612 298.358L85.8761 298.343ZM109.197 315.015C109.152 314.224 109.002 313.521 108.778 312.909C108.539 312.296 108.225 311.773 107.837 311.355C107.344 310.817 106.821 310.504 106.253 310.384C105.686 310.28 105.208 310.414 104.789 310.787C104.506 311.041 104.356 311.34 104.326 311.684C104.296 312.027 104.341 312.386 104.461 312.789C104.58 313.193 104.745 313.596 104.969 314.044C105.193 314.477 105.387 314.926 105.596 315.359C106.388 317.122 106.687 318.675 106.507 319.99C106.328 321.305 105.626 322.53 104.416 323.635C103.594 324.382 102.728 324.92 101.816 325.249C100.905 325.577 99.964 325.697 99.0079 325.592C98.0517 325.503 97.0956 325.189 96.1246 324.651C95.1535 324.113 94.2273 323.366 93.3458 322.395C91.4933 320.379 90.3878 317.958 90.0143 315.135L94.9892 313.85C95.0041 314.97 95.1535 315.956 95.4523 316.808C95.7361 317.66 96.1544 318.377 96.6923 318.974C97.3048 319.647 97.9322 320.02 98.5447 320.065C99.1572 320.11 99.6652 319.96 100.054 319.602C100.293 319.378 100.457 319.154 100.562 318.9C100.666 318.66 100.696 318.362 100.666 318.033C100.636 317.704 100.532 317.316 100.367 316.883C100.203 316.449 99.9939 315.942 99.7399 315.344C99.4262 314.657 99.1274 313.955 98.8585 313.252C98.5896 312.55 98.4402 311.848 98.4103 311.131C98.3804 310.414 98.5149 309.697 98.7987 308.98C99.0826 308.263 99.6204 307.546 100.412 306.814C101.204 306.096 102.041 305.574 102.922 305.245C103.803 304.916 104.685 304.782 105.581 304.842C106.478 304.901 107.359 305.14 108.24 305.603C109.122 306.052 109.943 306.709 110.72 307.546C111.437 308.337 112.095 309.264 112.662 310.324C113.23 311.385 113.663 312.505 113.962 313.686L109.211 315L109.197 315.015ZM132.607 333.645L128.917 330.881L118.803 344.386L114.306 341.01L124.42 327.505L120.73 324.741L123.583 320.931L135.475 329.835L132.621 333.645H132.607ZM166.265 352.424C166.399 352.737 166.624 353.036 166.922 353.32C167.221 353.604 167.565 353.888 167.968 354.171C168.371 354.44 168.76 354.724 169.148 355.023C170.702 356.188 171.718 357.383 172.196 358.623C172.674 359.863 172.659 361.268 172.151 362.821C171.807 363.867 171.314 364.763 170.672 365.51C170.03 366.242 169.283 366.81 168.386 367.184C167.505 367.572 166.519 367.766 165.413 367.766C164.308 367.766 163.143 367.572 161.888 367.154C159.288 366.287 157.137 364.719 155.434 362.448L159.154 358.907C159.722 359.878 160.334 360.67 160.991 361.268C161.664 361.865 162.366 362.298 163.128 362.552C163.994 362.836 164.711 362.851 165.279 362.597C165.832 362.343 166.205 361.955 166.37 361.447C166.474 361.133 166.504 360.849 166.474 360.595C166.444 360.326 166.325 360.058 166.131 359.789C165.936 359.52 165.667 359.221 165.309 358.922C164.95 358.623 164.517 358.28 164.009 357.891C163.397 357.443 162.799 356.98 162.216 356.502C161.634 356.024 161.171 355.471 160.797 354.874C160.424 354.261 160.185 353.574 160.095 352.812C159.99 352.05 160.11 351.154 160.454 350.138C160.797 349.122 161.26 348.255 161.873 347.538C162.485 346.821 163.187 346.268 163.994 345.88C164.801 345.492 165.697 345.282 166.683 345.253C167.669 345.223 168.715 345.387 169.806 345.746C170.821 346.089 171.837 346.567 172.853 347.225C173.869 347.867 174.795 348.644 175.632 349.525L172.121 352.991C171.703 352.319 171.225 351.781 170.732 351.363C170.224 350.945 169.701 350.646 169.163 350.466C168.476 350.242 167.863 350.212 167.311 350.392C166.773 350.571 166.414 350.93 166.235 351.452C166.116 351.811 166.131 352.155 166.265 352.453V352.424ZM201.313 374.519L200.431 370.65L192.439 369.798L190.751 373.398L184.79 372.771L195.262 352.14L201.373 352.797L207.274 375.176L201.313 374.534V374.519ZM240.514 372.681L228.443 360.984L230.235 374.086L224.663 374.848L221.735 353.424L227.307 352.663L239.378 364.36L237.586 351.258L243.128 350.496L246.056 371.919L240.514 372.681ZM266.508 365.944L260.682 350.108L256.349 351.706L254.706 347.24L268.645 342.115L270.288 346.582L265.956 348.181L271.782 364.016L266.508 365.959V365.944ZM306.113 342.593C305.769 344.043 305.142 345.402 304.215 346.687C303.289 347.972 302.094 349.077 300.63 350.018C299.151 350.959 297.627 351.587 296.088 351.886C294.535 352.184 293.041 352.184 291.606 351.886C290.172 351.587 288.813 351.004 287.573 350.153C286.333 349.301 285.272 348.211 284.406 346.851C283.539 345.492 282.986 344.072 282.732 342.593C282.478 341.114 282.523 339.65 282.852 338.201C283.181 336.767 283.808 335.408 284.719 334.123C285.631 332.838 286.841 331.732 288.32 330.776C289.784 329.835 291.293 329.223 292.846 328.924C294.4 328.625 295.909 328.625 297.358 328.924C298.807 329.223 300.152 329.79 301.407 330.642C302.647 331.493 303.707 332.599 304.574 333.944C305.44 335.303 305.993 336.722 306.247 338.201C306.501 339.68 306.456 341.159 306.113 342.593ZM331.226 323.979C330.748 324.965 330.045 325.936 329.134 326.877C327.222 328.834 324.876 330.074 322.083 330.612L320.529 325.727C321.65 325.652 322.636 325.443 323.457 325.099C324.294 324.771 324.996 324.308 325.549 323.74C326.191 323.083 326.52 322.455 326.535 321.828C326.535 321.215 326.37 320.722 325.982 320.349C325.743 320.125 325.504 319.96 325.25 319.886C324.996 319.796 324.712 319.781 324.383 319.841C324.055 319.9 323.681 320.005 323.248 320.199C322.83 320.393 322.322 320.633 321.739 320.916C321.067 321.275 320.395 321.604 319.707 321.917C319.02 322.216 318.318 322.41 317.616 322.485C316.914 322.56 316.182 322.47 315.45 322.216C314.718 321.962 313.971 321.469 313.209 320.722C312.447 319.975 311.879 319.168 311.491 318.302C311.117 317.435 310.923 316.569 310.938 315.673C310.938 314.776 311.147 313.88 311.551 312.984C311.954 312.072 312.551 311.221 313.358 310.399C314.105 309.637 315.002 308.935 316.017 308.307C317.048 307.68 318.139 307.187 319.304 306.814L320.873 311.475C320.096 311.564 319.394 311.744 318.796 312.012C318.199 312.281 317.691 312.625 317.302 313.028C316.794 313.551 316.51 314.089 316.436 314.657C316.361 315.224 316.525 315.703 316.914 316.091C317.183 316.36 317.496 316.494 317.825 316.509C318.169 316.509 318.527 316.449 318.916 316.315C319.304 316.181 319.707 315.986 320.141 315.747C320.559 315.508 320.992 315.269 321.425 315.06C323.143 314.179 324.667 313.79 325.997 313.895C327.327 313.999 328.581 314.627 329.747 315.777C330.538 316.554 331.136 317.391 331.51 318.287C331.898 319.183 332.062 320.11 332.017 321.066C331.973 322.022 331.719 323.008 331.241 323.994L331.226 323.979ZM213.205 345.223C140.315 345.223 81.215 286.137 81.215 213.233C81.215 140.329 140.315 81.2288 213.219 81.2288C286.124 81.2288 345.209 140.314 345.209 213.218C345.209 286.123 286.124 345.208 213.219 345.208L213.205 345.223ZM356.413 288.722L336.947 279.28L342.356 268.135L346.643 270.212L343.685 276.307L346.942 277.891L349.631 272.348L353.919 274.425L351.23 279.982L358.864 283.687L356.413 288.752V288.722ZM370.979 251.881C370.606 253.331 369.964 254.63 369.067 255.811C368.171 256.991 367.095 257.947 365.84 258.694C364.585 259.441 363.196 259.934 361.672 260.188C360.148 260.442 358.595 260.352 356.981 259.919C355.368 259.501 353.978 258.798 352.798 257.842C351.618 256.886 350.677 255.781 349.975 254.511C349.272 253.241 348.824 251.881 348.63 250.402C348.436 248.923 348.54 247.459 348.914 245.995C349.138 245.159 349.437 244.367 349.825 243.605C350.214 242.843 350.707 242.066 351.319 241.289L357.803 243.007C355.935 243.859 354.755 245.204 354.262 247.056C354.053 247.863 353.993 248.669 354.113 249.431C354.232 250.208 354.471 250.91 354.845 251.538C355.218 252.165 355.726 252.733 356.354 253.196C356.981 253.674 357.698 254.018 358.52 254.227C359.357 254.451 360.163 254.511 360.94 254.406C361.717 254.302 362.434 254.078 363.091 253.704C363.749 253.331 364.301 252.838 364.78 252.24C365.258 251.642 365.601 250.94 365.81 250.134C366.273 248.401 365.945 246.638 364.839 244.86L371.278 246.563L371.323 247.176C371.398 248.087 371.413 248.923 371.353 249.67C371.293 250.417 371.189 251.164 370.994 251.867L370.979 251.881Z" fill="white"/>
<path d="M197.397 112.168H152.638V128.736H197.397V112.168Z" fill="white"/>
<path d="M273.961 112.168H229.203V128.736H273.961V112.168Z" fill="white"/>
<path d="M213.354 110.585L215.699 118.099L223.557 117.995L217.133 122.536L219.658 129.991L213.354 125.3L207.049 129.991L209.559 122.536L203.15 117.995L211.008 118.099L213.354 110.585Z" fill="white"/>
</g>
<defs>
<clipPath id="clip0_37_10604">
<rect width="338.422" height="338.422" fill="white" transform="translate(44 44)"/>
</clipPath>
</defs>
</svg>
