<?xml version="1.0" encoding="UTF-8"?>
<svg id="Posiciones_copy" xmlns="http://www.w3.org/2000/svg" xmlns:xlink="http://www.w3.org/1999/xlink" viewBox="0 0 178.58 249.45">
  <defs>
    <style>
      .cls-1 {
        filter: url(#drop-shadow-3);
      }

      .cls-2 {
        filter: url(#drop-shadow-2);
      }

      .cls-3 {
        filter: url(#drop-shadow-4);
      }

      .cls-4 {
        fill: #f2b043;
      }

      .cls-5 {
        fill: none;
        stroke: #f2b043;
        stroke-miterlimit: 10;
        stroke-width: 4px;
      }

      .cls-6 {
        fill: url(#linear-gradient-2);
        opacity: .5;
      }

      .cls-7 {
        fill: #fff;
      }

      .cls-8 {
        fill: #e58b3f;
      }

      .cls-9 {
        fill: url(#linear-gradient);
        filter: url(#outer-glow-1);
      }

      .cls-10 {
        clip-path: url(#clippath);
      }
    </style>
    <linearGradient id="linear-gradient" x1="42.15" y1="224.85" x2="136.22" y2="61.91" gradientUnits="userSpaceOnUse">
      <stop offset="0" stop-color="#bcb3c1"/>
      <stop offset=".04" stop-color="#9b939f"/>
      <stop offset=".09" stop-color="#7d7680"/>
      <stop offset=".14" stop-color="#655f68"/>
      <stop offset=".2" stop-color="#544e56"/>
      <stop offset=".26" stop-color="#4a454c"/>
      <stop offset=".33" stop-color="#474249"/>
      <stop offset=".43" stop-color="#5b545a"/>
      <stop offset=".63" stop-color="#908488"/>
      <stop offset=".92" stop-color="#e4cfd0"/>
      <stop offset="1" stop-color="#fde6e6"/>
    </linearGradient>
    <filter id="outer-glow-1" filterUnits="userSpaceOnUse">
      <feOffset dx="0" dy="0"/>
      <feGaussianBlur result="blur" stdDeviation="6.24"/>
      <feFlood flood-color="#efdbb2" flood-opacity=".8"/>
      <feComposite in2="blur" operator="in"/>
      <feComposite in="SourceGraphic"/>
    </filter>
    <clipPath id="clippath">
      <path class="cls-8" d="M89.28,54.56c2.13,0,4.25.28,6.32.84l45.8,13.45,9.49,1.53-.36,146.31s-61.26,19.27-61.26,19.27l-61.26-19.27-.36-146.31,9.49-1.53,45.8-13.45c2.07-.56,4.2-.84,6.32-.84"/>
    </clipPath>
    <linearGradient id="linear-gradient-2" x1="89.28" y1="35.41" x2="89.28" y2="241.08" gradientUnits="userSpaceOnUse">
      <stop offset="0" stop-color="#e45234"/>
      <stop offset=".1" stop-color="#e45434" stop-opacity=".97"/>
      <stop offset=".23" stop-color="#e55b35" stop-opacity=".9"/>
      <stop offset=".39" stop-color="#e66737" stop-opacity=".78"/>
      <stop offset=".56" stop-color="#e87739" stop-opacity=".6"/>
      <stop offset=".74" stop-color="#eb8c3d" stop-opacity=".38"/>
      <stop offset=".92" stop-color="#eea541" stop-opacity=".12"/>
      <stop offset="1" stop-color="#f0b143" stop-opacity="0"/>
    </linearGradient>
    <filter id="drop-shadow-2" filterUnits="userSpaceOnUse">
      <feOffset dx="0" dy="0"/>
      <feGaussianBlur result="blur-2" stdDeviation="3.4"/>
      <feFlood flood-color="#231f20" flood-opacity=".75"/>
      <feComposite in2="blur-2" operator="in"/>
      <feComposite in="SourceGraphic"/>
    </filter>
    <filter id="drop-shadow-3" filterUnits="userSpaceOnUse">
      <feOffset dx="0" dy="0"/>
      <feGaussianBlur result="blur-3" stdDeviation="3.4"/>
      <feFlood flood-color="#231f20" flood-opacity=".75"/>
      <feComposite in2="blur-3" operator="in"/>
      <feComposite in="SourceGraphic"/>
    </filter>
    <filter id="drop-shadow-4" filterUnits="userSpaceOnUse">
      <feOffset dx="0" dy="0"/>
      <feGaussianBlur result="blur-4" stdDeviation="3.4"/>
      <feFlood flood-color="#231f20" flood-opacity=".75"/>
      <feComposite in2="blur-4" operator="in"/>
      <feComposite in="SourceGraphic"/>
    </filter>
  </defs>
  <g id="SELECTED">
    <g>
      <g>
        <path class="cls-4" d="M28.32,33.06c8.62,10.7,17.23,21.39,26.09,32.4,10.03-17.33,19.94-34.46,29.85-51.6l.37.11c0,.61,0,1.21,0,1.82,0,11.68.03,23.36-.05,35.04,0,1.31-.41,2.77-1.07,3.91-4.38,7.62-8.88,15.18-13.33,22.76-.25.42-.43.88-.67,1.38h15.05v38.9H28.06v-35.62c4.48-.42,8.9-.84,13.66-1.29-2.63-3.51-5.06-6.75-7.49-10-1.11-1.48-2.07-3.1-3.36-4.4-2.52-2.56-3.11-5.51-3-9.02.23-7.46.07-14.93.07-22.4,0-.61,0-1.22,0-1.83.13-.05.25-.1.38-.15Z"/>
        <path class="cls-4" d="M94.24,117.84v-38.97h15.07c-.35-.66-.64-1.24-.97-1.81-4.45-7.58-8.93-15.15-13.35-22.74-.43-.74-.82-1.64-.83-2.46-.05-12.31-.04-24.63-.03-36.94,0-.29.07-.57.17-1.41,10.15,17.55,20.04,34.65,30.05,51.95,8.82-10.95,17.48-21.69,26.38-32.75.08.87.16,1.34.16,1.81,0,8.81.03,17.61-.04,26.42,0,.92-.42,1.99-.97,2.74-4.15,5.64-8.39,11.22-12.85,17.16,4.75.46,9.19.89,13.74,1.33v35.68h-56.55Z"/>
        <path class="cls-4" d="M52.94,52.65c-4.65-5.78-9.13-11.36-13.62-16.93l.21-.29c6.07,2.83,12.13,5.66,18.39,8.57-1.67,2.9-3.26,5.66-4.99,8.65Z"/>
        <path class="cls-4" d="M125.84,52.64c-1.71-2.95-3.3-5.69-5-8.63,6.25-2.92,12.32-5.76,18.4-8.59.08.09.16.17.24.26-4.5,5.61-9.01,11.21-13.64,16.97Z"/>
      </g>
      <path class="cls-9" d="M89.28,54.56c2.13,0,4.25.28,6.32.84l45.8,13.45,9.49,1.53-.36,146.31s-61.26,19.27-61.26,19.27l-61.26-19.27-.36-146.31,9.49-1.53,45.8-13.45c2.07-.56,4.2-.84,6.32-.84"/>
      <g>
        <path class="cls-8" d="M89.28,54.56c2.13,0,4.25.28,6.32.84l45.8,13.45,9.49,1.53-.36,146.31s-61.26,19.27-61.26,19.27l-61.26-19.27-.36-146.31,9.49-1.53,45.8-13.45c2.07-.56,4.2-.84,6.32-.84"/>
        <g class="cls-10">
          <circle class="cls-6" cx="89.28" cy="138.24" r="102.83"/>
        </g>
      </g>
      <path class="cls-5" d="M89.28,54.56c2.13,0,4.25.28,6.32.84l45.66,13.41c.09.03.19.05.28.06l7.38,1.19c1.13.18,1.96,1.16,1.96,2.3l-.35,142.62c0,1.01-.66,1.91-1.63,2.21l-58.94,18.54c-.45.14-.94.14-1.4,0l-58.94-18.54c-.97-.3-1.63-1.2-1.63-2.21l-.35-142.62c0-1.14.83-2.12,1.96-2.3l7.38-1.19c.1-.02.19-.04.28-.06l45.66-13.41c2.07-.56,4.2-.84,6.32-.84"/>
      <g>
        <g class="cls-2">
          <path class="cls-7" d="M78.83,192.73c9.72,0,11.81,4.12,11.81,8.25v.7c0,4.12-2.1,8.39-11.81,8.39h-10.93v-17.33h10.93ZM77.78,205.26c4.85,0,5.41-2.19,5.41-3.84v-.14c0-1.56-.56-3.77-5.41-3.77h-2.77v7.76h2.77Z"/>
          <path class="cls-7" d="M111.45,197.27h-10.74v2.24h10.42v4.61h-10.42v5.94h-7.13v-17.33h17.87v4.54Z"/>
        </g>
        <g id="Layer_2-2" class="cls-1">
          <g>
            <g>
              <polygon class="cls-7" points="85.07 104.21 65.62 104.21 55.42 127.65 68.77 156.61 84.79 168.83 84.79 165.95 70.24 155.41 57.45 127.58 66.93 106.13 85.07 106.07 85.07 104.21"/>
              <path class="cls-7" d="M67.29,107.13l-8.85,20.93,12.7,27.16,13.77,9.9.16-57.99h-17.78ZM73.7,151.37l-9.84-24.04,5.42-12.37-4.29,12.68,9.59,22.72,4.23,3.54.57-14.95.38,16.85-6.06-4.42h0Z"/>
            </g>
            <g>
              <polygon class="cls-7" points="86.02 104.21 105.48 104.21 115.68 127.65 102.32 156.61 86.3 168.83 86.3 165.95 100.85 155.41 113.64 127.58 104.16 106.13 86.02 106.07 86.02 104.21"/>
              <path class="cls-7" d="M86.02,107.13l.16,57.99,13.77-9.9,12.7-27.16-8.85-20.93h-17.78ZM91.33,155.79l.38-16.85.57,14.95,4.23-3.54,9.59-22.72-4.29-12.68,5.42,12.37-9.84,24.04-6.06,4.42h0Z"/>
            </g>
          </g>
        </g>
        <g class="cls-3">
          <rect class="cls-7" x="123.73" y="97.67" width="2.89" height="18.07" rx="1.03" ry="1.03"/>
          <rect class="cls-7" x="123.73" y="97.67" width="2.89" height="18.07" rx="1.03" ry="1.03" transform="translate(231.88 -18.48) rotate(90)"/>
        </g>
      </g>
    </g>
  </g>
</svg>