<?xml version="1.0" encoding="UTF-8"?>
<svg id="Posiciones_copy" xmlns="http://www.w3.org/2000/svg" xmlns:xlink="http://www.w3.org/1999/xlink" viewBox="0 0 178.58 249.45">
  <defs>
    <style>
      .cls-1 {
        filter: url(#drop-shadow-2);
      }

      .cls-2 {
        fill: #f2b043;
      }

      .cls-3 {
        fill: none;
        stroke: #f2b043;
        stroke-miterlimit: 10;
        stroke-width: 4px;
      }

      .cls-4 {
        fill: url(#linear-gradient-2);
        opacity: .5;
      }

      .cls-5 {
        fill: #fff;
      }

      .cls-6 {
        fill: #e58b3f;
      }

      .cls-7 {
        fill: url(#linear-gradient);
        filter: url(#outer-glow-1);
      }

      .cls-8 {
        clip-path: url(#clippath);
      }
    </style>
    <linearGradient id="linear-gradient" x1="42.15" y1="224.85" x2="136.22" y2="61.91" gradientUnits="userSpaceOnUse">
      <stop offset="0" stop-color="#bcb3c1"/>
      <stop offset=".04" stop-color="#9b939f"/>
      <stop offset=".09" stop-color="#7d7680"/>
      <stop offset=".14" stop-color="#655f68"/>
      <stop offset=".2" stop-color="#544e56"/>
      <stop offset=".26" stop-color="#4a454c"/>
      <stop offset=".33" stop-color="#474249"/>
      <stop offset=".43" stop-color="#5b545a"/>
      <stop offset=".63" stop-color="#908488"/>
      <stop offset=".92" stop-color="#e4cfd0"/>
      <stop offset="1" stop-color="#fde6e6"/>
    </linearGradient>
    <filter id="outer-glow-1" filterUnits="userSpaceOnUse">
      <feOffset dx="0" dy="0"/>
      <feGaussianBlur result="blur" stdDeviation="6.24"/>
      <feFlood flood-color="#efdbb2" flood-opacity=".8"/>
      <feComposite in2="blur" operator="in"/>
      <feComposite in="SourceGraphic"/>
    </filter>
    <clipPath id="clippath">
      <path class="cls-6" d="M89.28,54.56c2.13,0,4.25.28,6.32.84l45.8,13.45,9.49,1.53-.36,146.31s-61.26,19.27-61.26,19.27l-61.26-19.27-.36-146.31,9.49-1.53,45.8-13.45c2.07-.56,4.2-.84,6.32-.84"/>
    </clipPath>
    <linearGradient id="linear-gradient-2" x1="89.28" y1="35.41" x2="89.28" y2="241.08" gradientUnits="userSpaceOnUse">
      <stop offset="0" stop-color="#e45234"/>
      <stop offset=".1" stop-color="#e45434" stop-opacity=".97"/>
      <stop offset=".23" stop-color="#e55b35" stop-opacity=".9"/>
      <stop offset=".39" stop-color="#e66737" stop-opacity=".78"/>
      <stop offset=".56" stop-color="#e87739" stop-opacity=".6"/>
      <stop offset=".74" stop-color="#eb8c3d" stop-opacity=".38"/>
      <stop offset=".92" stop-color="#eea541" stop-opacity=".12"/>
      <stop offset="1" stop-color="#f0b143" stop-opacity="0"/>
    </linearGradient>
    <filter id="drop-shadow-2" filterUnits="userSpaceOnUse">
      <feOffset dx="0" dy="0"/>
      <feGaussianBlur result="blur-2" stdDeviation="3.4"/>
      <feFlood flood-color="#231f20" flood-opacity=".75"/>
      <feComposite in2="blur-2" operator="in"/>
      <feComposite in="SourceGraphic"/>
    </filter>
  </defs>
  <g id="SELECTED">
    <g>
      <g>
        <path class="cls-2" d="M28.32,33.06c8.62,10.7,17.23,21.39,26.09,32.4,10.03-17.33,19.94-34.46,29.85-51.6l.37.11c0,.61,0,1.21,0,1.82,0,11.68.03,23.36-.05,35.04,0,1.31-.41,2.77-1.07,3.91-4.38,7.62-8.88,15.18-13.33,22.76-.25.42-.43.88-.67,1.38h15.05v38.9H28.06v-35.62c4.48-.42,8.9-.84,13.66-1.29-2.63-3.51-5.06-6.75-7.49-10-1.11-1.48-2.07-3.1-3.36-4.4-2.52-2.56-3.11-5.51-3-9.02.23-7.46.07-14.93.07-22.4,0-.61,0-1.22,0-1.83.13-.05.25-.1.38-.15Z"/>
        <path class="cls-2" d="M94.24,117.84v-38.97h15.07c-.35-.66-.64-1.24-.97-1.81-4.45-7.58-8.93-15.15-13.35-22.74-.43-.74-.82-1.64-.83-2.46-.05-12.31-.04-24.63-.03-36.94,0-.29.07-.57.17-1.41,10.15,17.55,20.04,34.65,30.05,51.95,8.82-10.95,17.48-21.69,26.38-32.75.08.87.16,1.34.16,1.81,0,8.81.03,17.61-.04,26.42,0,.92-.42,1.99-.97,2.74-4.15,5.64-8.39,11.22-12.85,17.16,4.75.46,9.19.89,13.74,1.33v35.68h-56.55Z"/>
        <path class="cls-2" d="M52.94,52.65c-4.65-5.78-9.13-11.36-13.62-16.93l.21-.29c6.07,2.83,12.13,5.66,18.39,8.57-1.67,2.9-3.26,5.66-4.99,8.65Z"/>
        <path class="cls-2" d="M125.84,52.64c-1.71-2.95-3.3-5.69-5-8.63,6.25-2.92,12.32-5.76,18.4-8.59.08.09.16.17.24.26-4.5,5.61-9.01,11.21-13.64,16.97Z"/>
      </g>
      <path class="cls-7" d="M89.28,54.56c2.13,0,4.25.28,6.32.84l45.8,13.45,9.49,1.53-.36,146.31s-61.26,19.27-61.26,19.27l-61.26-19.27-.36-146.31,9.49-1.53,45.8-13.45c2.07-.56,4.2-.84,6.32-.84"/>
      <g>
        <path class="cls-6" d="M89.28,54.56c2.13,0,4.25.28,6.32.84l45.8,13.45,9.49,1.53-.36,146.31s-61.26,19.27-61.26,19.27l-61.26-19.27-.36-146.31,9.49-1.53,45.8-13.45c2.07-.56,4.2-.84,6.32-.84"/>
        <g class="cls-8">
          <circle class="cls-4" cx="89.28" cy="138.24" r="102.83"/>
        </g>
      </g>
      <path class="cls-3" d="M89.28,54.56c2.13,0,4.25.28,6.32.84l45.66,13.41c.09.03.19.05.28.06l7.38,1.19c1.13.18,1.96,1.16,1.96,2.3l-.35,142.62c0,1.01-.66,1.91-1.63,2.21l-58.94,18.54c-.45.14-.94.14-1.4,0l-58.94-18.54c-.97-.3-1.63-1.2-1.63-2.21l-.35-142.62c0-1.14.83-2.12,1.96-2.3l7.38-1.19c.1-.02.19-.04.28-.06l45.66-13.41c2.07-.56,4.2-.84,6.32-.84"/>
      <g class="cls-1">
        <g>
          <path class="cls-5" d="M65.23,199.88h-10.74v2.24h10.42v4.61h-10.42v5.94h-7.13v-17.34h17.87v4.54Z"/>
          <path class="cls-5" d="M75.56,207.26h10.25v5.41h-17.36v-17.34h7.11v11.93Z"/>
          <path class="cls-5" d="M106.94,199.76h-11v1.86h10.65v4.54h-10.65v2.03h11.16v4.47h-18.29v-17.34h18.13v4.43Z"/>
          <path class="cls-5" d="M116.64,212.67h-8.39l6.73-9.09-6.36-8.25h8.74l3.66,4.94,3.68-4.94h8.06l-6.27,8.27,6.83,9.06h-8.5l-4.1-5.5-4.08,5.5Z"/>
        </g>
        <g>
          <rect class="cls-5" x="126.8" y="96.46" width="2.89" height="18.07" rx="1.03" ry="1.03"/>
          <rect class="cls-5" x="126.8" y="96.46" width="2.89" height="18.07" rx="1.03" ry="1.03" transform="translate(233.74 -22.75) rotate(90)"/>
        </g>
        <g>
          <path class="cls-5" d="M124.41,141.98c-.12-1.33-.7-6.75-2.75-10.95-2.36-4.81-6.76-6.11-11.57-5.6-4.81.51-10.09,4.58-10.09,4.58,0,0-2.22-5.6-1.39-10.51.79-4.65,3.19-6.92,3.45-7.16.83.72,1.91,1.16,3.1,1.16,2.61,0,4.73-2.12,4.73-4.73s-2.12-4.73-4.73-4.73-4.73,2.12-4.73,4.73c0,.3.03.6.08.89-1.11.16-3.96.63-5.83,1.32-2.36.88-5.6,2.5-9.91,6.99-4.31,4.49-5.19,11.61-5.19,11.61,0,0,.6.52-2.92-2.12-3.52-2.64-5.88-2.96-9.95-2.55-4.07.42-6.57,3.33-8.29,6.34-1.46,2.56-2.71,6.46-3.06,7.57-.03,0-.06,0-.09,0-2.61,0-4.73,2.12-4.73,4.73s2.12,4.73,4.73,4.73,4.73-2.12,4.73-4.73c0-1.27-.5-2.42-1.31-3.27.25-.59,1.77-3.68,5.75-3.52,4.4.19,6.62,4.07,8.01,7.92,1.39,3.84,1.89,4.6,1.89,4.6,11.23-3.86,21.82-3.52,31.94,0,0,0,.99-2.47,2.61-6.36,1.62-3.89,4.17-3.94,6.3-3.61,2.52.38,5.44,2.58,6.23,3.21-1.44.81-2.42,2.35-2.42,4.13,0,2.61,2.12,4.73,4.73,4.73s4.73-2.12,4.73-4.73c0-2.38-1.75-4.34-4.03-4.68Z"/>
          <path class="cls-5" d="M85.23,155.78h-2.94v-2.94c0-.8-.65-1.45-1.45-1.45h0c-.8,0-1.45.65-1.45,1.45v2.94h-2.94c-.8,0-1.45.65-1.45,1.45h0c0,.8.65,1.45,1.45,1.45h2.94v2.94c0,.8.65,1.45,1.45,1.45h0c.8,0,1.45-.65,1.45-1.45v-2.94h2.94c.8,0,1.45-.65,1.45-1.45h0c0-.8-.65-1.45-1.45-1.45Z"/>
          <path class="cls-5" d="M103.16,155.78h-2.94v-2.94c0-.8-.65-1.45-1.45-1.45h0c-.8,0-1.45.65-1.45,1.45v2.94h-2.94c-.8,0-1.45.65-1.45,1.45h0c0,.8.65,1.45,1.45,1.45h2.94v2.94c0,.8.65,1.45,1.45,1.45h0c.8,0,1.45-.65,1.45-1.45v-2.94h2.94c.8,0,1.45-.65,1.45-1.45h0c0-.8-.65-1.45-1.45-1.45Z"/>
        </g>
      </g>
    </g>
  </g>
</svg>