<?xml version="1.0" encoding="UTF-8"?>
<svg id="Posiciones_copy" xmlns="http://www.w3.org/2000/svg" xmlns:xlink="http://www.w3.org/1999/xlink" viewBox="0 0 178.58 249.45">
  <defs>
    <style>
      .cls-1 {
        filter: url(#drop-shadow-2);
      }

      .cls-2 {
        fill: #f2b043;
      }

      .cls-3 {
        fill: none;
        stroke: #f2b043;
        stroke-miterlimit: 10;
        stroke-width: 4px;
      }

      .cls-4 {
        fill: url(#linear-gradient-2);
        opacity: .5;
      }

      .cls-5 {
        fill: #fff;
      }

      .cls-6 {
        fill: #e58b3f;
      }

      .cls-7 {
        fill: url(#linear-gradient);
        filter: url(#outer-glow-1);
      }

      .cls-8 {
        clip-path: url(#clippath);
      }
    </style>
    <linearGradient id="linear-gradient" x1="42.15" y1="224.85" x2="136.22" y2="61.91" gradientUnits="userSpaceOnUse">
      <stop offset="0" stop-color="#bcb3c1"/>
      <stop offset=".04" stop-color="#9b939f"/>
      <stop offset=".09" stop-color="#7d7680"/>
      <stop offset=".14" stop-color="#655f68"/>
      <stop offset=".2" stop-color="#544e56"/>
      <stop offset=".26" stop-color="#4a454c"/>
      <stop offset=".33" stop-color="#474249"/>
      <stop offset=".43" stop-color="#5b545a"/>
      <stop offset=".63" stop-color="#908488"/>
      <stop offset=".92" stop-color="#e4cfd0"/>
      <stop offset="1" stop-color="#fde6e6"/>
    </linearGradient>
    <filter id="outer-glow-1" filterUnits="userSpaceOnUse">
      <feOffset dx="0" dy="0"/>
      <feGaussianBlur result="blur" stdDeviation="6.24"/>
      <feFlood flood-color="#efdbb2" flood-opacity=".8"/>
      <feComposite in2="blur" operator="in"/>
      <feComposite in="SourceGraphic"/>
    </filter>
    <clipPath id="clippath">
      <path class="cls-6" d="M89.28,54.56c2.13,0,4.25.28,6.32.84l45.8,13.45,9.49,1.53-.36,146.31s-61.26,19.27-61.26,19.27l-61.26-19.27-.36-146.31,9.49-1.53,45.8-13.45c2.07-.56,4.2-.84,6.32-.84"/>
    </clipPath>
    <linearGradient id="linear-gradient-2" x1="89.28" y1="35.41" x2="89.28" y2="241.08" gradientUnits="userSpaceOnUse">
      <stop offset="0" stop-color="#e45234"/>
      <stop offset=".1" stop-color="#e45434" stop-opacity=".97"/>
      <stop offset=".23" stop-color="#e55b35" stop-opacity=".9"/>
      <stop offset=".39" stop-color="#e66737" stop-opacity=".78"/>
      <stop offset=".56" stop-color="#e87739" stop-opacity=".6"/>
      <stop offset=".74" stop-color="#eb8c3d" stop-opacity=".38"/>
      <stop offset=".92" stop-color="#eea541" stop-opacity=".12"/>
      <stop offset="1" stop-color="#f0b143" stop-opacity="0"/>
    </linearGradient>
    <filter id="drop-shadow-2" filterUnits="userSpaceOnUse">
      <feOffset dx="0" dy="0"/>
      <feGaussianBlur result="blur-2" stdDeviation="3.4"/>
      <feFlood flood-color="#231f20" flood-opacity=".75"/>
      <feComposite in2="blur-2" operator="in"/>
      <feComposite in="SourceGraphic"/>
    </filter>
  </defs>
  <g id="SELECTED">
    <g>
      <g>
        <path class="cls-2" d="M28.32,33.06c8.62,10.7,17.23,21.39,26.09,32.4,10.03-17.33,19.94-34.46,29.85-51.6l.37.11c0,.61,0,1.21,0,1.82,0,11.68.03,23.36-.05,35.04,0,1.31-.41,2.77-1.07,3.91-4.38,7.62-8.88,15.18-13.33,22.76-.25.42-.43.88-.67,1.38h15.05v38.9H28.06v-35.62c4.48-.42,8.9-.84,13.66-1.29-2.63-3.51-5.06-6.75-7.49-10-1.11-1.48-2.07-3.1-3.36-4.4-2.52-2.56-3.11-5.51-3-9.02.23-7.46.07-14.93.07-22.4,0-.61,0-1.22,0-1.83.13-.05.25-.1.38-.15Z"/>
        <path class="cls-2" d="M94.24,117.84v-38.97h15.07c-.35-.66-.64-1.24-.97-1.81-4.45-7.58-8.93-15.15-13.35-22.74-.43-.74-.82-1.64-.83-2.46-.05-12.31-.04-24.63-.03-36.94,0-.29.07-.57.17-1.41,10.15,17.55,20.04,34.65,30.05,51.95,8.82-10.95,17.48-21.69,26.38-32.75.08.87.16,1.34.16,1.81,0,8.81.03,17.61-.04,26.42,0,.92-.42,1.99-.97,2.74-4.15,5.64-8.39,11.22-12.85,17.16,4.75.46,9.19.89,13.74,1.33v35.68h-56.55Z"/>
        <path class="cls-2" d="M52.94,52.65c-4.65-5.78-9.13-11.36-13.62-16.93l.21-.29c6.07,2.83,12.13,5.66,18.39,8.57-1.67,2.9-3.26,5.66-4.99,8.65Z"/>
        <path class="cls-2" d="M125.84,52.64c-1.71-2.95-3.3-5.69-5-8.63,6.25-2.92,12.32-5.76,18.4-8.59.08.09.16.17.24.26-4.5,5.61-9.01,11.21-13.64,16.97Z"/>
      </g>
      <path class="cls-7" d="M89.28,54.56c2.13,0,4.25.28,6.32.84l45.8,13.45,9.49,1.53-.36,146.31s-61.26,19.27-61.26,19.27l-61.26-19.27-.36-146.31,9.49-1.53,45.8-13.45c2.07-.56,4.2-.84,6.32-.84"/>
      <g>
        <path class="cls-6" d="M89.28,54.56c2.13,0,4.25.28,6.32.84l45.8,13.45,9.49,1.53-.36,146.31s-61.26,19.27-61.26,19.27l-61.26-19.27-.36-146.31,9.49-1.53,45.8-13.45c2.07-.56,4.2-.84,6.32-.84"/>
        <g class="cls-8">
          <circle class="cls-4" cx="89.28" cy="138.24" r="102.83"/>
        </g>
      </g>
      <path class="cls-3" d="M89.28,54.56c2.13,0,4.25.28,6.32.84l45.66,13.41c.09.03.19.05.28.06l7.38,1.19c1.13.18,1.96,1.16,1.96,2.3l-.35,142.62c0,1.01-.66,1.91-1.63,2.21l-58.94,18.54c-.45.14-.94.14-1.4,0l-58.94-18.54c-.97-.3-1.63-1.2-1.63-2.21l-.35-142.62c0-1.14.83-2.12,1.96-2.3l7.38-1.19c.1-.02.19-.04.28-.06l45.66-13.41c2.07-.56,4.2-.84,6.32-.84"/>
      <g class="cls-1">
        <g id="Layer_2-2">
          <g>
            <g>
              <path class="cls-5" d="M76.41,168.11c-.39-.33-.27-1.71.15-3.7s.81-3.4,1.41-3.58,6.51,1.41,8.32,1.92c1.64.47,5.67,2.49,6.35,2.83.03-.07.05-.15.08-.22.25-2-1.02-3.88-2.97-4.39-4.45-1.55-9.14-2.74-14.02-3.67-1.58-.41-3.19.49-3.67,2.05l-2.29,7.57c-.44,1.47.41,3.01,1.89,3.41,5.68,1.08,11.34,2.66,16.99,4.65,1.46.4,2.94-.58,3.13-2.09v-.33c-1.33-.42-5.94-1.84-6.92-2.19-1.15-.42-8.05-1.95-8.44-2.29v.02Z"/>
              <path class="cls-5" d="M86.02,163.94c-1.77-.63-6.51-1.86-7.18-1.71-.66.15-.84.6-1.23,2.44s-.43,1.8-.15,2.44c.28.63,5.91,1.56,7.51,2.01,1.32.38,5.42,1.71,6.8,2.16.03-1.66.18-3.17.49-4.46-1.29-.64-4.8-2.35-6.24-2.87h0Z"/>
            </g>
            <g>
              <path class="cls-5" d="M108.35,125.86c0-1.69-1.38-3.07-3.07-3.07-1.49,0-2.74,1.08-3.01,2.49h0c-.71,2.11-2.44,4.57-2.44,4.57,0,0,1.43-6.14,1.6-7.07.15-.76.94-4.82,1.23-6.28.03-.1.04-.21.06-.32.03-.13.04-.21.04-.21h-.02c.02-.13.04-.25.04-.38,0-2.09-1.69-3.78-3.78-3.78s-3.78,1.69-3.78,3.78c0,0-.12,4.1-.5,5.76-.39,1.64-1.82,4.68-1.82,4.68,0,0,.43-8.37.52-10.01-.12,2.29-.18-7.9-.18-7.9,0-2.29-1.86-4.15-4.15-4.15s-4.15,1.86-4.15,4.15c0,.2.03.39.06.58h-.02v8.97s-.48,3.55-.79,4.9c-.3,1.34-1,2.08-1,2.08l-2.6-5.03-2.94-7.15-.78-2.33h-.02c-.55-1.64-2.09-2.84-3.92-2.84-2.29,0-4.15,1.86-4.15,4.15,0,.8.23,1.53.63,2.17h0s2.74,6.17,3.14,7.35,1.52,5.42,1.69,6.59-.04,5.9-.04,5.9c0,0-.25,1.43-1.25,1.95-1,.52-2.82-.19-2.82-.19l-4.35-2.99h0c-.8-.86-1.94-1.42-3.23-1.42-2.44,0-4.4,1.97-4.4,4.4,0,1.45.71,2.73,1.79,3.53h0l9.25,7.46c2.27,2.44,3.87,4.94,4.55,7.5.38,1.18.9,1.89,1.6,2.08,0,0,6.65,1.7,7.42,1.91.78.21,6.66,1.78,6.66,1.78,1.43.31,2.39-.62,2.98-1.95.6-1.33,4.12-9.3,5.36-11.59,1.23-2.29,7.46-10.98,8.38-12.71.93-1.74,2.14-6.57,2.14-6.57h0c.07-.25.11-.5.11-.77v-.02ZM98.85,137.77s-2.69,3.95-3.45,5.06-2.38,4.29-2.38,4.29c0,0,.71-2.47,1.61-4.21s2.64-4.18,2.64-4.18c.97-1.37,1.08-2.4,0-2.97,0,0-5.06-2.38-6.66-2.97s-9.42-1.9-9.42-1.9c-.99-.15-1.51.13-1.5.88,0,0-.18,4.34-.4,5.42s-2.02,6.66-2.02,6.66c0,0,.95-5.24,1.13-6.71.18-1.46.4-6.37.4-6.37.36-.79,1.26-1,2.42-.92,0,0,7.66.97,10.04,1.84,2.38.87,7.37,3.59,7.37,3.59.63.69.83,1.49.22,2.49h0Z"/>
              <path class="cls-5" d="M93.41,116.04h0c.03-.4.02-.35,0,0Z"/>
            </g>
          </g>
        </g>
        <g>
          <path class="cls-5" d="M72.03,210.45h-7.11v-17.34h13.14c7.01,0,8.69,2.42,8.69,5.9v.33c0,3.56-1.77,6.15-8.69,6.15h-6.04v4.96ZM77.37,200.73c1.68,0,2-.72,2-1.44v-.05c0-.63-.33-1.37-2-1.37h-5.34v2.87h5.34Z"/>
          <path class="cls-5" d="M113.04,201.38v.7c0,3.4-1.65,8.67-11.58,8.67h-1.07c-9.86,0-11.56-5.27-11.56-8.67v-.7c0-3.47,1.72-8.57,11.56-8.57h1.07c9.9,0,11.58,5.1,11.58,8.57ZM100.93,197.93c-4.17,0-4.66,2.26-4.66,3.63v.23c0,1.42.61,3.73,4.68,3.73s4.64-2.31,4.64-3.73v-.23c0-1.37-.56-3.63-4.66-3.63Z"/>
        </g>
        <g>
          <rect class="cls-5" x="120.7" y="96.39" width="2.89" height="18.07" rx="1.03" ry="1.03"/>
          <rect class="cls-5" x="120.7" y="96.39" width="2.89" height="18.07" rx="1.03" ry="1.03" transform="translate(227.56 -16.72) rotate(90)"/>
        </g>
      </g>
    </g>
  </g>
</svg>