<?xml version="1.0" encoding="UTF-8"?>
<svg id="Posiciones_copy" xmlns="http://www.w3.org/2000/svg" xmlns:xlink="http://www.w3.org/1999/xlink" viewBox="0 0 178.58 249.45">
  <defs>
    <style>
      .cls-1 {
        filter: url(#drop-shadow-2);
      }

      .cls-2 {
        fill: #f2b043;
      }

      .cls-3 {
        stroke: #f2b043;
        stroke-width: 4px;
      }

      .cls-3, .cls-4 {
        fill: none;
        stroke-miterlimit: 10;
      }

      .cls-5 {
        fill: url(#linear-gradient-2);
        opacity: .5;
      }

      .cls-6 {
        fill: #fff;
      }

      .cls-7 {
        fill: #e58b3f;
      }

      .cls-8 {
        fill: url(#linear-gradient);
        filter: url(#outer-glow-1);
      }

      .cls-9 {
        clip-path: url(#clippath);
      }

      .cls-4 {
        stroke: #fff;
        stroke-width: 2px;
      }
    </style>
    <linearGradient id="linear-gradient" x1="42.15" y1="224.85" x2="136.22" y2="61.91" gradientUnits="userSpaceOnUse">
      <stop offset="0" stop-color="#bcb3c1"/>
      <stop offset=".04" stop-color="#9b939f"/>
      <stop offset=".09" stop-color="#7d7680"/>
      <stop offset=".14" stop-color="#655f68"/>
      <stop offset=".2" stop-color="#544e56"/>
      <stop offset=".26" stop-color="#4a454c"/>
      <stop offset=".33" stop-color="#474249"/>
      <stop offset=".43" stop-color="#5b545a"/>
      <stop offset=".63" stop-color="#908488"/>
      <stop offset=".92" stop-color="#e4cfd0"/>
      <stop offset="1" stop-color="#fde6e6"/>
    </linearGradient>
    <filter id="outer-glow-1" filterUnits="userSpaceOnUse">
      <feOffset dx="0" dy="0"/>
      <feGaussianBlur result="blur" stdDeviation="6.24"/>
      <feFlood flood-color="#efdbb2" flood-opacity=".8"/>
      <feComposite in2="blur" operator="in"/>
      <feComposite in="SourceGraphic"/>
    </filter>
    <clipPath id="clippath">
      <path class="cls-7" d="M89.28,54.56c2.13,0,4.25.28,6.32.84l45.8,13.45,9.49,1.53-.36,146.31s-61.26,19.27-61.26,19.27l-61.26-19.27-.36-146.31,9.49-1.53,45.8-13.45c2.07-.56,4.2-.84,6.32-.84"/>
    </clipPath>
    <linearGradient id="linear-gradient-2" x1="89.28" y1="35.41" x2="89.28" y2="241.08" gradientUnits="userSpaceOnUse">
      <stop offset="0" stop-color="#e45234"/>
      <stop offset=".1" stop-color="#e45434" stop-opacity=".97"/>
      <stop offset=".23" stop-color="#e55b35" stop-opacity=".9"/>
      <stop offset=".39" stop-color="#e66737" stop-opacity=".78"/>
      <stop offset=".56" stop-color="#e87739" stop-opacity=".6"/>
      <stop offset=".74" stop-color="#eb8c3d" stop-opacity=".38"/>
      <stop offset=".92" stop-color="#eea541" stop-opacity=".12"/>
      <stop offset="1" stop-color="#f0b143" stop-opacity="0"/>
    </linearGradient>
    <filter id="drop-shadow-2" filterUnits="userSpaceOnUse">
      <feOffset dx="0" dy="0"/>
      <feGaussianBlur result="blur-2" stdDeviation="3.4"/>
      <feFlood flood-color="#231f20" flood-opacity=".75"/>
      <feComposite in2="blur-2" operator="in"/>
      <feComposite in="SourceGraphic"/>
    </filter>
  </defs>
  <g id="SELECTED">
    <g>
      <g>
        <path class="cls-2" d="M28.32,33.06c8.62,10.7,17.23,21.39,26.09,32.4,10.03-17.33,19.94-34.46,29.85-51.6l.37.11c0,.61,0,1.21,0,1.82,0,11.68.03,23.36-.05,35.04,0,1.31-.41,2.77-1.07,3.91-4.38,7.62-8.88,15.18-13.33,22.76-.25.42-.43.88-.67,1.38h15.05v38.9H28.06v-35.62c4.48-.42,8.9-.84,13.66-1.29-2.63-3.51-5.06-6.75-7.49-10-1.11-1.48-2.07-3.1-3.36-4.4-2.52-2.56-3.11-5.51-3-9.02.23-7.46.07-14.93.07-22.4,0-.61,0-1.22,0-1.83.13-.05.25-.1.38-.15Z"/>
        <path class="cls-2" d="M94.24,117.84v-38.97h15.07c-.35-.66-.64-1.24-.97-1.81-4.45-7.58-8.93-15.15-13.35-22.74-.43-.74-.82-1.64-.83-2.46-.05-12.31-.04-24.63-.03-36.94,0-.29.07-.57.17-1.41,10.15,17.55,20.04,34.65,30.05,51.95,8.82-10.95,17.48-21.69,26.38-32.75.08.87.16,1.34.16,1.81,0,8.81.03,17.61-.04,26.42,0,.92-.42,1.99-.97,2.74-4.15,5.64-8.39,11.22-12.85,17.16,4.75.46,9.19.89,13.74,1.33v35.68h-56.55Z"/>
        <path class="cls-2" d="M52.94,52.65c-4.65-5.78-9.13-11.36-13.62-16.93l.21-.29c6.07,2.83,12.13,5.66,18.39,8.57-1.67,2.9-3.26,5.66-4.99,8.65Z"/>
        <path class="cls-2" d="M125.84,52.64c-1.71-2.95-3.3-5.69-5-8.63,6.25-2.92,12.32-5.76,18.4-8.59.08.09.16.17.24.26-4.5,5.61-9.01,11.21-13.64,16.97Z"/>
      </g>
      <path class="cls-8" d="M89.28,54.56c2.13,0,4.25.28,6.32.84l45.8,13.45,9.49,1.53-.36,146.31s-61.26,19.27-61.26,19.27l-61.26-19.27-.36-146.31,9.49-1.53,45.8-13.45c2.07-.56,4.2-.84,6.32-.84"/>
      <g>
        <path class="cls-7" d="M89.28,54.56c2.13,0,4.25.28,6.32.84l45.8,13.45,9.49,1.53-.36,146.31s-61.26,19.27-61.26,19.27l-61.26-19.27-.36-146.31,9.49-1.53,45.8-13.45c2.07-.56,4.2-.84,6.32-.84"/>
        <g class="cls-9">
          <circle class="cls-5" cx="89.28" cy="138.24" r="102.83"/>
        </g>
      </g>
      <path class="cls-3" d="M89.28,54.56c2.13,0,4.25.28,6.32.84l45.66,13.41c.09.03.19.05.28.06l7.38,1.19c1.13.18,1.96,1.16,1.96,2.3l-.35,142.62c0,1.01-.66,1.91-1.63,2.21l-58.94,18.54c-.45.14-.94.14-1.4,0l-58.94-18.54c-.97-.3-1.63-1.2-1.63-2.21l-.35-142.62c0-1.14.83-2.12,1.96-2.3l7.38-1.19c.1-.02.19-.04.28-.06l45.66-13.41c2.07-.56,4.2-.84,6.32-.84"/>
      <g class="cls-1">
        <g id="Layer_2-2">
          <g>
            <circle class="cls-4" cx="90.17" cy="136.24" r="19.51"/>
            <circle class="cls-4" cx="90.17" cy="136.24" r="9.11"/>
            <path class="cls-6" d="M90.13,120.3c1.05,10.25,1.06,20.61,0,30.87-1.06-10.25-1.05-20.61,0-30.87h0Z"/>
            <path class="cls-6" d="M105.57,135.74c-10.25,1.05-20.61,1.06-30.87,0,10.25-1.06,20.61-1.05,30.87,0h0Z"/>
            <polygon class="cls-6" points="89.75 113.03 90.13 99.41 90.52 113.03 89.75 113.03 89.75 113.03"/>
            <polygon class="cls-6" points="90.52 158.86 90.13 172.48 89.75 158.86 90.52 158.86 90.52 158.86"/>
            <polygon class="cls-6" points="66.84 136.63 53.21 136.24 66.84 135.86 66.84 136.63 66.84 136.63"/>
            <polygon class="cls-6" points="112.66 135.86 126.28 136.24 112.66 136.63 112.66 135.86 112.66 135.86"/>
          </g>
        </g>
        <g>
          <path class="cls-6" d="M73.15,192.56l4.22,8.88,4.26-8.88h9.6v17.34h-6.99v-10.53l-5.06,10.53h-4.08l-5.03-10.53v10.53h-6.85v-17.34h9.93Z"/>
          <path class="cls-6" d="M105.9,192.56c9.72,0,11.81,4.12,11.81,8.25v.7c0,4.12-2.1,8.39-11.81,8.39h-10.93v-17.34h10.93ZM104.85,205.1c4.85,0,5.41-2.19,5.41-3.84v-.14c0-1.56-.56-3.77-5.41-3.77h-2.77v7.76h2.77Z"/>
        </g>
        <path class="cls-6" d="M130.88,104.98h-6.56v-6.56c0-.57-.46-1.03-1.03-1.03h-.83c-.57,0-1.03.46-1.03,1.03v6.56h-6.56c-.57,0-1.03.46-1.03,1.03v.83c0,.57.46,1.03,1.03,1.03h6.56v6.56c0,.57.46,1.03,1.03,1.03h.83c.57,0,1.03-.46,1.03-1.03v-6.56h6.56c.57,0,1.03-.46,1.03-1.03v-.83c0-.57-.46-1.03-1.03-1.03Z"/>
      </g>
    </g>
  </g>
</svg>