<?xml version="1.0" encoding="UTF-8"?>
<svg id="Layer_2" xmlns="http://www.w3.org/2000/svg" viewBox="0 0 69 74">
  <defs>
    <style>
      .cls-1 {
        fill: #fff;
      }
    </style>
  </defs>
  <g id="Layer_2-2" data-name="Layer_2">
    <g>
      <g>
        <polygon class="cls-1" points="33.96 0 11.68 0 0 26.84 15.29 60 33.64 74 33.64 70.7 16.98 58.63 2.33 26.76 13.19 2.2 33.96 2.13 33.96 0"/>
        <path class="cls-1" d="M13.6,3.35L3.47,27.32l14.54,31.1,15.77,11.34.18-66.4H13.6ZM20.94,54.01l-11.27-27.53,6.21-14.16-4.91,14.52,10.98,26.01,4.84,4.05.65-17.12.43,19.29-6.94-5.06Z"/>
      </g>
      <g>
        <polygon class="cls-1" points="35.04 0 57.32 0 69 26.84 53.71 60 35.36 74 35.36 70.7 52.02 58.63 66.67 26.76 55.81 2.2 35.04 2.13 35.04 0"/>
        <path class="cls-1" d="M35.04,3.35l.18,66.4,15.77-11.34,14.54-31.1L55.4,3.35h-20.36ZM41.12,59.06l.43-19.29.65,17.12,4.84-4.05,10.98-26.01-4.91-14.52,6.21,14.16-11.27,27.53-6.94,5.06Z"/>
      </g>
    </g>
  </g>
</svg>