<?xml version="1.0" encoding="UTF-8"?>
<svg id="Layer_2" xmlns="http://www.w3.org/2000/svg" viewBox="0 0 60.24 85.26">
  <defs>
    <style>
      .cls-1 {
        fill: #fff;
      }
    </style>
  </defs>
  <g id="Layer_2-2" data-name="Layer_2">
    <g>
      <g>
        <path class="cls-1" d="M21.94,76.88c-.47-.4-.32-2.05.18-4.43s.97-4.07,1.69-4.29,7.81,1.69,9.97,2.3c1.97.56,6.8,2.98,7.61,3.39.03-.08.06-.18.09-.26.3-2.4-1.22-4.65-3.56-5.26-5.33-1.86-10.96-3.29-16.81-4.4-1.89-.49-3.83.59-4.4,2.46l-2.74,9.08c-.53,1.76.49,3.61,2.26,4.09,6.81,1.3,13.6,3.19,20.37,5.58,1.75.48,3.52-.7,3.75-2.51,0-.13,0-.26,0-.4-1.6-.5-7.12-2.21-8.3-2.63-1.38-.5-9.65-2.34-10.12-2.74Z"/>
        <path class="cls-1" d="M33.47,71.87c-2.12-.76-7.81-2.23-8.61-2.05-.79.18-1.01.72-1.48,2.92-.47,2.2-.52,2.16-.18,2.92.34.75,7.09,1.87,9,2.41,1.58.45,6.5,2.05,8.15,2.59.03-1.99.21-3.8.59-5.35-1.55-.77-5.76-2.82-7.48-3.44Z"/>
      </g>
      <g>
        <path class="cls-1" d="M60.24,26.23c0-2.03-1.65-3.68-3.68-3.68-1.79,0-3.29,1.29-3.61,2.99,0,0,0,0,0,.01-.85,2.52-2.93,5.47-2.93,5.47,0,0,1.71-7.36,1.92-8.47.18-.91,1.13-5.78,1.47-7.53.03-.12.05-.25.07-.38.03-.15.05-.25.05-.25h-.02c.02-.15.05-.3.05-.46,0-2.5-2.03-4.53-4.53-4.53s-4.53,2.03-4.53,4.53c0,0-.14,4.92-.6,6.9-.47,1.97-2.18,5.61-2.18,5.61,0,0,.52-10.03.62-12-.14,2.75-.22-9.47-.22-9.47,0-2.75-2.23-4.98-4.98-4.98s-4.98,2.23-4.98,4.98c0,.24.04.47.07.7h-.02v10.75s-.58,4.26-.95,5.87c-.36,1.61-1.2,2.49-1.2,2.49l-3.12-6.03-3.53-8.57-.94-2.79h-.02c-.66-1.97-2.5-3.41-4.7-3.41-2.75,0-4.98,2.23-4.98,4.98,0,.96.28,1.84.75,2.6h-.01s3.29,7.4,3.76,8.81,1.82,6.5,2.03,7.9-.05,7.07-.05,7.07c0,0-.3,1.71-1.5,2.34-1.2.62-3.38-.23-3.38-.23l-5.22-3.58h0c-.96-1.03-2.33-1.7-3.87-1.7-2.92,0-5.28,2.36-5.28,5.28,0,1.74.85,3.27,2.15,4.23h-.01s11.09,8.94,11.09,8.94c2.72,2.93,4.64,5.92,5.46,8.99.45,1.41,1.08,2.26,1.92,2.49,0,0,7.97,2.04,8.89,2.29.93.25,7.99,2.13,7.99,2.13,1.72.37,2.86-.74,3.57-2.34.72-1.6,4.94-11.15,6.43-13.89,1.48-2.74,8.94-13.16,10.05-15.24,1.11-2.08,2.57-7.88,2.57-7.88,0,0,0,0,0,0,.08-.3.13-.6.13-.92ZM48.84,40.5s-3.23,4.74-4.13,6.06-2.85,5.14-2.85,5.14c0,0,.85-2.96,1.93-5.05,1.08-2.09,3.16-5.01,3.16-5.01,1.16-1.64,1.3-2.88,0-3.56,0,0-6.07-2.85-7.99-3.56s-11.29-2.28-11.29-2.28c-1.19-.18-1.81.16-1.8,1.05,0,0-.21,5.2-.48,6.5-.27,1.3-2.42,7.99-2.42,7.99,0,0,1.14-6.28,1.36-8.04.22-1.75.48-7.64.48-7.64.43-.95,1.51-1.2,2.9-1.1,0,0,9.18,1.16,12.03,2.2,2.85,1.04,8.83,4.3,8.83,4.3.76.83.99,1.79.26,2.99Z"/>
        <path class="cls-1" d="M42.33,14.45s0,0,0,0c.03-.48.02-.42,0,0Z"/>
      </g>
    </g>
  </g>
</svg>