<?xml version="1.0" encoding="UTF-8"?>
<svg id="Layer_2" xmlns="http://www.w3.org/2000/svg" viewBox="0 0 95 95">
  <defs>
    <style>
      .cls-1 {
        fill: #fff;
      }

      .cls-2 {
        fill: none;
        stroke: #fff;
        stroke-miterlimit: 10;
        stroke-width: 2px;
      }
    </style>
  </defs>
  <g id="Layer_2-2" data-name="Layer_2">
    <g>
      <circle class="cls-2" cx="48.05" cy="47.89" r="25.37"/>
      <circle class="cls-2" cx="48.05" cy="47.89" r="11.84"/>
      <path class="cls-1" d="M48,27.16c1.37,13.33,1.38,26.8,0,40.14-1.38-13.33-1.37-26.8,0-40.14h0Z"/>
      <path class="cls-1" d="M68.07,47.23c-13.33,1.37-26.8,1.38-40.14,0,13.33-1.38,26.8-1.37,40.14,0h0Z"/>
      <polygon class="cls-1" points="47.5 17.71 48 0 48.5 17.71 47.5 17.71 47.5 17.71"/>
      <polygon class="cls-1" points="48.5 77.29 48 95 47.5 77.29 48.5 77.29 48.5 77.29"/>
      <polygon class="cls-1" points="17.71 48.39 0 47.89 17.71 47.39 17.71 48.39 17.71 48.39"/>
      <polygon class="cls-1" points="77.29 47.39 95 47.89 77.29 48.39 77.29 47.39 77.29 47.39"/>
    </g>
  </g>
</svg>