<?xml version="1.0" encoding="UTF-8"?>
<svg id="Canchas" xmlns="http://www.w3.org/2000/svg" viewBox="0 0 1252 1491">
  <defs>
    <style>
      .cls-1 {
        stroke-width: 8px;
      }

      .cls-1, .cls-2 {
        fill: none;
        stroke: #fff;
        stroke-miterlimit: 10;
      }

      .cls-2 {
        stroke-width: 6px;
      }

      .cls-3 {
        fill: #fff;
      }
    </style>
  </defs>
  <ellipse class="cls-3" cx="612.07" cy="755.45" rx="9.95" ry="7.46"/>
  <line class="cls-1" x1="54.71" y1="755.95" x2="363.25" y2="755.95"/>
  <line class="cls-1" x1="869.84" y1="755.95" x2="1171.42" y2="755.95"/>
  <line class="cls-1" x1="47.74" y1="851.5" x2="403.06" y2="851.5"/>
  <line class="cls-1" x1="833.02" y1="851.5" x2="1181.37" y2="851.5"/>
  <line class="cls-1" x1="834.01" y1="654.43" x2="1160.47" y2="654.43"/>
  <line class="cls-1" x1="61.67" y1="654.43" x2="390.12" y2="654.43"/>
  <path class="cls-1" d="M868.85,745.5c9.76,107.65-113.63,195.72-253.8,195.72s-254.6-87.63-253.8-195.72c.8-107.97,114.25-197.53,253.8-195.72,134.01,1.75,244.25,90.45,253.8,195.72Z"/>
  <line class="cls-1" x1="20.87" y1="1262.55" x2="1221.18" y2="1262.55"/>
  <polygon class="cls-1" points="1015.16 1262.55 230.87 1262.55 222.91 1483.5 1028.09 1483.5 1015.16 1262.55"/>
  <polygon class="cls-2" points="807.98 1380.29 436.35 1380.29 432.58 1483.5 814.11 1483.5 807.98 1380.29"/>
  <path class="cls-2" d="M476.84,1262.55s46.64-33.84,143.18-32.84c96.54,1,150.42,32.84,150.42,32.84"/>
  <polygon class="cls-1" points="936.53 221.48 270.68 221.48 278.65 8.49 923.59 8.49 936.53 221.48"/>
  <rect class="cls-2" x="447.84" y="8.49" width="308.54" height="101.52"/>
  <path class="cls-2" d="M470.99,221.48s37.57,38.82,128.14,38.82c105.5,0,139.24-38.82,139.24-38.82"/>
  <line class="cls-1" x1="89.54" y1="221.48" x2="1115.68" y2="221.48"/>
  <polygon class="cls-1" points="1246.06 1483.5 5.94 1483.5 104.47 6.5 1093.78 6.5 1246.06 1483.5"/>
</svg>