<?xml version="1.0" encoding="UTF-8"?>
<svg id="Canchas" xmlns="http://www.w3.org/2000/svg" viewBox="0 0 731 868">
  <defs>
    <style>
      .cls-1 {
        stroke-width: 6px;
      }

      .cls-1, .cls-2 {
        fill: none;
        stroke: #fff;
        stroke-miterlimit: 10;
      }

      .cls-2 {
        stroke-width: 4px;
      }

      .cls-3 {
        fill: #fff;
      }
    </style>
  </defs>
  <ellipse class="cls-3" cx="357.6" cy="441.04" rx="5.76" ry="4.32"/>
  <line class="cls-1" x1="34.97" y1="441.32" x2="213.57" y2="441.32"/>
  <line class="cls-1" x1="506.81" y1="441.32" x2="681.38" y2="441.32"/>
  <line class="cls-1" x1="30.93" y1="496.63" x2="236.61" y2="496.63"/>
  <line class="cls-1" x1="485.5" y1="496.63" x2="687.14" y2="496.63"/>
  <line class="cls-1" x1="486.07" y1="382.56" x2="675.04" y2="382.56"/>
  <line class="cls-1" x1="39" y1="382.56" x2="229.12" y2="382.56"/>
  <path class="cls-1" d="M506.24,435.27c5.65,62.31-65.77,113.29-146.91,113.29s-147.38-50.72-146.91-113.29c.46-62.5,66.13-114.34,146.91-113.29,77.58,1.01,141.39,52.36,146.91,113.29Z"/>
  <line class="cls-1" x1="15.38" y1="734.57" x2="710.19" y2="734.57"/>
  <polygon class="cls-1" points="590.93 734.57 136.94 734.57 132.33 862.47 598.42 862.47 590.93 734.57"/>
  <polygon class="cls-2" points="471 802.73 255.89 802.73 253.7 862.47 474.55 862.47 471 802.73"/>
  <path class="cls-2" d="M279.32,734.57s27-19.59,82.88-19.01,87.07,19.01,87.07,19.01"/>
  <polygon class="cls-1" points="545.42 131.94 159.99 131.94 164.59 8.65 537.93 8.65 545.42 131.94"/>
  <rect class="cls-2" x="262.54" y="8.65" width="178.6" height="58.77"/>
  <path class="cls-2" d="M275.94,131.94s21.74,22.47,74.17,22.47c61.07,0,80.6-22.47,80.6-22.47"/>
  <line class="cls-1" x1="55.13" y1="131.94" x2="649.12" y2="131.94"/>
  <polygon class="cls-1" points="724.59 862.47 6.74 862.47 63.77 7.5 636.44 7.5 724.59 862.47"/>
</svg>