<?xml version="1.0" encoding="UTF-8"?>
<svg id="Posiciones_copy" xmlns="http://www.w3.org/2000/svg" xmlns:xlink="http://www.w3.org/1999/xlink" viewBox="0 0 178.58 249.45">
  <defs>
    <style>
      .cls-1 {
        fill: url(#linear-gradient-5);
      }

      .cls-2 {
        fill: url(#linear-gradient-4);
      }

      .cls-3 {
        fill: url(#linear-gradient-3);
      }

      .cls-4 {
        fill: url(#linear-gradient-2);
      }

      .cls-5 {
        fill: url(#linear-gradient);
      }

      .cls-6 {
        fill: #fff;
      }
    </style>
    <linearGradient id="linear-gradient" x1="56.25" y1="117.88" x2="56.25" y2="13.97" gradientUnits="userSpaceOnUse">
      <stop offset="0" stop-color="#000"/>
      <stop offset=".08" stop-color="#1e1608"/>
      <stop offset=".27" stop-color="#5d4419"/>
      <stop offset=".46" stop-color="#926a28"/>
      <stop offset=".62" stop-color="#bc8834"/>
      <stop offset=".78" stop-color="#d99e3c"/>
      <stop offset=".91" stop-color="#ebab41"/>
      <stop offset="1" stop-color="#f2b043"/>
    </linearGradient>
    <linearGradient id="linear-gradient-2" x1="122.52" y1="117.94" x2="122.52" y2="13.6" xlink:href="#linear-gradient"/>
    <linearGradient id="linear-gradient-3" x1="48.62" y1="52.75" x2="48.62" y2="35.52" xlink:href="#linear-gradient"/>
    <linearGradient id="linear-gradient-4" x1="130.16" y1="52.74" x2="130.16" y2="35.51" xlink:href="#linear-gradient"/>
    <linearGradient id="linear-gradient-5" x1="42.54" y1="224.53" x2="135.84" y2="62.93" gradientUnits="userSpaceOnUse">
      <stop offset="0" stop-color="#e58b3e"/>
      <stop offset=".01" stop-color="#dd8940"/>
      <stop offset=".13" stop-color="#aa7c55"/>
      <stop offset=".23" stop-color="#847364"/>
      <stop offset=".32" stop-color="#6d6e6d"/>
      <stop offset=".37" stop-color="#656c71"/>
      <stop offset=".49" stop-color="#797f83"/>
      <stop offset=".74" stop-color="#aeb1b4"/>
      <stop offset="1" stop-color="#ebebec"/>
    </linearGradient>
  </defs>
  <g id="HOVER">
    <g>
      <g>
        <path class="cls-5" d="M28.32,33.16c8.62,10.7,17.23,21.39,26.09,32.4,10.03-17.33,19.94-34.46,29.85-51.6l.37.11c0,.61,0,1.21,0,1.82,0,11.68.03,23.36-.05,35.04,0,1.31-.41,2.77-1.07,3.91-4.38,7.62-8.88,15.18-13.33,22.76-.25.42-.43.88-.67,1.38h15.05v38.9H28.06v-35.62c4.48-.42,8.9-.84,13.66-1.29-2.63-3.51-5.06-6.75-7.49-10-1.11-1.48-2.07-3.1-3.36-4.4-2.52-2.56-3.11-5.51-3-9.02.23-7.46.07-14.93.07-22.4,0-.61,0-1.22,0-1.83.13-.05.25-.1.38-.15Z"/>
        <path class="cls-4" d="M94.24,117.94v-38.97h15.07c-.35-.66-.64-1.24-.97-1.81-4.45-7.58-8.93-15.15-13.35-22.74-.43-.74-.82-1.64-.83-2.46-.05-12.31-.04-24.63-.03-36.94,0-.29.07-.57.17-1.41,10.15,17.55,20.04,34.65,30.05,51.95,8.82-10.95,17.48-21.69,26.38-32.75.08.87.16,1.34.16,1.81,0,8.81.03,17.61-.04,26.42,0,.92-.42,1.99-.97,2.74-4.15,5.64-8.39,11.22-12.85,17.16,4.75.46,9.19.89,13.74,1.33v35.68h-56.55Z"/>
        <path class="cls-3" d="M52.94,52.75c-4.65-5.78-9.13-11.36-13.62-16.93l.21-.29c6.07,2.83,12.13,5.66,18.39,8.57-1.67,2.9-3.26,5.66-4.99,8.65Z"/>
        <path class="cls-2" d="M125.84,52.74c-1.71-2.95-3.3-5.69-5-8.63,6.25-2.92,12.32-5.76,18.4-8.59.08.09.16.17.24.26-4.5,5.61-9.01,11.21-13.64,16.97Z"/>
      </g>
      <path class="cls-1" d="M89.27,54.66c2.13,0,4.25.28,6.32.84l45.55,13.38c.17.05.34.09.51.11l5.73.93c2.01.33,3.49,2.07,3.49,4.11l-.34,139.73c0,1.81-1.18,3.41-2.91,3.95l-57.11,17.96c-.81.25-1.68.25-2.49,0l-57.11-17.96c-1.73-.54-2.9-2.14-2.91-3.95l-.34-139.73c0-2.04,1.47-3.78,3.49-4.11l5.73-.93c.17-.03.34-.07.51-.11l45.55-13.38c2.07-.56,4.2-.84,6.32-.84"/>
      <g>
        <g id="Layer_2-2">
          <g>
            <g>
              <polygon class="cls-6" points="85.57 102.99 66.12 102.99 55.91 126.43 69.27 155.39 85.29 167.62 85.29 164.74 70.74 154.2 57.95 126.36 67.43 104.91 85.57 104.85 85.57 102.99"/>
              <path class="cls-6" d="M67.79,105.92l-8.85,20.93,12.7,27.16,13.77,9.9.16-57.99h-17.78ZM74.2,150.16l-9.84-24.04,5.42-12.37-4.29,12.68,9.59,22.72,4.23,3.54.57-14.95.38,16.85-6.06-4.42h0Z"/>
            </g>
            <g>
              <polygon class="cls-6" points="86.52 102.99 105.97 102.99 116.18 126.43 102.82 155.39 86.8 167.62 86.8 164.74 101.35 154.2 114.14 126.36 104.66 104.91 86.52 104.85 86.52 102.99"/>
              <path class="cls-6" d="M86.52,105.92l.16,57.99,13.77-9.9,12.7-27.16-8.85-20.93h-17.78ZM91.83,154.57l.38-16.85.57,14.95,4.23-3.54,9.59-22.72-4.29-12.68,5.42,12.37-9.84,24.04-6.06,4.42h0Z"/>
            </g>
          </g>
        </g>
        <g>
          <path class="cls-6" d="M79.29,192.65c9.72,0,11.81,4.12,11.81,8.25v.7c0,4.12-2.1,8.39-11.81,8.39h-10.93v-17.34h10.93ZM78.24,205.19c4.85,0,5.41-2.19,5.41-3.84v-.14c0-1.56-.56-3.77-5.41-3.77h-2.77v7.76h2.77Z"/>
          <path class="cls-6" d="M111.91,197.19h-10.74v2.24h10.42v4.61h-10.42v5.94h-7.13v-17.34h17.87v4.54Z"/>
        </g>
        <g>
          <rect class="cls-6" x="124.23" y="96.46" width="2.89" height="18.07" rx="1.03" ry="1.03"/>
          <rect class="cls-6" x="124.23" y="96.46" width="2.89" height="18.07" rx="1.03" ry="1.03" transform="translate(231.17 -20.19) rotate(90)"/>
        </g>
      </g>
    </g>
  </g>
</svg>