<?xml version="1.0" encoding="UTF-8"?>
<svg id="Posiciones_copy" xmlns="http://www.w3.org/2000/svg" xmlns:xlink="http://www.w3.org/1999/xlink" viewBox="0 0 178.58 249.45">
  <defs>
    <style>
      .cls-1 {
        fill: url(#linear-gradient-5);
      }

      .cls-2 {
        fill: url(#linear-gradient-4);
      }

      .cls-3 {
        fill: url(#linear-gradient-3);
      }

      .cls-4 {
        fill: url(#linear-gradient-2);
      }

      .cls-5 {
        fill: url(#linear-gradient);
      }

      .cls-6 {
        fill: #fff;
      }
    </style>
    <linearGradient id="linear-gradient" x1="56.25" y1="117.88" x2="56.25" y2="13.97" gradientUnits="userSpaceOnUse">
      <stop offset="0" stop-color="#000"/>
      <stop offset=".08" stop-color="#1e1608"/>
      <stop offset=".27" stop-color="#5d4419"/>
      <stop offset=".46" stop-color="#926a28"/>
      <stop offset=".62" stop-color="#bc8834"/>
      <stop offset=".78" stop-color="#d99e3c"/>
      <stop offset=".91" stop-color="#ebab41"/>
      <stop offset="1" stop-color="#f2b043"/>
    </linearGradient>
    <linearGradient id="linear-gradient-2" x1="122.52" y1="117.94" x2="122.52" y2="13.6" xlink:href="#linear-gradient"/>
    <linearGradient id="linear-gradient-3" x1="48.62" y1="52.75" x2="48.62" y2="35.52" xlink:href="#linear-gradient"/>
    <linearGradient id="linear-gradient-4" x1="130.16" y1="52.74" x2="130.16" y2="35.51" xlink:href="#linear-gradient"/>
    <linearGradient id="linear-gradient-5" x1="42.54" y1="224.53" x2="135.84" y2="62.93" gradientUnits="userSpaceOnUse">
      <stop offset="0" stop-color="#e58b3e"/>
      <stop offset=".01" stop-color="#dd8940"/>
      <stop offset=".13" stop-color="#aa7c55"/>
      <stop offset=".23" stop-color="#847364"/>
      <stop offset=".32" stop-color="#6d6e6d"/>
      <stop offset=".37" stop-color="#656c71"/>
      <stop offset=".49" stop-color="#797f83"/>
      <stop offset=".74" stop-color="#aeb1b4"/>
      <stop offset="1" stop-color="#ebebec"/>
    </linearGradient>
  </defs>
  <g id="HOVER">
    <g>
      <g>
        <path class="cls-5" d="M28.32,33.16c8.62,10.7,17.23,21.39,26.09,32.4,10.03-17.33,19.94-34.46,29.85-51.6l.37.11c0,.61,0,1.21,0,1.82,0,11.68.03,23.36-.05,35.04,0,1.31-.41,2.77-1.07,3.91-4.38,7.62-8.88,15.18-13.33,22.76-.25.42-.43.88-.67,1.38h15.05v38.9H28.06v-35.62c4.48-.42,8.9-.84,13.66-1.29-2.63-3.51-5.06-6.75-7.49-10-1.11-1.48-2.07-3.1-3.36-4.4-2.52-2.56-3.11-5.51-3-9.02.23-7.46.07-14.93.07-22.4,0-.61,0-1.22,0-1.83.13-.05.25-.1.38-.15Z"/>
        <path class="cls-4" d="M94.24,117.94v-38.97h15.07c-.35-.66-.64-1.24-.97-1.81-4.45-7.58-8.93-15.15-13.35-22.74-.43-.74-.82-1.64-.83-2.46-.05-12.31-.04-24.63-.03-36.94,0-.29.07-.57.17-1.41,10.15,17.55,20.04,34.65,30.05,51.95,8.82-10.95,17.48-21.69,26.38-32.75.08.87.16,1.34.16,1.81,0,8.81.03,17.61-.04,26.42,0,.92-.42,1.99-.97,2.74-4.15,5.64-8.39,11.22-12.85,17.16,4.75.46,9.19.89,13.74,1.33v35.68h-56.55Z"/>
        <path class="cls-3" d="M52.94,52.75c-4.65-5.78-9.13-11.36-13.62-16.93l.21-.29c6.07,2.83,12.13,5.66,18.39,8.57-1.67,2.9-3.26,5.66-4.99,8.65Z"/>
        <path class="cls-2" d="M125.84,52.74c-1.71-2.95-3.3-5.69-5-8.63,6.25-2.92,12.32-5.76,18.4-8.59.08.09.16.17.24.26-4.5,5.61-9.01,11.21-13.64,16.97Z"/>
      </g>
      <path class="cls-1" d="M89.27,54.66c2.13,0,4.25.28,6.32.84l45.55,13.38c.17.05.34.09.51.11l5.73.93c2.01.33,3.49,2.07,3.49,4.11l-.34,139.73c0,1.81-1.18,3.41-2.91,3.95l-57.11,17.96c-.81.25-1.68.25-2.49,0l-57.11-17.96c-1.73-.54-2.9-2.14-2.91-3.95l-.34-139.73c0-2.04,1.47-3.78,3.49-4.11l5.73-.93c.17-.03.34-.07.51-.11l45.55-13.38c2.07-.56,4.2-.84,6.32-.84"/>
      <g>
        <g>
          <path class="cls-6" d="M65.64,196.54h-10.74v2.24h10.42v4.61h-10.42v5.94h-7.13v-17.34h17.87v4.54Z"/>
          <path class="cls-6" d="M75.97,203.92h10.25v5.41h-17.36v-17.34h7.11v11.93Z"/>
          <path class="cls-6" d="M107.36,196.42h-11v1.86h10.65v4.54h-10.65v2.03h11.16v4.47h-18.29v-17.34h18.13v4.43Z"/>
          <path class="cls-6" d="M117.05,209.33h-8.39l6.73-9.09-6.36-8.25h8.74l3.66,4.94,3.68-4.94h8.06l-6.27,8.27,6.83,9.06h-8.5l-4.1-5.5-4.08,5.5Z"/>
        </g>
        <g>
          <rect class="cls-6" x="126.8" y="93.12" width="2.89" height="18.07" rx="1.03" ry="1.03"/>
          <rect class="cls-6" x="126.8" y="93.12" width="2.89" height="18.07" rx="1.03" ry="1.03" transform="translate(230.4 -26.1) rotate(90)"/>
        </g>
        <g>
          <path class="cls-6" d="M124.4,138.64c-.12-1.33-.7-6.75-2.75-10.95-2.36-4.81-6.76-6.11-11.57-5.6-4.81.51-10.09,4.58-10.09,4.58,0,0-2.22-5.6-1.39-10.51.79-4.65,3.19-6.92,3.45-7.16.83.72,1.91,1.16,3.1,1.16,2.61,0,4.73-2.12,4.73-4.73s-2.12-4.73-4.73-4.73-4.73,2.12-4.73,4.73c0,.3.03.6.08.89-1.11.16-3.96.63-5.83,1.32-2.36.88-5.6,2.5-9.91,6.99-4.31,4.49-5.19,11.61-5.19,11.61,0,0,.6.52-2.92-2.12-3.52-2.64-5.88-2.96-9.95-2.55-4.07.42-6.57,3.33-8.29,6.34-1.46,2.56-2.71,6.46-3.06,7.57-.03,0-.06,0-.09,0-2.61,0-4.73,2.12-4.73,4.73s2.12,4.73,4.73,4.73,4.73-2.12,4.73-4.73c0-1.27-.5-2.42-1.31-3.27.25-.59,1.77-3.68,5.75-3.52,4.4.19,6.62,4.07,8.01,7.92,1.39,3.84,1.89,4.6,1.89,4.6,11.23-3.86,21.82-3.52,31.94,0,0,0,.99-2.47,2.61-6.36,1.62-3.89,4.17-3.94,6.3-3.61,2.52.38,5.44,2.58,6.23,3.21-1.44.81-2.42,2.35-2.42,4.13,0,2.61,2.12,4.73,4.73,4.73s4.73-2.12,4.73-4.73c0-2.38-1.75-4.34-4.03-4.68Z"/>
          <path class="cls-6" d="M85.22,152.43h-2.94v-2.94c0-.8-.65-1.45-1.45-1.45h0c-.8,0-1.45.65-1.45,1.45v2.94h-2.94c-.8,0-1.45.65-1.45,1.45h0c0,.8.65,1.45,1.45,1.45h2.94v2.94c0,.8.65,1.45,1.45,1.45h0c.8,0,1.45-.65,1.45-1.45v-2.94h2.94c.8,0,1.45-.65,1.45-1.45h0c0-.8-.65-1.45-1.45-1.45Z"/>
          <path class="cls-6" d="M103.15,152.43h-2.94v-2.94c0-.8-.65-1.45-1.45-1.45h0c-.8,0-1.45.65-1.45,1.45v2.94h-2.94c-.8,0-1.45.65-1.45,1.45h0c0,.8.65,1.45,1.45,1.45h2.94v2.94c0,.8.65,1.45,1.45,1.45h0c.8,0,1.45-.65,1.45-1.45v-2.94h2.94c.8,0,1.45-.65,1.45-1.45h0c0-.8-.65-1.45-1.45-1.45Z"/>
        </g>
      </g>
    </g>
  </g>
</svg>