<?xml version="1.0" encoding="UTF-8"?>
<svg id="Posiciones_copy" xmlns="http://www.w3.org/2000/svg" xmlns:xlink="http://www.w3.org/1999/xlink" viewBox="0 0 178.58 249.45">
  <defs>
    <style>
      .cls-1 {
        fill: url(#linear-gradient-5);
      }

      .cls-2 {
        fill: url(#linear-gradient-4);
      }

      .cls-3 {
        fill: url(#linear-gradient-3);
      }

      .cls-4 {
        fill: url(#linear-gradient-2);
      }

      .cls-5 {
        fill: url(#linear-gradient);
      }

      .cls-6 {
        fill: #fff;
      }

      .cls-7 {
        fill: none;
        stroke: #fff;
        stroke-miterlimit: 10;
        stroke-width: 2px;
      }
    </style>
    <linearGradient id="linear-gradient" x1="56.25" y1="117.88" x2="56.25" y2="13.97" gradientUnits="userSpaceOnUse">
      <stop offset="0" stop-color="#000"/>
      <stop offset=".08" stop-color="#1e1608"/>
      <stop offset=".27" stop-color="#5d4419"/>
      <stop offset=".46" stop-color="#926a28"/>
      <stop offset=".62" stop-color="#bc8834"/>
      <stop offset=".78" stop-color="#d99e3c"/>
      <stop offset=".91" stop-color="#ebab41"/>
      <stop offset="1" stop-color="#f2b043"/>
    </linearGradient>
    <linearGradient id="linear-gradient-2" x1="122.52" y1="117.94" x2="122.52" y2="13.6" xlink:href="#linear-gradient"/>
    <linearGradient id="linear-gradient-3" x1="48.62" y1="52.75" x2="48.62" y2="35.52" xlink:href="#linear-gradient"/>
    <linearGradient id="linear-gradient-4" x1="130.16" y1="52.74" x2="130.16" y2="35.51" xlink:href="#linear-gradient"/>
    <linearGradient id="linear-gradient-5" x1="42.54" y1="224.53" x2="135.84" y2="62.93" gradientUnits="userSpaceOnUse">
      <stop offset="0" stop-color="#e58b3e"/>
      <stop offset=".01" stop-color="#dd8940"/>
      <stop offset=".13" stop-color="#aa7c55"/>
      <stop offset=".23" stop-color="#847364"/>
      <stop offset=".32" stop-color="#6d6e6d"/>
      <stop offset=".37" stop-color="#656c71"/>
      <stop offset=".49" stop-color="#797f83"/>
      <stop offset=".74" stop-color="#aeb1b4"/>
      <stop offset="1" stop-color="#ebebec"/>
    </linearGradient>
  </defs>
  <g id="HOVER">
    <g>
      <g>
        <path class="cls-5" d="M28.32,33.16c8.62,10.7,17.23,21.39,26.09,32.4,10.03-17.33,19.94-34.46,29.85-51.6l.37.11c0,.61,0,1.21,0,1.82,0,11.68.03,23.36-.05,35.04,0,1.31-.41,2.77-1.07,3.91-4.38,7.62-8.88,15.18-13.33,22.76-.25.42-.43.88-.67,1.38h15.05v38.9H28.06v-35.62c4.48-.42,8.9-.84,13.66-1.29-2.63-3.51-5.06-6.75-7.49-10-1.11-1.48-2.07-3.1-3.36-4.4-2.52-2.56-3.11-5.51-3-9.02.23-7.46.07-14.93.07-22.4,0-.61,0-1.22,0-1.83.13-.05.25-.1.38-.15Z"/>
        <path class="cls-4" d="M94.24,117.94v-38.97h15.07c-.35-.66-.64-1.24-.97-1.81-4.45-7.58-8.93-15.15-13.35-22.74-.43-.74-.82-1.64-.83-2.46-.05-12.31-.04-24.63-.03-36.94,0-.29.07-.57.17-1.41,10.15,17.55,20.04,34.65,30.05,51.95,8.82-10.95,17.48-21.69,26.38-32.75.08.87.16,1.34.16,1.81,0,8.81.03,17.61-.04,26.42,0,.92-.42,1.99-.97,2.74-4.15,5.64-8.39,11.22-12.85,17.16,4.75.46,9.19.89,13.74,1.33v35.68h-56.55Z"/>
        <path class="cls-3" d="M52.94,52.75c-4.65-5.78-9.13-11.36-13.62-16.93l.21-.29c6.07,2.83,12.13,5.66,18.39,8.57-1.67,2.9-3.26,5.66-4.99,8.65Z"/>
        <path class="cls-2" d="M125.84,52.74c-1.71-2.95-3.3-5.69-5-8.63,6.25-2.92,12.32-5.76,18.4-8.59.08.09.16.17.24.26-4.5,5.61-9.01,11.21-13.64,16.97Z"/>
      </g>
      <path class="cls-1" d="M89.27,54.66c2.13,0,4.25.28,6.32.84l45.55,13.38c.17.05.34.09.51.11l5.73.93c2.01.33,3.49,2.07,3.49,4.11l-.34,139.73c0,1.81-1.18,3.41-2.91,3.95l-57.11,17.96c-.81.25-1.68.25-2.49,0l-57.11-17.96c-1.73-.54-2.9-2.14-2.91-3.95l-.34-139.73c0-2.04,1.47-3.78,3.49-4.11l5.73-.93c.17-.03.34-.07.51-.11l45.55-13.38c2.07-.56,4.2-.84,6.32-.84"/>
      <g>
        <g>
          <path class="cls-6" d="M73.41,192.65l4.22,8.88,4.26-8.88h9.6v17.34h-6.99v-10.53l-5.06,10.53h-4.08l-5.03-10.53v10.53h-6.85v-17.34h9.93Z"/>
          <path class="cls-6" d="M106.15,192.65c9.72,0,11.81,4.12,11.81,8.25v.7c0,4.12-2.1,8.39-11.81,8.39h-10.93v-17.34h10.93ZM105.1,205.19c4.85,0,5.41-2.19,5.41-3.84v-.14c0-1.56-.56-3.77-5.41-3.77h-2.77v7.76h2.77Z"/>
        </g>
        <g id="Layer_2-2">
          <g>
            <circle class="cls-7" cx="89.78" cy="133.35" r="19.51"/>
            <circle class="cls-7" cx="89.78" cy="133.35" r="9.11"/>
            <path class="cls-6" d="M89.74,117.4c1.05,10.25,1.06,20.61,0,30.87-1.06-10.25-1.05-20.61,0-30.87h0Z"/>
            <path class="cls-6" d="M105.18,132.84c-10.25,1.05-20.61,1.06-30.87,0,10.25-1.06,20.61-1.05,30.87,0h0Z"/>
            <polygon class="cls-6" points="89.36 110.13 89.74 96.51 90.13 110.13 89.36 110.13 89.36 110.13"/>
            <polygon class="cls-6" points="90.13 155.96 89.74 169.58 89.36 155.96 90.13 155.96 90.13 155.96"/>
            <polygon class="cls-6" points="66.45 133.73 52.83 133.35 66.45 132.96 66.45 133.73 66.45 133.73"/>
            <polygon class="cls-6" points="112.27 132.96 125.89 133.35 112.27 133.73 112.27 132.96 112.27 132.96"/>
          </g>
        </g>
        <g>
          <rect class="cls-6" x="121.6" y="94.49" width="2.89" height="18.07" rx="1.03" ry="1.03"/>
          <rect class="cls-6" x="121.6" y="94.49" width="2.89" height="18.07" rx="1.03" ry="1.03" transform="translate(226.57 -19.53) rotate(90)"/>
        </g>
      </g>
    </g>
  </g>
</svg>