<?xml version="1.0" encoding="UTF-8"?>
<svg id="Posiciones_copy" xmlns="http://www.w3.org/2000/svg" xmlns:xlink="http://www.w3.org/1999/xlink" viewBox="0 0 178.58 249.45">
  <defs>
    <style>
      .cls-1 {
        fill: url(#linear-gradient-5);
      }

      .cls-2 {
        fill: url(#linear-gradient-4);
      }

      .cls-3 {
        fill: url(#linear-gradient-3);
      }

      .cls-4 {
        fill: url(#linear-gradient-2);
      }

      .cls-5 {
        fill: url(#linear-gradient);
      }

      .cls-6 {
        fill: #fff;
      }
    </style>
    <linearGradient id="linear-gradient" x1="56.25" y1="117.88" x2="56.25" y2="13.97" gradientUnits="userSpaceOnUse">
      <stop offset="0" stop-color="#000"/>
      <stop offset=".08" stop-color="#1e1608"/>
      <stop offset=".27" stop-color="#5d4419"/>
      <stop offset=".46" stop-color="#926a28"/>
      <stop offset=".62" stop-color="#bc8834"/>
      <stop offset=".78" stop-color="#d99e3c"/>
      <stop offset=".91" stop-color="#ebab41"/>
      <stop offset="1" stop-color="#f2b043"/>
    </linearGradient>
    <linearGradient id="linear-gradient-2" x1="122.52" y1="117.94" x2="122.52" y2="13.6" xlink:href="#linear-gradient"/>
    <linearGradient id="linear-gradient-3" x1="48.62" y1="52.75" x2="48.62" y2="35.52" xlink:href="#linear-gradient"/>
    <linearGradient id="linear-gradient-4" x1="130.16" y1="52.74" x2="130.16" y2="35.51" xlink:href="#linear-gradient"/>
    <linearGradient id="linear-gradient-5" x1="42.54" y1="224.53" x2="135.84" y2="62.93" gradientUnits="userSpaceOnUse">
      <stop offset="0" stop-color="#e58b3e"/>
      <stop offset=".01" stop-color="#dd8940"/>
      <stop offset=".13" stop-color="#aa7c55"/>
      <stop offset=".23" stop-color="#847364"/>
      <stop offset=".32" stop-color="#6d6e6d"/>
      <stop offset=".37" stop-color="#656c71"/>
      <stop offset=".49" stop-color="#797f83"/>
      <stop offset=".74" stop-color="#aeb1b4"/>
      <stop offset="1" stop-color="#ebebec"/>
    </linearGradient>
  </defs>
  <g id="HOVER">
    <g>
      <g>
        <path class="cls-5" d="M28.32,33.16c8.62,10.7,17.23,21.39,26.09,32.4,10.03-17.33,19.94-34.46,29.85-51.6l.37.11c0,.61,0,1.21,0,1.82,0,11.68.03,23.36-.05,35.04,0,1.31-.41,2.77-1.07,3.91-4.38,7.62-8.88,15.18-13.33,22.76-.25.42-.43.88-.67,1.38h15.05v38.9H28.06v-35.62c4.48-.42,8.9-.84,13.66-1.29-2.63-3.51-5.06-6.75-7.49-10-1.11-1.48-2.07-3.1-3.36-4.4-2.52-2.56-3.11-5.51-3-9.02.23-7.46.07-14.93.07-22.4,0-.61,0-1.22,0-1.83.13-.05.25-.1.38-.15Z"/>
        <path class="cls-4" d="M94.24,117.94v-38.97h15.07c-.35-.66-.64-1.24-.97-1.81-4.45-7.58-8.93-15.15-13.35-22.74-.43-.74-.82-1.64-.83-2.46-.05-12.31-.04-24.63-.03-36.94,0-.29.07-.57.17-1.41,10.15,17.55,20.04,34.65,30.05,51.95,8.82-10.95,17.48-21.69,26.38-32.75.08.87.16,1.34.16,1.81,0,8.81.03,17.61-.04,26.42,0,.92-.42,1.99-.97,2.74-4.15,5.64-8.39,11.22-12.85,17.16,4.75.46,9.19.89,13.74,1.33v35.68h-56.55Z"/>
        <path class="cls-3" d="M52.94,52.75c-4.65-5.78-9.13-11.36-13.62-16.93l.21-.29c6.07,2.83,12.13,5.66,18.39,8.57-1.67,2.9-3.26,5.66-4.99,8.65Z"/>
        <path class="cls-2" d="M125.84,52.74c-1.71-2.95-3.3-5.69-5-8.63,6.25-2.92,12.32-5.76,18.4-8.59.08.09.16.17.24.26-4.5,5.61-9.01,11.21-13.64,16.97Z"/>
      </g>
      <path class="cls-1" d="M89.27,54.66c2.13,0,4.25.28,6.32.84l45.55,13.38c.17.05.34.09.51.11l5.73.93c2.01.33,3.49,2.07,3.49,4.11l-.34,139.73c0,1.81-1.18,3.41-2.91,3.95l-57.11,17.96c-.81.25-1.68.25-2.49,0l-57.11-17.96c-1.73-.54-2.9-2.14-2.91-3.95l-.34-139.73c0-2.04,1.47-3.78,3.49-4.11l5.73-.93c.17-.03.34-.07.51-.11l45.55-13.38c2.07-.56,4.2-.84,6.32-.84"/>
      <g>
        <g id="Layer_2-2">
          <g>
            <g>
              <path class="cls-6" d="M81.31,104.01c-1.01-.85-2.63-.16-3.83.45s-4.99,5.03-6.5,6.94-4,6.67-4,6.67c0,0-.62,1.59-.62,3.74s1.87,4.1,1.87,4.1c0,0,12.04,11.6,15.75,14.86,3.71,3.26,19.39,14.75,20.82,15.66s7.83,3.91,7.83,3.91c0,0,2.73.98,4.8-.8,2.07-1.78,0-6.14,0-6.14,0,0-2.6-4.86-4-6.67-1.41-1.81-4-3.47-4-3.47,0,0-3.28-.62-6.32-1.87-3.04-1.25-6.34-6.9-7.56-9.21-1.22-2.31-2.64-6.13-2.84-7.78l-.8-6.59s-2.95.26-4.8-.53-3.74-2.21-4.17-4.73c-.43-2.52-.36-6.93-.36-6.93,0,0-.24-.76-1.25-1.6h0Z"/>
              <path class="cls-6" d="M80.92,102.63c.59-.71-1.18-3.21-3.84-3.05s-3.13,2.35-3.37,3.05l-1.49,4.46s2.47-3.21,3.95-3.75,2.47-.24,2.47-.24c0,0,1.68.24,2.27-.47Z"/>
              <g>
                <path class="cls-6" d="M97.52,125.42c.57,0,2.82.17,3.63.23-1.06-4.89-.38-11.71-.38-11.71,0,0-.05-3.87-3.37-3.87s-3.82,3.06-3.82,3.06c0,0-.46,8.51.77,12.87.1.34.19.67.29.98l1.25-1.05s.93-.5,1.63-.51Z"/>
                <path class="cls-6" d="M101.59,133.45c.5,0,2.25.13,3.25.2-1.35-2.27-2.58-4.58-3.2-6.26-.05-.14-.1-.29-.15-.45-1.05-.1-3.26-.3-4.01-.3-.99,0-1.33.35-1.33.35l-1.17.98c1.01,2.87,2.16,4.59,3.83,6.96l1.15-.97s.93-.5,1.63-.51h0Z"/>
                <path class="cls-6" d="M105.64,134.98c-1.02-.1-3.32-.31-4.1-.31-.99,0-1.33.35-1.33.35l-.83.69c2.28,2.91,6.52,4.99,7.25,5.43.77.46,3.52.77,3.52.77,0,0-2.27-3.26-4.52-6.93h0Z"/>
              </g>
              <path class="cls-6" d="M76.49,136.12s1.19,1.5-.28,2.6-2.73.28-2.73.28l-2.64-2.1s-.47-1.03,0-2.01.79-1.03.79-1.03c0,0-.28.24-1.1.75s-2.01.28-2.01.28l-2.57-2.6s-.81-1.89.4-3.04,2.78-.59,2.78-.59l7.34,7.45h0Z"/>
              <path class="cls-6" d="M108.89,159.35s-6.39-2.7-11.1-5.74-8.93-8-8.93-8c0,0-1.55-.59-2.73.63s.07,4.02.07,4.02c0,0,1.86,2.41,2.52,2.78s1.16.25,1.98-.29c.39-.26.65-.45.82-.58-.13.15-.3.41-.5.88-.46,1.05-.3,1.78,0,2.15s2.59,2.24,2.59,2.24c0,0,1.24.88,2.67-.29.07-.06.13-.12.19-.18-.53,1.53.91,2.94.91,2.94,0,0,3.16,1.41,3.49,1.47s1.22-.24,1.79-1.08c.28-.4.45-.67.56-.86-.07.19-.13.5-.15,1-.04,1.14.55,1.63.82,1.94s3.06.93,3.36.95,1.53.29,2.47-1.36-.81-2.62-.81-2.62h0Z"/>
            </g>
            <polygon class="cls-6" points="98.58 163.43 59.05 162.59 98.58 161.75 98.58 163.43 98.58 163.43"/>
            <polygon class="cls-6" points="86.13 157.05 64.44 156.21 86.13 155.37 86.13 157.05"/>
            <polygon class="cls-6" points="82.16 150.31 71.31 149.47 82.16 148.63 82.16 150.31"/>
          </g>
        </g>
        <g>
          <path class="cls-6" d="M78.05,192.99c9.72,0,11.81,4.12,11.81,8.25v.7c0,4.12-2.1,8.39-11.81,8.39h-10.93v-17.34h10.93ZM77,205.53c4.85,0,5.41-2.19,5.41-3.84v-.14c0-1.56-.56-3.77-5.41-3.77h-2.77v7.76h2.77Z"/>
          <path class="cls-6" d="M99.91,204.92h10.25v5.41h-17.36v-17.34h7.11v11.93Z"/>
        </g>
        <g>
          <rect class="cls-6" x="120.34" y="94.3" width="2.89" height="18.07" rx="1.03" ry="1.03"/>
          <rect class="cls-6" x="120.34" y="94.3" width="2.89" height="18.07" rx="1.03" ry="1.03" transform="translate(225.11 -18.45) rotate(90)"/>
        </g>
      </g>
    </g>
  </g>
</svg>