<?xml version="1.0" encoding="UTF-8"?>
<svg id="Layer_2" xmlns="http://www.w3.org/2000/svg" viewBox="0 0 70.5 75.9">
  <defs>
    <style>
      .cls-1 {
        fill: #231f20;
      }
    </style>
  </defs>
  <g id="Layer_2-2" data-name="Layer_2">
    <g>
      <g>
        <path class="cls-1" d="M26.46,5.28c-1.2-1.01-3.12-.19-4.55.53s-5.93,5.98-7.72,8.25-4.76,7.93-4.76,7.93c0,0-.74,1.89-.74,4.44s2.22,4.87,2.22,4.87c0,0,14.31,13.79,18.72,17.66s23.04,17.53,24.75,18.61,9.31,4.65,9.31,4.65c0,0,3.25,1.17,5.71-.95s0-7.3,0-7.3c0,0-3.09-5.78-4.76-7.93s-4.76-4.12-4.76-4.12c0,0-3.9-.74-7.51-2.22s-7.54-8.2-8.99-10.95-3.14-7.28-3.38-9.25l-.95-7.83s-3.51.31-5.71-.63-4.45-2.63-4.96-5.62-.43-8.24-.43-8.24c0,0-.28-.9-1.48-1.9Z"/>
        <path class="cls-1" d="M26,3.64c.7-.84-1.4-3.81-4.56-3.63s-3.72,2.79-4,3.63l-1.77,5.3s2.93-3.81,4.7-4.46,2.93-.28,2.93-.28c0,0,2,.28,2.7-.56Z"/>
        <g>
          <path class="cls-1" d="M45.73,30.72c.68-.01,3.35.2,4.31.27-1.26-5.81-.45-13.92-.45-13.92,0,0-.06-4.6-4-4.6s-4.54,3.64-4.54,3.64c0,0-.55,10.12.91,15.3.12.41.23.8.35,1.17l1.48-1.25s1.11-.59,1.94-.61Z"/>
          <path class="cls-1" d="M50.57,40.27c.59-.01,2.68.15,3.86.24-1.6-2.7-3.07-5.44-3.8-7.44-.06-.17-.12-.35-.18-.54-1.25-.12-3.88-.36-4.77-.36-1.18,0-1.58.42-1.58.42l-1.39,1.16c1.2,3.41,2.57,5.45,4.55,8.27l1.37-1.15s1.11-.59,1.94-.61Z"/>
          <path class="cls-1" d="M55.38,42.09c-1.21-.12-3.95-.37-4.87-.37-1.18,0-1.58.42-1.58.42l-.99.82c2.71,3.46,7.75,5.93,8.62,6.45.91.55,4.18.91,4.18.91,0,0-2.7-3.87-5.37-8.24Z"/>
        </g>
        <path class="cls-1" d="M20.73,43.44s1.41,1.78-.33,3.09-3.24.33-3.24.33l-3.14-2.49s-.56-1.22,0-2.39.94-1.22.94-1.22c0,0-.33.28-1.31.89s-2.39.33-2.39.33l-3.05-3.09s-.96-2.25.48-3.61,3.31-.7,3.31-.7l8.72,8.86Z"/>
        <path class="cls-1" d="M59.24,71.05s-7.6-3.21-13.19-6.82-10.61-9.51-10.61-9.51c0,0-1.84-.7-3.25.75-1.41,1.45.08,4.78.08,4.78,0,0,2.21,2.86,2.99,3.31s1.38.3,2.35-.35c.46-.31.77-.54.97-.69-.16.18-.36.49-.6,1.04-.55,1.25-.36,2.11,0,2.55s3.08,2.66,3.08,2.66c0,0,1.47,1.05,3.17-.35.08-.07.15-.14.22-.21-.63,1.82,1.08,3.5,1.08,3.5,0,0,3.76,1.67,4.15,1.75s1.45-.29,2.13-1.28c.33-.47.53-.8.67-1.02-.08.23-.16.59-.18,1.19-.05,1.35.65,1.94.98,2.3s3.64,1.11,3.99,1.13,1.82.34,2.93-1.62-.96-3.11-.96-3.11Z"/>
      </g>
      <polygon points="46.99 75.9 0 74.9 46.99 73.9 46.99 75.9 46.99 75.9"/>
      <polygon points="32.19 68.32 6.41 67.32 32.19 66.32 32.19 68.32 32.19 68.32"/>
      <polygon points="27.47 60.31 14.58 59.31 27.47 58.31 27.47 60.31 27.47 60.31"/>
    </g>
  </g>
</svg>